<svg id="b" xmlns="http://www.w3.org/2000/svg" xmlns:xlink="http://www.w3.org/1999/xlink" width="122.722" height="28" viewBox="0 0 122.722 28">
  <defs>
    <radialGradient id="radial-gradient" cx="0.384" cy="1.077" r="4.118" gradientTransform="translate(0.348) scale(0.303 1)" gradientUnits="objectBoundingBox">
      <stop offset="0.57" stop-color="#ed1c24"/>
      <stop offset="1" stop-color="#853135"/>
    </radialGradient>
    <radialGradient id="radial-gradient-2" cx="0.769" cy="0" r="1.122" gradientTransform="translate(-0.219) scale(1.437 1)" gradientUnits="objectBoundingBox">
      <stop offset="0.44" stop-color="#0089cf"/>
      <stop offset="1" stop-color="#2e3192"/>
    </radialGradient>
    <radialGradient id="radial-gradient-3" cx="4.537" cy="-2.548" r="8.261" gradientTransform="matrix(1, 0, 0, 1, 0, 0)" xlink:href="#radial-gradient-2"/>
    <radialGradient id="radial-gradient-4" cx="0.256" cy="-3.549" r="9.349" gradientTransform="matrix(1, 0, 0, 1, 0, 0)" xlink:href="#radial-gradient-2"/>
    <radialGradient id="radial-gradient-5" cx="-0.582" cy="0.415" r="1.591" gradientTransform="translate(-0.006) scale(1.013 1)" xlink:href="#radial-gradient"/>
  </defs>
  <g id="design">
    <path id="Path_355" data-name="Path 355" d="M0,9.2l4.529,1.823c1.526-.36,2.994-.644,4.357-.836Q10.2,8.828,11.813,7.44A63.56,63.56,0,0,0,0,9.2Z" transform="translate(0 -4.329)" fill="url(#radial-gradient)"/>
    <path id="Path_356" data-name="Path 356" d="M17.707,12.679a41.3,41.3,0,0,0-4.386-.293c.64.059,1.254.138,1.832.226,7.845,1.254,6.54,4.859-2.785,8.175C7.851,10.157,20.153,0,20.153,0,7.286,9.271,5.681,18.073,5.961,22.677a12.127,12.127,0,0,0,.527,3.057c1.673-.51,3.308-1.054,4.863-1.618l.7-.259C25.171,18.93,27.755,13.962,17.707,12.679Z" transform="translate(-3.452)" fill="url(#radial-gradient-2)"/>
    <circle id="Ellipse_3" data-name="Ellipse 3" cx="1.581" cy="1.581" r="1.581" transform="translate(2.333 7.673)" fill="url(#radial-gradient-3)"/>
    <circle id="Ellipse_4" data-name="Ellipse 4" cx="1.397" cy="1.397" r="1.397" transform="translate(15.961 9.534)" fill="url(#radial-gradient-4)"/>
    <path id="Path_357" data-name="Path 357" d="M25.055,15.942c-.452.263-.953.531-1.455.79,1.213-.544,2.354-1.1,3.4-1.673,7.606-4.148,7.6-7.389.326-7.59a29.012,29.012,0,0,0-1.94,2.48C31.5,9.682,31.4,12.321,25.055,15.942Z" transform="translate(-13.731 -4.346)" fill="url(#radial-gradient-5)"/>
    <path id="Path_358" data-name="Path 358" d="M96.884,57.468a1.386,1.386,0,0,1,0,.18,1.225,1.225,0,0,1,1.066-.51,1.351,1.351,0,0,1,.991.364,1.635,1.635,0,0,1,.418,1.2,1.363,1.363,0,0,1-1.413,1.543,1.229,1.229,0,0,1-1.058-.5,1.443,1.443,0,0,0,0,.167v.64a4.67,4.67,0,0,0,.059.673H96.19a6.026,6.026,0,0,0,.033-.686V57.915a5.68,5.68,0,0,0-.033-.7h.694Zm.933.23a1,1,0,0,0,0,2c.51,0,.836-.389.836-1S98.344,57.7,97.817,57.7Z" transform="translate(-55.967 -33.244)" fill="#808285"/>
    <path id="Path_359" data-name="Path 359" d="M107.045,57.89a1.576,1.576,0,0,0-.464-.084.744.744,0,0,0-.606.255.836.836,0,0,0-.213.523v.966a5.737,5.737,0,0,0,.033.677h-.744a5.909,5.909,0,0,0,.038-.677V57.911a4.426,4.426,0,0,0-.038-.682h.711v.493a1,1,0,0,1,.979-.548,2.621,2.621,0,0,1,.485.054Z" transform="translate(-61.122 -33.264)" fill="#808285"/>
    <path id="Path_360" data-name="Path 360" d="M110.853,58.81a1.551,1.551,0,1,1,1.564,1.593,1.472,1.472,0,0,1-1.564-1.593Zm.673,0c0,.64.335,1.037.878,1.037s.878-.389.878-1.029-.318-1.058-.874-1.058S111.526,58.157,111.526,58.81Z" transform="translate(-64.495 -33.34)" fill="#808285"/>
    <path id="Path_361" data-name="Path 361" d="M119.373,56.153a3.479,3.479,0,0,0-.493.033v-.611a3.416,3.416,0,0,0,.489.029h.213v-.276c0-.648.33-.949,1.041-.949a1.84,1.84,0,0,1,.644.1l-.138.548a.882.882,0,0,0-.464-.125c-.305,0-.418.125-.418.485V55.6h.247a5.679,5.679,0,0,0,.59-.029v.611a4.449,4.449,0,0,0-.581-.033h-.255v1.773a5.311,5.311,0,0,0,.038.677h-.744a5.856,5.856,0,0,0,.033-.677V56.153Z" transform="translate(-69.169 -31.64)" fill="#808285"/>
    <path id="Path_362" data-name="Path 362" d="M125.834,58.852a.962.962,0,0,0,.192.585.876.876,0,0,0,1.28.029.765.765,0,0,0,.151-.272l.615.2a1.413,1.413,0,0,1-1.392.882,1.6,1.6,0,0,1-.038-3.191,1.326,1.326,0,0,1,1.3.836,2.15,2.15,0,0,1,.151.795v.146Zm1.589-.519a.794.794,0,0,0-.23-.5.744.744,0,0,0-.56-.2.782.782,0,0,0-.786.707Z" transform="translate(-72.824 -33.215)" fill="#808285"/>
    <path id="Path_363" data-name="Path 363" d="M133.835,59.2c.088.355.28.5.69.5s.623-.151.623-.418a.309.309,0,0,0-.134-.259c-.1-.071-.13-.075-.548-.167a3.32,3.32,0,0,1-.753-.226.753.753,0,0,1-.46-.694.769.769,0,0,1,.163-.485,1.254,1.254,0,0,1,1.045-.418,1.405,1.405,0,0,1,.979.305,1.008,1.008,0,0,1,.284.514l-.69.092c-.059-.289-.234-.418-.573-.418s-.544.146-.544.364a.284.284,0,0,0,.163.247,2.2,2.2,0,0,0,.519.159,2.154,2.154,0,0,1,.92.318.736.736,0,0,1,.3.644.836.836,0,0,1-.255.59,1.53,1.53,0,0,1-1.079.343,1.376,1.376,0,0,1-1.162-.464,1.141,1.141,0,0,1-.2-.468Z" transform="translate(-77.455 -33.182)" fill="#808285"/>
    <path id="Path_364" data-name="Path 364" d="M141.229,59.2c.088.355.28.5.69.5s.627-.151.627-.418a.314.314,0,0,0-.138-.259c-.1-.071-.13-.075-.548-.167a3.32,3.32,0,0,1-.753-.226.753.753,0,0,1-.46-.694.769.769,0,0,1,.163-.485,1.254,1.254,0,0,1,1.045-.418,1.4,1.4,0,0,1,.978.305,1.008,1.008,0,0,1,.284.514l-.69.092c-.059-.289-.234-.418-.573-.418s-.544.146-.544.364a.284.284,0,0,0,.163.247A2.191,2.191,0,0,0,142,58.3a2.154,2.154,0,0,1,.916.318.736.736,0,0,1,.305.644.836.836,0,0,1-.259.59,1.526,1.526,0,0,1-1.079.343,1.376,1.376,0,0,1-1.167-.431,1.141,1.141,0,0,1-.2-.468Z" transform="translate(-81.754 -33.182)" fill="#808285"/>
    <path id="Path_365" data-name="Path 365" d="M149,54.54V55.2h-.769V54.54Zm0,1.158a4.315,4.315,0,0,0-.029.707v1.627a4.763,4.763,0,0,0,.038.686h-.765a4.4,4.4,0,0,0,.042-.677V56.38a4.1,4.1,0,0,0-.042-.682Z" transform="translate(-86.246 -31.734)" fill="#808285"/>
    <path id="Path_366" data-name="Path 366" d="M151.313,58.81a1.551,1.551,0,1,1,1.56,1.593,1.472,1.472,0,0,1-1.56-1.593Zm.673,0c0,.64.335,1.037.874,1.037s.878-.389.878-1.029-.318-1.058-.87-1.058-.882.4-.882,1.05Z" transform="translate(-88.037 -33.339)" fill="#808285"/>
    <path id="Path_367" data-name="Path 367" d="M160,60.246a4.6,4.6,0,0,0,.042-.677V57.929a4.6,4.6,0,0,0-.042-.682h.711v.289a1.673,1.673,0,0,1,0,.222,1.2,1.2,0,0,1,1.066-.552,1.033,1.033,0,0,1,.887.385,1.158,1.158,0,0,1,.176.732v1.254a4.368,4.368,0,0,0,.042.677h-.79a4.974,4.974,0,0,0,.038-.677V58.41a.836.836,0,0,0-.088-.46.489.489,0,0,0-.418-.213c-.376,0-.682.259-.912.774v1.058a4.362,4.362,0,0,0,.042.677Z" transform="translate(-93.094 -33.283)" fill="#808285"/>
    <path id="Path_368" data-name="Path 368" d="M170.252,59.852a1.116,1.116,0,0,1-.552.326,1.835,1.835,0,0,1-.485.063c-.636,0-1.024-.326-1.024-.874a.932.932,0,0,1,.59-.836,3.968,3.968,0,0,1,1.472-.2v-.268c0-.305-.2-.46-.6-.46a.962.962,0,0,0-.544.151.573.573,0,0,0-.209.335l-.669-.121a1.092,1.092,0,0,1,.418-.577,1.556,1.556,0,0,1,1-.268,1.351,1.351,0,0,1,1.029.309.878.878,0,0,1,.247.719v1.405a3.946,3.946,0,0,0,.042.652h-.707Zm0-1.087c-1,0-1.388.192-1.388.6a.426.426,0,0,0,.477.418,1.041,1.041,0,0,0,.723-.28.619.619,0,0,0,.188-.456Z" transform="translate(-97.86 -33.228)" fill="#808285"/>
    <path id="Path_369" data-name="Path 369" d="M177.047,54.54a5.015,5.015,0,0,0-.038.686v2.793a5.546,5.546,0,0,0,.038.677h-.757a5.216,5.216,0,0,0,.038-.677v-2.8a4.9,4.9,0,0,0-.038-.682Z" transform="translate(-102.573 -31.734)" fill="#808285"/>
    <path id="Path_370" data-name="Path 370" d="M185.7,58.16a.891.891,0,0,0-.163-.318A.656.656,0,0,0,185,57.6c-.514,0-.836.418-.836,1.045s.326,1.058.836,1.058a.694.694,0,0,0,.6-.293.678.678,0,0,0,.1-.263l.648.13a1.485,1.485,0,0,1-.217.447,1.363,1.363,0,0,1-1.15.527,1.455,1.455,0,0,1-1.514-1.589,1.7,1.7,0,0,1,.464-1.221,1.422,1.422,0,0,1,1.05-.4,1.351,1.351,0,0,1,1.171.565,1.718,1.718,0,0,1,.18.381Z" transform="translate(-106.747 -33.191)" fill="#808285"/>
    <path id="Path_371" data-name="Path 371" d="M191.323,58.81a1.551,1.551,0,1,1,1.56,1.593,1.472,1.472,0,0,1-1.56-1.593Zm.673,0c0,.64.335,1.037.878,1.037s.878-.389.878-1.029-.322-1.058-.874-1.058S192,58.157,192,58.81Z" transform="translate(-111.316 -33.339)" fill="#808285"/>
    <path id="Path_372" data-name="Path 372" d="M200,60.213a4.744,4.744,0,0,0,.038-.677V57.9a4.18,4.18,0,0,0-.038-.682h.7V57.5a1.908,1.908,0,0,1,0,.192,1.062,1.062,0,0,1,.97-.544.933.933,0,0,1,.673.238.685.685,0,0,1,.2.314,1.163,1.163,0,0,1,.439-.418,1.125,1.125,0,0,1,.585-.138,1.02,1.02,0,0,1,.782.3,1.083,1.083,0,0,1,.247.79v1.292a3.99,3.99,0,0,0,.042.677h-.765a3.9,3.9,0,0,0,.042-.677V58.36c0-.46-.159-.669-.51-.669a.606.606,0,0,0-.418.159.974.974,0,0,0-.33.644v1.037a4.6,4.6,0,0,0,.038.677h-.753a4.508,4.508,0,0,0,.042-.677V58.36c0-.439-.167-.657-.506-.657a.644.644,0,0,0-.539.272,1.167,1.167,0,0,0-.222.519v1.037a5.7,5.7,0,0,0,.033.677Z" transform="translate(-116.368 -33.25)" fill="#808285"/>
    <path id="Path_373" data-name="Path 373" d="M213.294,57.467v.18a1.213,1.213,0,0,1,1.062-.51,1.367,1.367,0,0,1,1,.364,1.631,1.631,0,0,1,.418,1.2,1.363,1.363,0,0,1-1.413,1.543,1.221,1.221,0,0,1-1.054-.5v.807a5.319,5.319,0,0,0,.038.694h-.74a6,6,0,0,0,.038-.686V57.915a5.594,5.594,0,0,0-.038-.7h.694Zm.932.23a1,1,0,0,0,0,2c.514,0,.836-.389.836-1S214.758,57.7,214.227,57.7Z" transform="translate(-123.699 -33.243)" fill="#808285"/>
    <path id="Path_374" data-name="Path 374" d="M223.312,59.852a1.116,1.116,0,0,1-.552.326,1.835,1.835,0,0,1-.485.063c-.64,0-1.024-.326-1.024-.874a.932.932,0,0,1,.59-.836,3.968,3.968,0,0,1,1.472-.2v-.268c0-.305-.2-.46-.6-.46a.953.953,0,0,0-.544.151.573.573,0,0,0-.209.335l-.669-.121a1.091,1.091,0,0,1,.418-.577,1.556,1.556,0,0,1,1-.268,1.351,1.351,0,0,1,1.029.309.878.878,0,0,1,.247.719v1.405a3.949,3.949,0,0,0,.042.652h-.707Zm0-1.087c-1,0-1.388.192-1.388.6a.426.426,0,0,0,.477.418,1.041,1.041,0,0,0,.723-.28.619.619,0,0,0,.188-.456Z" transform="translate(-128.732 -33.228)" fill="#808285"/>
    <path id="Path_375" data-name="Path 375" d="M231.37,57.889a1.535,1.535,0,0,0-.464-.084.753.753,0,0,0-.606.255.836.836,0,0,0-.213.523v.966a5.7,5.7,0,0,0,.038.677h-.744a5.923,5.923,0,0,0,.033-.677V57.91a4.5,4.5,0,0,0-.033-.682h.707v.493a1,1,0,0,1,.983-.548,2.622,2.622,0,0,1,.485.054Z" transform="translate(-133.462 -33.264)" fill="#808285"/>
    <path id="Path_376" data-name="Path 376" d="M236.259,54.54V55.2h-.769V54.54Zm0,1.158a4.994,4.994,0,0,0-.033.686v1.627a5.527,5.527,0,0,0,.033.686H235.5a4.4,4.4,0,0,0,.042-.677V56.38a4.1,4.1,0,0,0-.042-.682Z" transform="translate(-137.018 -31.734)" fill="#808285"/>
    <path id="Path_377" data-name="Path 377" d="M239.275,59.2a.6.6,0,0,0,.69.5c.385,0,.627-.151.627-.418a.314.314,0,0,0-.138-.259c-.1-.071-.13-.075-.548-.167a3.4,3.4,0,0,1-.753-.226.748.748,0,0,1-.456-.694.769.769,0,0,1,.159-.485,1.254,1.254,0,0,1,1.045-.418,1.426,1.426,0,0,1,.983.305,1,1,0,0,1,.28.514l-.69.092c-.059-.289-.234-.418-.573-.418s-.544.146-.544.364a.284.284,0,0,0,.163.247,2.191,2.191,0,0,0,.523.159,2.154,2.154,0,0,1,.916.318.736.736,0,0,1,.305.644.836.836,0,0,1-.255.59,1.543,1.543,0,0,1-1.083.343,1.38,1.38,0,0,1-1.162-.464,1.142,1.142,0,0,1-.2-.468Z" transform="translate(-138.804 -33.182)" fill="#808285"/>
    <path id="Path_378" data-name="Path 378" d="M245.992,58.81a1.551,1.551,0,1,1,1.56,1.593,1.468,1.468,0,0,1-1.56-1.593Zm.673,0c0,.64.33,1.037.874,1.037s.878-.389.878-1.029-.318-1.058-.874-1.058-.886.4-.886,1.05Z" transform="translate(-143.125 -33.339)" fill="#808285"/>
    <path id="Path_379" data-name="Path 379" d="M254.64,60.246a4.6,4.6,0,0,0,.042-.677V57.929a4.6,4.6,0,0,0-.042-.682h.707v.51a1.2,1.2,0,0,1,1.066-.552,1.033,1.033,0,0,1,.886.385,1.158,1.158,0,0,1,.176.732v1.254a4.366,4.366,0,0,0,.042.677h-.757a5.749,5.749,0,0,0,.038-.677V58.41a.836.836,0,0,0-.088-.46.489.489,0,0,0-.439-.213c-.376,0-.686.259-.916.774v1.058a4.349,4.349,0,0,0,.046.677Z" transform="translate(-148.16 -33.283)" fill="#808285"/>
    <path id="Path_380" data-name="Path 380" d="M67.316,15.121a13.954,13.954,0,0,0-.092-1.731h2.024a14.238,14.238,0,0,0-.092,1.748v2.63H73.04a19.092,19.092,0,0,0,2.091-.1v1.882a17.5,17.5,0,0,0-2.053-.1H69.155v5.436h3.224a12.963,12.963,0,0,0,1.915-.067v1.84a12.661,12.661,0,0,0-1.9-.092H64.259a15.649,15.649,0,0,0-1.915.092V24.81a15.167,15.167,0,0,0,1.9.088H67.3V19.462H63.786a20.633,20.633,0,0,0-2.216.1V17.685a19.026,19.026,0,0,0,2.216.1h3.529Z" transform="translate(-35.824 -7.791)" fill="#231f20"/>
    <path id="Path_381" data-name="Path 381" d="M98.628,19.331a11.709,11.709,0,0,0-1.568.075V17.963a13.883,13.883,0,0,0,1.568.059h1.84c-.23-.485-.418-.836-.565-1.125H98.248c-.744,0-1.321.033-1.806.079V15.454a13.206,13.206,0,0,0,1.731.092h.493a6.244,6.244,0,0,0-1.037-1.413l1.522-.581a10.625,10.625,0,0,1,1.188,1.995h.866V14.468a8.409,8.409,0,0,0-.075-1.188H102.8a10.453,10.453,0,0,0-.046,1.125v1.142h1.083V14.417a11.146,11.146,0,0,0-.046-1.125h1.673a7.946,7.946,0,0,0-.075,1.188v1.066h.958a8.2,8.2,0,0,0,1.1-2.041l1.564.581c-.364.606-.606.987-.941,1.459h.418a12.724,12.724,0,0,0,1.719-.092v1.522c-.473-.046-1.066-.079-1.811-.079H106.87c-.289.611-.347.749-.56,1.125h1.76a13.974,13.974,0,0,0,1.568-.059v1.443a11.579,11.579,0,0,0-1.568-.075H104.1v.732h3.178a10.7,10.7,0,0,0,1.568-.079v1.372a10.93,10.93,0,0,0-1.568-.075H104.1v.757h4.244a13.983,13.983,0,0,0,1.84-.088v1.518a17,17,0,0,0-1.823-.092h-3.09a7.761,7.761,0,0,0,2.066,1.217,13.268,13.268,0,0,0,3.161.87,6.16,6.16,0,0,0-.866,1.547A11.843,11.843,0,0,1,103.993,24a10.384,10.384,0,0,1,.046,1.083v.744a8.3,8.3,0,0,0,.109,1.535h-1.794a11.744,11.744,0,0,0,.088-1.551V25.08a10.187,10.187,0,0,1,.046-1.037,8.422,8.422,0,0,1-2.187,1.673A14.69,14.69,0,0,1,97.2,27a6.1,6.1,0,0,0-.928-1.459,10.885,10.885,0,0,0,4.972-2.162H98.415a17.267,17.267,0,0,0-1.84.092V21.944a14.635,14.635,0,0,0,1.823.088h4.031v-.753H99.419a10.68,10.68,0,0,0-1.551.075V19.983a10.454,10.454,0,0,0,1.551.079h3.011v-.732Zm5.959-1.309a8.364,8.364,0,0,0,.5-1.125h-3.467a9.477,9.477,0,0,1,.456,1.125Z" transform="translate(-56.014 -7.727)" fill="#231f20"/>
    <path id="Path_382" data-name="Path 382" d="M136.37,24.917c1.426-.418,2.174-.652,3.525-1.125V25.4c-1.188.456-1.961.732-3.8,1.309-.5.151-.5.151-1.614.456a3.149,3.149,0,0,1-.318.092,6,6,0,0,0-.836.289l-.326-1.9a9.546,9.546,0,0,0,1.673-.289V15.609a12.886,12.886,0,0,0-.092-1.7h1.9a10.275,10.275,0,0,0-.088,1.7v2.509h2.091a6.992,6.992,0,0,0,1.459-.092V19.82a7.36,7.36,0,0,0-1.459-.088h-2.091Zm5.829.456c0,.335.2.4,1.292.4s1.426-.063,1.581-.276c.213-.289.305-1.171.318-3.057a6.369,6.369,0,0,0,1.614.669c-.109,2.266-.276,3.132-.715,3.621s-1.1.59-2.91.59a5,5,0,0,1-2.325-.272c-.393-.213-.565-.581-.565-1.254V15.609a11.479,11.479,0,0,0-.092-1.719h1.869a10.615,10.615,0,0,0-.067,1.719v3.345a12.178,12.178,0,0,0,3.571-2.781l1.188,1.4c-.23.167-.23.167-.548.418a26.566,26.566,0,0,1-4.211,2.731Z" transform="translate(-77.385 -8.082)" fill="#231f20"/>
    <path id="Path_383" data-name="Path 383" d="M181.072,16.279a8.719,8.719,0,0,0,2.509,3.044,7.527,7.527,0,0,0-1.033,1.321c-.4-.364-.531-.519-.807-.79a14.41,14.41,0,0,1-1.459,3.45,8.317,8.317,0,0,0,3.283,2.287,7.108,7.108,0,0,0-.882,1.6,10.8,10.8,0,0,1-3.345-2.63,10.646,10.646,0,0,1-3.408,2.639,4.7,4.7,0,0,0-1.02-1.4,8.894,8.894,0,0,0,3.483-2.463,16.514,16.514,0,0,1-1.505-3.136c-.18.2-.259.276-.5.519a6.339,6.339,0,0,0-.761-.836v1.062a16.1,16.1,0,0,0,.046,1.643,13.075,13.075,0,0,0-1.338-.046h-.79v.974h1.133a7.648,7.648,0,0,0,1.254-.075v1.581a7.405,7.405,0,0,0-1.254-.075h-1.142v.878a9.89,9.89,0,0,0,.092,1.338h-1.673a8.332,8.332,0,0,0,.109-1.4v-.836h-1.254a8.489,8.489,0,0,0-1.4.075V23.459a8.363,8.363,0,0,0,1.4.075h1.254V22.56h-.69c-.686,0-.987,0-1.535.046.046-.473.059-1,.059-1.7V18.286a14.844,14.844,0,0,0-.059-1.581c.5.029.8.046,1.505.046h.715v-.807h-1.175a11.462,11.462,0,0,0-1.4.063V14.472a8.752,8.752,0,0,0,1.4.075h1.175v-.184a6.616,6.616,0,0,0-.109-1.254h1.673a7.863,7.863,0,0,0-.092,1.254v.184h.836a8.489,8.489,0,0,0,1.38-.075v1.535a10.237,10.237,0,0,0-1.38-.063h-.836v.807h.836a11.633,11.633,0,0,0,1.254-.046c-.029.322-.046.669-.046,1.476v1.1a7.853,7.853,0,0,0,2.007-2.981l1.372.64a12.39,12.39,0,0,1-1.7,2.8l.987-.418a7.992,7.992,0,0,0,1.083,2.664,9.2,9.2,0,0,0,.924-2.768l1.4.548a11.137,11.137,0,0,1-1.869-2.843Zm-9.9,1.706v1.062h.924V17.985Zm0,2.262V21.33h.924V20.247Zm3.224-1.2V17.985h-.928v1.062Zm0,2.283V20.247h-.928V21.33Zm4.182-7.109a6.46,6.46,0,0,0-.075-1.142H180.3a5.412,5.412,0,0,0-.079,1.112v.527h1.551a10.73,10.73,0,0,0,1.539-.075v1.643c-.473-.046-.991-.075-1.551-.075h-4.182a10.454,10.454,0,0,0-1.505.075V14.615a8.284,8.284,0,0,0,1.505.088h1Z" transform="translate(-98.57 -7.61)" fill="#231f20"/>
    <path id="Path_384" data-name="Path 384" d="M209.449,27.246a8.925,8.925,0,0,0,.092-1.355V21.923a2.51,2.51,0,0,1-.456.289,23.949,23.949,0,0,1-4.286,1.7,6.272,6.272,0,0,0-.9-1.673,18.893,18.893,0,0,0,4.223-1.4,16.25,16.25,0,0,0,4.713-3.224h-.318l-5.566.046a11.533,11.533,0,0,0-1.61.075V15.922a7.711,7.711,0,0,0,1.627.138h2.538V14.806a6.689,6.689,0,0,0-.075-1.1h2.036a4.781,4.781,0,0,0-.075,1.062v1.254h2.584a3.345,3.345,0,0,0,1.037-.134l.878,1.033a3.622,3.622,0,0,0-.661.669,19.839,19.839,0,0,1-3.1,2.843,24.709,24.709,0,0,1,5.306,2.388l-1,1.6a27.3,27.3,0,0,0-4.637-2.434c-.2-.092-.23-.092-.381-.167,0,.184.029.606.029.744v3.345a6.915,6.915,0,0,0,.075,1.355Z" transform="translate(-118.637 -7.977)" fill="#231f20"/>
    <path id="Path_385" data-name="Path 385" d="M240.3,21.973a17.775,17.775,0,0,1,1.489,3.6l-1.71.548a15.073,15.073,0,0,0-1.384-3.68Zm8.727.109a3.123,3.123,0,0,0-.213.774,12.917,12.917,0,0,1-2.091,5.064,11.8,11.8,0,0,1-4.637,3.663,5.5,5.5,0,0,0-1.217-1.505,9.81,9.81,0,0,0,2.584-1.4A8.746,8.746,0,0,0,246.9,23.4a6.762,6.762,0,0,0,.272-1.748Zm-5.49-.732a14.932,14.932,0,0,1,1.476,3.5l-1.673.535a16.589,16.589,0,0,0-1.384-3.575Z" transform="translate(-138.879 -12.422)" fill="#231f20"/>
    <path id="Path_386" data-name="Path 386" d="M272.12,27.295a10.459,10.459,0,0,0,.088-1.706V15.841a10.119,10.119,0,0,0-.088-1.551h2.091a9.886,9.886,0,0,0-.063,1.6v2.827a44.62,44.62,0,0,1,6.9,3.207l-1.062,1.794a36.06,36.06,0,0,0-5.411-2.9,5.108,5.108,0,0,1-.514-.259,7.779,7.779,0,0,1,.059,1.033v4.014a16.567,16.567,0,0,0,.063,1.673Z" transform="translate(-158.33 -8.314)" fill="#231f20"/>
  </g>
</svg>
