<svg xmlns="http://www.w3.org/2000/svg" width="197.713" height="30.035" viewBox="0 0 197.713 30.035">
  <g id="_事業譲渡センター" data-name="+事業譲渡センター" transform="translate(0 0.011)">
    <g id="Layer_1" data-name="Layer 1" transform="translate(0 -0.011)">
      <path id="Path_15" data-name="Path 15" d="M0,29.613V29.59c.044,0,.042-.044.048-.075.029-.166.056-.33.085-.494.069-.4.141-.793.21-1.191s.137-.772.207-1.158.139-.793.21-1.191l.2-1.189c.069-.386.137-.786.207-1.177s.137-.772.207-1.158l.208-1.191c.069-.386.137-.772.207-1.158s.137-.813.214-1.21.137-.772.2-1.158.141-.788.21-1.179.137-.786.207-1.179.139-.793.21-1.191l.208-1.179c.069-.386.137-.786.207-1.179s.137-.772.207-1.158.139-.8.21-1.191.137-.772.2-1.168.141-.793.21-1.191.137-.772.207-1.158L4.5,4.286q.1-.6.21-1.193c.068-.386.137-.772.2-1.158s.137-.772.2-1.158A.536.536,0,0,1,5.152.655H16.485c1.957-.014,3.913,0,5.87,0H34.106c2.015.014,4.029,0,6.042,0h11.3c.015.037.014.064-.015.081a.928.928,0,0,1-.1.048c-.386.172-.757.361-1.125.564a17.064,17.064,0,0,0-1.8,1.158,15.11,15.11,0,0,0-2.255,2A18.017,18.017,0,0,0,43.829,7.7l-.064.106h-2.55a.423.423,0,0,0-.147.012.49.49,0,0,0-.017.06l-.226,1.276c-.083.481-.168.965-.253,1.444s-.172.965-.259,1.455l-.255,1.457c-.085.485-.174.965-.259,1.455s-.168.965-.255,1.455c-.11.622-.222,1.243-.33,1.865-.12.67-.235,1.34-.353,2.009-.11.625-.222,1.251-.332,1.876-.12.67-.235,1.34-.353,2.009l-.307,1.737c-.095.535-.193,1.067-.28,1.6l-.365,2.056a.429.429,0,0,1-.027.085H28.306a.386.386,0,0,1-.06-.012c.044-.284.1-.564.147-.842s.1-.562.149-.844.1-.552.147-.83.1-.562.149-.842.1-.562.149-.842.1-.562.147-.844.1-.552.147-.83.1-.562.149-.842.1-.562.149-.844.1-.56.147-.842.1-.554.147-.83.1-.562.149-.842.1-.562.149-.844.1-.562.149-.842.1-.562.149-.842l.145-.83.151-.844c.048-.28.1-.56.149-.842s.1-.562.149-.842.1-.554.147-.83.1-.562.149-.842.1-.562.149-.844.1-.562.149-.842.1-.554.147-.83.1-.562.149-.842.1-.56.143-.84a.3.3,0,0,0-.141-.015H29.476a.176.176,0,0,0-.12.019.751.751,0,0,1-.023.106,7.656,7.656,0,0,1-.174.749,7.864,7.864,0,0,1-2.569,3.93,7.7,7.7,0,0,1-1.6,1.01,11.25,11.25,0,0,1-1.322.542.236.236,0,0,0-.125.06l.118.037q.479.125.944.3a7.513,7.513,0,0,1,1.623.813A4.8,4.8,0,0,1,28.121,17.8a5.791,5.791,0,0,1,.307,1.5,7.61,7.61,0,0,1-.01,1.259,9.978,9.978,0,0,1-.193,1.218,9.175,9.175,0,0,1-1.039,2.7,9.928,9.928,0,0,1-3.444,3.469,7.4,7.4,0,0,1-1.5.712,13.353,13.353,0,0,1-2.405.533c-.214.031-.429.056-.643.083l-.739.091-.7.087c-.193.021-.386.044-.579.062l-.656.06c-.346.031-.691.054-1.039.054H.193Zm10.182-6.248a.274.274,0,0,0,.16.019h4.4a9.719,9.719,0,0,0,1.5-.1,5.472,5.472,0,0,0,1.077-.272,3.31,3.31,0,0,0,1.9-1.753,3.586,3.586,0,0,0,.284-.965,2.536,2.536,0,0,0,0-.911A1.93,1.93,0,0,0,18.5,18a2.975,2.975,0,0,0-.4-.176,5.287,5.287,0,0,0-1.34-.266c-.386-.037-.772-.042-1.172-.042H11.3a.715.715,0,0,0-.087.012Zm2.006-11.389h3.845A9.115,9.115,0,0,0,17.35,11.9a5.115,5.115,0,0,0,.965-.224A2.812,2.812,0,0,0,20,10.152,3.947,3.947,0,0,0,20.351,8.8a2.424,2.424,0,0,0-.054-.772,1.7,1.7,0,0,0-.946-1.177,2.76,2.76,0,0,0-.564-.193,6.025,6.025,0,0,0-1.378-.168h-4.1a.353.353,0,0,0-.152.014q-.481,2.733-.967,5.478Z" transform="translate(0 -0.108)" fill="#114b73"/>
      <path id="Path_16" data-name="Path 16" d="M80.566,9.028q-4.094.88-8.167,1.751h-.052a2.41,2.41,0,0,1-.058-.326,8.223,8.223,0,0,0-.224-1,3.567,3.567,0,0,0-.772-1.351,3.988,3.988,0,0,0-2.166-1.274A5.54,5.54,0,0,0,67.864,6.7a6.455,6.455,0,0,0-2.214.386,6.339,6.339,0,0,0-2.056,1.253,7.63,7.63,0,0,0-1.93,2.7,14.574,14.574,0,0,0-.708,2.079q-.253,1-.409,2.008c-.066.419-.133.838-.193,1.257a15.966,15.966,0,0,0-.135,2.036,9.512,9.512,0,0,0,.06,1.172,5.486,5.486,0,0,0,.247,1.158,3.517,3.517,0,0,0,1.818,2.063,4.341,4.341,0,0,0,1.135.369,6.81,6.81,0,0,0,1.56.1,6.638,6.638,0,0,0,1.94-.347,5.212,5.212,0,0,0,2.006-1.251A9.2,9.2,0,0,0,70.31,20,14.284,14.284,0,0,0,71.4,17.8c.017-.046.037-.091.058-.141a.7.7,0,0,1,.073.015l2.509.8,4.723,1.509.125.041a.226.226,0,0,1-.035.133,21.005,21.005,0,0,1-1,2.04,17.033,17.033,0,0,1-1.643,2.457,14.381,14.381,0,0,1-3.876,3.382,13.19,13.19,0,0,1-3.762,1.508c-.512.12-1.029.216-1.544.286-.33.044-.662.077-1,.108a21.822,21.822,0,0,1-2.357.083c-.452,0-.905-.021-1.351-.044q-.579-.033-1.158-.1a16.352,16.352,0,0,1-2.9-.552,10.511,10.511,0,0,1-1.8-.7,8.121,8.121,0,0,1-2.257-1.7A10.424,10.424,0,0,1,52.7,24.808a11.366,11.366,0,0,1-.872-1.948,11.487,11.487,0,0,1-.407-1.648c-.077-.446-.127-.894-.162-1.351s-.037-.88-.035-1.32.025-.88.06-1.318.079-.828.135-1.239a26.288,26.288,0,0,1,.689-3.411A20.075,20.075,0,0,1,53.7,8.493a16.116,16.116,0,0,1,2.023-2.988,15.122,15.122,0,0,1,4.666-3.668A16.193,16.193,0,0,1,64.137.5c.45-.1.9-.193,1.351-.259C65.841.185,66.2.145,66.556.1c.506-.056,1.013-.083,1.523-.1.465-.017.93-.021,1.394,0,.34,0,.678.023,1.015.044q.579.041,1.143.112a15.872,15.872,0,0,1,1.672.3,11.136,11.136,0,0,1,2.147.734A7.874,7.874,0,0,1,77.69,2.737a8.467,8.467,0,0,1,1.289,1.639A10.739,10.739,0,0,1,80,6.642a14.046,14.046,0,0,1,.471,1.882l.064.349A.734.734,0,0,1,80.566,9.028Z" transform="translate(-9.201 0.011)" fill="#2869a1"/>
      <path id="Path_17" data-name="Path 17" d="M111.067,14.11a.442.442,0,0,1,.311.125.411.411,0,0,1,.133.311.452.452,0,0,1-.444.45h-.975a.131.131,0,0,0-.147.149v1.961a.554.554,0,1,1-1.108,0v-.044c0-.05-.025-.073-.075-.073h-3.411a.131.131,0,0,0-.149.147v.9a1.425,1.425,0,0,1-.154.745.986.986,0,0,1-.51.386,7.3,7.3,0,0,1-2.009.178.639.639,0,0,1-.386-.139.849.849,0,0,1-.272-.347.3.3,0,0,1,.021-.311.293.293,0,0,1,.259-.147H103.7a.425.425,0,0,0,.3-.083.386.386,0,0,0,.081-.272v-.911a.129.129,0,0,0-.147-.147h-4.31a.429.429,0,1,1,0-.857h4.314a.131.131,0,0,0,.147-.149V15.14a.131.131,0,0,0-.147-.149h-5.6a.429.429,0,0,1-.311-.131.434.434,0,0,1-.133-.318.411.411,0,0,1,.133-.311.44.44,0,0,1,.311-.125h5.6a.129.129,0,0,0,.147-.147v-.772a.131.131,0,0,0-.147-.149H99.752a.386.386,0,0,1-.3-.125.413.413,0,0,1-.118-.3.386.386,0,0,1,.118-.288.4.4,0,0,1,.3-.118h4.181a.131.131,0,0,0,.147-.149v-.772a.129.129,0,0,0-.147-.147h-2.9a1.286,1.286,0,0,1-1.286-1.282V9.774a1.286,1.286,0,0,1,1.286-1.286h2.9a.129.129,0,0,0,.147-.147V7.755a.131.131,0,0,0-.147-.149H98.644a.457.457,0,1,1,0-.915h5.318c.079,0,.118-.044.118-.133V6.041a.566.566,0,0,1,.965-.4.546.546,0,0,1,.162.4v.517c0,.089.039.133.118.133h5.436a.457.457,0,1,1,0,.915h-5.4a.131.131,0,0,0-.149.149v.591a.131.131,0,0,0,.149.147h3.067a1.286,1.286,0,0,1,1.286,1.286v.085a1.286,1.286,0,0,1-1.286,1.286h-3.071a.131.131,0,0,0-.149.147v.772a.131.131,0,0,0,.149.149h3.309a1.287,1.287,0,0,1,1.286,1.286v.457a.129.129,0,0,0,.147.147Zm-10.231-3.884a.129.129,0,0,0,.147.147h2.955a.129.129,0,0,0,.147-.147v-.8a.129.129,0,0,0-.147-.147h-2.967a.129.129,0,0,0-.147.147Zm7.756-.8a.131.131,0,0,0-.149-.147h-3.088a.131.131,0,0,0-.149.147v.8a.131.131,0,0,0,.149.147h3.088a.131.131,0,0,0,.149-.147Zm-3.241,3.615a.131.131,0,0,0-.149.149v.772a.131.131,0,0,0,.149.147h3.341a.131.131,0,0,0,.149-.147v-.772a.131.131,0,0,0-.149-.149Zm3.337,3.088a.131.131,0,0,0,.149-.149V15.14a.131.131,0,0,0-.149-.149h-3.337a.131.131,0,0,0-.149.149v.842a.131.131,0,0,0,.149.149Z" transform="translate(-17.583 -0.975)" fill="#2e2e2e"/>
      <path id="Path_18" data-name="Path 18" d="M130.123,15.7h-4.388a.048.048,0,0,0-.044.037.04.04,0,0,0,.015.052,10.873,10.873,0,0,0,2.148,1.262,15.588,15.588,0,0,0,2.577.917.386.386,0,0,1,.266.251.481.481,0,0,1,.015.118.353.353,0,0,1-.089.235.909.909,0,0,1-.429.326.772.772,0,0,1-.28.058,1,1,0,0,1-.237-.029,16.718,16.718,0,0,1-2.726-1.168,11.294,11.294,0,0,1-2.282-1.579.083.083,0,0,0-.068,0,.058.058,0,0,0-.037.058v2.43a.548.548,0,0,1-.934.4.542.542,0,0,1-.164-.4V16.276a.069.069,0,0,0-.037-.066.046.046,0,0,0-.066,0,13.126,13.126,0,0,1-2.3,1.537,16.2,16.2,0,0,1-2.7,1.145.647.647,0,0,1-.22.044.857.857,0,0,1-.266-.044,1.125,1.125,0,0,1-.429-.311.386.386,0,0,1-.089-.235.272.272,0,0,1,.029-.12.365.365,0,0,1,.251-.251,16.01,16.01,0,0,0,2.542-.93,11.9,11.9,0,0,0,2.141-1.255.071.071,0,0,0,0-.052c-.012-.025-.021-.037-.052-.037h-4.279a.45.45,0,0,1-.332-.141.481.481,0,0,1,.332-.82h5.318a.129.129,0,0,0,.147-.147v-.828a.129.129,0,0,0-.147-.147h-3.959a.423.423,0,0,1-.318-.133.448.448,0,0,1,0-.622.429.429,0,0,1,.318-.131h3.959a.131.131,0,0,0,.147-.149v-.791a.129.129,0,0,0-.147-.147H118.63a.427.427,0,0,1-.324-.141.461.461,0,0,1,0-.649.427.427,0,0,1,.324-.141H121.3a.1.1,0,0,0,.089-.044.1.1,0,0,0,.015-.089,6.91,6.91,0,0,0-.517-1.093.249.249,0,0,1-.014-.207.27.27,0,0,1,.162-.162h-3a.45.45,0,0,1-.332-.141.481.481,0,0,1,.332-.82h1.772a.1.1,0,0,0,.1-.131,9.729,9.729,0,0,0-.857-1.641.386.386,0,0,1-.044-.347.4.4,0,0,1,.236-.259.674.674,0,0,1,.423,0,.681.681,0,0,1,.346.245,11.278,11.278,0,0,1,.679,1.158.645.645,0,0,1,.075.3.8.8,0,0,1-.044.251.726.726,0,0,1-.4.394c0,.019,0,.029.015.029h1.594a.131.131,0,0,0,.149-.147V5.98a.525.525,0,0,1,1.048,0V8.005a.131.131,0,0,0,.149.147h1.49a.131.131,0,0,0,.149-.147V6a.519.519,0,0,1,.154-.376.539.539,0,0,1,.755,0,.519.519,0,0,1,.154.376v2a.129.129,0,0,0,.147.147h1.479V8.138a.34.34,0,0,1-.193-.193.309.309,0,0,1,.023-.272c.255-.454.5-.94.737-1.463a.562.562,0,0,1,.311-.317.579.579,0,0,1,.458,0,.446.446,0,0,1,.282.28.513.513,0,0,1-.031.415q-.662,1.135-.871,1.461a.068.068,0,0,0,0,.081.087.087,0,0,0,.081.037h1.683a.461.461,0,0,1,.334.141.485.485,0,0,1,0,.679.454.454,0,0,1-.334.141h-2.82a.193.193,0,0,1,.125.125.224.224,0,0,1,0,.183c-.3.533-.542.927-.708,1.183a.1.1,0,0,0,0,.081.075.075,0,0,0,.068.037h2.762a.427.427,0,0,1,.324.141.461.461,0,0,1,0,.649.427.427,0,0,1-.324.141h-4.8a.131.131,0,0,0-.149.147v.768a.131.131,0,0,0,.149.149h4.106a.405.405,0,0,1,.3.131.448.448,0,0,1,0,.622.4.4,0,0,1-.3.133h-4.106a.131.131,0,0,0-.149.147v.828a.131.131,0,0,0,.149.147h5.4a.459.459,0,0,1,.332.141.481.481,0,0,1,0,.679.454.454,0,0,1-.33.141Zm-3.886-6.455a.1.1,0,0,0-.015-.089.083.083,0,0,0-.073-.044h-4.113a.087.087,0,0,0-.081.037.071.071,0,0,0,0,.081,7.687,7.687,0,0,1,.467.93.363.363,0,0,1,0,.324.423.423,0,0,1-.259.222v.015h3.382c-.029-.01-.035-.025-.014-.044a11.524,11.524,0,0,0,.706-1.432Z" transform="translate(-21.08 -0.974)" fill="#2e2e2e"/>
      <path id="Path_19" data-name="Path 19" d="M140.88,7.94a.451.451,0,1,1,0,.9h-3.974a.451.451,0,1,1,0-.9Zm-1.241,6.042a1.286,1.286,0,0,1,1.286,1.28v1.832a1.288,1.288,0,0,1-1.286,1.286h-1.594c-.05,0-.075.023-.075.073V18.6a.461.461,0,0,1-.133.33.444.444,0,0,1-.649,0,.461.461,0,0,1-.133-.332V15.261a1.286,1.286,0,0,1,1.286-1.286Zm-2.112-3.088a.459.459,0,1,1,0-.917h2.953a.459.459,0,1,1,0,.917Zm0,1.994a.459.459,0,1,1,0-.917h2.953a.459.459,0,1,1,0,.917Zm2.909-6.914a.451.451,0,1,1,0,.9H137.6a.451.451,0,1,1,0-.9Zm-.429,9.1a.131.131,0,0,0-.147-.149h-1.737a.131.131,0,0,0-.149.149v2.253a.131.131,0,0,0,.149.147h1.737a.129.129,0,0,0,.147-.147Zm9,.3a.541.541,0,0,1,.34-.095.463.463,0,0,1,.324.139.367.367,0,0,1,.11.29.344.344,0,0,1-.139.272,14.915,14.915,0,0,1-1.448.857.114.114,0,0,0-.052.089.1.1,0,0,0,.021.089,6.341,6.341,0,0,0,1.847,1.27.355.355,0,0,1,.214.263.375.375,0,0,1-.073.332.683.683,0,0,1-.373.247.567.567,0,0,1-.429-.029,7.149,7.149,0,0,1-3.558-4.218.073.073,0,0,0-.081-.058.193.193,0,0,0-.125.044,8.033,8.033,0,0,1-1.079.9.245.245,0,0,0-.118.222V17.7a.135.135,0,0,0,.044.089.1.1,0,0,0,.1.029q.9-.147,1.994-.34a.386.386,0,0,1,.442.34.444.444,0,0,1-.095.319.463.463,0,0,1-.29.17q-.562.116-1.913.386l-1.986.386A.564.564,0,0,1,142.32,19a.579.579,0,0,1-.243-.3.43.43,0,0,1,.05-.34.386.386,0,0,1,.29-.193c.286-.039.566-.083.842-.133a.145.145,0,0,0,.147-.162v-1.3a.083.083,0,0,0-.044-.073.068.068,0,0,0-.087,0,13.525,13.525,0,0,1-1.257.579.512.512,0,0,1-.386.023.67.67,0,0,1-.34-.249.342.342,0,0,1-.073-.207.428.428,0,0,1,.014-.1.313.313,0,0,1,.208-.222,10.642,10.642,0,0,0,2.836-1.432c.019-.021.025-.041.015-.06a.05.05,0,0,0-.044-.029h-2.465a.405.405,0,0,1-.4-.407.419.419,0,0,1,.118-.3.374.374,0,0,1,.282-.125h1.826a.129.129,0,0,0,.147-.147v-.548a.129.129,0,0,0-.147-.149h-.984a.387.387,0,1,1,0-.772h.984a.129.129,0,0,0,.147-.147v-.542a.129.129,0,0,0-.147-.147h-1.3a.386.386,0,0,1-.28-.118.413.413,0,0,1,0-.579.386.386,0,0,1,.28-.118h1.33a.1.1,0,0,0,.118-.118v-.486a.508.508,0,0,1,.149-.361.479.479,0,0,1,.708,0,.508.508,0,0,1,.149.361V10.6a.1.1,0,0,0,.118.118h1.905a.1.1,0,0,0,.118-.118v-.488a.508.508,0,0,1,.149-.361.5.5,0,0,1,.724,0,.506.506,0,0,1,.147.361V10.6a.1.1,0,0,0,.12.118h1.477a.386.386,0,0,1,.28.118.407.407,0,0,1-.28.695h-1.448a.131.131,0,0,0-.149.147v.533a.131.131,0,0,0,.149.147h1.181a.392.392,0,1,1,0,.784h-1.181a.131.131,0,0,0-.149.147v.548a.131.131,0,0,0,.149.147h1.787a.386.386,0,0,1,.3.125.419.419,0,0,1,.118.3.386.386,0,0,1-.118.288.4.4,0,0,1-.3.12h-2.994a.083.083,0,0,0-.073.044.091.091,0,0,0-.015.087,6.95,6.95,0,0,0,.695,1.241.139.139,0,0,0,.207.044Q148.472,15.755,149.012,15.369Zm-5.318-7.142a.977.977,0,0,1,.591-.222.772.772,0,0,1,.28.058.282.282,0,0,1,.2.208.268.268,0,0,1-.089.29,9.786,9.786,0,0,1-2.289,1.506.666.666,0,0,1-.429.037.755.755,0,0,1-.386-.228.349.349,0,0,1-.081-.311.3.3,0,0,1,.193-.235,8.8,8.8,0,0,0,2-1.108Zm5.953-1.374a.444.444,0,0,1,0,.886h-7.615a.444.444,0,0,1,0-.886h3.042c.1,0,.149-.044.149-.133V6.034a.562.562,0,1,1,1.122,0v.679a.118.118,0,0,0,.133.133ZM144.9,11.53a.129.129,0,0,0-.147.147v.533a.129.129,0,0,0,.147.147h1.847a.129.129,0,0,0,.147-.147v-.533a.129.129,0,0,0-.147-.147Zm0,1.61a.129.129,0,0,0-.147.147v.548a.129.129,0,0,0,.147.147h1.847a.129.129,0,0,0,.147-.147v-.548a.129.129,0,0,0-.147-.147Zm2.123-4.579a.311.311,0,0,1-.178-.23.255.255,0,0,1,.089-.259.635.635,0,0,1,.457-.207.732.732,0,0,1,.272.06,14.058,14.058,0,0,1,2.245,1.239.415.415,0,0,1,.044.635.485.485,0,0,1-.34.164.508.508,0,0,1-.369-.12,13.824,13.824,0,0,0-2.231-1.284Z" transform="translate(-24.508 -0.968)" fill="#2e2e2e"/>
      <path id="Path_20" data-name="Path 20" d="M158.679,10.8a.556.556,0,0,1,.22.386.579.579,0,0,1-.1.429.484.484,0,0,1-.363.214.618.618,0,0,1-.421-.11,11.4,11.4,0,0,0-1.7-1.035.407.407,0,0,1-.222-.282.427.427,0,0,1-.013-.1.407.407,0,0,1,.089-.251.714.714,0,0,1,.369-.237.6.6,0,0,1,.429.044,12.627,12.627,0,0,1,1.714.944Zm-.473,3.235a.419.419,0,0,1,.3-.243.4.4,0,0,1,.369.081.683.683,0,0,1,.251.4.621.621,0,0,1,.029.193.693.693,0,0,1-.058.28q-.857,2.038-1.772,3.841a.506.506,0,0,1-.347.266.494.494,0,0,1-.436-.089.67.67,0,0,1-.266-.4.787.787,0,0,1-.014-.149.693.693,0,0,1,.089-.34Q157.3,16.09,158.206,14.036Zm1.284-7.142a.519.519,0,0,1,.214.386.558.558,0,0,1-.139.429.471.471,0,0,1-.363.193.647.647,0,0,1-.421-.118,9.71,9.71,0,0,0-1.625-1.064.448.448,0,0,1-.22-.3.386.386,0,0,1,.089-.355.656.656,0,0,1,.369-.228.614.614,0,0,1,.429.052A10.41,10.41,0,0,1,159.487,6.9Zm2.025,3.612a.131.131,0,0,0-.149.149V11.1q0,5.067-1.544,7.721a.428.428,0,0,1-.318.214.562.562,0,0,1-.405-.081.579.579,0,0,1-.237-.309.772.772,0,0,1-.014-.149.457.457,0,0,1,.073-.251,8.6,8.6,0,0,0,.739-1.7,10.918,10.918,0,0,0,.421-1.93c.083-.668.139-1.262.17-1.78s.044-1.094.044-1.737V8.29A1.287,1.287,0,0,1,161.578,7h2.762a.131.131,0,0,0,.149-.147v-.8a.542.542,0,0,1,.162-.4.554.554,0,0,1,.784,0,.542.542,0,0,1,.162.4v.8a.129.129,0,0,0,.147.147h3.282a.465.465,0,0,1,.34.149.477.477,0,0,1,.149.347.454.454,0,0,1-.149.34.481.481,0,0,1-.34.141h-7.511a.131.131,0,0,0-.149.147v1.3a.131.131,0,0,0,.149.149h1.4a.1.1,0,0,0,.118-.118V8.879a.457.457,0,0,1,.149-.346.515.515,0,0,1,.708,0,.456.456,0,0,1,.147.346v.579a.1.1,0,0,0,.12.118h2.569a.1.1,0,0,0,.118-.118V8.911A.5.5,0,0,1,167,8.549a.513.513,0,0,1,.386-.154.519.519,0,0,1,.386.154.494.494,0,0,1,.154.363v.546a.1.1,0,0,0,.12.118h1.091a.427.427,0,0,1,.324.141.465.465,0,0,1,.133.332.456.456,0,0,1-.457.457h-1.081a.131.131,0,0,0-.149.149v.95a1.286,1.286,0,0,1-1.28,1.28h-2.316a1.286,1.286,0,0,1-1.278-1.28v-.95a.131.131,0,0,0-.147-.149Zm6.466,3.191a.481.481,0,0,1,.118-.015.678.678,0,0,1,.235.044l.178.089a.371.371,0,0,1,.193.207.386.386,0,0,1,0,.3,7.5,7.5,0,0,1-2.231,2.793.135.135,0,0,0-.037.093.064.064,0,0,0,.044.068,10.918,10.918,0,0,0,2.807.965.317.317,0,0,1,.237.234.243.243,0,0,1,.031.118.315.315,0,0,1-.073.207.857.857,0,0,1-.4.324.645.645,0,0,1-.3.075.521.521,0,0,1-.178-.031,10.773,10.773,0,0,1-3.042-1.255.263.263,0,0,0-.266,0,13.111,13.111,0,0,1-3.282,1.27,1.036,1.036,0,0,1-.162.015.565.565,0,0,1-.282-.075.853.853,0,0,1-.34-.309.348.348,0,0,1-.058-.193.386.386,0,0,1,.029-.133.355.355,0,0,1,.251-.22,12.7,12.7,0,0,0,2.969-1.006.106.106,0,0,0,.052-.081.077.077,0,0,0-.037-.081,7.621,7.621,0,0,1-1.448-1.7.459.459,0,0,1-.037-.444.5.5,0,0,1,.332-.309v-.031h-1.081a.477.477,0,0,1-.334-.131.45.45,0,0,1,0-.651.469.469,0,0,1,.334-.133h5.772Zm-.679,1.048a.083.083,0,0,0,0-.089.081.081,0,0,0-.081-.044h-3.432a.087.087,0,0,0-.073.044.075.075,0,0,0,0,.089,5.8,5.8,0,0,0,1.625,1.818.181.181,0,0,0,.235,0,6.489,6.489,0,0,0,1.73-1.818Zm-.459-4.09a.131.131,0,0,0-.147-.149h-2.509a.131.131,0,0,0-.149.149v1.158a.131.131,0,0,0,.149.149H166.7a.131.131,0,0,0,.147-.149Z" transform="translate(-28.034 -0.979)" fill="#2e2e2e"/>
      <path id="Path_21" data-name="Path 21" d="M179.958,12.434q-.071-1.948-.131-2.245c-.1-.737.083-1.12.546-1.145s.674.29.635.938c-.021.425-.031,1.054-.031,1.892v.369q1.776-.353,3.222-.724a7.787,7.787,0,0,1,1.181-.222c.579-.039.871.129.9.5q.029.342-.975,1.3t-2.158,2.268a.558.558,0,0,1-.737.1c-.236-.158-.207-.4.089-.724a29.084,29.084,0,0,0,1.994-2.407q-2.422.517-3.53.813v2.756a1.542,1.542,0,0,0,.309,1.137,1.973,1.973,0,0,0,1.278.374,17.7,17.7,0,0,0,2.8-.147c.517-.1.844-.05.983.147a.386.386,0,0,1,.1.415q-.207.62-3.175.62a4.083,4.083,0,0,1-2.6-.635,1.93,1.93,0,0,1-.618-1.093,9.028,9.028,0,0,1-.073-1.434v-.635l-.015-1.27-2.112.473a5.088,5.088,0,0,1-1.093.149q-.815.029-.813-.5c0-.349.226-.533.679-.554A22.509,22.509,0,0,0,179.958,12.434Z" transform="translate(-31.601 -1.616)" fill="#2e2e2e"/>
      <path id="Path_22" data-name="Path 22" d="M194.564,10.51A6.112,6.112,0,0,1,197,11.56a1.272,1.272,0,0,1,.546,1.093c-.019.3-.137.444-.355.444a.741.741,0,0,1-.591-.363,4.786,4.786,0,0,0-2.48-1.4q-.562-.193-.429-.554C193.783,10.527,194.072,10.443,194.564,10.51Zm-.1,6.885a.6.6,0,0,1,.539-.548,10.146,10.146,0,0,0,2.836-1.255,14.892,14.892,0,0,0,5.274-5.673c.193-.286.4-.353.651-.207s.29.454.133.917q-2,4.388-7.955,7.208c-.127.06-.32.133-.579.222a2.583,2.583,0,0,1-.342.029.539.539,0,0,1-.556-.693Z" transform="translate(-34.786 -1.722)" fill="#2e2e2e"/>
      <path id="Path_23" data-name="Path 23" d="M217.914,10.6a.7.7,0,0,1,.614.236.6.6,0,0,1,.052.739c-.05.079-.193.359-.415.842a17.337,17.337,0,0,1-1.137,1.892,3.464,3.464,0,0,1,.444.369,1.337,1.337,0,0,1,.413,1.158c-.039.286-.168.419-.386.4a.726.726,0,0,1-.55-.434,3.017,3.017,0,0,0-.562-.635,11.822,11.822,0,0,1-2.363,2.258,13.464,13.464,0,0,1-3.781,1.774q-.579.162-.732-.214c-.1-.251-.012-.43.274-.54a12.011,12.011,0,0,0,5.745-3.861,5.909,5.909,0,0,0-.9-.436q-.579-.253-.4-.593t.915-.162a8.167,8.167,0,0,1,.965.386,11.661,11.661,0,0,0,1.21-2.407l-1.594.1a1.044,1.044,0,0,1-.458-.058,11.083,11.083,0,0,1-4.113,3.631q-.579.253-.761-.139c-.124-.261.042-.506.494-.732a7.347,7.347,0,0,0,3.015-2.645,9.807,9.807,0,0,0,1.077-1.816.613.613,0,0,1,.716-.421q.554.05.465.656a3.4,3.4,0,0,1-.427.784Q215.854,10.715,217.914,10.6Z" transform="translate(-37.624 -1.659)" fill="#2e2e2e"/>
      <path id="Path_24" data-name="Path 24" d="M232.919,14.1q2.334-.12,3.058-.193a1.506,1.506,0,0,1,1.064.193.479.479,0,0,1,.222.488q-.089.386-.791.346c-.467-.023-1.174-.027-2.123,0q-3.486.087-5.052.214t-2.083.125q-.651,0-.724-.459a.5.5,0,0,1,.521-.54c.334-.025.867-.037,1.594-.037Q229.358,14.229,232.919,14.1Z" transform="translate(-40.681 -2.486)" fill="#2e2e2e"/>
      <path id="Path_25" data-name="Path 25" d="M99.456,25.329a1.2,1.2,0,0,1,1.008.651,1.382,1.382,0,0,1,.152.562v.226a1.316,1.316,0,0,1-.469.946v.012a.99.99,0,0,1,.278.322,1.237,1.237,0,0,1,.193.61v.228a1.307,1.307,0,0,1-.423.9,1.158,1.158,0,0,1-.757.313H96.524v-.019c.353-.127.529-.268.529-.427V25.783c0-.154-.174-.3-.519-.425v-.019Zm-1.432,1.226a.3.3,0,0,1,0,.083.287.287,0,0,1,0,.083V27.4h.9a.871.871,0,0,0,.871-.591,1.354,1.354,0,0,0,.019-.176q0-.517-.631-.735a.915.915,0,0,0-.23-.033h-.93Zm0,2.123a.361.361,0,0,0,0,.166v.685h.871a.886.886,0,0,0,.892-.562,1.029,1.029,0,0,0,.029-.216q0-.5-.622-.726a.9.9,0,0,0-.226-.033h-.944Z" transform="translate(-17.337 -4.541)" fill="#2e2e2e"/>
      <path id="Path_26" data-name="Path 26" d="M104.738,25.329v.019a.873.873,0,0,0-.508.353v3.131a.737.737,0,0,0,.415.651.629.629,0,0,0,.236.054h.695a.677.677,0,0,0,.656-.529.913.913,0,0,0,.029-.239V25.754c0-.139-.17-.274-.508-.405v-.019h1.99v.019c-.346.122-.519.282-.519.479v3a1.309,1.309,0,0,1-.548,1.056,1.131,1.131,0,0,1-.635.216h-1.585a1.2,1.2,0,0,1-1.077-.745,1.635,1.635,0,0,1-.124-.654V25.783c0-.152-.172-.293-.517-.425v-.019Z" transform="translate(-18.453 -4.541)" fill="#2e2e2e"/>
      <path id="Path_27" data-name="Path 27" d="M112.883,25.326a1.184,1.184,0,0,1,.994.641,1.365,1.365,0,0,1,.166.593v.122c0,.015,0,.023-.019.023H112.9v-.023c.073,0,.125-.068.156-.2a.73.73,0,0,0-.313-.5.683.683,0,0,0-.309-.093h-.747c-.27,0-.475.174-.612.519a1.063,1.063,0,0,0-.031.228v.041a.737.737,0,0,0,.519.737,1.071,1.071,0,0,0,.207.021h1.067a1.207,1.207,0,0,1,1.1.772,1.334,1.334,0,0,1,.1.475v.156a1.307,1.307,0,0,1-.548,1.037,1.129,1.129,0,0,1-.654.216h-1.554a1.187,1.187,0,0,1-1.037-.651,1.34,1.34,0,0,1-.166-.612v-.093c0-.017.01-.025.019-.025h1.121v.025a.18.18,0,0,0-.147.176v.06a.662.662,0,0,0,.3.456.606.606,0,0,0,.328.106h.7a.747.747,0,0,0,.666-.722v-.118a.739.739,0,0,0-.407-.651.579.579,0,0,0-.278-.064h-1.058a1.179,1.179,0,0,1-.88-.373,1.32,1.32,0,0,1-.373-.9v-.127a1.322,1.322,0,0,1,.631-1.106,1.168,1.168,0,0,1,.539-.156Z" transform="translate(-19.773 -4.538)" fill="#2e2e2e"/>
      <path id="Path_28" data-name="Path 28" d="M118.148,25.329v.019c-.346.125-.519.268-.519.425v3.9c0,.093.11.2.332.332a1.249,1.249,0,0,0,.193.073V30.1h-2.009v-.019c.351-.127.529-.268.529-.427V25.783c0-.156-.174-.3-.519-.425v-.019Z" transform="translate(-20.861 -4.541)" fill="#2e2e2e"/>
      <path id="Path_29" data-name="Path 29" d="M121.841,25.329v.019a.911.911,0,0,0-.479.3q.181.253,2.123,2.764v-2.6q0-.288-.515-.469v-.019h1.988v.019c-.347.131-.519.276-.519.436v3.861c0,.162.176.307.529.436V30.1h-2.009v-.019a.965.965,0,0,0,.479-.3h0l-2.123-2.766h0v2.534a.429.429,0,0,0,.278.413.909.909,0,0,0,.249.116V30.1h-2.011v-.019c.353-.127.529-.268.529-.427V25.783c0-.154-.172-.3-.517-.425v-.019Z" transform="translate(-21.523 -4.541)" fill="#2e2e2e"/>
      <path id="Path_30" data-name="Path 30" d="M131.236,25.329c.014,0,.019,0,.019.019v1.058h-.019c-.129-.353-.274-.529-.436-.529h-1.986v1.556h1.262c.181,0,.334-.174.456-.519h.023v1.6h-.023a.874.874,0,0,0-.33-.5l-.071-.019h-1.316v1.556h1.948c.193,0,.355-.176.475-.529h.019v1.058c0,.014,0,.019-.019.019h-3.9v-.019c.351-.127.527-.268.527-.427V25.783c0-.154-.172-.3-.517-.425v-.019Z" transform="translate(-22.87 -4.541)" fill="#2e2e2e"/>
      <path id="Path_31" data-name="Path 31" d="M136.149,25.326a1.184,1.184,0,0,1,.994.641,1.365,1.365,0,0,1,.166.593v.122c0,.015,0,.023-.019.023h-1.121v-.023c.073,0,.125-.068.156-.2a.732.732,0,0,0-.311-.5.691.691,0,0,0-.311-.093h-.747c-.27,0-.475.174-.612.519a1.049,1.049,0,0,0-.029.228v.041a.735.735,0,0,0,.517.737,1.071,1.071,0,0,0,.207.021H136.1a1.2,1.2,0,0,1,1.1.772,1.334,1.334,0,0,1,.1.475v.156a1.307,1.307,0,0,1-.548,1.037,1.129,1.129,0,0,1-.654.216h-1.544a1.185,1.185,0,0,1-1.038-.651,1.339,1.339,0,0,1-.166-.612v-.093c0-.017,0-.025.021-.025h1.12v.025a.18.18,0,0,0-.147.176v.06a.662.662,0,0,0,.3.456.606.606,0,0,0,.328.106h.7a.668.668,0,0,0,.635-.529.61.61,0,0,0,.031-.193v-.118a.737.737,0,0,0-.405-.651.593.593,0,0,0-.28-.064h-1.058a1.179,1.179,0,0,1-.88-.373,1.32,1.32,0,0,1-.373-.9v-.127a1.322,1.322,0,0,1,.631-1.106,1.181,1.181,0,0,1,.539-.156Z" transform="translate(-23.952 -4.538)" fill="#2e2e2e"/>
      <path id="Path_32" data-name="Path 32" d="M142.21,25.326a1.184,1.184,0,0,1,.994.641,1.365,1.365,0,0,1,.164.585v.122c0,.015,0,.023-.019.023h-1.12v-.023c.073,0,.125-.068.156-.2a.73.73,0,0,0-.313-.5.683.683,0,0,0-.309-.093h-.747c-.27,0-.475.174-.612.519a1.064,1.064,0,0,0-.031.228v.041a.737.737,0,0,0,.519.737,1.072,1.072,0,0,0,.207.021h1.067a1.2,1.2,0,0,1,1.1.772,1.334,1.334,0,0,1,.1.481v.156a1.307,1.307,0,0,1-.548,1.037,1.129,1.129,0,0,1-.654.216h-1.544a1.187,1.187,0,0,1-1.037-.651,1.34,1.34,0,0,1-.166-.612v-.093c0-.017,0-.025.019-.025h1.122v.025a.18.18,0,0,0-.147.176v.06a.662.662,0,0,0,.3.456.606.606,0,0,0,.328.106h.7a.747.747,0,0,0,.666-.722v-.118a.739.739,0,0,0-.407-.651.579.579,0,0,0-.278-.064h-1.064a1.179,1.179,0,0,1-.88-.373,1.32,1.32,0,0,1-.373-.9v-.127a1.322,1.322,0,0,1,.631-1.106,1.168,1.168,0,0,1,.539-.156Z" transform="translate(-25.041 -4.537)" fill="#2e2e2e"/>
      <path id="Path_33" data-name="Path 33" d="M152.285,25.329c.015,0,.023,0,.023.019v1.058h-.023c-.129-.353-.272-.529-.432-.529h-1.046v3.7c0,.216.176.386.527.5V30.1h-2.009v-.019a.946.946,0,0,0,.508-.332.262.262,0,0,1,.019-.085V25.877h-1.037c-.162,0-.307.172-.434.519h-.021V25.348a.019.019,0,0,1,.021-.019Z" transform="translate(-26.647 -4.541)" fill="#2e2e2e"/>
      <path id="Path_34" data-name="Path 34" d="M157.423,25.329a1.174,1.174,0,0,1,.944.558,1.5,1.5,0,0,1,.226.772,1.378,1.378,0,0,1-.672,1.193,1.424,1.424,0,0,1-.664.143h-.251l1.988,2.091v.01h-1.845v-.019c.278-.1.415-.2.415-.3h0c0-.042-.075-.135-.228-.28q-1.228-1.3-1.421-1.492h0V29.68c0,.093.11.2.332.332a1.249,1.249,0,0,0,.193.073V30.1h-2.033v-.019c.351-.127.529-.268.529-.427V25.783c0-.154-.174-.3-.519-.425v-.019Zm-1.517,2.083h.9a.871.871,0,0,0,.871-.591,1.352,1.352,0,0,0,.019-.176q0-.517-.631-.735a.915.915,0,0,0-.23-.033h-.93Z" transform="translate(-27.734 -4.541)" fill="#2e2e2e"/>
      <path id="Path_35" data-name="Path 35" d="M164.667,25.329v.019c-.241.06-.361.168-.361.322q0,.037,1.276,3.978c.031.133.212.276.542.427h.019V30.1h-1.876v-.019c.263-.058.386-.141.386-.249.014,0,.021-.025.021-.073h0a6.176,6.176,0,0,0-.216-.749H162.88a5.5,5.5,0,0,0-.22.737v.031q0,.226.405.313h0V30.1H161.2v-.019a1.2,1.2,0,0,0,.469-.284,4.269,4.269,0,0,0,.386-1.066q.984-3,.986-3.065c0-.145-.122-.249-.363-.313v-.019Zm-1.589,3.114h1.206q-.591-1.818-.591-1.847h-.023Z" transform="translate(-28.954 -4.541)" fill="#2e2e2e"/>
      <path id="Path_36" data-name="Path 36" d="M170.475,25.329v.019a.9.9,0,0,0-.479.3q.183.253,2.123,2.764v-2.6q0-.288-.515-.469v-.019h1.988v.019c-.346.131-.519.276-.519.436v3.861c0,.162.178.307.529.436V30.1H171.59v-.019a.965.965,0,0,0,.479-.3h0L169.955,27h-.01v2.55a.427.427,0,0,0,.28.413.861.861,0,0,0,.249.116V30.1h-2.006v-.019c.351-.127.529-.268.529-.427V25.783c0-.154-.174-.3-.519-.425v-.019Z" transform="translate(-30.26 -4.541)" fill="#2e2e2e"/>
      <path id="Path_37" data-name="Path 37" d="M178.762,25.326a1.184,1.184,0,0,1,.994.641,1.365,1.365,0,0,1,.166.593v.122c0,.015,0,.023-.019.023h-1.122v-.023c.073,0,.125-.068.156-.2a.73.73,0,0,0-.313-.5.683.683,0,0,0-.309-.093h-.747c-.27,0-.475.174-.612.519a1.063,1.063,0,0,0-.031.228v.041a.737.737,0,0,0,.519.737,1.071,1.071,0,0,0,.207.021h1.067a1.2,1.2,0,0,1,1.1.772,1.333,1.333,0,0,1,.1.475v.156a1.307,1.307,0,0,1-.548,1.037,1.129,1.129,0,0,1-.654.216h-1.544a1.187,1.187,0,0,1-1.037-.651,1.34,1.34,0,0,1-.166-.612v-.093c0-.017,0-.025.019-.025h1.122v.025a.18.18,0,0,0-.147.176v.06a.662.662,0,0,0,.3.456.606.606,0,0,0,.328.106h.7a.747.747,0,0,0,.666-.722v-.118a.739.739,0,0,0-.407-.651.579.579,0,0,0-.278-.064h-1.058a1.179,1.179,0,0,1-.88-.373,1.32,1.32,0,0,1-.373-.9v-.127a1.322,1.322,0,0,1,.631-1.106,1.168,1.168,0,0,1,.539-.156Z" transform="translate(-31.607 -4.538)" fill="#2e2e2e"/>
      <path id="Path_38" data-name="Path 38" d="M185.927,25.329c.014,0,.019,0,.019.019v1.058h-.019c-.127-.353-.274-.529-.434-.529H183.5v1.556h1.262c.181,0,.334-.174.456-.519h.023v1.6h-.023a.873.873,0,0,0-.328-.5l-.073-.019H183.5v.23q0,.492.01,1.459c0,.1.141.222.425.363a.421.421,0,0,0,.1.033V30.1h-2.021v-.019c.351-.127.529-.268.529-.427V25.783c0-.154-.174-.3-.519-.425v-.019Z" transform="translate(-32.694 -4.541)" fill="#2e2e2e"/>
      <path id="Path_39" data-name="Path 39" d="M191.947,25.329c.014,0,.019,0,.019.019v1.058h-.019c-.129-.353-.274-.529-.436-.529h-1.988v1.556h1.264c.181,0,.334-.174.456-.519h.023v1.6h-.023a.874.874,0,0,0-.33-.5l-.073-.019h-1.316v1.556h1.957c.193,0,.357-.176.477-.529h.019v1.058c0,.014,0,.019-.019.019h-3.917v-.019c.353-.127.529-.268.529-.427V25.783c0-.154-.172-.3-.517-.425v-.019Z" transform="translate(-33.775 -4.541)" fill="#2e2e2e"/>
      <path id="Path_40" data-name="Path 40" d="M197.077,25.329a1.17,1.17,0,0,1,.944.558,1.5,1.5,0,0,1,.226.772,1.378,1.378,0,0,1-.666,1.189,1.424,1.424,0,0,1-.664.143h-.249l1.98,2.094v.01H196.8v-.019c.278-.1.415-.2.415-.3h0c0-.042-.075-.135-.228-.28q-1.228-1.3-1.421-1.492h0V29.68c0,.093.112.2.332.332a1.249,1.249,0,0,0,.193.073V30.1h-2.033v-.019c.351-.127.529-.268.529-.427V25.783c0-.154-.174-.3-.519-.425v-.019Zm-1.523,2.083h.9a.871.871,0,0,0,.871-.591,1.347,1.347,0,0,0,.019-.176q0-.517-.631-.735a.915.915,0,0,0-.23-.033h-.93Z" transform="translate(-34.856 -4.541)" fill="#2e2e2e"/>
      <path id="Path_41" data-name="Path 41" d="M206.568,25.329a1.182,1.182,0,0,1,.994.641,1.351,1.351,0,0,1,.166.593v.122c0,.015,0,.023-.019.023h-1.12v-.023c.079,0,.131-.071.154-.216a.745.745,0,0,0-.311-.488.691.691,0,0,0-.311-.093h-.747c-.27,0-.475.174-.612.519a1.049,1.049,0,0,0-.029.228v2.154a.743.743,0,0,0,.475.716.722.722,0,0,0,.193.033h.7a.671.671,0,0,0,.635-.529.3.3,0,0,0,0-.083c-.029-.124-.079-.193-.154-.193v-.025h1.12a.023.023,0,0,1,.019.025v.1a1.3,1.3,0,0,1-.558,1.046,1.145,1.145,0,0,1-.645.207h-1.544a1.191,1.191,0,0,1-1.029-.631,1.351,1.351,0,0,1-.176-.631V26.592a1.313,1.313,0,0,1,.56-1.058,1.069,1.069,0,0,1,.6-.2Z" transform="translate(-36.601 -4.541)" fill="#2e2e2e"/>
      <path id="Path_42" data-name="Path 42" d="M213.732,25.329c.014,0,.021,0,.021.019v1.058h-.021c-.127-.353-.272-.529-.434-.529h-1.988v1.556h1.264c.181,0,.334-.174.456-.519h.023v1.6h-.023a.863.863,0,0,0-.328-.5l-.073-.019h-1.316v1.556h1.948c.193,0,.355-.176.475-.529h.021v1.058c0,.014,0,.019-.021.019h-3.9v-.019c.353-.127.529-.268.529-.427V25.783c0-.154-.174-.3-.519-.425v-.019Z" transform="translate(-37.688 -4.541)" fill="#2e2e2e"/>
      <path id="Path_43" data-name="Path 43" d="M217.859,25.329v.019a.911.911,0,0,0-.479.3q.193.253,2.123,2.764v-2.6q0-.288-.515-.469v-.019h1.988v.019c-.346.131-.519.276-.519.436v3.861c0,.162.176.307.529.436V30.1h-2.009v-.019a.965.965,0,0,0,.479-.3h0L217.342,27h-.01v2.55a.429.429,0,0,0,.278.413.909.909,0,0,0,.249.116V30.1H215.85v-.019c.351-.127.527-.268.527-.427V25.783c0-.154-.172-.3-.517-.425v-.019Z" transform="translate(-38.77 -4.541)" fill="#2e2e2e"/>
      <path id="Path_44" data-name="Path 44" d="M227.273,25.329c.015,0,.023,0,.023.019v1.058h-.023c-.127-.353-.272-.529-.43-.529h-1.048v3.7c0,.216.176.386.529.5V30.1h-2.011v-.019a.965.965,0,0,0,.51-.332.582.582,0,0,1,.019-.085V25.877H223.8c-.162,0-.307.172-.436.519h-.019V25.348c0-.014,0-.019.019-.019Z" transform="translate(-40.117 -4.541)" fill="#2e2e2e"/>
      <path id="Path_45" data-name="Path 45" d="M233.3,25.329c.014,0,.019,0,.019.019v1.058H233.3c-.129-.353-.274-.529-.436-.529h-1.988v1.556h1.264c.181,0,.332-.174.456-.519h.023v1.6H232.6a.874.874,0,0,0-.33-.5l-.073-.019h-1.316v1.556h1.948c.193,0,.357-.176.477-.529h.019v1.058c0,.014,0,.019-.019.019H229.4v-.019c.353-.127.529-.268.529-.427V25.783c0-.154-.172-.3-.517-.425v-.019Z" transform="translate(-41.203 -4.541)" fill="#2e2e2e"/>
      <path id="Path_46" data-name="Path 46" d="M238.435,25.329a1.191,1.191,0,0,1,.944.558,1.5,1.5,0,0,1,.226.772,1.378,1.378,0,0,1-.672,1.193,1.425,1.425,0,0,1-.664.143h-.249L240,30.089v.01h-1.845V30.08c.278-.1.415-.2.415-.3h0c0-.042-.075-.135-.228-.28q-1.228-1.3-1.421-1.492h0v1.679c0,.093.112.2.332.332a1.248,1.248,0,0,0,.193.073v.019h-2.011v-.019c.351-.127.529-.268.529-.427v-3.88c0-.154-.174-.3-.519-.425v-.019Zm-1.523,2.083h.9a.871.871,0,0,0,.871-.591,1.347,1.347,0,0,0,.019-.176q0-.517-.631-.735a.915.915,0,0,0-.23-.033h-.93Z" transform="translate(-42.288 -4.541)" fill="#2e2e2e"/>
    </g>
  </g>
</svg>
