<svg id="chiba" xmlns="http://www.w3.org/2000/svg" width="163.57" height="28" viewBox="0 0 163.57 28">
  <g id="レイヤー_1" data-name="レイヤー 1">
    <path id="Path_90" data-name="Path 90" d="M66.869,18.041a.434.434,0,0,0-.582.055,5.945,5.945,0,0,1-4.736,2.225A5.77,5.77,0,0,1,57.3,18.678a5.4,5.4,0,0,1-1.68-4.09,5.751,5.751,0,0,1,.748-2.926,5.613,5.613,0,0,1,2.2-2.1,6.342,6.342,0,0,1,5.7-.175,5.8,5.8,0,0,1,2.1,1.726.425.425,0,0,0,.591.083l1.136-.877a.425.425,0,0,0,.092-.582A7.505,7.505,0,0,0,65.355,7.36a8.678,8.678,0,0,0-3.831-.84,8.106,8.106,0,0,0-5.9,2.289,7.588,7.588,0,0,0-2.345,5.622,8.05,8.05,0,0,0,1.939,5.41A7.93,7.93,0,0,0,61.5,22.5a8.872,8.872,0,0,0,3.785-.785,7.681,7.681,0,0,0,2.834-2.243.434.434,0,0,0,.092-.314.415.415,0,0,0-.166-.286Z" transform="translate(-4.093 -0.501)" fill="#c30f23"/>
    <path id="Path_91" data-name="Path 91" d="M79.562,11.036a4.182,4.182,0,0,0-2.354-.674,4.828,4.828,0,0,0-2.363.591,5.465,5.465,0,0,0-1.209.923V6.965a.415.415,0,0,0-.425-.425H71.845a.415.415,0,0,0-.425.425V21.736a.425.425,0,0,0,.425.425h1.366a.425.425,0,0,0,.425-.425V17.8a14,14,0,0,1,.185-2.77,3.379,3.379,0,0,1,1.154-1.846,2.963,2.963,0,0,1,1.957-.683A2.1,2.1,0,0,1,79.2,14.3a11.688,11.688,0,0,1,.138,2.326v5.105a.425.425,0,0,0,.425.425h1.366a.434.434,0,0,0,.425-.425V16.2a9.038,9.038,0,0,0-.471-3.37,4.127,4.127,0,0,0-1.523-1.791Z" transform="translate(-5.487 -0.502)" fill="#3f3b3a"/>
    <path id="Path_92" data-name="Path 92" d="M85.511,6.22a1.468,1.468,0,0,0-1.089.462,1.551,1.551,0,0,0,1.089,2.65,1.532,1.532,0,0,0,1.1-.452,1.56,1.56,0,0,0,0-2.2,1.5,1.5,0,0,0-1.1-.462Z" transform="translate(-6.45 -0.478)" fill="#3f3b3a"/>
    <rect id="Rectangle_2" data-name="Rectangle 2" width="2.225" height="11.503" rx="0.46" transform="translate(77.953 10.127)" fill="#3f3b3a"/>
    <path id="Path_93" data-name="Path 93" d="M95.166,10.362a5.65,5.65,0,0,0-2.53.563,5.8,5.8,0,0,0-1.311.923V6.965A.425.425,0,0,0,90.9,6.54H89.535a.415.415,0,0,0-.425.425V21.736a.425.425,0,0,0,.425.425H90.9a.434.434,0,0,0,.425-.425v-.822a5.272,5.272,0,0,0,1.246.923,5.364,5.364,0,0,0,2.557.609,5.687,5.687,0,0,0,4.182-1.763,5.834,5.834,0,0,0,1.736-4.247,5.955,5.955,0,0,0-1.717-4.274A5.631,5.631,0,0,0,95.166,10.362Zm3.637,6a3.85,3.85,0,0,1-.517,1.948,3.693,3.693,0,0,1-1.376,1.422,3.785,3.785,0,0,1-1.9.508,3.591,3.591,0,0,1-2.686-1.117,3.813,3.813,0,0,1-1.1-2.77,4,4,0,0,1,.489-2,3.693,3.693,0,0,1,1.394-1.385,3.9,3.9,0,0,1,1.92-.517,3.619,3.619,0,0,1,1.846.517,3.8,3.8,0,0,1,1.394,1.44A4.007,4.007,0,0,1,98.8,16.363Z" transform="translate(-6.846 -0.502)" fill="#3f3b3a"/>
    <path id="Path_94" data-name="Path 94" d="M114.821,10.976h-1.348a.425.425,0,0,0-.425.425v.812a6.121,6.121,0,0,0-1.246-.923,5.539,5.539,0,0,0-2.576-.6,5.668,5.668,0,0,0-4.182,1.763,5.816,5.816,0,0,0-1.745,4.228,5.927,5.927,0,0,0,1.726,4.284,5.807,5.807,0,0,0,6.693,1.2,5.945,5.945,0,0,0,1.329-.923v.812a.425.425,0,0,0,.425.425h1.348a.434.434,0,0,0,.425-.425V11.373a.434.434,0,0,0-.425-.4Zm-1.643,5.779a4.016,4.016,0,0,1-.489,1.976A3.517,3.517,0,0,1,111.3,20.1a3.748,3.748,0,0,1-5.188-1.44,3.877,3.877,0,0,1-.526-1.939,3.942,3.942,0,0,1,.517-1.948,3.794,3.794,0,0,1,1.385-1.422,3.748,3.748,0,0,1,1.9-.5,3.582,3.582,0,0,1,2.686,1.108,3.813,3.813,0,0,1,1.1,2.8Z" transform="translate(-7.936 -0.821)" fill="#3f3b3a"/>
    <path id="Path_95" data-name="Path 95" d="M133.057,6.91H122.145a.434.434,0,0,0-.425.425V8.747a.434.434,0,0,0,.425.425h4.3V21.764a.425.425,0,0,0,.425.425h1.477a.434.434,0,0,0,.425-.425V9.172h4.284a.425.425,0,0,0,.425-.425V7.335a.425.425,0,0,0-.425-.425Z" transform="translate(-9.351 -0.531)" fill="#1c2950"/>
    <path id="Path_96" data-name="Path 96" d="M139.342,10.68a5.7,5.7,0,0,0-4.4,1.929,6.121,6.121,0,0,0,.092,8.309,6.038,6.038,0,0,0,8.622,0,6.148,6.148,0,0,0,.083-8.309,5.7,5.7,0,0,0-4.394-1.929Zm0,2.188A3.508,3.508,0,0,1,141.964,14a3.776,3.776,0,0,1,1.117,2.77,3.951,3.951,0,0,1-.508,1.948,3.5,3.5,0,0,1-1.357,1.385,3.85,3.85,0,0,1-3.757,0,3.5,3.5,0,0,1-1.357-1.385,3.951,3.951,0,0,1-.508-1.948A3.785,3.785,0,0,1,136.7,14a3.527,3.527,0,0,1,2.64-1.136Z" transform="translate(-10.245 -0.82)" fill="#1c2950"/>
    <path id="Path_97" data-name="Path 97" d="M163.5,11h-1.422a.434.434,0,0,0-.4.258L158.737,18.1l-3.019-6.841a.434.434,0,0,0-.4-.258h-.24a.434.434,0,0,0-.4.258l-3,6.832-2.871-6.859a.425.425,0,0,0-.388-.258h-1.459a.415.415,0,0,0-.351.194.406.406,0,0,0,0,.4l4.551,10.653a.415.415,0,0,0,.388.258h.258a.443.443,0,0,0,.388-.249l3.01-6.758,3.019,6.758a.443.443,0,0,0,.388.249h.258a.425.425,0,0,0,.388-.258l4.616-10.644a.425.425,0,0,0,0-.406A.415.415,0,0,0,163.5,11Z" transform="translate(-11.259 -0.843)" fill="#1c2950"/>
    <path id="Path_98" data-name="Path 98" d="M175.856,13.17a4.127,4.127,0,0,0-1.523-1.846,4.182,4.182,0,0,0-2.354-.674,4.865,4.865,0,0,0-2.373.591,5.669,5.669,0,0,0-1.2.923v-.785a.425.425,0,0,0-.425-.425h-1.366a.425.425,0,0,0-.425.425V22.051a.425.425,0,0,0,.425.425h1.366a.425.425,0,0,0,.425-.425V18.118a14.059,14.059,0,0,1,.185-2.77,3.4,3.4,0,0,1,1.163-1.846,2.927,2.927,0,0,1,1.948-.729,2.428,2.428,0,0,1,1.5.443,2.345,2.345,0,0,1,.766,1.366,12.471,12.471,0,0,1,.138,2.354v5.114a.425.425,0,0,0,.425.425H175.9a.425.425,0,0,0,.425-.425V16.512a9.076,9.076,0,0,0-.471-3.342Z" transform="translate(-12.767 -0.818)" fill="#1c2950"/>
    <path id="Path_99" data-name="Path 99" d="M143.845,4.643h1.6a.3.3,0,0,1,.3.3v.074a.342.342,0,0,1-.092.222.332.332,0,0,1-.222.083h-1.569a2.843,2.843,0,0,1-1.172,2.1.434.434,0,0,1-.258.083h0a.425.425,0,0,1-.268-.092l-.24-.046a.166.166,0,0,1-.083-.148.2.2,0,0,1,.092-.185A2.16,2.16,0,0,0,143.06,5.4h-1.726a.332.332,0,0,1-.222-.083.3.3,0,0,1-.092-.222V4.985a.277.277,0,0,1,.092-.222.3.3,0,0,1,.212-.083h1.809V3.923h-.046a7.733,7.733,0,0,0-1.145.065h0a.406.406,0,0,1-.249-.083.369.369,0,0,1-.148-.222h0a.2.2,0,0,1,0-.074.222.222,0,0,1,.055-.138.231.231,0,0,1,.194-.1,11.161,11.161,0,0,0,1.606-.092,7.94,7.94,0,0,0,1.108-.231h.148L144.694,3a.406.406,0,0,1,.231.148l.074.1a.249.249,0,0,1,0,.129.176.176,0,0,1,0,.074.2.2,0,0,1-.148.138h-.12a9.287,9.287,0,0,1-.923.185h0Z" transform="translate(-10.833 -0.23)" fill="#1c2950"/>
    <path id="Path_100" data-name="Path 100" d="M147.75,5.577a8.143,8.143,0,0,0,.5-1.846.268.268,0,0,1,.12-.2.3.3,0,0,1,.166-.055h.258a.323.323,0,0,1,.24.3.259.259,0,0,1,0,.083.418.418,0,0,1-.046.249,4,4,0,0,1-.212.822c-.092.332-.185.628-.268.923a7.938,7.938,0,0,1-.665,1.348.369.369,0,0,1-.212.157h-.268l-.194-.083a.277.277,0,0,1-.138-.166.258.258,0,0,1,0-.083.231.231,0,0,1,.046-.148,6.823,6.823,0,0,0,.674-1.3Zm2.77-.12a15.449,15.449,0,0,0-.655-1.56.286.286,0,0,1,0-.12.249.249,0,0,1,0-.111.24.24,0,0,1,.166-.157h.249a.369.369,0,0,1,.342.212c.258.545.489,1.071.683,1.56s.36,1,.563,1.662a.378.378,0,0,1,0,.1v.074a.3.3,0,0,1-.083.148.268.268,0,0,1-.148.092l-.212.065h-.092a.388.388,0,0,1-.148,0,.342.342,0,0,1-.148-.194,15.4,15.4,0,0,0-.5-1.773Zm.212-2.243a.249.249,0,0,1,0-.111.138.138,0,0,1,0-.055.194.194,0,0,1,.111-.129h.2a.268.268,0,0,1,.148.12,3.176,3.176,0,0,1,.2.351.25.25,0,0,1,0,.111.232.232,0,0,1,0,.074.212.212,0,0,1-.12.129.249.249,0,0,1-.111,0h-.083a.24.24,0,0,1-.157-.129,2.183,2.183,0,0,0-.175-.36Zm.674-.258a.175.175,0,0,1,0-.166.166.166,0,0,1,.111-.12.249.249,0,0,1,.111,0h.092a.268.268,0,0,1,.157.129c.074.111.138.222.2.342a.249.249,0,0,1,0,.111.231.231,0,0,1,0,.074.185.185,0,0,1-.12.129h-.194a.249.249,0,0,1-.148-.129Z" transform="translate(-11.295 -0.205)" fill="#1c2950"/>
    <path id="Path_101" data-name="Path 101" d="M156.976,3.429h.12a.831.831,0,0,1,.471.12h0a.406.406,0,0,1,.157.212v.1a.323.323,0,0,1,0,.157v.1a6.277,6.277,0,0,1-.757,1.514v.055l.24.157a.277.277,0,0,1,.129.2.12.12,0,0,1,0,.055.286.286,0,0,1-.065.185l-.12.148a.277.277,0,0,1-.212.12h0a.3.3,0,0,1-.2-.074l-.231-.166a.055.055,0,0,0-.074,0,5.308,5.308,0,0,1-1.809,1.274.5.5,0,0,1-.194,0h-.092a.526.526,0,0,1-.259-.129l-.129-.111a.185.185,0,0,1-.055-.129h0a.175.175,0,0,1,.129-.148A4.847,4.847,0,0,0,155.794,5.9V5.848c-.24-.157-.489-.3-.739-.452a.286.286,0,0,1-.129-.185V5.156A.2.2,0,0,1,155,4.99V4.934a.369.369,0,0,1,.24-.129h.074a.351.351,0,0,1,.194,0l.739.425h.055a3.693,3.693,0,0,0,.554-1.126h-1.569a.083.083,0,0,0-.065,0,6.96,6.96,0,0,1-1.2,1.237.434.434,0,0,1-.259.083h0a.406.406,0,0,1-.258-.092l-.092-.074a.219.219,0,0,1,.018-.369,5.235,5.235,0,0,0,1.523-1.708,1.349,1.349,0,0,0,.148-.286.425.425,0,0,1,.175-.185.388.388,0,0,1,.148,0h.1l.194.055a.24.24,0,0,1,.157.157.269.269,0,0,1,0,.083.259.259,0,0,1,0,.138c0,.065-.1.166-.175.3h1.32Z" transform="translate(-11.778 -0.208)" fill="#1c2950"/>
    <path id="Path_102" data-name="Path 102" d="M163.292,3.671h.111a.757.757,0,0,1,.406.1.342.342,0,0,1,.157.185.415.415,0,0,1,0,.148.378.378,0,0,1,0,.1v.166a5.327,5.327,0,0,1-.526,1.6,3.037,3.037,0,0,1-.812.923,3.84,3.84,0,0,1-1.182.637.415.415,0,0,1-.148,0,.369.369,0,0,1-.138,0,.572.572,0,0,1-.268-.12l-.157-.185a.157.157,0,0,1-.046-.12.194.194,0,0,1,.148-.194,4.264,4.264,0,0,0,.48-.148,3.037,3.037,0,0,0,.72-.388,2.4,2.4,0,0,0,.563-.582,3.185,3.185,0,0,0,.5-1.4h-2.77v.923a.3.3,0,0,1-.092.222.277.277,0,0,1-.212.1h-.129a.277.277,0,0,1-.222-.1.3.3,0,0,1-.083-.212V3.966a.268.268,0,0,1,.083-.2.286.286,0,0,1,.2-.083h1.431V3.025a.323.323,0,0,1,.074-.2.277.277,0,0,1,.212-.1h.222a.277.277,0,0,1,.212.1.286.286,0,0,1,.083.2v.609h1.135Z" transform="translate(-12.26 -0.209)" fill="#1c2950"/>
    <path id="Path_103" data-name="Path 103" d="M166.508,7.523h-.1a.443.443,0,0,1-.4-.212l-.12-.194a.185.185,0,0,1,0-.12.268.268,0,0,1,0-.083.2.2,0,0,1,.166-.129A5.825,5.825,0,0,0,167.9,6.1a5.972,5.972,0,0,0,1.108-.868A4.735,4.735,0,0,0,169.8,4.19a.175.175,0,0,1,.157-.092h0a.166.166,0,0,1,.148.083l.129.231a.554.554,0,0,1,.065.277.517.517,0,0,1-.083.286,6.214,6.214,0,0,1-.831.988,6.407,6.407,0,0,1-1.089.831,6.121,6.121,0,0,1-1.791.729Zm-.36-3.693a.249.249,0,0,1-.111-.2h0a.268.268,0,0,1,.074-.194l.083-.083a.351.351,0,0,1,.24-.12h0a.314.314,0,0,1,.212.074q.481.364.923.775a.314.314,0,0,1,.1.231.323.323,0,0,1-.092.222l-.12.129a.323.323,0,0,1-.231.092A.342.342,0,0,1,167,4.67a4.54,4.54,0,0,0-.849-.831Z" transform="translate(-12.743 -0.248)" fill="#1c2950"/>
    <path id="Path_104" data-name="Path 104" d="M11.18,26.39Z" transform="translate(-0.859 -2.027)" fill="none"/>
    <path id="Path_105" data-name="Path 105" d="M13.977,14.046l6.988-7L13.977.06,0,14.046l6.268,6.268a57.69,57.69,0,0,0,9.786-4.2Z" transform="translate(0 -0.005)" fill="#c30f23"/>
    <path id="Path_106" data-name="Path 106" d="M35.579,5.941,29.7.06,22.71,7.048l4.117,4.117C29.985,9.338,33.022,7.51,35.579,5.941Z" transform="translate(-1.745 -0.005)" fill="#1c2950"/>
    <path id="Path_107" data-name="Path 107" d="M39.349,2.917A1.459,1.459,0,1,0,37.89,1.459,1.459,1.459,0,0,0,39.349,2.917Z" transform="translate(-2.911)" fill="#fadf00"/>
    <path id="Path_108" data-name="Path 108" d="M19.412,20.94a58.724,58.724,0,0,1-8.955,5.022h0A28.674,28.674,0,0,1,1.77,27.652h0l1.052.111c2.926.3,10.727,1.154,11.3,1.846l6.988-6.988Z" transform="translate(-0.136 -1.609)" fill="#c30f23"/>
    <path id="Path_109" data-name="Path 109" d="M39.65,10.129C38.3,8.781,42.678,1.58,42.678,1.58s-2.363,2.336-6,5.539c-2.16,1.911-4.764,4.136-7.6,6.388l.619.619L22.71,21.114,29.7,28.1l13.977-13.94Z" transform="translate(-1.745 -0.121)" fill="#1c2950"/>
  </g>
</svg>
