<svg xmlns="http://www.w3.org/2000/svg" width="140.004" height="28" viewBox="0 0 140.004 28">
  <g id="craft" transform="translate(0.041)">
    <g id="ƒŒƒCƒ__1" data-name="ƒŒƒCƒ„[_1" transform="translate(-0.041)">
      <path id="Path_110" data-name="Path 110" d="M95.73,50.639A12.411,12.411,0,0,0,113.284,33.09l-7.02,7.02a6.2,6.2,0,1,1-8.774,8.774Z" transform="translate(-85.798 -29.658)" fill="#b50005"/>
      <path id="Path_111" data-name="Path 111" d="M2.867,109.494a9.926,9.926,0,0,0,0,14.039l5.265-5.265a4.964,4.964,0,1,1,7.02-7.02l1.755-1.755a9.929,9.929,0,0,0-14.039,0Z" transform="translate(0.041 -95.533)" fill="#b50005"/>
      <circle id="Ellipse_1" data-name="Ellipse 1" cx="2.074" cy="2.074" r="2.074" transform="translate(2.027 5.185)" fill="#182f60"/>
      <circle id="Ellipse_2" data-name="Ellipse 2" cx="2.074" cy="2.074" r="2.074" transform="translate(19.656)" fill="#182f60"/>
      <path id="Path_112" data-name="Path 112" d="M387.234,127.347a5.566,5.566,0,0,1-2.641.647,6.42,6.42,0,0,1-4.708-1.743,6.426,6.426,0,0,1,0-9.056,6.361,6.361,0,0,1,4.475-1.725,7.136,7.136,0,0,1,2.875.665v3.2a3.8,3.8,0,0,0-2.8-1.276,3.369,3.369,0,0,0-2.444.933,3.837,3.837,0,0,0-1.131,2.767A3.6,3.6,0,0,0,381.9,124.4a3.636,3.636,0,0,0,2.587,1.007,3.771,3.771,0,0,0,2.749-1.244Z" transform="translate(-338.812 -103.495)" fill="#182f60"/>
      <path id="Path_113" data-name="Path 113" d="M492.424,118.08a4.31,4.31,0,0,1,3.055,1.037,3.612,3.612,0,0,1,1.037,2.677,3.283,3.283,0,0,1-.933,2.444,3.757,3.757,0,0,1-1.672.916l3.685,4.906h-3.375l-3.234-4.721v4.726H488.22V118.08Zm-1.437,5.444h.633a2.285,2.285,0,0,0,1.653-.519,1.613,1.613,0,0,0,.449-1.168,1.463,1.463,0,0,0-.557-1.222,2.708,2.708,0,0,0-1.528-.377h-.65Z" transform="translate(-437.586 -105.835)" fill="#182f60"/>
      <path id="Path_114" data-name="Path 114" d="M591.321,127.8h-4.529l-.917,2.264H583l4.834-11.985h2.533l4.727,11.985h-2.875Zm-.751-2.121-1.474-4.025-1.491,4.025Z" transform="translate(-522.536 -105.835)" fill="#182f60"/>
      <path id="Path_115" data-name="Path 115" d="M719.279,120.415H715.4v2.323h3.6v2.336h-3.6v5H712.63V118.08h6.648Z" transform="translate(-638.723 -105.835)" fill="#182f60"/>
      <path id="Path_116" data-name="Path 116" d="M790.443,120.415v9.65h-2.767v-9.65H785.07V118.08h7.978v2.335Z" transform="translate(-703.651 -105.835)" fill="#182f60"/>
      <path id="Path_117" data-name="Path 117" d="M871.3,118.659a2.92,2.92,0,0,0-2.013-.863,1.5,1.5,0,0,0-1.169.415,1.071,1.071,0,0,0-.3.754.839.839,0,0,0,.27.665,4.824,4.824,0,0,0,1.509.683l.9.341a4.846,4.846,0,0,1,1.635.917,2.993,2.993,0,0,1,.88,2.229,4.28,4.28,0,0,1-1.061,2.964,4.642,4.642,0,0,1-3.4,1.223,5.078,5.078,0,0,1-2.372-.5,7.636,7.636,0,0,1-1.763-1.312l1.437-1.977a7.4,7.4,0,0,0,1.112.915,2.782,2.782,0,0,0,1.51.431,1.907,1.907,0,0,0,1.258-.415,1.244,1.244,0,0,0,.431-.971,1.053,1.053,0,0,0-.415-.862,5.886,5.886,0,0,0-1.4-.666l-.988-.341a4.047,4.047,0,0,1-1.672-.952,2.95,2.95,0,0,1-.719-2.084,3.688,3.688,0,0,1,1.042-2.7,3.861,3.861,0,0,1,2.965-1.1,5.793,5.793,0,0,1,3.558,1.185Z" transform="translate(-774.772 -103.485)" fill="#182f60"/>
      <path id="Path_118" data-name="Path 118" d="M961.14,130.065l1.923-11.985h2.3l2.983,7.169,2.984-7.169h2.3l1.923,11.985h-2.768l-.952-7.156-3,7.156h-.971l-3-7.156-.953,7.156Z" transform="translate(-861.462 -105.835)" fill="#182f60"/>
      <path id="Path_119" data-name="Path 119" d="M1116.1,127.8h-4.528l-.917,2.264h-2.875l4.834-11.985h2.533l4.726,11.985H1117Zm-.754-2.121-1.474-4.025-1.491,4.025Z" transform="translate(-992.895 -105.835)" fill="#182f60"/>
      <path id="Path_120" data-name="Path 120" d="M1237.37,130.065V118.08h2.408l6.5,7.726V118.08h2.768v11.985h-2.408l-6.505-7.762v7.762Z" transform="translate(-1109.046 -105.835)" fill="#182f60"/>
      <path id="Path_121" data-name="Path 121" d="M391.592,41a4.049,4.049,0,0,1-1.165-2.011,4.017,4.017,0,0,1-1.165,2.041l-.288-.349-.415.288c-.036-.11-.091-.257-.159-.423a14.146,14.146,0,0,1-2.1.479l-.153-.656c.141-.012.311-.031.49-.055V36.953a2.893,2.893,0,0,1-.276.152l-.258-.654a3.231,3.231,0,0,0,1.338-1.147h.583a3.111,3.111,0,0,0,1.189.95l-.374.588h.019v2.5h-.429c.141.246.368.705.533,1.037a4.319,4.319,0,0,0,1.135-3.415h.613c0,.026-.006.16-.006.338a3.952,3.952,0,0,0,1.337,3.168Zm-2.758-4.156a4.071,4.071,0,0,1-1.066-.968,4.672,4.672,0,0,1-.981.968h.711V36.37h.569v.472Zm-.545.534H387.2v.441h1.085Zm0,.955H387.2V38.8h1.085ZM387.2,39.337v.883a8.069,8.069,0,0,0,.96-.215,4.551,4.551,0,0,0-.207-.415l.454-.251Zm3.7-1.281a5.015,5.015,0,0,0,.311-1.472h-1.2a5.824,5.824,0,0,1-.609,1.257l-.491-.466a5.136,5.136,0,0,0,.809-2.146l.632.091c-.036.207-.086.415-.147.644H391.8v.191a5.574,5.574,0,0,1-.337,2.138Z" transform="translate(-346.056 -31.577)" fill="#182f60"/>
      <path id="Path_122" data-name="Path 122" d="M457.28,41.034a4.459,4.459,0,0,1-2.844-1.753h-1.024v.907a9.416,9.416,0,0,0,1.483-.311v.607a18.334,18.334,0,0,1-2.936.491l-.172-.643c.282-.006.622-.031.993-.067V37.007a6.281,6.281,0,0,1-.785.325l-.306-.662a5.4,5.4,0,0,0,2.593-1.44h.735a5.821,5.821,0,0,0,2.593,1.385l-.311.655a6.6,6.6,0,0,1-.705-.276v2.281h-1.472a2.74,2.74,0,0,0,.668.558,3.287,3.287,0,0,0,1.171-.92l.423.44a4.311,4.311,0,0,1-1.006.784,4.251,4.251,0,0,0,1.232.295Zm-1.054-4.217a7,7,0,0,1-1.576-1.08,6.519,6.519,0,0,1-1.5,1.08h1.189v-.509h.644v.509Zm-.252.519h-2.561v.453h2.561Zm0,.933h-2.561v.484h2.561Z" transform="translate(-404.844 -31.577)" fill="#182f60"/>
      <path id="Path_123" data-name="Path 123" d="M522.612,39.719v.392c0,.871-.154.975-1.508.975l-.265-.622h.552c.558-.013.589-.062.589-.349v-.4h-2.305a7.317,7.317,0,0,1,.8.646L520,40.8a5.631,5.631,0,0,0-.845-.748l.39-.333H518.1v-.567h3.881v-.343h-3.3V36.533h1.992v-.34H518.26v-.542h2.409V35.29h.636v.361h2.409v.542H521.3v.342h2.029v2.273h-.717v.343h1.244v.567Zm-1.943-2.682H519.3v.415h1.367Zm0,.851H519.3V38.3h1.367Zm2.028-.851H521.3v.415h1.4Zm0,.851H521.3V38.3h1.4Z" transform="translate(-464.367 -31.63)" fill="#182f60"/>
      <path id="Path_124" data-name="Path 124" d="M586,42.448V36.83h2.464v2.61h-1.833v3.007Zm1.832-5.051h-1.2v.488h1.2Zm0,.992h-1.2v.5h1.2Zm1.876,3.378h.3c.632,0,.655-.055.655-.415V39.44h-1.833V36.83H591.3v4.419c0,.969-.055,1.171-1.323,1.189Zm.958-4.367h-1.2v.485h1.2Zm0,.992h-1.2v.5h1.2Z" transform="translate(-525.225 -33.011)" fill="#182f60"/>
      <path id="Path_125" data-name="Path 125" d="M656.571,47.4v-.27H652.58v-.687h3.991l.006-3.007h-3.941V42.76h4.677V47.4Z" transform="translate(-584.901 -38.326)" fill="#182f60"/>
      <path id="Path_126" data-name="Path 126" d="M713.983,42.75A7.307,7.307,0,0,0,712.22,41.5l.519-.539A8.126,8.126,0,0,1,714.5,42.1Zm-1.668,2.439c2.734-.41,3.893-1.679,4.414-3.818l.656.4c-.381,1.41-1.1,3.409-4.622,4.1Z" transform="translate(-638.356 -36.712)" fill="#182f60"/>
      <path id="Path_127" data-name="Path 127" d="M774.31,39.768v.062c0,1.97-.576,2.953-2.624,3.432l-.582-.606c1.867-.271,2.508-1.037,2.508-2.838v-.05H771.8v1.556h-.7V39.768H769.86v-.646H771.1V37.89h.7v1.232h1.8c0-.374-.006-.785-.006-1.232h.7c0,.11.006,1.066.006,1.232h1.251v.646Z" transform="translate(-690.018 -33.961)" fill="#182f60"/>
      <path id="Path_128" data-name="Path 128" d="M832.2,43.381c1.226-.92,1.409-2.445,1.409-3.856,0-.311-.006-.607-.019-.895l.736.006v.374c0,2.224-.2,3.58-1.41,4.77Zm2.868-4.781h.726c-.006.178-.018,3.1-.036,4.059a4.031,4.031,0,0,0,1.753-2.274l.54.588a4.246,4.246,0,0,1-2.986,2.727Z" transform="translate(-745.894 -34.597)" fill="#182f60"/>
      <path id="Path_129" data-name="Path 129" d="M899.663,42.053a2.947,2.947,0,0,1-2.281,2.991l-.649-.582c1.763-.4,2.145-1.312,2.194-2.409H896.42V41.4h5.412v.656ZM897.039,40.5V39.84H901.2V40.5Z" transform="translate(-803.454 -35.708)" fill="#182f60"/>
      <path id="Path_130" data-name="Path 130" d="M956.841,51.456l.006-2.281a10.132,10.132,0,0,1-1.809.883l-.519-.551a6.634,6.634,0,0,0,3.72-2.526l.622.343a7.685,7.685,0,0,1-1.348,1.392c0,.356.006,1.826.012,2.746Z" transform="translate(-855.529 -42.108)" fill="#182f60"/>
      <path id="Path_131" data-name="Path 131" d="M1010.273,42.75a7.312,7.312,0,0,0-1.763-1.251l.519-.539a8.154,8.154,0,0,1,1.763,1.141Zm-1.667,2.439c2.734-.41,3.9-1.679,4.414-3.818l.656.4c-.38,1.41-1.1,3.409-4.622,4.1Z" transform="translate(-903.92 -36.712)" fill="#182f60"/>
      <path id="Path_132" data-name="Path 132" d="M1066.586,38.975a4.4,4.4,0,0,0,4.1-3.451h-2.023a5.693,5.693,0,0,1-1.8,1.823l-.622-.519a4.809,4.809,0,0,0,2.274-2.752l.76.159a4.617,4.617,0,0,1-.27.65c.368,0,1.066,0,1.674-.006a6.432,6.432,0,0,0-.415-.919l.441-.092a6.406,6.406,0,0,1,.478,1.006h.374a5.176,5.176,0,0,1-4.4,4.762Zm5.07-3.954a7.023,7.023,0,0,0-.519-1.141l.436-.08a5.365,5.365,0,0,1,.539,1.1Z" transform="translate(-955.663 -30.295)" fill="#182f60"/>
      <path id="Path_133" data-name="Path 133" d="M1130.982,45.443c2.7-.545,3.586-1.925,3.8-3.641-1.213.019-4.052.044-4.052.044v-.7l4.923-.006a4.826,4.826,0,0,1-4.113,4.928Z" transform="translate(-1013.465 -36.874)" fill="#182f60"/>
      <path id="Path_134" data-name="Path 134" d="M1190.137,52.879a2.433,2.433,0,0,1-1.8,1.986l-.539-.509c1.556-.472,1.746-1.226,1.746-2.666l.68.012a7.686,7.686,0,0,1-.061,1.042,1.816,1.816,0,0,0,1.348-1.4c-.754.031-3.157.031-3.562.031v-.6l4.285.006a2.628,2.628,0,0,1-1.71,2.538Z" transform="translate(-1064.617 -45.505)" fill="#182f60"/>
      <path id="Path_135" data-name="Path 135" d="M1241.09,60.558V59.87h5.333v.688Z" transform="translate(-1112.38 -53.661)" fill="#182f60"/>
      <path id="Path_136" data-name="Path 136" d="M1300.174,44.206c-.085-.226-.2-.453-.306-.687-1.594.27-3.445.466-4.548.583l-.11-.743c.232-.011.478-.03.748-.055a27.743,27.743,0,0,0,1.336-4.235l.81.19a36.057,36.057,0,0,1-1.392,3.984c1.054-.1,2.178-.239,2.844-.331a9.737,9.737,0,0,0-1.066-1.563l.662-.326a13.03,13.03,0,0,1,1.741,2.79Z" transform="translate(-1160.888 -35.018)" fill="#182f60"/>
    </g>
  </g>
</svg>
