<svg id="direct" xmlns="http://www.w3.org/2000/svg" width="134.962" height="28" viewBox="0 0 134.962 28">
  <g id="ƒŒƒCƒ__1" data-name="ƒŒƒCƒ„[_1">
    <path id="Path_137" data-name="Path 137" d="M104.549,15.55a5.163,5.163,0,0,1,3.459,1.041,3.948,3.948,0,0,1,1.214,3.17,6.582,6.582,0,0,1-.275,1.977,3.579,3.579,0,0,1-.846,1.446,3.7,3.7,0,0,1-1.446.9,6.373,6.373,0,0,1-2.1.311h-3.34V15.55Zm.108,7.847a3.891,3.891,0,0,0,.542-.029,3.553,3.553,0,0,0,.7-.148,3.228,3.228,0,0,0,.723-.361,2.313,2.313,0,0,0,.665-.586,3.254,3.254,0,0,0,.47-.958,4.605,4.605,0,0,0,.184-1.392,5.459,5.459,0,0,0-.17-1.417,2.632,2.632,0,0,0-.56-1.063,2.433,2.433,0,0,0-1.008-.669,4.337,4.337,0,0,0-1.511-.231h-2.169v6.868Z" transform="translate(-64.633 -9.929)" fill="#231f20"/>
    <path id="Path_138" data-name="Path 138" d="M127.39,16.833V15.55h1.16v1.283Zm1.16,1.153v6.4h-1.16v-6.4Z" transform="translate(-81.344 -9.929)" fill="#231f20"/>
    <path id="Path_139" data-name="Path 139" d="M136.552,21.979v1.337h.029a2.95,2.95,0,0,1,1.034-1.153,2.841,2.841,0,0,1,1.554-.361v1.153a3.567,3.567,0,0,0-1.186.174,1.88,1.88,0,0,0-.792.51,2.01,2.01,0,0,0-.434.81,4.011,4.011,0,0,0-.137,1.084v2.845h-1.16v-6.4Z" transform="translate(-86.497 -13.919)" fill="#231f20"/>
    <path id="Path_140" data-name="Path 140" d="M151.783,28.032a3.448,3.448,0,0,1-1.992.546,3.9,3.9,0,0,1-1.446-.249,2.8,2.8,0,0,1-1.677-1.76,4.677,4.677,0,0,1-.239-1.348,3.553,3.553,0,0,1,.246-1.337,3.112,3.112,0,0,1,.683-1.052,3.018,3.018,0,0,1,1.048-.694,3.441,3.441,0,0,1,1.327-.249,3.138,3.138,0,0,1,1.562.361,2.942,2.942,0,0,1,.994.9,3.314,3.314,0,0,1,.517,1.186,4.674,4.674,0,0,1,.116,1.222h-5.277a2.451,2.451,0,0,0,.108.8,1.767,1.767,0,0,0,.4.672,1.941,1.941,0,0,0,.69.466,2.53,2.53,0,0,0,.994.177,2.14,2.14,0,0,0,1.2-.311,1.5,1.5,0,0,0,.622-.947H152.8A2.53,2.53,0,0,1,151.783,28.032Zm-.282-4.117a1.807,1.807,0,0,0-.419-.575,2.111,2.111,0,0,0-.629-.383,2.147,2.147,0,0,0-.8-.141,2.212,2.212,0,0,0-.81.141,1.938,1.938,0,0,0-.618.39,1.808,1.808,0,0,0-.408.575,2.046,2.046,0,0,0-.177.694H151.7A1.956,1.956,0,0,0,151.5,23.915Z" transform="translate(-93.501 -13.975)" fill="#231f20"/>
    <path id="Path_141" data-name="Path 141" d="M171.234,23.18a1.88,1.88,0,0,0-1.171-.336,2.342,2.342,0,0,0-1.052.21,1.832,1.832,0,0,0-.672.56,2.169,2.169,0,0,0-.361.8,4,4,0,0,0-.108.936,3.326,3.326,0,0,0,.116.868,2.216,2.216,0,0,0,.361.748,1.771,1.771,0,0,0,.64.528,2.107,2.107,0,0,0,.94.2,2,2,0,0,0,1.341-.412,1.807,1.807,0,0,0,.593-1.16h1.186a2.892,2.892,0,0,1-.972,1.84,3.253,3.253,0,0,1-2.133.647,4.03,4.03,0,0,1-1.424-.235,2.707,2.707,0,0,1-1.663-1.706,3.93,3.93,0,0,1-.213-1.319A4.254,4.254,0,0,1,166.846,24a3.018,3.018,0,0,1,.622-1.084,2.863,2.863,0,0,1,1.041-.723,3.716,3.716,0,0,1,1.446-.267,4.634,4.634,0,0,1,1.124.13,2.924,2.924,0,0,1,.929.4,2.223,2.223,0,0,1,.658.69,2.4,2.4,0,0,1,.329.987h-1.2A1.583,1.583,0,0,0,171.234,23.18Z" transform="translate(-106.406 -14.002)" fill="#231f20"/>
    <path id="Path_142" data-name="Path 142" d="M189.633,18.919v.925h-1.406v3.976a1.086,1.086,0,0,0,.036.3.311.311,0,0,0,.13.173.6.6,0,0,0,.264.08c.116,0,.264.018.445.018h.531v.922h-.886a4.735,4.735,0,0,1-.774-.054,1.229,1.229,0,0,1-.517-.206.856.856,0,0,1-.3-.423,2.273,2.273,0,0,1-.094-.723V19.845h-1.2v-.925h1.2V17h1.16v1.927Z" transform="translate(-118.686 -10.855)" fill="#231f20"/>
    <path id="Path_143" data-name="Path 143" d="M212.29,15.55v8.838H211V15.55Z" transform="translate(-134.732 -9.929)" fill="#231f20"/>
    <path id="Path_144" data-name="Path 144" d="M221.206,22.028v1.016h.029a2.491,2.491,0,0,1,2.284-1.164,3.318,3.318,0,0,1,1.157.173,1.879,1.879,0,0,1,.748.484,1.71,1.71,0,0,1,.4.723,3.524,3.524,0,0,1,.116.947v4.218h-1.153V24.088a1.211,1.211,0,0,0-.361-.94,1.5,1.5,0,0,0-1.048-.361,2.613,2.613,0,0,0-.918.148,1.724,1.724,0,0,0-1.03,1.059,2.374,2.374,0,0,0-.13.8v3.633h-1.16v-6.4Z" transform="translate(-140.568 -13.967)" fill="#231f20"/>
    <path id="Path_145" data-name="Path 145" d="M239.07,18.718v-.925h1.186v-.958a1.446,1.446,0,0,1,.5-1.189,2.245,2.245,0,0,1,1.446-.4q.181,0,.361.022a2.462,2.462,0,0,1,.361.076v.914a1.515,1.515,0,0,0-.329-.065,2.731,2.731,0,0,0-.329-.022,1.193,1.193,0,0,0-.654.152.629.629,0,0,0-.231.575v.9h1.363v.925H241.38v5.469h-1.16V18.718Z" transform="translate(-152.656 -9.729)" fill="#231f20"/>
    <path id="Path_146" data-name="Path 146" d="M253.54,15.55v8.838h-1.16V15.55Z" transform="translate(-161.155 -9.929)" fill="#231f20"/>
    <path id="Path_147" data-name="Path 147" d="M265.3,28.7V27.7h-.029a2.27,2.27,0,0,1-.94.875,3.047,3.047,0,0,1-1.345.278,3.448,3.448,0,0,1-1.16-.17,1.717,1.717,0,0,1-1.149-1.211,3.672,3.672,0,0,1-.116-.947V22.31h1.16v4.338a1.2,1.2,0,0,0,.383.943,1.489,1.489,0,0,0,1.045.361,2.588,2.588,0,0,0,.918-.148,1.717,1.717,0,0,0,1.034-1.059,2.377,2.377,0,0,0,.13-.8V22.328h1.16V28.7Z" transform="translate(-166.378 -14.246)" fill="#231f20"/>
    <path id="Path_148" data-name="Path 148" d="M285.834,28.032a3.438,3.438,0,0,1-1.988.546,3.9,3.9,0,0,1-1.464-.249,2.892,2.892,0,0,1-1.041-.694,2.849,2.849,0,0,1-.633-1.066,4.679,4.679,0,0,1-.239-1.348,3.553,3.553,0,0,1,.246-1.337,3.1,3.1,0,0,1,.687-1.052,3.054,3.054,0,0,1,1.048-.694,3.473,3.473,0,0,1,1.33-.249,3.116,3.116,0,0,1,1.558.361,2.942,2.942,0,0,1,.994.9,3.316,3.316,0,0,1,.517,1.186,4.535,4.535,0,0,1,.119,1.222H281.7a2.27,2.27,0,0,0,.108.8,1.808,1.808,0,0,0,.394.672,1.923,1.923,0,0,0,.694.466,2.53,2.53,0,0,0,.994.177,2.169,2.169,0,0,0,1.2-.311,1.5,1.5,0,0,0,.629-.954h1.146a2.53,2.53,0,0,1-1.034,1.627Zm-.278-4.117a1.808,1.808,0,0,0-.423-.575,2.089,2.089,0,0,0-.625-.383,2.169,2.169,0,0,0-.8-.141,2.2,2.2,0,0,0-.81.141,1.862,1.862,0,0,0-.618.39,1.757,1.757,0,0,0-.408.575,1.968,1.968,0,0,0-.177.694h4.041A1.953,1.953,0,0,0,285.555,23.915Z" transform="translate(-179.091 -13.975)" fill="#231f20"/>
    <path id="Path_149" data-name="Path 149" d="M302.878,22.028v1.016h.025a2.5,2.5,0,0,1,2.288-1.164,3.333,3.333,0,0,1,1.157.173,1.934,1.934,0,0,1,.748.484,1.746,1.746,0,0,1,.4.723,3.672,3.672,0,0,1,.116.947v4.218h-1.16V24.088a1.21,1.21,0,0,0-.38-.94,1.5,1.5,0,0,0-1.048-.361,2.6,2.6,0,0,0-.918.148,1.753,1.753,0,0,0-.647.43,1.808,1.808,0,0,0-.387.636,2.376,2.376,0,0,0-.123.81v3.615h-1.16v-6.4Z" transform="translate(-192.705 -13.967)" fill="#231f20"/>
    <path id="Path_150" data-name="Path 150" d="M326.274,23.161a1.88,1.88,0,0,0-1.171-.336,2.313,2.313,0,0,0-1.048.21,1.847,1.847,0,0,0-.676.56,2.168,2.168,0,0,0-.361.8,4,4,0,0,0-.108.936,3.326,3.326,0,0,0,.116.868,2.216,2.216,0,0,0,.361.748,1.771,1.771,0,0,0,.64.528,2.107,2.107,0,0,0,.94.2,2,2,0,0,0,1.341-.412,1.807,1.807,0,0,0,.593-1.16h1.186a2.892,2.892,0,0,1-.972,1.84,3.253,3.253,0,0,1-2.133.647,4.03,4.03,0,0,1-1.424-.235,2.869,2.869,0,0,1-1.037-.669,2.82,2.82,0,0,1-.625-1.048,3.929,3.929,0,0,1-.213-1.319,4.254,4.254,0,0,1,.206-1.341,2.968,2.968,0,0,1,.622-1.084,2.863,2.863,0,0,1,1.041-.723,3.716,3.716,0,0,1,1.446-.267,4.656,4.656,0,0,1,1.124.13,2.924,2.924,0,0,1,.929.4,2.222,2.222,0,0,1,.658.69,2.4,2.4,0,0,1,.329.987h-1.178a1.583,1.583,0,0,0-.582-.951Z" transform="translate(-205.405 -13.983)" fill="#231f20"/>
    <path id="Path_151" data-name="Path 151" d="M347.325,28.032a3.437,3.437,0,0,1-1.988.546,3.9,3.9,0,0,1-1.446-.249,2.891,2.891,0,0,1-1.041-.694,2.848,2.848,0,0,1-.633-1.066,4.677,4.677,0,0,1-.239-1.348,3.479,3.479,0,0,1,.246-1.337,3.1,3.1,0,0,1,.687-1.052,3.055,3.055,0,0,1,1.048-.694,3.459,3.459,0,0,1,1.33-.249,3.116,3.116,0,0,1,1.558.361,2.942,2.942,0,0,1,.994.9,3.315,3.315,0,0,1,.517,1.186,4.524,4.524,0,0,1,.1,1.211H343.19a2.269,2.269,0,0,0,.108.8,1.757,1.757,0,0,0,.394.672,1.923,1.923,0,0,0,.694.466,2.53,2.53,0,0,0,.994.177,2.169,2.169,0,0,0,1.2-.311,1.511,1.511,0,0,0,.618-.947h1.146A2.53,2.53,0,0,1,347.325,28.032Zm-.278-4.117a1.806,1.806,0,0,0-.423-.575,2.136,2.136,0,0,0-.625-.383,2.169,2.169,0,0,0-.8-.141,2.2,2.2,0,0,0-.81.141,1.861,1.861,0,0,0-.6.39,1.757,1.757,0,0,0-.408.575,1.966,1.966,0,0,0-.177.694h4.019A2.027,2.027,0,0,0,347.047,23.915Z" transform="translate(-218.368 -13.975)" fill="#231f20"/>
    <path id="Path_152" data-name="Path 152" d="M364.212,21.979v1.337h.029a2.92,2.92,0,0,1,1.034-1.153,2.841,2.841,0,0,1,1.554-.361v1.153a3.553,3.553,0,0,0-1.186.173,1.854,1.854,0,0,0-.792.51,2.01,2.01,0,0,0-.434.81,3.878,3.878,0,0,0-.137,1.084v2.845h-1.16v-6.4Z" transform="translate(-231.867 -13.919)" fill="#231f20"/>
    <path id="Path_153" data-name="Path 153" d="M141.593,53v5.06h-.723V53Z" transform="translate(-89.951 -33.843)" fill="#808285"/>
    <path id="Path_154" data-name="Path 154" d="M146.625,56.7v.578h0a1.446,1.446,0,0,1,1.308-.665,1.891,1.891,0,0,1,.658.1,1.131,1.131,0,0,1,.43.275,1,1,0,0,1,.228.423,2.074,2.074,0,0,1,.065.539v2.415h-.654V57.884a.687.687,0,0,0-.217-.535.853.853,0,0,0-.6-.2,1.519,1.519,0,0,0-.524.083,1,1,0,0,0-.6.6,1.446,1.446,0,0,0-.072.455v2.075H146V56.7Z" transform="translate(-93.227 -36.149)" fill="#808285"/>
    <path id="Path_155" data-name="Path 155" d="M156.85,54.821v-.531h.68v-.542a.824.824,0,0,1,.282-.676,1.308,1.308,0,0,1,.831-.228,1.584,1.584,0,0,1,.213,0,1.11,1.11,0,0,1,.217.054v.524a.958.958,0,0,0-.188-.04H158.7a.723.723,0,0,0-.361.083.362.362,0,0,0-.134.325V54.3h.777v.531H158.2v3.13h-.654V54.821Z" transform="translate(-100.155 -33.741)" fill="#808285"/>
    <path id="Path_156" data-name="Path 156" d="M165.124,53v5.06h-.654V53Z" transform="translate(-105.021 -33.843)" fill="#808285"/>
    <path id="Path_157" data-name="Path 157" d="M171.859,60.519V59.94h0a1.32,1.32,0,0,1-.539.5,1.746,1.746,0,0,1-.766.159,1.934,1.934,0,0,1-.661-.1,1.008,1.008,0,0,1-.426-.271.972.972,0,0,1-.231-.423,2.1,2.1,0,0,1-.065-.542V56.85h.654v2.483a.69.69,0,0,0,.217.539.86.86,0,0,0,.6.2,1.424,1.424,0,0,0,.524-.083,1.023,1.023,0,0,0,.361-.242,1.041,1.041,0,0,0,.22-.361,1.446,1.446,0,0,0,.072-.459V56.85h.658v3.669Z" transform="translate(-108.022 -36.301)" fill="#808285"/>
    <path id="Path_158" data-name="Path 158" d="M183.591,60.115a1.937,1.937,0,0,1-1.135.314,2.27,2.27,0,0,1-.835-.141,1.63,1.63,0,0,1-.593-.4,1.655,1.655,0,0,1-.361-.607,2.771,2.771,0,0,1-.137-.774,2,2,0,0,1,.141-.763,1.808,1.808,0,0,1,.39-.6,1.735,1.735,0,0,1,.582-.4,1.966,1.966,0,0,1,.755-.145,1.778,1.778,0,0,1,.889.2,1.645,1.645,0,0,1,.564.513,1.919,1.919,0,0,1,.3.676,2.632,2.632,0,0,1,.065.7h-3a1.391,1.391,0,0,0,.061.463,1.023,1.023,0,0,0,.228.387,1.117,1.117,0,0,0,.394.267,1.518,1.518,0,0,0,.568.1,1.225,1.225,0,0,0,.69-.177.864.864,0,0,0,.361-.546h.651A1.446,1.446,0,0,1,183.591,60.115Zm-.163-2.353a.973.973,0,0,0-.239-.325,1.186,1.186,0,0,0-.361-.217,1.229,1.229,0,0,0-.455-.08,1.254,1.254,0,0,0-.463.08,1.052,1.052,0,0,0-.361.22,1.041,1.041,0,0,0-.235.325,1.153,1.153,0,0,0-.1.4h2.306a1.034,1.034,0,0,0-.108-.4Z" transform="translate(-115.276 -36.139)" fill="#808285"/>
    <path id="Path_159" data-name="Path 159" d="M193.264,56.7v.578h0a1.424,1.424,0,0,1,1.319-.665,1.927,1.927,0,0,1,.661.1,1.084,1.084,0,0,1,.427.275,1.052,1.052,0,0,1,.231.423,2.075,2.075,0,0,1,.065.539v2.415h-.661V57.881a.676.676,0,0,0-.22-.535.842.842,0,0,0-.6-.2,1.54,1.54,0,0,0-.528.083,1.009,1.009,0,0,0-.361.242,1.026,1.026,0,0,0-.22.361,1.337,1.337,0,0,0-.076.455v2.075h-.654V56.7Z" transform="translate(-123.015 -36.146)" fill="#808285"/>
    <path id="Path_160" data-name="Path 160" d="M206.6,57.33a1.084,1.084,0,0,0-.669-.188,1.356,1.356,0,0,0-.6.119,1.041,1.041,0,0,0-.383.318,1.236,1.236,0,0,0-.206.459,2.168,2.168,0,0,0-.065.535,1.741,1.741,0,0,0,.069.5,1.28,1.28,0,0,0,.206.43,1.034,1.034,0,0,0,.361.3,1.178,1.178,0,0,0,.535.112,1.131,1.131,0,0,0,.766-.235,1.023,1.023,0,0,0,.34-.665h.676a1.63,1.63,0,0,1-.557,1.052,1.847,1.847,0,0,1-1.214.361,2.339,2.339,0,0,1-.813-.134,1.572,1.572,0,0,1-.593-.383,1.63,1.63,0,0,1-.361-.593,2.263,2.263,0,0,1-.119-.752,2.417,2.417,0,0,1,.116-.77,1.756,1.756,0,0,1,.361-.622,1.623,1.623,0,0,1,.6-.416,2.1,2.1,0,0,1,.831-.155,2.588,2.588,0,0,1,.64.076,1.724,1.724,0,0,1,.531.228,1.3,1.3,0,0,1,.361.394,1.334,1.334,0,0,1,.188.567h-.687A.882.882,0,0,0,206.6,57.33Z" transform="translate(-130.243 -36.141)" fill="#808285"/>
    <path id="Path_161" data-name="Path 161" d="M218.591,60.115a1.927,1.927,0,0,1-1.131.314,2.244,2.244,0,0,1-.835-.141,1.677,1.677,0,0,1-.6-.4,1.648,1.648,0,0,1-.361-.607,2.645,2.645,0,0,1-.137-.774,2.075,2.075,0,0,1,.137-.763,1.808,1.808,0,0,1,.394-.6,1.735,1.735,0,0,1,.6-.4,1.981,1.981,0,0,1,.755-.145,1.778,1.778,0,0,1,.889.2,1.645,1.645,0,0,1,.564.513,1.858,1.858,0,0,1,.3.676,2.633,2.633,0,0,1,.065.7h-3a1.3,1.3,0,0,0,.061.463,1.016,1.016,0,0,0,.224.387,1.131,1.131,0,0,0,.4.267,1.5,1.5,0,0,0,.568.1,1.211,1.211,0,0,0,.687-.177.864.864,0,0,0,.361-.546h.654a1.446,1.446,0,0,1-.6.936Zm-.159-2.353a1.034,1.034,0,0,0-.242-.325,1.186,1.186,0,0,0-.361-.217,1.225,1.225,0,0,0-.452-.08,1.243,1.243,0,0,0-.463.08,1.044,1.044,0,0,0-.6.546,1.145,1.145,0,0,0-.1.4h2.306a1.175,1.175,0,0,0-.09-.4Z" transform="translate(-137.625 -36.139)" fill="#808285"/>
    <path id="Path_162" data-name="Path 162" d="M228.238,56.706v.774h0a1.736,1.736,0,0,1,.6-.661,1.609,1.609,0,0,1,.889-.2v.64a1.959,1.959,0,0,0-.676.1,1.02,1.02,0,0,0-.452.289,1.11,1.11,0,0,0-.249.459,2.208,2.208,0,0,0-.08.625v1.634h-.654V56.706Z" transform="translate(-145.345 -36.153)" fill="#808285"/>
    <path id="Path_163" data-name="Path 163" d="M241.468,56.7v.539h0a1.5,1.5,0,0,1,1.3-.625,1.583,1.583,0,0,1,.676.145.813.813,0,0,1,.43.481,1.308,1.308,0,0,1,.531-.459,1.6,1.6,0,0,1,.723-.166,2.32,2.32,0,0,1,.549.061,1.236,1.236,0,0,1,.419.188.864.864,0,0,1,.271.329,1.085,1.085,0,0,1,.1.484v2.689h-.658v-2.4a1.466,1.466,0,0,0-.029-.318.614.614,0,0,0-.119-.26.564.564,0,0,0-.235-.174,1.084,1.084,0,0,0-.394-.061,1.106,1.106,0,0,0-.77.253.875.875,0,0,0-.282.68v2.284h-.654v-2.4a1.3,1.3,0,0,0-.036-.325.636.636,0,0,0-.119-.26.571.571,0,0,0-.228-.17.994.994,0,0,0-.361-.058,1.085,1.085,0,0,0-.492.1,1.171,1.171,0,0,0-.336.253,1.008,1.008,0,0,0-.188.311.853.853,0,0,0-.058.264v2.284h-.654V56.7Z" transform="translate(-153.793 -36.151)" fill="#808285"/>
    <path id="Path_164" data-name="Path 164" d="M261.885,60.444a.611.611,0,0,1-.412-.13.542.542,0,0,1-.152-.43,1.558,1.558,0,0,1-.633.43,2.263,2.263,0,0,1-.777.13,2.3,2.3,0,0,1-.51-.054,1.233,1.233,0,0,1-.423-.177.929.929,0,0,1-.286-.318.99.99,0,0,1-.1-.47,1.022,1.022,0,0,1,.116-.51,1,1,0,0,1,.307-.322,1.474,1.474,0,0,1,.434-.188c.163-.04.329-.076.5-.1s.361-.058.517-.076a3.161,3.161,0,0,0,.43-.069.788.788,0,0,0,.293-.134.322.322,0,0,0,.108-.26.56.56,0,0,0-.079-.318A.582.582,0,0,0,261,57.26a.878.878,0,0,0-.286-.083,2.378,2.378,0,0,0-.314-.022,1.5,1.5,0,0,0-.7.145.6.6,0,0,0-.3.549h-.658a1.218,1.218,0,0,1,.155-.575,1.13,1.13,0,0,1,.361-.361,1.637,1.637,0,0,1,.567-.228,3.047,3.047,0,0,1,.64-.065,4.494,4.494,0,0,1,.539.036,1.576,1.576,0,0,1,.484.145.94.94,0,0,1,.361.311.922.922,0,0,1,.13.517v1.887a1.262,1.262,0,0,0,.029.311q.025.1.184.1a.752.752,0,0,0,.2-.033v.481A1,1,0,0,1,261.885,60.444Zm-.929-1.836c-.134.025-.275.047-.423.061l-.445.058a1.808,1.808,0,0,0-.4.1.723.723,0,0,0-.289.2.525.525,0,0,0-.112.361.459.459,0,0,0,.065.249.531.531,0,0,0,.17.166.781.781,0,0,0,.249.094,1.536,1.536,0,0,0,.289.025,1.692,1.692,0,0,0,.557-.08,1.2,1.2,0,0,0,.361-.206.823.823,0,0,0,.217-.267.624.624,0,0,0,.069-.271v-.622a.853.853,0,0,1-.307.127Z" transform="translate(-165.119 -36.154)" fill="#808285"/>
    <path id="Path_165" data-name="Path 165" d="M271.284,56.712v.774h.018a1.706,1.706,0,0,1,.593-.658,1.587,1.587,0,0,1,.886-.2v.636a1.974,1.974,0,0,0-.676.1,1.041,1.041,0,0,0-.452.289,1.153,1.153,0,0,0-.249.459,2.354,2.354,0,0,0-.076.625v1.634h-.658V56.712Z" transform="translate(-172.834 -36.16)" fill="#808285"/>
    <path id="Path_166" data-name="Path 166" d="M278.665,53v2.993l1.836-1.6h.886l-1.58,1.327,1.7,2.339h-.839l-1.377-1.909-.622.524V58.06H278V53Z" transform="translate(-177.514 -33.843)" fill="#808285"/>
    <path id="Path_167" data-name="Path 167" d="M291.531,60.115a1.937,1.937,0,0,1-1.135.314,2.245,2.245,0,0,1-.835-.141,1.63,1.63,0,0,1-.593-.4,1.608,1.608,0,0,1-.361-.607,2.773,2.773,0,0,1-.137-.774,2,2,0,0,1,.141-.763,1.847,1.847,0,0,1,.39-.6,1.786,1.786,0,0,1,.6-.4,1.966,1.966,0,0,1,.755-.145,1.775,1.775,0,0,1,.886.2,1.655,1.655,0,0,1,.567.513,1.913,1.913,0,0,1,.293.676,2.642,2.642,0,0,1,.069.7h-3a1.392,1.392,0,0,0,.061.463,1.084,1.084,0,0,0,.224.387,1.168,1.168,0,0,0,.4.267,1.518,1.518,0,0,0,.567.1,1.2,1.2,0,0,0,.687-.177.839.839,0,0,0,.361-.546h.654a1.446,1.446,0,0,1-.589.936Zm-.163-2.353a.983.983,0,0,0-.242-.325,1.125,1.125,0,0,0-.361-.217,1.229,1.229,0,0,0-.455-.08,1.255,1.255,0,0,0-.463.08,1.107,1.107,0,0,0-.362.22,1.085,1.085,0,0,0-.231.325,1.155,1.155,0,0,0-.1.4h2.306A1.084,1.084,0,0,0,291.369,57.762Z" transform="translate(-184.2 -36.14)" fill="#808285"/>
    <path id="Path_168" data-name="Path 168" d="M301.6,54.934v.531h-.8v2.27a.554.554,0,0,0,.018.17.159.159,0,0,0,.076.1.329.329,0,0,0,.152.047,2.362,2.362,0,0,0,.253,0h.3V58.6h-.5a2.531,2.531,0,0,1-.441-.033.647.647,0,0,1-.3-.116.484.484,0,0,1-.166-.239,1.292,1.292,0,0,1-.054-.412V55.477h-.683v-.542h.683V53.85h.658v1.084Z" transform="translate(-191.211 -34.385)" fill="#808285"/>
    <path id="Path_169" data-name="Path 169" d="M307.52,53.723V53h.654v.723Zm.654.658v3.68h-.654V54.4Z" transform="translate(-196.364 -33.843)" fill="#808285"/>
    <path id="Path_170" data-name="Path 170" d="M312.8,56.7v.578h0a1.424,1.424,0,0,1,1.3-.665,1.927,1.927,0,0,1,.661.1,1.116,1.116,0,0,1,.426.275,1,1,0,0,1,.228.423,1.927,1.927,0,0,1,.069.539v2.415h-.658V57.883a.687.687,0,0,0-.217-.535.846.846,0,0,0-.6-.2,1.533,1.533,0,0,0-.524.083.987.987,0,0,0-.578.6,1.337,1.337,0,0,0-.076.455v2.075h-.654V56.7Z" transform="translate(-199.34 -36.148)" fill="#808285"/>
    <path id="Path_171" data-name="Path 171" d="M326.816,61.371a1.952,1.952,0,0,1-1.417.445,3.144,3.144,0,0,1-.564-.054,2.005,2.005,0,0,1-.531-.184,1.161,1.161,0,0,1-.39-.333.871.871,0,0,1-.173-.5h.658a.4.4,0,0,0,.112.275.791.791,0,0,0,.257.184,1.323,1.323,0,0,0,.333.1,1.891,1.891,0,0,0,.34.033,1.312,1.312,0,0,0,.553-.1,1.022,1.022,0,0,0,.361-.282,1.143,1.143,0,0,0,.213-.441,2.266,2.266,0,0,0,.069-.56v-.239h.007a1.084,1.084,0,0,1-.517.5,1.735,1.735,0,0,1-.723.159,1.934,1.934,0,0,1-.784-.148,1.627,1.627,0,0,1-.56-.4,1.746,1.746,0,0,1-.336-.586,2.209,2.209,0,0,1-.112-.723,2.528,2.528,0,0,1,.09-.665,1.829,1.829,0,0,1,.311-.622,1.7,1.7,0,0,1,.575-.459,1.949,1.949,0,0,1,.878-.181,1.644,1.644,0,0,1,.7.152,1.156,1.156,0,0,1,.481.47h0v-.524h.625V60.03A1.808,1.808,0,0,1,326.816,61.371Zm-.846-1.645a1.052,1.052,0,0,0,.361-.325,1.446,1.446,0,0,0,.206-.455,2,2,0,0,0,.065-.506,1.912,1.912,0,0,0-.061-.474,1.283,1.283,0,0,0-.2-.419,1.026,1.026,0,0,0-.361-.3,1.128,1.128,0,0,0-.528-.112,1.258,1.258,0,0,0-.546.108.99.99,0,0,0-.361.293,1.159,1.159,0,0,0-.21.423,1.808,1.808,0,0,0-.069.5,2.276,2.276,0,0,0,.054.492,1.341,1.341,0,0,0,.188.448,1.013,1.013,0,0,0,.361.325,1.085,1.085,0,0,0,.546.123,1.139,1.139,0,0,0,.553-.123Z" transform="translate(-206.638 -36.134)" fill="#808285"/>
    <path id="Path_172" data-name="Path 172" d="M29.875,1.171l-.875.1.361-.683.723-.065A21.12,21.12,0,0,1,32.922.4,2.177,2.177,0,0,0,32.9,0l2.125.1c.387.152.64.755.81,1.139a29.263,29.263,0,0,0-4.171-.188Z" transform="translate(-18.518)" fill="#d71920" fill-rule="evenodd"/>
    <path id="Path_173" data-name="Path 173" d="M40,4.845l.076,6.065c1.4,0,2.758.137,4.077.17a32.925,32.925,0,0,0-.539-4.171,24.124,24.124,0,0,1,4.056.8,10.161,10.161,0,0,0-.8-1.836l-1.03-.286A20.6,20.6,0,0,0,40,4.845Z" transform="translate(-25.542 -3.092)" fill="#d71920" fill-rule="evenodd"/>
    <path id="Path_174" data-name="Path 174" d="M6.967,12.834c.069-.361.137-.7.2-1.055a19.215,19.215,0,0,1,.564-2.115c.065-.2.127-.4.192-.6a18.222,18.222,0,0,1,3.69-1.03l.564-1.807-1.294.278a20.241,20.241,0,0,0-2.451.875l-.723.361-.633.361c-.087.17-.17.343-.253.513l-.134.246c-.307.672-.524,1.363-.8,2.1a11.157,11.157,0,0,0-.571,2.411,6.3,6.3,0,0,1,1.641-.546Z" transform="translate(-3.396 -3.978)" fill="#d71920" fill-rule="evenodd"/>
    <path id="Path_175" data-name="Path 175" d="M14.46,17.853l-2.6.361c-.094,1.171-.235,2.386-.228,3.68l8.675-.058c0-2.935.1-5.979.127-8.906a35.613,35.613,0,0,0-3.7.278c-.116.8-.228,1.608-.34,2.411l-.184,2.089Z" transform="translate(-7.426 -8.256)" fill="#d71920" fill-rule="evenodd"/>
    <path id="Path_176" data-name="Path 176" d="M.951,34.781A23.525,23.525,0,0,1,1.084,31c-.361.148-.929.39-1.034.759C.033,32.446.018,33.143,0,33.837H.361a19.54,19.54,0,0,0,.2,2.834l.076.6.622.416-.177-1.348Z" transform="translate(0 -19.795)" fill="#d71920" fill-rule="evenodd"/>
    <path id="Path_177" data-name="Path 177" d="M6.215,44.986c1.283.141,2.53.622,3.944.651a22.772,22.772,0,0,1-.228-3.976h0c-1.919,0-3.842-.072-5.671-.22a18.752,18.752,0,0,0,.893,5.624c.1.3.2.611.3.918a8.1,8.1,0,0,0,1.67.835c-.137-.466-.278-.925-.423-1.392C6.487,46.649,6.371,45.832,6.215,44.986Z" transform="translate(-2.72 -26.461)" fill="#d71920" fill-rule="evenodd"/>
    <path id="Path_178" data-name="Path 178" d="M46.142,46.134l2.653-.361c.043-.361.09-.723.134-1.063a18.936,18.936,0,0,0,.177-2.61c-2.913,0-5.917.145-8.888.141q-.025,4.3-.058,8.614a23.249,23.249,0,0,0,3.658-.246,27.71,27.71,0,0,0,.51-4.291Z" transform="translate(-25.644 -26.883)" fill="#b11116" fill-rule="evenodd"/>
    <path id="Path_179" data-name="Path 179" d="M57.018,54.053a10.656,10.656,0,0,1-.792,2.892c-.087.235-.177.47-.264.7a16.049,16.049,0,0,1-3.687,1l-.2.614-.39,1a11.658,11.658,0,0,0,2.075-.513,15.489,15.489,0,0,0,3.076-1.323c.036-.072.076-.141.116-.21a6.756,6.756,0,0,0,.969-1.916,17.355,17.355,0,0,0,.853-2.845A6.011,6.011,0,0,1,57.018,54.053Z" transform="translate(-33.006 -34.136)" fill="#b11116" fill-rule="evenodd"/>
    <path id="Path_180" data-name="Path 180" d="M23.283,61.544l-.119-4.027a31.248,31.248,0,0,1-3.976-.228h0c.119.831.235,1.659.361,2.487l.3,1.417A38.379,38.379,0,0,1,16,60.308a6.759,6.759,0,0,0,.842,1.652l1.446.437a18.228,18.228,0,0,0,5.082.723C23.345,62.607,23.316,62.072,23.283,61.544Z" transform="translate(-10.217 -36.582)" fill="#b11116" fill-rule="evenodd"/>
    <path id="Path_181" data-name="Path 181" d="M30.48,74.509c.314,1.084,1.424,1.034,2.79,1.019v-.311a20.54,20.54,0,0,0,2.939-.159L36.668,75l.394-.564-1.945.2a19.88,19.88,0,0,1-4.638-.134Z" transform="translate(-19.463 -47.533)" fill="#b11116" fill-rule="evenodd"/>
    <path id="Path_182" data-name="Path 182" d="M61.479,19.047,61.118,17.6a8.437,8.437,0,0,0-1.807-.792,33.016,33.016,0,0,1,.759,3.781h0l.036.271-.239-.043a37.693,37.693,0,0,0-3.907-.513c.058,1.319.163,2.66.159,4.07h0l5.993.076A20.915,20.915,0,0,0,61.479,19.047Z" transform="translate(-35.733 -10.734)" fill="#b11116" fill-rule="evenodd"/>
    <path id="Path_183" data-name="Path 183" d="M75.456,33.652l-.34.018s0-2.082-.1-2.935c0-.188-.033-.361-.047-.564l-.633-.361c.04.39.076.781.116,1.171.025.466.047.933.069,1.4a18.806,18.806,0,0,1-.26,4.164C75.424,36.186,75.471,35.127,75.456,33.652Z" transform="translate(-47.418 -19.035)" fill="#b11116" fill-rule="evenodd"/>
  </g>
</svg>
