<svg xmlns="http://www.w3.org/2000/svg" width="210.452" height="28" viewBox="0 0 210.452 28">
  <g id="food" transform="translate(0 0)">
    <g id="レイヤー_1" data-name="レイヤー 1" transform="translate(0 0)">
      <path id="Path_402" data-name="Path 402" d="M3.663,3.663A12.51,12.51,0,0,0,0,12.565v.2A12.577,12.577,0,0,0,12.577,25.338H33.892A1.343,1.343,0,0,0,35.229,24V9.7a1.135,1.135,0,0,0-.336-.806h0a1.142,1.142,0,0,0-.806-.348h-3.6a1.136,1.136,0,0,0-.812.33h0a1.142,1.142,0,0,0-.33.806v9.769H12.565A6.716,6.716,0,0,1,5.88,12.736v-.2a6.716,6.716,0,0,1,6.686-6.661H17.01a1.123,1.123,0,0,0,1.142-1.142v-3.6a1.13,1.13,0,0,0-.33-.806h0A1.148,1.148,0,0,0,17.01,0H12.565a12.492,12.492,0,0,0-8.9,3.663Z" transform="translate(0 0)" fill="#171c61"/>
      <path id="Path_403" data-name="Path 403" d="M51.171,19.886a1.148,1.148,0,0,0-.336.806v3.614a1.135,1.135,0,0,0,.336.806h0a1.148,1.148,0,0,0,.806.336h4.445A12.59,12.59,0,0,0,69,12.864v-.2A12.577,12.577,0,0,0,56.421.11H35.131A1.337,1.337,0,0,0,33.77,1.447v14.3a1.136,1.136,0,0,0,.33.812h0a1.184,1.184,0,0,0,.812.33h3.6a1.154,1.154,0,0,0,.806-.33h0a1.16,1.16,0,0,0,.336-.812V5.977H56.421a6.716,6.716,0,0,1,6.686,6.716v.171a6.716,6.716,0,0,1-6.686,6.716H51.977A1.16,1.16,0,0,0,51.171,19.886Z" transform="translate(-13.152 -0.043)" fill="#171c61"/>
      <path id="Path_404" data-name="Path 404" d="M132.55,33.046h2.943a2.29,2.29,0,0,1,1.526.44,1.526,1.526,0,0,1,.513,1.221,1.777,1.777,0,0,1-.134.727,1.594,1.594,0,0,1-.3.47,1.184,1.184,0,0,1-.342.25,2.294,2.294,0,0,1-.244.1h0a1.221,1.221,0,0,1,.293.085.922.922,0,0,1,.3.22,1.221,1.221,0,0,1,.232.4,1.7,1.7,0,0,1,.092.611,5.5,5.5,0,0,0,.079.989,1.264,1.264,0,0,0,.256.611H136.6a.958.958,0,0,1-.14-.44v-.464a4.2,4.2,0,0,0-.049-.727,1.307,1.307,0,0,0-.189-.513.843.843,0,0,0-.379-.3,1.7,1.7,0,0,0-.611-.092h-1.594V39.17h-1.075Zm1.075,2.8H135.4a1.117,1.117,0,0,0,.788-.244.959.959,0,0,0,.269-.739,1.166,1.166,0,0,0-.085-.476.763.763,0,0,0-.238-.293.861.861,0,0,0-.348-.134,2.15,2.15,0,0,0-.4-.037h-1.752Z" transform="translate(-51.621 -12.867)" fill="#717071"/>
      <path id="Path_405" data-name="Path 405" d="M142.9,38.259a1.746,1.746,0,0,0,.073.5,1.257,1.257,0,0,0,.22.421,1.02,1.02,0,0,0,.372.287,1.394,1.394,0,0,0,1.233-.073,1.135,1.135,0,0,0,.391-.562h.934a1.877,1.877,0,0,1-.727,1.13,2.021,2.021,0,0,1-.611.293,2.4,2.4,0,0,1-.7.1,2.363,2.363,0,0,1-.934-.171,1.9,1.9,0,0,1-.684-.482,2.088,2.088,0,0,1-.427-.745,3.107,3.107,0,0,1-.14-.946,2.625,2.625,0,0,1,.153-.9,2.186,2.186,0,0,1,.433-.751,1.887,1.887,0,0,1,.7-.482,2.186,2.186,0,0,1,1.832,0,2.052,2.052,0,0,1,.69.611,2.314,2.314,0,0,1,.4.836,2.577,2.577,0,0,1,.067.971Zm2.3-.647a1.422,1.422,0,0,0-.1-.452,1.179,1.179,0,0,0-.226-.379,1.118,1.118,0,0,0-.342-.256,1,1,0,0,0-.452-.1,1.154,1.154,0,0,0-.47.092,1.032,1.032,0,0,0-.366.25,1.178,1.178,0,0,0-.238.372,1.324,1.324,0,0,0-.1.47Z" transform="translate(-55.263 -13.892)" fill="#717071"/>
      <path id="Path_406" data-name="Path 406" d="M150.719,38.81a.751.751,0,0,0,.33.611,1.294,1.294,0,0,0,.684.171,1.986,1.986,0,0,0,.311,0,1.178,1.178,0,0,0,.336-.079.647.647,0,0,0,.256-.177.476.476,0,0,0,.092-.305.44.44,0,0,0-.14-.311.941.941,0,0,0-.336-.2,2.761,2.761,0,0,0-.458-.122l-.525-.116a3.371,3.371,0,0,1-.531-.147,1.618,1.618,0,0,1-.458-.232,1.02,1.02,0,0,1-.324-.379,1.111,1.111,0,0,1-.122-.562.989.989,0,0,1,.177-.611,1.392,1.392,0,0,1,.446-.4,2.149,2.149,0,0,1,.611-.214,3.937,3.937,0,0,1,.611-.055,2.87,2.87,0,0,1,.659.073,1.917,1.917,0,0,1,.574.232,1.4,1.4,0,0,1,.421.427,1.563,1.563,0,0,1,.214.611h-1.032a.611.611,0,0,0-.324-.47,1.221,1.221,0,0,0-.58-.122h-.244a1.154,1.154,0,0,0-.269.061.568.568,0,0,0-.214.14.342.342,0,0,0-.085.238.385.385,0,0,0,.122.293,1.056,1.056,0,0,0,.33.183,3.582,3.582,0,0,0,.464.128l.537.11c.177.043.354.092.525.147a1.8,1.8,0,0,1,.458.232,1.068,1.068,0,0,1,.33.372,1.117,1.117,0,0,1,.128.556,1.221,1.221,0,0,1-.183.672,1.447,1.447,0,0,1-.47.452,2.442,2.442,0,0,1-.641.25,3.474,3.474,0,0,1-.7.073,3.157,3.157,0,0,1-.781-.092,1.832,1.832,0,0,1-.611-.293,1.441,1.441,0,0,1-.415-.482,1.569,1.569,0,0,1-.159-.684Z" transform="translate(-58.312 -13.899)" fill="#717071"/>
      <path id="Path_407" data-name="Path 407" d="M156.728,34.977h.769V33.64h.983v1.337h.849v.714h-.891v2.65a.573.573,0,0,0,.061.189.293.293,0,0,0,.14.116.775.775,0,0,0,.263.037h.415v.757l-.324.037a2.693,2.693,0,0,1-.317,0,2.143,2.143,0,0,1-.611-.073.8.8,0,0,1-.372-.22.7.7,0,0,1-.183-.354,2.913,2.913,0,0,1-.055-.495V35.691h-.745Z" transform="translate(-61.03 -13.101)" fill="#717071"/>
      <path id="Path_408" data-name="Path 408" d="M165.769,39.242a.507.507,0,0,0,.049.256.189.189,0,0,0,.183.079h.244v.684l-.134.037-.171.043h-.317a.91.91,0,0,1-.5-.122.61.61,0,0,1-.262-.421,1.722,1.722,0,0,1-.72.415,2.821,2.821,0,0,1-.824.128,1.978,1.978,0,0,1-.574-.079,1.41,1.41,0,0,1-.488-.244,1.081,1.081,0,0,1-.336-.4,1.221,1.221,0,0,1-.128-.574,1.312,1.312,0,0,1,.128-.666,1.093,1.093,0,0,1,.4-.4,1.832,1.832,0,0,1,.549-.214c.208-.043.415-.073.611-.1a4.145,4.145,0,0,1,.513-.073,2.069,2.069,0,0,0,.427-.073.678.678,0,0,0,.293-.159.439.439,0,0,0,.11-.324.5.5,0,0,0-.092-.311.611.611,0,0,0-.226-.183.952.952,0,0,0-.3-.092h-.311a1.221,1.221,0,0,0-.678.171.672.672,0,0,0-.305.537h-.983a1.514,1.514,0,0,1,.208-.72,1.447,1.447,0,0,1,.464-.458,1.893,1.893,0,0,1,.611-.238,3.615,3.615,0,0,1,.727-.067,2.876,2.876,0,0,1,.647.067,1.71,1.71,0,0,1,.574.226,1.294,1.294,0,0,1,.415.4,1.111,1.111,0,0,1,.153.611Zm-.983-1.221a1.221,1.221,0,0,1-.556.177,6,6,0,0,0-.653.092,2.472,2.472,0,0,0-.305.073.842.842,0,0,0-.256.128.574.574,0,0,0-.177.22.727.727,0,0,0-.067.324.391.391,0,0,0,.1.275.708.708,0,0,0,.226.177,1.172,1.172,0,0,0,.293.092,1.77,1.77,0,0,0,.293,0,1.507,1.507,0,0,0,.354-.043,1.276,1.276,0,0,0,.354-.147.891.891,0,0,0,.281-.263.647.647,0,0,0,.116-.4Z" transform="translate(-63.007 -13.891)" fill="#717071"/>
      <path id="Path_409" data-name="Path 409" d="M173.978,40.293h-.965v-.611h0a1.392,1.392,0,0,1-.543.525,1.472,1.472,0,0,1-.727.2,1.661,1.661,0,0,1-1.276-.433,1.923,1.923,0,0,1-.391-1.319V35.83h.983v2.741a1.178,1.178,0,0,0,.226.824.8.8,0,0,0,.611.244,1.221,1.221,0,0,0,.519-.1.886.886,0,0,0,.336-.25,1.136,1.136,0,0,0,.189-.385,2.044,2.044,0,0,0,.055-.482V35.83h.983Z" transform="translate(-66.234 -13.954)" fill="#717071"/>
      <path id="Path_410" data-name="Path 410" d="M178.158,35.756h.922v.867h0a1.093,1.093,0,0,1,.165-.354,1.868,1.868,0,0,1,.305-.317,1.551,1.551,0,0,1,.391-.226,1.124,1.124,0,0,1,.44-.085h.372v.946h-.421a1.124,1.124,0,0,0-.47.1.983.983,0,0,0-.385.293,1.484,1.484,0,0,0-.263.476,2.148,2.148,0,0,0-.092.659v2.119h-.983Z" transform="translate(-69.376 -13.88)" fill="#717071"/>
      <path id="Path_411" data-name="Path 411" d="M186.723,39.253a.452.452,0,0,0,.049.256.189.189,0,0,0,.183.079h.244v.684l-.134.037-.171.043h-.336a.9.9,0,0,1-.5-.122.611.611,0,0,1-.263-.421,1.722,1.722,0,0,1-.72.415,2.821,2.821,0,0,1-.824.128,2.045,2.045,0,0,1-.58-.079,1.526,1.526,0,0,1-.488-.244,1.142,1.142,0,0,1-.336-.4,1.5,1.5,0,0,1,.031-1.221,1.093,1.093,0,0,1,.4-.4,1.832,1.832,0,0,1,.55-.214c.208-.043.409-.073.611-.1a4.146,4.146,0,0,1,.513-.073,2.143,2.143,0,0,0,.427-.073.678.678,0,0,0,.293-.159.44.44,0,0,0,.1-.324.5.5,0,0,0-.085-.311.654.654,0,0,0-.226-.183.952.952,0,0,0-.3-.092h-.311a1.221,1.221,0,0,0-.684.171.678.678,0,0,0-.3.537H182.9a1.514,1.514,0,0,1,.208-.72,1.429,1.429,0,0,1,.458-.458,1.984,1.984,0,0,1,.611-.238,3.614,3.614,0,0,1,.727-.067,2.876,2.876,0,0,1,.647.067,1.764,1.764,0,0,1,.574.226,1.27,1.27,0,0,1,.409.4,1.111,1.111,0,0,1,.159.611Zm-.983-1.221a1.221,1.221,0,0,1-.556.177,5.8,5.8,0,0,0-.653.092,2.474,2.474,0,0,0-.305.073.842.842,0,0,0-.256.128.525.525,0,0,0-.177.22.727.727,0,0,0-.067.324.391.391,0,0,0,.1.275.647.647,0,0,0,.226.177,1.172,1.172,0,0,0,.293.092,1.722,1.722,0,0,0,.293,0,1.551,1.551,0,0,0,.354-.043,1.276,1.276,0,0,0,.354-.147.892.892,0,0,0,.281-.263.69.69,0,0,0,.116-.4Z" transform="translate(-71.164 -13.903)" fill="#717071"/>
      <path id="Path_412" data-name="Path 412" d="M191,35.727h.928v.659h0a1.685,1.685,0,0,1,.611-.611,1.587,1.587,0,0,1,.806-.208,1.642,1.642,0,0,1,1.154.379,1.422,1.422,0,0,1,.427,1.136v3.053h-.983V37.387a1.221,1.221,0,0,0-.226-.763.818.818,0,0,0-.647-.238,1.069,1.069,0,0,0-.452.092.916.916,0,0,0-.336.25,1.124,1.124,0,0,0-.214.372,1.288,1.288,0,0,0-.079.458V40.19H191Z" transform="translate(-74.385 -13.851)" fill="#717071"/>
      <path id="Path_413" data-name="Path 413" d="M198.39,34.977h.745V33.64h.983v1.337H201v.714h-.885v2.381a1.831,1.831,0,0,0,0,.269.463.463,0,0,0,.061.189.293.293,0,0,0,.14.116.751.751,0,0,0,.263.037h.409v.757l-.317.037a2.692,2.692,0,0,1-.317,0,2.192,2.192,0,0,1-.611-.073.83.83,0,0,1-.372-.22.751.751,0,0,1-.177-.354,2.4,2.4,0,0,1-.055-.495V35.691H198.4Z" transform="translate(-77.263 -13.101)" fill="#717071"/>
      <path id="Path_414" data-name="Path 414" d="M207.8,33.05h.983v2.277h0a1.276,1.276,0,0,1,.25-.293,1.507,1.507,0,0,1,.324-.22,1.832,1.832,0,0,1,.372-.14,1.649,1.649,0,0,1,.385-.043,2.149,2.149,0,0,1,.916.183,1.8,1.8,0,0,1,.653.507,2.406,2.406,0,0,1,.391.757A3.235,3.235,0,0,1,212.2,37a3.462,3.462,0,0,1-.116.873,2.37,2.37,0,0,1-.354.751,1.758,1.758,0,0,1-.611.513,1.716,1.716,0,0,1-.855.2,2.858,2.858,0,0,1-.452-.031,1.465,1.465,0,0,1-.433-.116,1.324,1.324,0,0,1-.379-.226,1.136,1.136,0,0,1-.281-.36h0v.611h-.934Zm3.437,3.938a2.441,2.441,0,0,0-.079-.611,1.643,1.643,0,0,0-.232-.5,1.221,1.221,0,0,0-.391-.354,1.032,1.032,0,0,0-.537-.134,1.062,1.062,0,0,0-.934.433,1.911,1.911,0,0,0-.317,1.148,2.259,2.259,0,0,0,.085.611,1.344,1.344,0,0,0,.244.495,1.188,1.188,0,0,0,1.5.33,1.252,1.252,0,0,0,.385-.354,1.532,1.532,0,0,0,.214-.5A2.589,2.589,0,0,0,211.24,36.988Z" transform="translate(-80.924 -12.871)" fill="#717071"/>
      <path id="Path_415" data-name="Path 415" d="M220.338,40.293h-.971v-.611h0a1.337,1.337,0,0,1-.537.537,1.471,1.471,0,0,1-.727.2,1.649,1.649,0,0,1-1.276-.433,1.923,1.923,0,0,1-.391-1.319V35.83h.952v2.741a1.178,1.178,0,0,0,.226.824.794.794,0,0,0,.611.244,1.221,1.221,0,0,0,.519-.1.934.934,0,0,0,.336-.25,1.019,1.019,0,0,0,.183-.385,2.046,2.046,0,0,0,.055-.482V35.83h.989Z" transform="translate(-84.289 -13.954)" fill="#717071"/>
      <path id="Path_416" data-name="Path 416" d="M225.093,38.814a.751.751,0,0,0,.33.611,1.27,1.27,0,0,0,.678.171,2.057,2.057,0,0,0,.317,0,1.184,1.184,0,0,0,.33-.079.647.647,0,0,0,.256-.177.47.47,0,0,0-.049-.611.965.965,0,0,0-.33-.2,2.681,2.681,0,0,0-.464-.122l-.525-.116a3.786,3.786,0,0,1-.531-.147,1.619,1.619,0,0,1-.458-.232,1.081,1.081,0,0,1-.324-.379,1.178,1.178,0,0,1-.122-.562,1.032,1.032,0,0,1,.177-.611,1.417,1.417,0,0,1,.452-.4,2.021,2.021,0,0,1,.611-.214,3.883,3.883,0,0,1,.611-.055,2.949,2.949,0,0,1,.659.073,1.948,1.948,0,0,1,.568.232,1.5,1.5,0,0,1,.427.427,1.557,1.557,0,0,1,.208.611h-1.026a.611.611,0,0,0-.324-.47,1.294,1.294,0,0,0-.611-.122h-.244a1.319,1.319,0,0,0-.269.061.543.543,0,0,0-.208.14.324.324,0,0,0-.092.238.366.366,0,0,0,.128.293,1.057,1.057,0,0,0,.33.183,3.48,3.48,0,0,0,.458.128l.537.11c.177.043.354.092.525.147a1.74,1.74,0,0,1,.464.232,1.221,1.221,0,0,1,.33.372,1.184,1.184,0,0,1,.122.556,1.221,1.221,0,0,1-.177.672,1.465,1.465,0,0,1-.476.452,2.3,2.3,0,0,1-.641.25,3.462,3.462,0,0,1-.7.073,3.12,3.12,0,0,1-.781-.092,1.783,1.783,0,0,1-.611-.293,1.319,1.319,0,0,1-.415-.482,1.49,1.49,0,0,1-.159-.684Z" transform="translate(-87.268 -13.903)" fill="#717071"/>
      <path id="Path_417" data-name="Path 417" d="M231.91,33.05h.983v.934h-.983Zm0,1.7h.983V39.21h-.983Z" transform="translate(-90.317 -12.871)" fill="#717071"/>
      <path id="Path_418" data-name="Path 418" d="M235.27,35.727h.934v.659h0a1.588,1.588,0,0,1,.611-.611,1.551,1.551,0,0,1,.8-.208,1.661,1.661,0,0,1,1.16.379,1.441,1.441,0,0,1,.421,1.136v3.053h-.983V37.387a1.221,1.221,0,0,0-.226-.763.806.806,0,0,0-.647-.238,1.038,1.038,0,0,0-.446.092.94.94,0,0,0-.342.25,1.221,1.221,0,0,0-.214.372,1.441,1.441,0,0,0-.079.458V40.19h-.983Z" transform="translate(-91.626 -13.851)" fill="#717071"/>
      <path id="Path_419" data-name="Path 419" d="M244.007,38.259a1.746,1.746,0,0,0,.073.5,1.257,1.257,0,0,0,.22.421.971.971,0,0,0,.372.287,1.179,1.179,0,0,0,.531.11,1.221,1.221,0,0,0,.7-.183,1.1,1.1,0,0,0,.391-.562h.934a1.753,1.753,0,0,1-.269.647,1.649,1.649,0,0,1-.458.482,2.021,2.021,0,0,1-.611.293,2.369,2.369,0,0,1-.7.1,2.332,2.332,0,0,1-.928-.171,1.929,1.929,0,0,1-.69-.482,1.991,1.991,0,0,1-.421-.745,2.931,2.931,0,0,1-.153-.946,2.779,2.779,0,0,1,.153-.9,2.284,2.284,0,0,1,.434-.751,2,2,0,0,1,.7-.482,2.082,2.082,0,0,1,2.54.611,2.308,2.308,0,0,1,.4.836,2.442,2.442,0,0,1,.067.971Zm2.3-.647a1.612,1.612,0,0,0-.1-.452,1.3,1.3,0,0,0-.226-.379,1.221,1.221,0,0,0-.348-.256,1,1,0,0,0-.452-.1,1.172,1.172,0,0,0-.47.092,1.007,1.007,0,0,0-.36.25,1.221,1.221,0,0,0-.244.372,1.319,1.319,0,0,0-.1.47Z" transform="translate(-94.636 -13.892)" fill="#717071"/>
      <path id="Path_420" data-name="Path 420" d="M251.819,38.81a.733.733,0,0,0,.324.611,1.306,1.306,0,0,0,.684.171,2.112,2.112,0,0,0,.317,0,1.185,1.185,0,0,0,.33-.079.647.647,0,0,0,.256-.177.415.415,0,0,0,.092-.305.44.44,0,0,0-.14-.311.965.965,0,0,0-.33-.2,2.84,2.84,0,0,0-.464-.122l-.525-.116a3.786,3.786,0,0,1-.531-.147,1.617,1.617,0,0,1-.458-.232,1.081,1.081,0,0,1-.324-.379,1.178,1.178,0,0,1-.122-.562,1.032,1.032,0,0,1,.177-.611,1.356,1.356,0,0,1,.452-.4,2.021,2.021,0,0,1,.611-.214,3.826,3.826,0,0,1,.611-.055,2.948,2.948,0,0,1,.659.073,1.947,1.947,0,0,1,.568.232,1.4,1.4,0,0,1,.421.427,1.478,1.478,0,0,1,.214.611h-1.026a.611.611,0,0,0-.324-.47,1.294,1.294,0,0,0-.611-.122h-.244a1.221,1.221,0,0,0-.269.061.568.568,0,0,0-.214.14.342.342,0,0,0-.085.238.366.366,0,0,0,.128.293.934.934,0,0,0,.33.183,3.479,3.479,0,0,0,.458.128l.537.11c.177.043.354.092.525.147a1.833,1.833,0,0,1,.464.232,1.221,1.221,0,0,1,.33.372,1.325,1.325,0,0,1-.061,1.221,1.392,1.392,0,0,1-.47.452,2.3,2.3,0,0,1-.641.25,3.474,3.474,0,0,1-.7.073,3.156,3.156,0,0,1-.781-.092,1.752,1.752,0,0,1-.611-.293,1.319,1.319,0,0,1-.415-.482,1.417,1.417,0,0,1-.159-.684Z" transform="translate(-97.674 -13.899)" fill="#717071"/>
      <path id="Path_421" data-name="Path 421" d="M259.187,38.81a.733.733,0,0,0,.324.611,1.294,1.294,0,0,0,.684.171,2.112,2.112,0,0,0,.318,0,1.185,1.185,0,0,0,.33-.079.647.647,0,0,0,.256-.177.415.415,0,0,0,.092-.305.44.44,0,0,0-.14-.311.965.965,0,0,0-.33-.2,3.01,3.01,0,0,0-.464-.122l-.525-.116a3.786,3.786,0,0,1-.531-.147,1.618,1.618,0,0,1-.458-.232,1.081,1.081,0,0,1-.324-.379,1.178,1.178,0,0,1-.122-.562,1.032,1.032,0,0,1,.177-.611,1.355,1.355,0,0,1,.452-.4,2.021,2.021,0,0,1,.611-.214,3.81,3.81,0,0,1,.611-.055,2.966,2.966,0,0,1,.665.073,1.948,1.948,0,0,1,.568.232,1.4,1.4,0,0,1,.421.427,1.477,1.477,0,0,1,.214.611h-1.026a.61.61,0,0,0-.324-.47,1.294,1.294,0,0,0-.611-.122h-.244a1.221,1.221,0,0,0-.269.061.567.567,0,0,0-.214.14.342.342,0,0,0-.085.238.366.366,0,0,0,.128.293.958.958,0,0,0,.324.183,3.874,3.874,0,0,0,.464.128l.537.11c.177.043.354.092.525.147a1.83,1.83,0,0,1,.464.232,1.1,1.1,0,0,1,.489.959,1.222,1.222,0,0,1-.183.672,1.448,1.448,0,0,1-.47.452,2.375,2.375,0,0,1-.641.25,3.474,3.474,0,0,1-.7.073,3.157,3.157,0,0,1-.782-.092,1.832,1.832,0,0,1-.611-.293,1.361,1.361,0,0,1-.409-.482,1.489,1.489,0,0,1-.165-.684Z" transform="translate(-100.56 -13.899)" fill="#717071"/>
      <path id="Path_422" data-name="Path 422" d="M271.773,40.345a2.369,2.369,0,0,1-.952-.177,2.015,2.015,0,0,1-1.148-1.221,3.01,3.01,0,0,1,0-1.893,2.027,2.027,0,0,1,.44-.745,2.082,2.082,0,0,1,.708-.482,2.668,2.668,0,0,1,1.911,0,2.143,2.143,0,0,1,.708.482,2.211,2.211,0,0,1,.44.745,3.132,3.132,0,0,1,0,1.893,2.18,2.18,0,0,1-.44.739,2.07,2.07,0,0,1-.708.488,2.375,2.375,0,0,1-.959.171Zm0-.775a1.16,1.16,0,0,0,.574-.14,1.22,1.22,0,0,0,.4-.36,1.587,1.587,0,0,0,.226-.507,2.261,2.261,0,0,0,0-1.142,1.532,1.532,0,0,0-.226-.507,1.325,1.325,0,0,0-.4-.36,1.154,1.154,0,0,0-.574-.134,1.117,1.117,0,0,0-.568.134,1.325,1.325,0,0,0-.4.36,1.54,1.54,0,0,0-.232.507,2.261,2.261,0,0,0,0,1.142,1.6,1.6,0,0,0,.232.507,1.221,1.221,0,0,0,.4.36,1.117,1.117,0,0,0,.568.14Z" transform="translate(-104.964 -13.884)" fill="#717071"/>
      <path id="Path_423" data-name="Path 423" d="M278.274,35.76h.934v.611h0a1.221,1.221,0,0,1,.574-.556,1.984,1.984,0,0,1,.806-.165,2.131,2.131,0,0,1,.916.183,1.8,1.8,0,0,1,.653.507,2.283,2.283,0,0,1,.391.757,3.364,3.364,0,0,1,0,1.8,2.368,2.368,0,0,1-.354.751,1.8,1.8,0,0,1-.611.513,1.752,1.752,0,0,1-.855.2,2.594,2.594,0,0,1-.433-.037,1.636,1.636,0,0,1-.415-.128,1.393,1.393,0,0,1-.366-.22,1.143,1.143,0,0,1-.281-.311h0v2.229h-.983ZM281.712,38a2.159,2.159,0,0,0-.079-.611,1.507,1.507,0,0,0-.232-.5,1.142,1.142,0,0,0-.391-.354,1.014,1.014,0,0,0-.531-.134,1.081,1.081,0,0,0-.94.433,1.911,1.911,0,0,0-.311,1.148,2.26,2.26,0,0,0,.079.611,1.343,1.343,0,0,0,.244.495,1.222,1.222,0,0,0,.4.33,1.135,1.135,0,0,0,.531.122,1.117,1.117,0,0,0,.568-.14,1.251,1.251,0,0,0,.385-.354,1.532,1.532,0,0,0,.214-.5A2.584,2.584,0,0,0,281.712,38Z" transform="translate(-108.364 -13.883)" fill="#717071"/>
      <path id="Path_424" data-name="Path 424" d="M287.511,38.259a1.745,1.745,0,0,0,.073.5,1.257,1.257,0,0,0,.22.421.971.971,0,0,0,.372.287,1.178,1.178,0,0,0,.531.11,1.221,1.221,0,0,0,.7-.183,1.1,1.1,0,0,0,.391-.562h.934a1.753,1.753,0,0,1-.269.647,1.65,1.65,0,0,1-.458.482,2.021,2.021,0,0,1-.611.293,2.589,2.589,0,0,1-1.63-.073,1.961,1.961,0,0,1-.684-.482,1.991,1.991,0,0,1-.421-.745,2.929,2.929,0,0,1-.147-.946,2.778,2.778,0,0,1,.153-.9,2.282,2.282,0,0,1,.434-.751,1.936,1.936,0,0,1,.69-.482,2.186,2.186,0,0,1,1.832,0,2.07,2.07,0,0,1,.7.611,2.308,2.308,0,0,1,.4.836,2.443,2.443,0,0,1,.067.971Zm2.3-.647a1.613,1.613,0,0,0-.1-.452,1.3,1.3,0,0,0-.226-.379,1.22,1.22,0,0,0-.348-.256,1,1,0,0,0-.452-.1,1.172,1.172,0,0,0-.47.092,1.087,1.087,0,0,0-.366.25,1.3,1.3,0,0,0-.238.372,1.318,1.318,0,0,0-.1.47Z" transform="translate(-111.581 -13.892)" fill="#717071"/>
      <path id="Path_425" data-name="Path 425" d="M294.75,35.727h.934v.659h0a1.587,1.587,0,0,1,.611-.611,1.551,1.551,0,0,1,.8-.208,1.661,1.661,0,0,1,1.16.379,1.441,1.441,0,0,1,.421,1.136v3.053h-.983V37.387a1.221,1.221,0,0,0-.226-.763.818.818,0,0,0-.647-.238,1.038,1.038,0,0,0-.446.092.94.94,0,0,0-.342.25,1.22,1.22,0,0,0-.214.372,1.442,1.442,0,0,0-.079.458V40.19h-.983Z" transform="translate(-114.79 -13.851)" fill="#717071"/>
      <path id="Path_426" data-name="Path 426" d="M303.491,38.24a1.746,1.746,0,0,0,.073.5,1.257,1.257,0,0,0,.22.421.97.97,0,0,0,.372.287,1.178,1.178,0,0,0,.531.11,1.221,1.221,0,0,0,.7-.183,1.1,1.1,0,0,0,.391-.562h.934a1.751,1.751,0,0,1-.269.647,1.648,1.648,0,0,1-.458.482,2.02,2.02,0,0,1-.61.293,2.369,2.369,0,0,1-.7.1,2.333,2.333,0,0,1-.928-.171,1.929,1.929,0,0,1-.69-.482,1.99,1.99,0,0,1-.421-.745,2.93,2.93,0,0,1-.147-.946,2.777,2.777,0,0,1,.153-.9,2.284,2.284,0,0,1,.433-.751,1.935,1.935,0,0,1,.678-.513,2.082,2.082,0,0,1,2.54.611,2.309,2.309,0,0,1,.4.836,2.442,2.442,0,0,1,.067.971Zm2.3-.647a1.611,1.611,0,0,0-.1-.452,1.3,1.3,0,0,0-.226-.379,1.221,1.221,0,0,0-.348-.256,1,1,0,0,0-.452-.1,1.172,1.172,0,0,0-.47.092,1.007,1.007,0,0,0-.36.25,1.222,1.222,0,0,0-.244.372,1.32,1.32,0,0,0-.1.47Z" transform="translate(-117.804 -13.873)" fill="#717071"/>
      <path id="Path_427" data-name="Path 427" d="M314.812,39.21h-.934V38.6h0a1.166,1.166,0,0,1-.58.556,1.972,1.972,0,0,1-.8.165,2.161,2.161,0,0,1-.922-.183,1.776,1.776,0,0,1-.647-.507,2.074,2.074,0,0,1-.391-.757,3.26,3.26,0,0,1-.128-.934,2.974,2.974,0,0,1,.165-1.044,1.984,1.984,0,0,1,.434-.727,1.758,1.758,0,0,1,.611-.421,2.051,2.051,0,0,1,.714-.128,2.565,2.565,0,0,1,.421.037,2.022,2.022,0,0,1,.415.122,2.242,2.242,0,0,1,.366.22,1.264,1.264,0,0,1,.281.317h0V33.05h.983Zm-3.431-2.18a2.214,2.214,0,0,0,.073.562,1.435,1.435,0,0,0,.226.488,1.056,1.056,0,0,0,.385.348,1.221,1.221,0,0,0,1.117,0,1.148,1.148,0,0,0,.385-.36,1.586,1.586,0,0,0,.226-.507,2.24,2.24,0,0,0,.073-.574,1.831,1.831,0,0,0-.33-1.154,1.093,1.093,0,0,0-.9-.415,1.117,1.117,0,0,0-.611.14,1.221,1.221,0,0,0-.391.372,1.46,1.46,0,0,0-.214.519,2.38,2.38,0,0,0-.037.58Z" transform="translate(-120.888 -12.871)" fill="#717071"/>
      <path id="Path_428" data-name="Path 428" d="M108.573,2.758a11.894,11.894,0,0,1-1.832,2.076c-.226.208-.708.647-1.105.647a.794.794,0,0,1-.727-.788c0-.348.232-.525.91-1.026a10.69,10.69,0,0,0,1.966-2.058,1.111,1.111,0,0,1,1-.519c.611,0,.769.183,1.526,1.014a8.9,8.9,0,0,0,1.392,1.221.727.727,0,0,1,.379.611.763.763,0,0,1-.739.727c-.562,0-1.484-.971-1.954-1.526l-.4-.5a.263.263,0,0,0-.177-.122C108.708,2.532,108.677,2.593,108.573,2.758Zm5.617,3.5c0-.427.183-.745.7-.745s.8.14.8.745V7.4A8.505,8.505,0,0,0,118.4,13.43c.482.427.665.574.665.94a.873.873,0,0,1-.788.818c-.409,0-.91-.317-1.679-1.331a9.2,9.2,0,0,1-1.575-3.273,8.823,8.823,0,0,1-1.942,3.755c-.317.348-.843.849-1.282.849a.891.891,0,0,1-.849-.867c-.513.049-.611-.238-.879-.812-.531.177-3.981,1.331-4.42,1.331a.7.7,0,0,1-.684-.757c0-.531.409-.611.879-.757V6.818c0-1.221.305-1.563,1.563-1.563h.647v-.7c0-.452.183-.757.684-.757s.678.244.678.757v.714h.611c1.3,0,1.362.7,1.362,1.618.165-.317.879-1.478,1-1.74a13.512,13.512,0,0,0,1.123-3.541A.678.678,0,0,1,114.227,1c.153,0,.83.031.83.666a9.378,9.378,0,0,1-.324,1.606h2.442c.745,0,1.716,0,1.716,1.307a6.788,6.788,0,0,1-.653,2.558c-.336.873-.531,1.3-1.032,1.3a.757.757,0,0,1-.818-.684c0-.165,0-.287.275-.739a6.2,6.2,0,0,0,.684-1.88c0-.269-.214-.379-.519-.379h-2.662a11.508,11.508,0,0,1-1.441,2.821.714.714,0,0,1-.574.317.9.9,0,0,1-.788-.58V9.175c0,1.258-.3,1.575-1.557,1.575h-2.558v2.229c.849-.226,1.832-.519,2.21-.611a1.99,1.99,0,0,1-.287-.745.69.69,0,0,1,.739-.611c.4,0,.458.1.971,1a8,8,0,0,1,.727,1.484,6.362,6.362,0,0,0,2.045-3.053,9.36,9.36,0,0,0,.513-3Zm-6.918,1.221H110V6.867a.366.366,0,0,0-.421-.421h-1.832c-.287,0-.44.134-.44.421ZM110,8.552h-2.723v1h2.3c.269,0,.421-.134.421-.44Z" transform="translate(-40.857 -0.389)" fill="#231815"/>
      <path id="Path_429" data-name="Path 429" d="M141.828,8.9a3.053,3.053,0,0,1-.092.879.849.849,0,0,1,.611-.33.91.91,0,0,1,.867.83c0,.226-.049.33-.91,1.087a16.61,16.61,0,0,1-1.923,1.441,12.211,12.211,0,0,0,2.8.788c.317.061.7.183.7.665,0,.348-.214.971-.788.971s-5.422-.867-7.467-4.768h-2.241v2.876c1.221-.079,2.076-.2,3.3-.379a2.442,2.442,0,0,1,.33-.031c.611,0,.653.531.653.788,0,.611-.348.647-1.349.8-1.575.244-5.116.611-5.525.611-.208,0-.769,0-.769-.849a.672.672,0,0,1,.5-.708,12,12,0,0,1,1.27-.1V6.338a2.442,2.442,0,0,1,.183-1.075l-.806.348a1.789,1.789,0,0,1-.7.2c-.611,0-.788-.611-.788-.94a.731.731,0,0,1,.611-.739,13.469,13.469,0,0,0,5.074-2.68,2.253,2.253,0,0,1,2.955,0,13.157,13.157,0,0,0,4.982,2.65c.5.165.727.33.727.769s-.226.94-.775.94a8.212,8.212,0,0,1-1.63-.574,2.381,2.381,0,0,1,.2,1.105Zm-5.751-5.037c0-.324.092-.684.769-.684s.788.256.788.684v.916h2.625a4.322,4.322,0,0,1,.452,0,14.452,14.452,0,0,1-3.5-2.375c-.214-.183-.244-.214-.336-.214s-.183.061-.36.226a14.5,14.5,0,0,1-3.486,2.363h3.053Zm4.182,3.205V6.412c0-.256-.11-.421-.427-.421h-6.008c-.305,0-.427.147-.427.421v.653Zm0,1.105h-6.85V9.214h6.435a.372.372,0,0,0,.427-.427Zm-2.833,2.271a6.863,6.863,0,0,0,1.612,1.569,13.873,13.873,0,0,0,2.161-1.679,2.546,2.546,0,0,1-.9.11Z" transform="translate(-50.508 -0.349)" fill="#231815"/>
      <path id="Path_430" data-name="Path 430" d="M156.946,14.871a.611.611,0,0,1-.708.727c-.611,0-.788-.256-.788-.727V3.5c0-1.184.5-1.532,1.526-1.532h2.937c1.075,0,1.532.4,1.532,1.532V5.53c0,1.105-.409,1.526-1.532,1.526h-2.967ZM160,3.967v-.4a.379.379,0,0,0-.421-.427h-2.229c-.36,0-.409.244-.409.427v.4Zm0,1.062h-3.053v.879h2.638A.379.379,0,0,0,160,5.481Zm5.88,5.507a.654.654,0,1,1,0,1.3h-1.343v2.8c0,.214,0,.714-.727.714s-.7-.421-.7-.7v-2.8h-2a5.031,5.031,0,0,1-.922,2.393c-.2.256-.849,1.032-1.3,1.032a.855.855,0,0,1-.836-.806.745.745,0,0,1,.318-.543,3.285,3.285,0,0,0,1.221-2.076h-1.374a.662.662,0,1,1-.024-1.319h1.5V9.113h-1.166a.632.632,0,1,1,.031-1.258h6.966a.611.611,0,0,1,.7.611.568.568,0,0,1-.611.647h-1.044v1.423Zm-2.766,0V9.113h-1.954v1.423Zm1.044-3.5c-1,0-1.514-.33-1.514-1.526V3.5c0-1.123.44-1.532,1.514-1.532h3c1.075,0,1.526.409,1.526,1.532V13.882c0,1.618-.562,1.618-2.5,1.618-.482,0-1.154,0-1.154-.83a.672.672,0,0,1,.775-.745h1.014c.287-.043.366-.165.366-.495V7.056Zm0-3.089h3.053V3.564a.372.372,0,0,0-.427-.427h-2.265a.372.372,0,0,0-.421.427Zm0,1.062v.452a.379.379,0,0,0,.421.427h2.638V5.041Z" transform="translate(-60.54 -0.767)" fill="#231815"/>
      <path id="Path_431" data-name="Path 431" d="M184.389,3.177v-1.4c0-.525.208-.8.788-.8a.684.684,0,0,1,.714.8v1.4h1.27v-1.4c0-.482.171-.8.775-.8a.69.69,0,0,1,.708.8v1.4h1.075a.556.556,0,0,1-.085-.293.574.574,0,0,1,.116-.348,4.5,4.5,0,0,0,.427-.647c.36-.7.452-.745.879-.745s.8.2.8.611a3.627,3.627,0,0,1-.769,1.441h1.71c.317,0,.788.1.788.666,0,.348-.256.647-.788.647h-2.845a12.618,12.618,0,0,1-.427,1.27h2.8a.616.616,0,1,1,0,1.221H187.3v.818h4.6a.579.579,0,0,1,.666.611c0,.549-.47.574-.666.574h-4.6v.879h5.495c.36,0,.788.122.788.653,0,.647-.653.647-.788.647h-4.457A10.605,10.605,0,0,0,192,13.093c1.258.391,1.392.433,1.392.9a.806.806,0,0,1-.782.867,10.648,10.648,0,0,1-5.281-2.986V14.5c0,.562-.244.806-.818.806a.69.69,0,0,1-.727-.806V11.908a11.057,11.057,0,0,1-5.312,2.967c-.611,0-.745-.678-.745-.879,0-.452.134-.495,1.331-.873a9.928,9.928,0,0,0,3.712-1.942h-4.53c-.36,0-.788-.122-.788-.647,0-.653.653-.653.788-.653h5.544V9h-4.6c-.275,0-.665-.043-.665-.611s.44-.574.665-.574h4.6v-.8h-5.055c-.275,0-.7-.073-.7-.611a.611.611,0,0,1,.7-.611h2.815a10.065,10.065,0,0,0-.458-1.27h-2.845c-.33,0-.788-.122-.788-.665s.562-.647.788-.647h1.728a6.456,6.456,0,0,1-.684-1.38c0-.366.409-.611.788-.611s.5.153.775.543a3.052,3.052,0,0,1,.5,1.056.561.561,0,0,1-.122.336Zm3.6,2.583c.183-.433.33-1.026.409-1.27h-3.73c.061.183.36,1.075.44,1.27Z" transform="translate(-69.887 -0.381)" fill="#231815"/>
      <path id="Path_432" data-name="Path 432" d="M205.538,1.975a.7.7,0,0,1,.788-.8c.666,0,.861.287.861.8V5.339h3.163c.226,0,.714,0,.714.769s-.458.775-.714.775h-3.163V12.99c1.044-.2,1.221-.226,2.619-.531a3.132,3.132,0,0,1,.653-.1c.33,0,.611.208.611.727s-.287.666-1.075.849c-1.105.269-4.8,1.056-5.269,1.056-.7,0-.708-.757-.708-.849a.647.647,0,0,1,.421-.678c.122-.031.226-.049,1.093-.2ZM213.164,12.9c0,.427.214.519.391.562s1.319.049,1.575.049c1.319,0,1.41,0,1.5-.9a15.935,15.935,0,0,1,.153-1.771c.116-.348.525-.36.647-.36.818,0,.836.556.836.934a11.154,11.154,0,0,1-.348,2.851c-.36.836-.861.836-3.3.836a14.329,14.329,0,0,1-2.125-.079,1.439,1.439,0,0,1-1-1.636V1.963a.684.684,0,0,1,.769-.788c.653,0,.879.238.879.788V6.1a23.162,23.162,0,0,0,2.784-1.74c.867-.7.983-.788,1.288-.788a.885.885,0,0,1,.824.891c0,.409-.122.611-1.288,1.374a31.628,31.628,0,0,1-3.6,2.064Z" transform="translate(-79.453 -0.455)" fill="#231815"/>
      <path id="Path_433" data-name="Path 433" d="M231.844,4.656v-1h-1.911a.672.672,0,0,1-.788-.684.678.678,0,0,1,.788-.678h1.911V1.6c0-.611.44-.611.727-.611a.574.574,0,0,1,.647.611v.7h1.832c.317,0,.788.073.788.727.14-.317.379-.379.714-.379h2V1.633c0-.531.336-.653.788-.653.611,0,.727.317.727.653V2.647h2.381c.287,0,.788.043.788.727a.672.672,0,0,1-.788.708H236.57c-.366,0-.806-.092-.775-.788-.147.305-.379.366-.727.366h-1.832v1h.788c1.221,0,1.563.287,1.563,1.557V8.929c0,1.27-.336,1.557-1.563,1.557h-.788v.983h2.015c.409,0,.788.122.788.714a.692.692,0,0,1-.788.678h-2.015v1.746c0,.256,0,.7-.7.7a.611.611,0,0,1-.678-.7V12.861h-2.045c-.214,0-.788,0-.788-.7a.678.678,0,0,1,.788-.7h2.045v-.983h-.836c-1.27,0-1.563-.33-1.563-1.557V6.188c0-1.258.317-1.557,1.563-1.557Zm.031,2.357V5.736h-.727c-.263,0-.427.1-.427.421v.83Zm0,1.014h-1.154v.9a.372.372,0,0,0,.427.421h.727Zm1.331-1.014h1.148V6.157a.366.366,0,0,0-.421-.421h-.727Zm0,1.014V9.345h.727a.372.372,0,0,0,.421-.421V8Zm9.537,5.666c.336.2.47.317.47.647a.812.812,0,0,1-.769.824c-.2,0-.379,0-1.514-.769a9.05,9.05,0,0,1-1.667-1.441,10.489,10.489,0,0,1-2.662,2.033,1.355,1.355,0,0,1-.653.208.824.824,0,0,1-.788-.849c0-.317.183-.452.531-.611a7.937,7.937,0,0,0,2.68-1.9,9.213,9.213,0,0,1-1.423-3.511c0-.44.488-.611.757-.611.488,0,.611.348.7.739a7.645,7.645,0,0,0,.91,2.167,9.561,9.561,0,0,0,1.105-2.29c.134-.379.256-.611.653-.611a.719.719,0,0,1,.769.611,10.581,10.581,0,0,1-1.636,3.437,9.61,9.61,0,0,0,2.54,1.9Zm-4.194-8.548A5.456,5.456,0,0,1,237.5,7.018c-.727.959-.922,1-1.148,1a.812.812,0,0,1-.775-.788c0-.256.061-.317.574-.879a8.4,8.4,0,0,0,1.093-1.526.574.574,0,0,1,.611-.336.739.739,0,0,1,.69.623Zm3.132.061a11.836,11.836,0,0,0,1.276,1.435.836.836,0,0,1,.3.611.757.757,0,0,1-.757.769c-.226,0-.421,0-1.221-.965-.391-.47-1.221-1.5-1.221-1.923,0-.317.275-.611.788-.611.342-.073.427.079.836.653Z" transform="translate(-89.195 -0.381)" fill="#231815"/>
      <path id="Path_434" data-name="Path 434" d="M259.466,11.526c0,1.3.427,1.38,2.577,1.38,1.258,0,2.18-.049,2.692-.079.165,0,.971-.061,1.136-.061a.727.727,0,0,1,.806.818c0,.818-.672.879-1,.9-1.075.055-2.711.085-3.419.085-2.558,0-4.481-.073-4.481-2.784V6.941l-2.8.2c-.47.031-.922-.122-.922-.849,0-.611.379-.769.83-.8l2.894-.171V2.338c0-.244,0-.788.843-.788.653,0,.849.305.849.788V5.213l5.8-.348c.543-.031,1.526-.092,1.526.879,0,.678-1.16,2.18-1.74,2.918-.727.928-1.258,1.606-1.783,1.606A.836.836,0,0,1,262.4,9.5c0-.256.061-.336.665-.971a7.864,7.864,0,0,0,1.4-1.9c0-.122-.031-.122-.336-.11l-4.665.317Z" transform="translate(-98.939 -0.603)" fill="#231815"/>
      <path id="Path_435" data-name="Path 435" d="M290.871,7.273c0,.562-1.972,3.358-4.921,5.416a15.361,15.361,0,0,1-6.209,2.729.946.946,0,0,1-.922-1c0-.611.336-.7,1.258-.94A15.489,15.489,0,0,0,288.8,7.425c.666-.91.745-1,1.105-1a1.013,1.013,0,0,1,.971.849Zm-8.932-2.955c2.015.91,2.027,1.221,2.027,1.545a.946.946,0,0,1-.849.971,1.588,1.588,0,0,1-.769-.317c-.684-.4-1.893-.922-2.863-1.349-.3-.134-.653-.287-.653-.727a.922.922,0,0,1,.91-.91,10.581,10.581,0,0,1,2.2.788Z" transform="translate(-108.585 -1.375)" fill="#231815"/>
      <path id="Path_436" data-name="Path 436" d="M311.184,3.452c.36,0,1.526,0,1.526,1.258a13.591,13.591,0,0,1-3.993,7.992,12.014,12.014,0,0,1-5.177,2.949.885.885,0,0,1-.818-.879c0-.5.47-.678.922-.861a12.376,12.376,0,0,0,4.6-3.163,37.2,37.2,0,0,0-4.359-2.79c-.562.611-1.484,1.532-1.972,1.532A.946.946,0,0,1,301,8.6c0-.336.256-.543.574-.818a11.84,11.84,0,0,0,2.607-3.12c.611-1.075.708-1.221,2.088-1.221Zm-4.689,1.606a.757.757,0,0,0-.665.238c-.165.183-.818,1.221-.983,1.423a37.189,37.189,0,0,1,4.4,2.65,10.387,10.387,0,0,0,1.563-3.92c0-.391-.366-.391-.611-.391Z" transform="translate(-117.224 -1.34)" fill="#231815"/>
      <path id="Path_437" data-name="Path 437" d="M335.4,11.324a.745.745,0,0,1,.873.836.745.745,0,0,1-.873.788H323.986a.751.751,0,0,1-.879-.818.745.745,0,0,1,.879-.818Z" transform="translate(-125.832 -4.4)" fill="#231815"/>
    </g>
  </g>
</svg>
