<svg xmlns="http://www.w3.org/2000/svg" width="169.214" height="28" viewBox="0 0 169.214 28">
  <g id="franchise" transform="translate(-0.069)">
    <g id="レイヤー_1" data-name="レイヤー 1" transform="translate(0.069)">
      <path id="Path_269" data-name="Path 269" d="M22.809,38.158a2.386,2.386,0,0,1-1.955-2.307,2.508,2.508,0,0,1,1.634-2.309,10.407,10.407,0,0,0,4.055-2.652l-2.081-1.234a11.565,11.565,0,0,1-6.645,2.2c-1.541.1-2.767-.673-2.7-1.683a5.491,5.491,0,0,1,2.9-4.344l-1.906-1.138a9.725,9.725,0,0,0-3.606,2.674,4.7,4.7,0,0,1-3.184,1.168c-1.52.074-2.8-.33-3.137-1-1.31-2.644,1.138-4.9,4.9-5.82L9.3,20.65c-7.742,1.362-12.976,6.609-5.9,11.367a17.234,17.234,0,0,0,6.413,2.451,2.979,2.979,0,0,1,1.089.414,1.762,1.762,0,0,1,.648.735,11.332,11.332,0,0,0,4.085,4.6c8.663,5.855,17.731,1.686,18.992-4.526l-2.241-1.329C31.306,37.254,27.556,39.168,22.809,38.158Z" transform="translate(-0.069 -15.026)" fill="#2c2e54"/>
      <path id="Path_270" data-name="Path 270" d="M70.8,46.047a2.835,2.835,0,0,1-3.02.063c-.937-.572-.945-1.446-.112-1.936a3,3,0,0,1,2.786.071C71.258,44.718,71.435,45.514,70.8,46.047Z" transform="translate(-48.813 -31.919)" fill="#d3303b"/>
      <path id="Path_271" data-name="Path 271" d="M150.24,50.938V38.19h7.81v2.794h-4.423V43.2H157.8v2.723h-4.172v5.016Z" transform="translate(-109.344 -27.79)" fill="#2c2e54"/>
      <path id="Path_272" data-name="Path 272" d="M185.86,50.916V38.168h3.633a15.09,15.09,0,0,1,2.971.2,3.793,3.793,0,0,1,1.451.656,3.456,3.456,0,0,1,1.059,1.334,4.248,4.248,0,0,1,.368,1.784,3.783,3.783,0,0,1-.73,2.407,3.54,3.54,0,0,1-2.119,1.234l3.48,5.136h-3.932l-2.925-4.989v4.989Zm3.268-6.721h.645a2.745,2.745,0,0,0,1.634-.384,1.4,1.4,0,0,0,.52-1.2,1.692,1.692,0,0,0-.485-1.362,2.542,2.542,0,0,0-1.634-.4h-.7Z" transform="translate(-135.264 -27.768)" fill="#2c2e54"/>
      <path id="Path_273" data-name="Path 273" d="M225.42,50.938l4.4-12.748h4.357l4.4,12.748h-3.456l-.645-2.282H229.54l-.662,2.282Zm4.869-4.763h3.459l-1.3-4.2c-.041-.128-.1-.335-.166-.618s-.161-.651-.272-1.089c-.076.313-.15.613-.221.9s-.147.545-.223.817Z" transform="translate(-164.05 -27.79)" fill="#2c2e54"/>
      <path id="Path_274" data-name="Path 274" d="M278.22,50.938V38.19h3.352l4.818,6.558c.09.133.242.4.455.8s.447.885.7,1.443c-.071-.528-.12-1-.152-1.411s-.049-.779-.049-1.089v-6.3h3.341V50.938h-3.341l-4.815-6.582a7.618,7.618,0,0,1-.466-.817c-.212-.4-.444-.88-.692-1.424.068.545.12,1.008.15,1.419s.049.779.049,1.089v6.315Z" transform="translate(-202.471 -27.79)" fill="#2c2e54"/>
      <path id="Path_275" data-name="Path 275" d="M341.867,37.924v3.813a5.239,5.239,0,0,0-1.424-1.163,3.268,3.268,0,0,0-1.52-.37,3.129,3.129,0,0,0-2.426,1.024,3.812,3.812,0,0,0-.926,2.669,3.565,3.565,0,0,0,.945,2.544,3.153,3.153,0,0,0,2.407,1.01,3.23,3.23,0,0,0,1.52-.37,5.175,5.175,0,0,0,1.424-1.171v3.813a8.365,8.365,0,0,1-1.634.6,6.957,6.957,0,0,1-1.656.2,7.08,7.08,0,0,1-1.928-.251,5.468,5.468,0,0,1-1.634-.752,6.4,6.4,0,0,1-2.179-2.413,7.023,7.023,0,0,1-.749-3.268,7.174,7.174,0,0,1,.474-2.661A6.536,6.536,0,0,1,333.994,39a5.991,5.991,0,0,1,2.042-1.394,6.664,6.664,0,0,1,2.53-.46,6.956,6.956,0,0,1,1.656.2A8.367,8.367,0,0,1,341.867,37.924Z" transform="translate(-241.669 -27.031)" fill="#2c2e54"/>
      <path id="Path_276" data-name="Path 276" d="M375.14,50.938V38.19h3.475v4.954h4.63V38.19h3.486V50.938h-3.483V45.747h-4.63v5.191Z" transform="translate(-272.997 -27.79)" fill="#2c2e54"/>
      <path id="Path_277" data-name="Path 277" d="M428,50.938V38.19h3.508V50.938Z" transform="translate(-311.462 -27.79)" fill="#2c2e54"/>
      <path id="Path_278" data-name="Path 278" d="M449.082,46a6.308,6.308,0,0,0,1.528,1.313,3,3,0,0,0,1.5.436,1.729,1.729,0,0,0,1.147-.373,1.19,1.19,0,0,0,.447-.95,1.237,1.237,0,0,0-.387-.978,5.02,5.02,0,0,0-1.754-.711,5.659,5.659,0,0,1-2.65-1.315,3.081,3.081,0,0,1-.773-2.219,3.916,3.916,0,0,1,1.223-2.982,4.427,4.427,0,0,1,3.175-1.155,6.947,6.947,0,0,1,2,.272,6.416,6.416,0,0,1,1.792.858l-1.089,2.5a4.63,4.63,0,0,0-1.215-.76,3.216,3.216,0,0,0-1.234-.272,1.634,1.634,0,0,0-1.018.3.929.929,0,0,0-.392.771.939.939,0,0,0,.346.765,3.72,3.72,0,0,0,1.326.545l.158.044A6.472,6.472,0,0,1,456,43.352a3.121,3.121,0,0,1,.689,1.127,4.673,4.673,0,0,1-1.1,4.728,4.97,4.97,0,0,1-3.54,1.234,6.283,6.283,0,0,1-2.426-.455,6.809,6.809,0,0,1-2.1-1.419Z" transform="translate(-325.673 -26.974)" fill="#2c2e54"/>
      <path id="Path_279" data-name="Path 279" d="M489.2,50.938V38.19h7.813v2.794h-4.425V43.2h4.183v2.723h-4.183v2.151h4.425v2.865Z" transform="translate(-355.996 -27.79)" fill="#2c2e54"/>
      <path id="Path_280" data-name="Path 280" d="M528.37,73.476a1.81,1.81,0,0,1,1.792-1.906,1.785,1.785,0,0,1,1.792,1.906,1.746,1.746,0,0,1-1.792,1.906A1.771,1.771,0,0,1,528.37,73.476Z" transform="translate(-384.499 -52.079)" fill="#d3303b"/>
      <path id="Path_281" data-name="Path 281" d="M555.677,21.853c0,2.451-.335,6.2-5.844,6.2l-.313-2.859C551.775,24.942,552,24.1,552,21.107v-9.79h3.674ZM553.839,10.01a1.8,1.8,0,0,1-1.876-1.857,1.814,1.814,0,0,1,1.906-1.879,1.792,1.792,0,0,1,1.857,1.879,1.778,1.778,0,0,1-1.887,1.857Z" transform="translate(-399.889 -4.563)" fill="#d3303b"/>
      <path id="Path_282" data-name="Path 282" d="M584.341,25.656a3.7,3.7,0,0,1,3.268-1.713c2.587,0,4.357,2.505,4.357,6.01,0,4.3-2.4,6.2-4.695,6.2a2.943,2.943,0,0,1-2.505-1.19H584.7V40.6h-3.679V28.068c0-1.462-.044-2.756-.084-3.881h3.17l.188,1.481Zm.354,5.55c0,1.19.667,2.064,1.607,2.064,1.294,0,1.942-1.362,1.942-3.192,0-1.961-.67-3.173-1.906-3.173a1.81,1.81,0,0,0-1.634,2.026Z" transform="translate(-422.752 -17.42)" fill="#d3303b"/>
      <path id="Path_283" data-name="Path 283" d="M241.41,1.882c.384.025.94.025,1.394.025h.716V1.09l.8.044c0,.068-.054.106-.161.125V1.88a12.761,12.761,0,0,0,1.966-.223l.071.572a13.14,13.14,0,0,1-2.042.207l.016,1a10.417,10.417,0,0,0,1.658-.223l.06.545a10.678,10.678,0,0,1-1.7.2c0,.362.025.686.038.923a6.383,6.383,0,0,1,1.757.926l-.376.545a5.86,5.86,0,0,0-1.362-.866V5.7c0,.545-.4.9-1.209.9s-1.383-.359-1.383-.95.673-.964,1.394-.964a2.557,2.557,0,0,1,.566.049c0-.223,0-.485-.025-.765H243.2c-1.089,0-1.52-.128-1.52-.566,0-.242.188-.46.61-.727l.425.242c-.368.18-.406.294-.406.362,0,.147.242.174.741.18h.517c-.014-.343-.019-.686-.033-1.016H242.8c-.411,0-1.01,0-1.394-.016Zm2.228,3.369a2.315,2.315,0,0,0-.629-.093c-.422,0-.8.174-.8.479s.362.466.836.466c.428,0,.6-.185.6-.545Z" transform="translate(-175.686 -0.793)" fill="#414042"/>
      <path id="Path_284" data-name="Path 284" d="M265.971.354,266.8.4c0,.049-.049.1-.155.12v.771c.733-.019,1.487-.03,1.972-.038v.569c-.5,0-1.225,0-1.966.016,0,.308.025.948.044,1.19a2.57,2.57,0,0,1,.1.673,2.493,2.493,0,0,1-1.868,2.353,3.541,3.541,0,0,0-.471-.479,2.282,2.282,0,0,0,1.487-1.157h0a.632.632,0,0,1-.474.212,1.059,1.059,0,0,1-1.07-1.089,1.179,1.179,0,0,1,1.176-1.19.741.741,0,0,1,.479.155V2.416c-.014-.112-.014-.343-.025-.561-1,.025-1.362.038-2.672.1l-.019-.575c.379,0,2.247-.06,2.672-.065Zm.191,3.186a2.111,2.111,0,0,0-.019-.272.545.545,0,0,0-.545-.422.637.637,0,0,0-.632.694.61.61,0,0,0,.6.624.583.583,0,0,0,.6-.624Zm1.669-2.309a4.212,4.212,0,0,0-.705-.841l.3-.212a4.41,4.41,0,0,1,.722.817Zm.92-.177a4.548,4.548,0,0,0-.7-.836L268.34,0a4.528,4.528,0,0,1,.73.817Z" transform="translate(-191.644)" fill="#414042"/>
      <path id="Path_285" data-name="Path 285" d="M286.7,6.863a7.653,7.653,0,0,1-.272-2.293,15.868,15.868,0,0,1,.324-2.857l.817.155c0,.063-.087.106-.174.112a10.794,10.794,0,0,0-.368,2.884,5.772,5.772,0,0,0,.038.817c.112-.305.338-.858.449-1.119l.349.392a7.1,7.1,0,0,0-.618,1.574,1.088,1.088,0,0,0,.052.294ZM288.32,3.1c.272,0,1.176,0,1.462-.019-.025-.512-.044-.953-.049-1.413l.817.03c0,.063-.054.114-.155.131,0,.357,0,.654.019,1.209a6.324,6.324,0,0,0,1.146-.237l.063.61a6.216,6.216,0,0,1-1.19.2c.025.624.057,1.266.076,1.669a4.684,4.684,0,0,1,1.215.754l-.332.572a3.189,3.189,0,0,0-.866-.648c-.03.624-.272,1.016-1.108,1.016-.746,0-1.22-.387-1.22-.953,0-.64.618-.964,1.228-.964a2.636,2.636,0,0,1,.474.054c-.027-.354-.052-.931-.082-1.457-.188,0-.425.019-.58.019h-.91Zm1.634,2.565a1.5,1.5,0,0,0-.523-.1c-.338,0-.705.12-.705.449s.313.43.692.43.545-.2.545-.594Z" transform="translate(-208.446 -1.215)" fill="#414042"/>
      <path id="Path_286" data-name="Path 286" d="M321.94,4.812V.46h2.091V.879h-1.656V4.812Z" transform="translate(-234.285 -0.335)" fill="#414042"/>
      <path id="Path_287" data-name="Path 287" d="M332,7.28V2.52h2.481v.6h-1.757V4.592h1.634v.6h-1.634V7.28Z" transform="translate(-241.606 -1.834)" fill="#414042"/>
      <path id="Path_288" data-name="Path 288" d="M346.469,6.958a2.767,2.767,0,0,1-1.122.2,2.146,2.146,0,0,1-2.217-2.4,2.269,2.269,0,0,1,2.342-2.505,2.318,2.318,0,0,1,1.016.188l-.158.591a1.969,1.969,0,0,0-.833-.174c-.92,0-1.607.624-1.607,1.863,0,1.171.61,1.825,1.593,1.825a2.1,2.1,0,0,0,.861-.169Z" transform="translate(-249.705 -1.639)" fill="#414042"/>
      <path id="Path_289" data-name="Path 289" d="M362.73,2.357c.463-.1,1.136-.272,1.795-.449l.054.466c-.545.174-1.125.351-1.506.463a.114.114,0,0,1-.079.1Zm2.525,3.38a.142.142,0,0,1-.106.044.177.177,0,0,1-.054,0,9.832,9.832,0,0,1-1.882.684,3.822,3.822,0,0,0-.406-.408,7.227,7.227,0,0,0,1.833-.618Zm-1.964-5a7.94,7.94,0,0,1,1.326.474l-.272.447a8.846,8.846,0,0,0-1.326-.515Zm1.571,2.13a1.3,1.3,0,0,0-.256-.379c1.027-.174,1.389-.474,1.53-1h-.577a3.71,3.71,0,0,1-.545.528,1.531,1.531,0,0,0-.444-.272A2.723,2.723,0,0,0,365.527.62l.621.093c0,.044-.049.074-.123.074-.044.087-.1.182-.15.272h2.184l.33.035a.426.426,0,0,1-.025.087,3.747,3.747,0,0,1-.6.891l-.468-.147a3,3,0,0,0,.319-.43h-.871c.136.46.49.866,1.781,1.032a1.906,1.906,0,0,0-.3.487c-.18-.033-.338-.068-.485-.106V5.424h-4.158V2.867Zm2.277.735V3.24h-2.974V3.6Zm0,.716V3.956h-2.974v.362Zm0,.727V4.678h-2.974v.368Zm.474-2.179a1.928,1.928,0,0,1-1.152-.817,2.028,2.028,0,0,1-1.389.817Zm.163,3.6a12.135,12.135,0,0,0-1.7-.722l.485-.294a18.249,18.249,0,0,1,1.906.735Z" transform="translate(-263.967 -0.451)" fill="#414042"/>
      <path id="Path_290" data-name="Path 290" d="M387.048,3.539c.212.174.852.771.989.923l-.34.477c-.131-.191-.406-.52-.648-.8v2.3h-.566V4.193a5.7,5.7,0,0,1-.88,1.476,3.351,3.351,0,0,0-.291-.588,6.079,6.079,0,0,0,1.059-1.748h-.953V2.788h1.065V.62l.711.044c0,.049-.052.082-.144.1V2.78h1v.545h-1Zm-1.166-2.5a5.3,5.3,0,0,1,.4,1.362l-.487.139a5.951,5.951,0,0,0-.368-1.378Zm2.361.169c-.019.044-.068.068-.15.068a8.613,8.613,0,0,1-.545,1.294c-.112-.044-.291-.117-.406-.155a9.082,9.082,0,0,0,.468-1.4Zm2.974,3.467-.817.158V6.442h-.58V4.934l-1.683.313-.1-.561,1.781-.324V.636l.727.046c0,.049-.049.087-.147.1V4.264l.722-.131Zm-2.6-1.985a5.073,5.073,0,0,1,1,.934,3.052,3.052,0,0,0-.441.354A5.125,5.125,0,0,0,388.2,3Zm.18-1.612a4.525,4.525,0,0,1,.877.907l-.447.338a4.576,4.576,0,0,0-.855-.953Z" transform="translate(-280.398 -0.451)" fill="#414042"/>
      <path id="Path_291" data-name="Path 291" d="M410.669,1.644v.474H408.3V1.644Zm-.2,2.571V6.083h-1.362v.272h-.5V4.215Zm0-1.7v.46h-1.863V2.51Zm-1.863,1.307v-.46h1.863v.46Zm1.844-3v.463h-1.816V.808ZM409.967,4.7h-.877v.9h.861ZM412.69,2.69h1.457v.463h-3.54V2.676h1.506V2.308H411V1.873h1.108V1.538h-1.245V1.083h1.245V.59l.73.044c0,.052-.044.09-.144.106v.343h1.326v.455H412.7v.335h1.215v.436H412.7Zm1.059.768V5.876c0,.485-.188.572-1.127.545a1.726,1.726,0,0,0-.163-.466h.61c.065,0,.109-.025.109-.1V5.467h-1.49v.953h-.566v-3Zm-.572.455h-1.49v.33h1.49Zm-1.49,1.144h1.49V4.675h-1.49Z" transform="translate(-297.127 -0.429)" fill="#414042"/>
      <path id="Path_292" data-name="Path 292" d="M431.08,5.322c.545-.272,1.362-.724,2.111-1.166l.193.545c-.648.4-1.362.817-1.825,1.089a.144.144,0,0,1-.063.136ZM434.3,2.278a6.709,6.709,0,0,0,.643,1.345,8.83,8.83,0,0,0,1.089-1.215l.591.441a.175.175,0,0,1-.166.044,12.052,12.052,0,0,1-1.2,1.176,4.51,4.51,0,0,0,1.727,1.413,2.667,2.667,0,0,0-.43.523A5.215,5.215,0,0,1,434.3,3.555V5.7c0,.673-.256.771-1.5.771a2.694,2.694,0,0,0-.21-.621h.659c.417,0,.441,0,.441-.161V2.207h-2.435V1.635H433.7v-1l.754.038c0,.054-.044.093-.15.106v.852h1.547A7.786,7.786,0,0,0,434.822,1l.354-.373a7.894,7.894,0,0,1,1.166.684l-.291.324h.746V2.21H434.3Zm-2.29.234a5.737,5.737,0,0,1,1.016,1.122L432.551,4a5.672,5.672,0,0,0-.986-1.163Z" transform="translate(-313.703 -0.458)" fill="#414042"/>
      <path id="Path_293" data-name="Path 293" d="M460.211,3.3h-1.228v.343a3.151,3.151,0,0,1-1.974,3.151,3.286,3.286,0,0,0-.452-.436,2.672,2.672,0,0,0,1.806-2.7V3.3h-1.806V4.78h-.613V3.3H454.8V2.7h1.144V1.409l.792.052a.191.191,0,0,1-.174.142V2.692h1.806V1.33l.79.044c0,.06-.057.112-.169.131V2.7h1.228Z" transform="translate(-330.964 -0.968)" fill="#414042"/>
      <path id="Path_294" data-name="Path 294" d="M482.876,1.822a.185.185,0,0,1-.136.054.273.273,0,0,1-.063,0,15.52,15.52,0,0,1-1.718,1.452,1.686,1.686,0,0,0,.169.068.169.169,0,0,1-.15.106V6.784h-.654V3.728A18.738,18.738,0,0,1,478.113,5a2.992,2.992,0,0,0-.373-.487,14.723,14.723,0,0,0,4.5-3.175Z" transform="translate(-347.656 -0.975)" fill="#414042"/>
      <path id="Path_295" data-name="Path 295" d="M509.585,4.7a18.631,18.631,0,0,0-2.059-.978V6.737h-.656V1.29l.836.049c0,.068-.063.12-.18.144V3.262l.123-.174a21.882,21.882,0,0,1,2.288,1.008Z" transform="translate(-368.854 -0.939)" fill="#414042"/>
      <path id="Path_296" data-name="Path 296" d="M524.656,6.06V10.4H522.57V9.976h1.656V6.06Z" transform="translate(-380.278 -4.41)" fill="#414042"/>
    </g>
  </g>
</svg>
