<svg xmlns="http://www.w3.org/2000/svg" width="225.013" height="37" viewBox="0 0 225.013 37">
  <g id="_北海道総合物産" data-name="+北海道総合物産" transform="translate(0 -0.243)">
    <g id="ƒA_ƒgƒ_ƒh_ÌƒKƒCƒh" data-name="ƒA[ƒgƒ{[ƒh‚ÌƒKƒCƒh" transform="translate(0 0.243)">
      <path id="Path_47" data-name="Path 47" d="M37.515,18.1A18.77,18.77,0,0,0,0,18.644,19.209,19.209,0,0,0,1.807,26.39,21.662,21.662,0,0,1,10.844,2.713S-2.788,13.222,4.493,29.333a5.783,5.783,0,0,0,6.2,3.847c-2.091,0-4-1.472-5.448-4.931C-.568,10.356,12.987,2.429,12.987,2.429a23.392,23.392,0,0,0-6.455,25.2,6.119,6.119,0,0,0,3.8,3.95A9.553,9.553,0,0,1,7,25.228C4.415,5.218,16.55,1.991,16.55,1.991S6.2,8.781,9.269,25.434c1.11,5.887,4.493,6.042,7.126.491a29.589,29.589,0,0,0,1.988-6.145h0v1.188h0A27.626,27.626,0,0,1,15.8,31.3a5.887,5.887,0,0,1-5.913,3.64,18.848,18.848,0,0,0,18.073,0A5.887,5.887,0,0,1,22.05,31.3a27.6,27.6,0,0,1-2.582-10.328h0V19.78h0a29.589,29.589,0,0,0,2.014,6.145c2.582,5.551,5.99,5.4,7.1-.491C31.319,8.781,20.991,1.887,20.991,1.887s12.032,3.331,9.527,23.237a9.45,9.45,0,0,1-3.434,6.351,6.119,6.119,0,0,0,3.9-3.8,23.392,23.392,0,0,0-6.429-25.2S38.083,10.408,32.3,28.3c-1.446,3.46-3.356,4.906-5.448,4.931a5.783,5.783,0,0,0,6.2-3.9C40.3,13.222,26.671,2.713,26.671,2.713a21.662,21.662,0,0,1,9.037,23.728,18.771,18.771,0,0,0,1.807-8.34Z" transform="translate(0 -0.243)" fill="#333378"/>
      <path id="Path_48" data-name="Path 48" d="M18.582,11.384a10.328,10.328,0,0,0-2.22.155V8.776a9.63,9.63,0,0,0,2.22.155h3.511V6.349a18.281,18.281,0,0,0-.155-2.582h2.943a18.461,18.461,0,0,0,0,2.582V22.2a19.6,19.6,0,0,0,0,2.814H22.016a19.958,19.958,0,0,0,.155-2.84V19.595c-1.42.8-2.711,1.42-4.363,2.169-.413.155-.8.361-1.033.465L16,19.517a11.36,11.36,0,0,0,1.988-.594,42.06,42.06,0,0,0,4.286-1.962V11.384Zm11.67,9.889c0,.594.31.7,1.911.7s2.169,0,2.453-.671a13.994,13.994,0,0,0,.413-4.312,13.735,13.735,0,0,0,2.582,1.033c-.129,3.176-.542,4.88-1.343,5.577a3.692,3.692,0,0,1-1.73.7H32.163a7.746,7.746,0,0,1-3.408-.361c-.723-.336-.981-.955-.981-2.04V6.4a17.506,17.506,0,0,0-.155-2.711H30.51A15.492,15.492,0,0,0,30.355,6.4v4.647a21.946,21.946,0,0,0,5.164-4.028l1.859,2.22-.723.542a39.812,39.812,0,0,1-3.744,2.582l-2.582,1.5Z" transform="translate(25.311 5.209)" fill="#333378"/>
      <path id="Path_49" data-name="Path 49" d="M26.357,9.876a19.339,19.339,0,0,1,3.8,2.84L28.5,14.652a15.491,15.491,0,0,0-3.77-3.124Zm3.873,8.21a43.608,43.608,0,0,1-2.014,5.4l-.929,1.936L25.091,23.56a3.047,3.047,0,0,0,.336-.775,27.575,27.575,0,0,0,2.582-6.455ZM27.467,3.834a20.836,20.836,0,0,1,3.615,3.072L29.274,8.765a16.7,16.7,0,0,0-3.563-3.2ZM42.958,5.719a26.413,26.413,0,0,0,3.382,0V8.3a25.82,25.82,0,0,0-3.072,0H34.541c-.387.645-.671,1.11-1.084,1.678H45.1v4.777a10.689,10.689,0,0,0,2.091,0v2.582a12.91,12.91,0,0,0-1.988-.129h-.232A11.025,11.025,0,0,1,44.74,20.1a7.281,7.281,0,0,0,1.343-.723v2.582a11.385,11.385,0,0,0-1.782,0h-.258c-.491,2.918-1.033,3.46-3.486,3.46H38.44a6.042,6.042,0,0,0-.491-2.4,13.865,13.865,0,0,0,2.375.232c.852,0,.981,0,1.239-1.162H33.689c-.155.749-.207.981-.413,1.859l-2.582-.258a35.269,35.269,0,0,0,1.549-6.739h-.336a10.328,10.328,0,0,0-1.833.129V14.5a12.47,12.47,0,0,0,2.169,0H32.5a29.563,29.563,0,0,0,.258-3.666,14.226,14.226,0,0,1-1.42,1.523,7.2,7.2,0,0,0-1.756-1.911,12.445,12.445,0,0,0,3-3.563A11.076,11.076,0,0,0,33.9,3.55l2.582.465c-.542,1.213-.542,1.213-.8,1.833ZM36.813,19.506c.181-1.084.232-1.394.387-2.892H34.619c-.129,1.007-.155,1.239-.465,2.892Zm.594-5.164a22.4,22.4,0,0,1,.155-2.582H34.98a10.792,10.792,0,0,1-.207,2.582ZM42,19.506c0-1.059.207-1.936.258-2.892H39.447a24.908,24.908,0,0,1-.336,2.892Zm.387-5.164V11.76H39.808c-.155,1.859-.155,1.859-.181,2.582Z" transform="translate(39.121 4.988)" fill="#333378"/>
      <path id="Path_50" data-name="Path 50" d="M34.117,12.628A9.321,9.321,0,0,0,36,12.757h1.7a9.424,9.424,0,0,0,1.807-.129,21.943,21.943,0,0,0,0,2.582v4.828a3.331,3.331,0,0,0,1.627,1.549,15.672,15.672,0,0,0,6.145.723,66.768,66.768,0,0,0,8.727-.491,8.236,8.236,0,0,0-.775,2.737c-4.209.129-6.3.181-8.056.181a18.073,18.073,0,0,1-6.455-.723A5.809,5.809,0,0,1,38.145,22.1a19,19,0,0,1-2.582,2.272,4.234,4.234,0,0,0-.645.542L33.73,22.336a11.283,11.283,0,0,0,3.279-2.35V15.055H35.718a8.211,8.211,0,0,0-1.6.129Zm1.807-8.546a26.387,26.387,0,0,1,4.028,4.234l-1.936,1.807A23.934,23.934,0,0,0,34.04,5.786ZM43.954,6.2a10.638,10.638,0,0,0-1.265-1.911l2.272-.749a16.112,16.112,0,0,1,1.6,2.582h2.066A11.773,11.773,0,0,0,50.1,3.54l2.582.62L51.39,6.174h1.472a17.428,17.428,0,0,0,2.324-.129v2.35a21.688,21.688,0,0,0-2.324,0H48.834c-.284.594-.361.8-.568,1.213h3.382a12.7,12.7,0,0,0,2.091,0v8.985a19.987,19.987,0,0,0,0,2.3H41.6V9.453h4.054a12.911,12.911,0,0,0,.568-1.214H42.741a18.46,18.46,0,0,0-2.35,0V6.07a17.505,17.505,0,0,0,2.427.129Zm0,12.626h7.229V17.637H43.954Zm0-6.042H51.21V11.518H44.032Zm0,3H51.21V14.539H44.032Z" transform="translate(53.358 4.972)" fill="#333378"/>
      <path id="Path_51" data-name="Path 51" d="M42.772,13.643a7.953,7.953,0,0,0,1.317,0h.439c.465-.568.723-.929,1.136-1.523A21.559,21.559,0,0,0,42.72,8.453l1.265-1.936c.361.439.491.568.775.878A14.845,14.845,0,0,0,46.49,3.47l2.324,1.007a5.163,5.163,0,0,0-.439.8,32.041,32.041,0,0,1-2.22,3.8c.387.491.568.723.826,1.11a21.9,21.9,0,0,0,2.195-4.028l2.22,1.11-.62.929-.181.31a.322.322,0,0,1-.181.258,8.908,8.908,0,0,0,2.892-2.84,10.07,10.07,0,0,0,1.11-2.143l2.272,1.11v.181a2.581,2.581,0,0,0-.258.387A15.027,15.027,0,0,1,52.041,10.8a5.809,5.809,0,0,0-1.627-1.885,43.892,43.892,0,0,1-3.227,4.647l2.582-.155a12.677,12.677,0,0,0-.671-1.523l1.575-.723a22.591,22.591,0,0,1,1.73,4.57l-1.807.671a1.656,1.656,0,0,0-.207-1.007H48.736v7.41a14.718,14.718,0,0,0-.129,2.685H46.025a16.317,16.317,0,0,0,.155-2.453v-7.2a19.184,19.184,0,0,0-3.227.284Zm2.943,3.563a30.725,30.725,0,0,1-.955,7.023l-2.04-.878a22.075,22.075,0,0,0,1.007-6.429Zm3.847,4.6a21.4,21.4,0,0,0-.645-4.57l1.756-.465a22.642,22.642,0,0,1,.7,3.925,12.909,12.909,0,0,0,.491-2.943l2.117.465a22,22,0,0,1-1.446,6.093l-2.143-1.394a13.79,13.79,0,0,0,.8-1.7Zm12.109-5.964c-.465-1.007-.594-1.265-.9-1.859a43.53,43.53,0,0,1-4.415.542A20.964,20.964,0,0,1,59.761,17.1l-1.627,1.7a12.91,12.91,0,0,0-3.589-3.021l1.446-1.239c-2.84.284-3.356.336-3.821.413l-.336-2.582a4.312,4.312,0,0,0,.8,0h.723A15.957,15.957,0,0,0,54.6,10.235a15.879,15.879,0,0,0,1.394-3.3l2.427.775-.981,1.885a27.345,27.345,0,0,1-1.5,2.582c2.3-.181,2.582-.181,3.77-.336A19.778,19.778,0,0,0,58.263,9.77l1.885-1.033a40.613,40.613,0,0,1,3.641,5.5Zm-4.88,1.549a10.327,10.327,0,0,0,0,1.523V22.4c0,.516,0,.542,1.11.542a1.756,1.756,0,0,0,1.033-.232c.258-.284.31-.671.336-2.453a5.164,5.164,0,0,0,2.117.7c-.31,3.847-.645,4.183-4.079,4.183a4.6,4.6,0,0,1-2.324-.413c-.31-.207-.465-.594-.465-1.265V17.386Zm3.2-13.632a12.083,12.083,0,0,0,2.195,2.582A12.5,12.5,0,0,0,64.77,8.143a7.436,7.436,0,0,0-1.343,2.22,15.956,15.956,0,0,1-5.035-4.983l-.413-.542ZM62.343,16.9a28.246,28.246,0,0,1,2.3,6.016l-2.3,1.11a22.7,22.7,0,0,0-2.04-6.274Z" transform="translate(67.579 4.861)" fill="#333378"/>
      <path id="Path_52" data-name="Path 52" d="M56.66,11.33a24.942,24.942,0,0,1-3.821,1.962,8.211,8.211,0,0,0-1.368-2.375,23.934,23.934,0,0,0,5.99-3.382A16.344,16.344,0,0,0,61.152,3.61h2.788a15.491,15.491,0,0,0,3.95,3.976,22.075,22.075,0,0,0,5.99,3.2A12.058,12.058,0,0,0,72.59,13.37,20.655,20.655,0,0,1,68.769,11.3v1.652a15.775,15.775,0,0,0-2.117,0H58.674a15.853,15.853,0,0,0-2.014,0ZM54.749,25.066a22.149,22.149,0,0,0,0-2.582V14.79a14.2,14.2,0,0,0,2.014,0H68.511a14.794,14.794,0,0,0,2.04,0,14.485,14.485,0,0,0,0,2.324V22.69a13.323,13.323,0,0,0,.155,2.453H67.788V23.955H57.46v1.188Zm2.788-3.486H67.865V17.165H57.537Zm9.14-11.154h.8a22.282,22.282,0,0,1-4.854-4.6A16.214,16.214,0,0,1,58,10.426h8.649Z" transform="translate(81.421 5.083)" fill="#333378"/>
      <path id="Path_53" data-name="Path 53" d="M80.07,7.061a11.128,11.128,0,0,0,1.936,0q-.121,1.4-.1,2.814c-.155,7.978-.465,11.515-1.11,13.142s-1.549,1.962-3.615,1.962a14.461,14.461,0,0,1-2.246-.155,5.68,5.68,0,0,0-.62-2.582,14.407,14.407,0,0,0,2.918.387c.955,0,1.291-.491,1.549-2.169a81.613,81.613,0,0,0,.671-11.1h-.258a29.02,29.02,0,0,1-2.582,8.494,19.7,19.7,0,0,1-6.093,7.229,5.5,5.5,0,0,0-1.988-1.936,16.576,16.576,0,0,0,6.119-6.661,25.38,25.38,0,0,0,2.246-7.126h-.955a17.815,17.815,0,0,1-6.3,10.328,5.551,5.551,0,0,0-1.678-2.066,9.217,9.217,0,0,0,2.763-2.375,14.717,14.717,0,0,0,3.021-5.861h-1.11a14.587,14.587,0,0,1-2.892,4.079,7.255,7.255,0,0,0-1.936-1.782,11.619,11.619,0,0,0,1.136-1.136H67.16v4.493a20.32,20.32,0,0,0,2.195-.878v2.35l-2.195.8v5.474a22.123,22.123,0,0,0,.155,2.582H64.578a16.674,16.674,0,0,0,0-2.582v-4.57l-2.117.723a10.894,10.894,0,0,0-1.265.491L60.68,16.64a14.355,14.355,0,0,0,3.9-.929V10.547H63.391a26.9,26.9,0,0,1-.878,3.8,7.307,7.307,0,0,0-2.143-1.265,13.814,13.814,0,0,0,.981-3.2,22.826,22.826,0,0,0,.31-3.3,6.764,6.764,0,0,0,0-.981l2.35.258a8.556,8.556,0,0,1-.181,2.4h.749V5.667a9.476,9.476,0,0,0,0-2.117h2.788a10.893,10.893,0,0,0-.207,1.936V8.068h.568a5.68,5.68,0,0,0,1.523,0V10.34A15.493,15.493,0,0,0,70.9,7.294a14.613,14.613,0,0,0,1.033-3.615l2.711.491L73.9,6.287l-.31.878Z" transform="translate(95.5 4.988)" fill="#333378"/>
      <path id="Path_54" data-name="Path 54" d="M76.112,18.1A13.765,13.765,0,0,1,74.9,19.542a8.6,8.6,0,0,0-1.368-1.627,16.059,16.059,0,0,1-2.375,7.436,10.767,10.767,0,0,0-1.885-2.324,10.1,10.1,0,0,0,1.343-3.1,33.179,33.179,0,0,0,.723-7.746V9.6h4.983a7.747,7.747,0,0,0-.8-1.988H73.737a18.358,18.358,0,0,0-2.4,0V5.032a15.724,15.724,0,0,0,2.582.155h5.758V3.56h2.866a8.991,8.991,0,0,0,0,1.5V5.29H88.3a17.428,17.428,0,0,0,2.582-.155V7.717a20.964,20.964,0,0,0-2.582,0H86.491A20.483,20.483,0,0,1,85.51,9.7h3.1a22.36,22.36,0,0,0,2.582,0V12.08a23.83,23.83,0,0,0-2.582,0H73.737q.127,2.567,0,5.138a9.4,9.4,0,0,0,1.549-2.195,12.909,12.909,0,0,0,1.214-3l2.4.413-.516,1.265h2.582a7.743,7.743,0,0,0,0-1.5h2.582a8.133,8.133,0,0,0,0,1.5h4.234a12.186,12.186,0,0,0,2.246,0v2.582a17.892,17.892,0,0,0-2.272,0H83.471v1.859h3.511a13.916,13.916,0,0,0,2.117,0v2.04H83.471V22.46h5.164a16.989,16.989,0,0,0,2.246-.129v2.582a15.311,15.311,0,0,0-2.3-.155H75.673a16.628,16.628,0,0,0-2.246.129V22.3a12.264,12.264,0,0,0,2.195.129h5.37V20.188H76.241Zm1.239-2.014a16.266,16.266,0,0,1-1.033,1.782,17.738,17.738,0,0,0,1.988,0h2.737V16.082ZM82.67,9.576a12.624,12.624,0,0,0,.9-1.988H78.41a18.8,18.8,0,0,1,.8,1.988Z" transform="translate(109.579 5.004)" fill="#333378"/>
      <path id="Path_55" data-name="Path 55" d="M86.456,8.023h1.678a8,8,0,0,0,1.188,0V9.289H86.843a7.307,7.307,0,0,0,2.943,2.685,2.814,2.814,0,0,0-.775,1.188,7.746,7.746,0,0,1-1.265-1.188,7.513,7.513,0,0,1-1.214-1.73c0,.387,0,.8,0,1.11v1.42a9.011,9.011,0,0,0,0,1.317H85.216a9.758,9.758,0,0,0,0-1.317V11.432a9.991,9.991,0,0,1,0-1.162,8.081,8.081,0,0,1-2.582,2.918,6.22,6.22,0,0,0-.594-1.059,7.255,7.255,0,0,0,2.84-2.943H82.867V8.8a3.46,3.46,0,0,0-.465.929,5.861,5.861,0,0,1-.7-1.394v5.732H80.414a9.784,9.784,0,0,0,0-1.368V10.27a10.819,10.819,0,0,1,0-1.446,9.4,9.4,0,0,1-1.188,2.582,4.054,4.054,0,0,0-.516-1.265,10.121,10.121,0,0,0,1.5-3.382h-.439a2.969,2.969,0,0,0-.749,0V5.674a2.866,2.866,0,0,0,.749,0h.568V4.822a6.043,6.043,0,0,0,0-1.162h1.291V5.726h.413a1.937,1.937,0,0,0,.594,0V6.862a6.971,6.971,0,0,0,.852-2.737l1.162.284A1.381,1.381,0,0,1,84.468,5c-.181.336,0,.336,0,.568h.9V4.8a6.04,6.04,0,0,0,0-1.084h1.317a5.832,5.832,0,0,0,0,1.084v.775h1.343a6.945,6.945,0,0,0,1.188,0V6.81a7.384,7.384,0,0,0-1.188,0H86.688ZM84,6.6a6.327,6.327,0,0,1-.62,1.265,3.3,3.3,0,0,0-.93-.749l.207-.284h-.852a9.707,9.707,0,0,0,1.059,1.782V7.972a8.6,8.6,0,0,0,1.239,0h1.188V6.6Z" transform="translate(124.512 5.162)" fill="#333378"/>
      <path id="Path_56" data-name="Path 56" d="M92.088,5.575a5.783,5.783,0,0,0,1.11,0V6.84a9.011,9.011,0,0,0-1.317,0H90.229A12.91,12.91,0,0,0,91,11.178a4.131,4.131,0,0,0,.7,1.11s.207.207.258.207a4.526,4.526,0,0,0,.413-1.7,4.647,4.647,0,0,0,1.059.62,4.957,4.957,0,0,1-.645,2.117.9.9,0,0,1-.775.465,2.3,2.3,0,0,1-1.549-1.239A8.081,8.081,0,0,1,89.222,9.37a16.6,16.6,0,0,1-.258-2.582H84.5a10.327,10.327,0,0,0-1.317,0V5.5a9.243,9.243,0,0,0,1.317,0h4.467a7.438,7.438,0,0,1,0-.929,8.465,8.465,0,0,0,0-.878h1.368a5.167,5.167,0,0,0,0,.9v.9h1.343a8.235,8.235,0,0,0-1.213-1.265l.981-.465a9.552,9.552,0,0,1,1.11,1.291l-.9.516ZM84.729,9.164H83.593V8.028h4.88V9.215H86.588V11.8l2.3-.516v.955c-1.911.465-3.666.826-5.164,1.059h-.413l-.1-1.059a18.073,18.073,0,0,0,2.272-.258V9.164Z" transform="translate(131.583 5.209)" fill="#333378"/>
      <path id="Path_57" data-name="Path 57" d="M81.243,11.77a13.118,13.118,0,0,1-1.782.981,5.679,5.679,0,0,0-.671-1.162,10.586,10.586,0,0,0,2.84-1.575A7.746,7.746,0,0,0,83.412,8.13h1.317a7,7,0,0,0,1.911,1.885,11.438,11.438,0,0,0,3.021,1.5,5.164,5.164,0,0,0-.62,1.265,12.549,12.549,0,0,1-1.962-1.007v.878a6.094,6.094,0,0,0-1.033,0H82.224a6.093,6.093,0,0,0-.981,0Zm-.594,2.892a9.14,9.14,0,0,0-1.343,0V13.345a9.656,9.656,0,0,0,1.343,0h7a9.5,9.5,0,0,0,1.317,0v1.317a9.244,9.244,0,0,0-1.317,0H83.773a13.579,13.579,0,0,1-1.162,2.195,13.449,13.449,0,0,0,3.563-.284c-.361-.387-.542-.594-1.188-1.239l1.11-.516a22.642,22.642,0,0,1,2.582,3.021l-1.084.7-.516-.981-2.04.258-3.9.31-1.472.155-.155-1.368H81.14a12.084,12.084,0,0,0,1.214-2.246Zm5.319-3.227h.491a9.088,9.088,0,0,1-2.35-2.169,9.656,9.656,0,0,1-2.35,2.169h4.209Z" transform="translate(124.639 12.233)" fill="#333378"/>
      <path id="Path_58" data-name="Path 58" d="M86.17,17.369v1.162H84.827a7.74,7.74,0,0,0,0-1.188V14.529a6.842,6.842,0,0,1-1.239.955,4.054,4.054,0,0,0-.568-1.162A8.546,8.546,0,0,0,84.956,12.8a6.945,6.945,0,0,0,1.213-1.73H83.511V9.856h1.446v-.9a4.546,4.546,0,0,0,0-.852h1.368a4.263,4.263,0,0,0,0,.878v.929h1.11l.542.568a3.9,3.9,0,0,0-.232.465,9.759,9.759,0,0,1-1.136,1.936A6.868,6.868,0,0,0,88.39,14.3a6.74,6.74,0,0,0-.62,1.11,6.61,6.61,0,0,1-1.446-1.265Zm4.777-.516h1.343a8.623,8.623,0,0,0,1.291,0v1.317a10.327,10.327,0,0,0-1.291,0H88.442a9.786,9.786,0,0,0-1.265,0V16.8a8.856,8.856,0,0,0,1.291,0h1.239V12.438h-.852a7.746,7.746,0,0,0-1.11,0V11.147a6.945,6.945,0,0,0,1.11,0h.852V9.313a5.549,5.549,0,0,0,0-1.162h1.42a5.6,5.6,0,0,0,0,1.162v1.962h1.188a6.609,6.609,0,0,0,1.11,0v1.291a7.747,7.747,0,0,0-1.11,0H91.127Z" transform="translate(131.33 12.185)" fill="#333378"/>
    </g>
  </g>
</svg>
