<svg xmlns="http://www.w3.org/2000/svg" width="151.46" height="28" viewBox="0 0 151.46 28">
  <g id="industry" transform="translate(0.003)">
    <g id="ロゴデータ" transform="translate(-0.003)">
      <path id="Path_300" data-name="Path 300" d="M42.792,21.951c-.761.476-1.543.926-2.346,1.327H28.774V21.951Zm2.779-2.268V18.157L38.91,16.764,28.75,18.209v1.516l10.16-1.382Zm0-3.776V14.114l-6.609-2.779L28.75,14.242v1.732L38.91,13.2Zm0-3.959V9.834l-6.685-4.15L28.75,10.042v1.982L38.91,7.811Zm0-3.919V5.516L38.91,0,28.75,5.823V8.1L38.91,2.49Z" transform="translate(-23.423)" fill="#d21827"/>
      <path id="Path_301" data-name="Path 301" d="M31.514,25.07l-4.076,1.013-3.761.937a8.152,8.152,0,0,1,1.306.291,4.849,4.849,0,0,1,2.188,1.315,4,4,0,0,1,.811,3.481C27.47,34.788,25.537,37.28,23.4,39.3a26.828,26.828,0,0,1-4.033,3.079c-.761.476-1.543.926-2.346,1.327q-.556.278-1.112.534a20.915,20.915,0,0,1-8.582,2.038,8.657,8.657,0,0,1-3.752-.535,4.1,4.1,0,0,1-2.431-2.525,6.415,6.415,0,0,1,.185-3.87,14.364,14.364,0,0,1,1.908-3.692,14.868,14.868,0,0,0-2.353,3.37A7.462,7.462,0,0,0,.04,43.19a5.439,5.439,0,0,0,2.425,3.783,10.007,10.007,0,0,0,4.261,1.438,22.353,22.353,0,0,0,9.688-2.047,30.35,30.35,0,0,0,8.245-5.3,22.353,22.353,0,0,0,3.3-3.728,12.7,12.7,0,0,0,2.114-4.7,6.373,6.373,0,0,0-.88-4.915Z" transform="translate(0.003 -20.425)" fill="#202e6b"/>
      <path id="Path_302" data-name="Path 302" d="M230.068,38.307h8.461v1.23h-3.615v7.324h3.615v1.232h-8.461V46.861h3.615V39.537h-3.615Zm-16.4,7.014H216.4V44.089h-2.735V42.548H216.4V41.316h-6.7v1.232h2.74v1.541H209.7v1.232h2.74v1.54h-3.62v1.232h8.461V46.861h-3.615Zm-.152-7.748h-.926c-.589.676-2.483,2.433-4.141,2.433v1.232c1.923,0,3.768-1.554,4.6-2.371.837.817,2.683,2.371,4.606,2.371V40.006C215.666,40.006,213.538,37.6,213.517,37.573Zm35.6,5.968h-1.738c.1-.395.185-.754.263-1.047h-1.267c-.082.335-.174.687-.272,1.047h-1.534v1.232h1.175A12.3,12.3,0,0,1,244.367,48H245.8a19.329,19.329,0,0,0,1.23-3.231h1.415a18.1,18.1,0,0,1-.293,2.1h-.776V48h1.378l.35-.185a13.046,13.046,0,0,0,.626-3.611Zm-6.946-4.893h.276l-.05.057-.07.078-.124.141h-1.6l1.215,1.043h1.888l-.443-.382,1.012-1.139-.459-1.025h-3.453v1.232h1.806Zm.963,8.893-.615.615h-1.152V46.922h.535V43.646a11.968,11.968,0,0,1-1.21,1.756l-.937-.8a14.175,14.175,0,0,0,1.853-3.057h-1.243V40.313h3.665l.611.695-.33,2.51-1.182-.152Zm0-4.489.195-1.5h-.195Zm4.778-4.4c-.083.13-.185.27-.283.419a8.613,8.613,0,0,1-.641.793c-.3-.283-.556-.556-.76-.793l-.1-.12-.059.12-.476.993-.044.093.044.048c.145.156.311.328.5.506-.157.126-.322.245-.5.359-.122.08-.248.156-.371.23V42.67a3.451,3.451,0,0,0,.371-.185,7.624,7.624,0,0,0,.926-.556c.185-.126.346-.258.508-.391l.015-.013.028.022a8.127,8.127,0,0,0,.693.471c.163.1.33.185.5.265a3.361,3.361,0,0,0,1.4.348V41.41a2.74,2.74,0,0,1-1.4-.522c-.107-.069-.215-.143-.32-.22.113-.124.219-.25.32-.371a10.124,10.124,0,0,0,1.089-1.64h.371V37.5h-2.9l-.556,1.152Zm-3.591,1.319h.015l.209.1.556.267.215-.448.276-.576.12-.25.059-.126.141-.293.556-1.152H245.1L243.991,39.8Zm7.874-.828a63.583,63.583,0,0,1-.509,7.342.979.979,0,0,1-.291.476,1.241,1.241,0,0,1-.493.056v1.232a1.764,1.764,0,0,0,1.942-1.345,53.583,53.583,0,0,0,.556-7.124h7.122V38.544H252.81Zm7.465,4.76.615.639-.107,2.964-.615.593h-5.345l-.615-.593-.107-2.964.615-.639h2.057V40.113h1.232v1.039h2.737v1.232h-2.737v1.508Zm-.639,1.232h-4.282l.063,1.73h4.156ZM257.388,37.5h-1.232v.832h1.232Zm6.536,4.182h1.617V40.445h-1.617V37.5h-1.232v8.8l-.782.384v1.286l.033.069,3.93-1.919V44.745l-1.945.949Zm7.754,3.594h-1.232v1.59H268v-5.24l2.851-1.112V39.2L268,40.308V37.5h-1.232v9.983l.15.15.465.465h3.683l.615-.615Zm7.6-5.619-.031-.02h-1.417l-.585,1.188H278.7Zm1.2-.02-.031.02.573,1.167h1.456l-.585-1.188Zm-4.284.572.615.615v3.335l-.615.615H275.4v.434h1.112v1.23H275.4v1.592h-1.23v-1.6h-1.112V45.2h1.112v-.434h-.758l-.617-.615V40.815l.617-.615h.758v-.424h-1.112V38.544h1.112V37.5h1.23v1.049h1.112v1.232H275.4v.432ZM274.17,43.1h-.143v.434h.143Zm0-1.667h-.143v.432h.143Zm1.41,1.667h-.185v.434h.185Zm0-1.667h-.185v.432h.185Zm7.676,6.653V46.839h-.663c-.836-.044-1.464-.556-2.038-1.667l-.056-.113.2-.371a24.224,24.224,0,0,0,1.349-3.3h-1.315c-.185.472-.5,1.432-.9,2.271-.3-.676-.593-1.547-.863-2.271h-1.308c.434,1.208.926,2.553,1.441,3.626a4.063,4.063,0,0,1-1.9,1.762v1.3a4.122,4.122,0,0,0,2.561-1.8,3.42,3.42,0,0,0,2.792,1.821Zm-1.176-10.1H280.5V37.5h-1.232v.495h-1.629v1.23h4.447Zm-54.12-.574.617.615v9.449l-.617.615H219.5l-.617-.615V38.025l.617-.615Zm-.615,1.232h-7.226v8.219h7.226Zm-.361,6.64h-2.638V43.317h1.962V42.084h-1.962V40.232h2.638V38.99h-6.507v1.232h2.638v1.853H221.15v1.232h1.964v1.981h-2.638V46.52h6.507Zm-.741-.371V43.865H225.01v1.054Zm64.357.81,2.151-4.309-.819-.926-4.491,1.573-.185-3.133-1.336.082.211,3.52-1.879.66.448,1.26,1.519-.534.185,3.17.667.63h5.075v-1.34H287.7l-.185-2.922,3.3-1.154L289.4,45.13Zm7.661-4.311-3.292-1.616-.589,1.2,3.29,1.61Zm1.358,4.967h-4.435v1.332h4.965l.652-.517,1.516-6.459-1.3-.306Zm6.6-6.651.3-.684-1.225-.541-1.94,4.378,1.225.541,1.045-2.359h3.531l-.686,1.921-2.247-.621-.358,1.3,2.151.595-.832,2.318h-2.147v1.323h2.618l.63-.443,2.459-6.842-.63-.895Zm5.49,3.422v1.34h9.582V43.144Z" transform="translate(-169.829 -30.479)" fill="#202e6b"/>
      <path id="Path_303" data-name="Path 303" d="M392.251,122.875h.856v.643h-.856v1.938h-.643v-3.137h.643Zm-2.057-.663h-.643v.241h-.185v.643h.185v2.038l.322.321h.856v-.641h-.535v-1.719h.535v-.643h-.535Zm10.9,0h-.634v.241h-.185v.643h.185v2.038l.32.321h.858v-.641h-.535v-1.719h.535v-.643h-.535Zm1.573,3.244h.643V123.09h-.643Zm.322-3.906a.482.482,0,1,0,.341.142A.483.483,0,0,0,402.993,121.55Zm-26.983.371v3.214l.322.321h2.3v-.641h-1.984v-2.572h1.984V121.6h-2.3Zm19.758,2.892h-1.139V122.8h-.648v2.338l.32.321h1.782l.321-.321V122.8h-.641Zm-12.63-2.018-.32.321v2.338h.643V123.44H384.6v2.016h.643v-2.34l-.321-.321Zm24.838,0-.32.321v2.338h.643V123.44h1.138v2.016h.643v-2.34l-.321-.321Zm-26.357-.321.321.321v2.34l-.321.321h-1.782l-.322-.321V122.8l.322-.321Zm-.322.641h-1.139v1.7H381.3Zm25.16-.641.32.321v2.34l-.32.321h-1.782l-.319-.321V122.8l.32-.321Zm-.322.641H405v1.7h1.138Zm-8.847-.321v2.34l.322.321h1.78v-.641h-1.46v-1.7h1.46v-.641h-1.78Zm-11.168.43v.954l.32.322h1.406v.311h-1.727v.641h2.047l.322-.321v-.954l-.322-.322h-1.412v-.311h1.727V122.9h-2.042Zm32.252-.43v-1.112h-.643v3.776h.643V123.44h1.139v2.016h.643v-2.34l-.322-.321Zm4.763-.321.32.321v2.34l-.32.321h-1.782l-.322-.321V122.8l.321-.321Zm-.322.641h-1.139v1.7h1.139Zm3.624-.641.32.321v2.34l-.32.321h-1.46v1.112h-.643V122.8l.32-.321Zm-.322.641h-1.138v1.7h1.138Zm-12.21-1.2v1.606l.321.321h1.988v.965H413.9v.641h2.625l.322-.321v-1.606l-.322-.321h-1.984v-.965h2.3V121.6h-2.625Z" transform="translate(-306.345 -99.03)" fill="#202e6b"/>
    </g>
  </g>
</svg>
