<svg id="isc" xmlns="http://www.w3.org/2000/svg" width="87.004" height="28" viewBox="0 0 87.004 28">
  <g id="レイヤー_1" data-name="レイヤー 1">
    <path id="Path_184" data-name="Path 184" d="M170.9,29.95v-.584a3.9,3.9,0,0,0,1.866-.418c.258-.209.4-.747.4-1.61v-11.1c0-.864-.141-1.4-.4-1.61A3.886,3.886,0,0,0,170.9,14.2V13.62h6.836V14.2a3.909,3.909,0,0,0-1.868.418c-.258.209-.4.747-.4,1.61v11.1c0,.864.141,1.4.4,1.61a3.9,3.9,0,0,0,1.868.418v.584Z" transform="translate(-124.487 -9.921)"/>
    <path id="Path_185" data-name="Path 185" d="M212.014,19.088l1.306.35a12.257,12.257,0,0,1,2.474.91,5.86,5.86,0,0,1,1.866,1.494,4.552,4.552,0,0,1-1.086,6.089,6.959,6.959,0,0,1-4.538,1.412,10.564,10.564,0,0,1-5.2-1.306l-.4.956h-.7l-1.515-5.016.543-.163a7.945,7.945,0,0,0,7.208,4.527,4.992,4.992,0,0,0,3.08-.959A2.816,2.816,0,0,0,216.284,25a2.629,2.629,0,0,0-.989-2.012,4.543,4.543,0,0,0-1.19-.655c-.543-.209-1.027-.372-1.423-.489l-1.749-.492-1.727-.464a16.023,16.023,0,0,1-1.54-.608,5.364,5.364,0,0,1-1.358-.864,3.846,3.846,0,0,1-1.168-2.8,3.7,3.7,0,0,1,1.61-3.058,6.39,6.39,0,0,1,3.965-1.236,8.641,8.641,0,0,1,4.644,1.165l.326-.815h.7l1.423,4.549-.513.187a6.7,6.7,0,0,0-6.439-4.074c-2.241,0-3.664,1.122-3.664,2.591a2.355,2.355,0,0,0,.907,1.738,5.527,5.527,0,0,0,1.086.584c.489.187.932.326,1.282.443Z" transform="translate(-148.758 -8.974)"/>
    <path id="Path_186" data-name="Path 186" d="M280.907,17.2l-.543.187c-1.494-2.716-3.476-4.074-5.926-4.074a4.5,4.5,0,0,0-4.036,2.053,9.678,9.678,0,0,0-1.314,5.451c0,4.571,1.8,7.487,5.366,7.487a6.355,6.355,0,0,0,3.531-1.027,4.915,4.915,0,0,0,2.1-2.822l1.048.35c-1.138,3.009-3.4,4.514-6.83,4.514a7.236,7.236,0,0,1-5.6-2.4,8.7,8.7,0,0,1-2.194-6.111,8.7,8.7,0,0,1,2.194-6.113,7.246,7.246,0,0,1,5.6-2.4,6.925,6.925,0,0,1,4.128,1.165l.35-.815h.676Z" transform="translate(-194.131 -8.952)"/>
    <path id="Path_187" data-name="Path 187" d="M170.52,89.895v-.117a.777.777,0,0,0,.367-.081c.052-.041.079-.147.079-.318V87.206c0-.171-.027-.272-.079-.318a.815.815,0,0,0-.367-.084V86.69h1.344V86.8a.793.793,0,0,0-.367.084c-.052.041-.079.147-.079.318v2.173c0,.171.027.272.079.318a.769.769,0,0,0,.367.081v.117Z" transform="translate(-124.21 -63.147)"/>
    <path id="Path_188" data-name="Path 188" d="M176.67,89.895v-.117a.793.793,0,0,0,.369-.081c.049-.041.076-.147.076-.318V87.206c0-.171-.022-.272-.073-.318a.815.815,0,0,0-.372-.084V86.69h1.594c.869,0,1.3.272,1.3.815s-.437.815-1.306.815h-.684v1.065c0,.171.027.272.079.318a.769.769,0,0,0,.367.081V89.9Zm1.04-3.009a.122.122,0,0,0-.139.139V88.11h.687c.543,0,.8-.206.8-.616s-.272-.611-.8-.611Z" transform="translate(-128.69 -63.147)"/>
    <path id="Path_189" data-name="Path 189" d="M191.124,86.852a1.955,1.955,0,0,1,0,2.417,1.553,1.553,0,0,1-2.232-.005,1.974,1.974,0,0,1,0-2.417,1.553,1.553,0,0,1,2.222,0Zm-.087,1.209c0-.989-.339-1.477-1.024-1.477S189,87.072,189,88.06s.339,1.475,1.018,1.475S191.038,89.043,191.038,88.06Z" transform="translate(-137.292 -62.92)"/>
    <path id="Path_190" data-name="Path 190" d="M206.884,87.75l.255.071a2.408,2.408,0,0,1,.486.177,1.162,1.162,0,0,1,.369.3.9.9,0,0,1-.212,1.2,1.388,1.388,0,0,1-.9.272,2.069,2.069,0,0,1-1.024-.258l-.079.19h-.136l-.3-.989.106-.033a1.564,1.564,0,0,0,1.429.9.975.975,0,0,0,.606-.187.543.543,0,0,0,.244-.473.524.524,0,0,0-.2-.4.853.853,0,0,0-.234-.128c-.106-.041-.2-.073-.272-.1l-.345-.1-.345-.09a2.99,2.99,0,0,1-.3-.119,1.087,1.087,0,0,1-.272-.168.763.763,0,0,1-.228-.543.733.733,0,0,1,.315-.6,1.266,1.266,0,0,1,.782-.242,1.708,1.708,0,0,1,.913.228l.065-.16h.139l.272.9-.1.035a1.32,1.32,0,0,0-1.268-.815c-.44,0-.72.22-.72.508a.464.464,0,0,0,.179.345.942.942,0,0,0,.215.114c.1.038.185.065.253.087Z" transform="translate(-149.581 -62.955)"/>
    <path id="Path_191" data-name="Path 191" d="M217.788,90.968l.573-.358h.144V92.4c0,.163.062.215.307.236v.117a3.634,3.634,0,0,0-.712.068v-.225a1.358,1.358,0,0,1-.712.225.581.581,0,0,1-.652-.619V91.21c0-.1-.046-.149-.144-.149h-.163v-.092L217,90.61h.139V92.2c0,.255.12.386.361.386a1.108,1.108,0,0,0,.6-.2V91.21c0-.109-.041-.149-.147-.149h-.166Z" transform="translate(-157.652 -66.002)"/>
    <path id="Path_192" data-name="Path 192" d="M225.594,93.592v-.114c.253-.024.312-.071.312-.236V91.208c0-.1-.046-.149-.141-.149h-.185v-.092l.589-.358h.141v.234a.815.815,0,0,1,.611-.234.855.855,0,0,1,.7.312,1.358,1.358,0,0,1,0,1.589.883.883,0,0,1-.72.307.793.793,0,0,1-.584-.212v.638c0,.16.065.212.307.236v.114Zm.717-1.228a.592.592,0,0,0,.511.253c.407,0,.614-.3.614-.907s-.206-.9-.614-.9a.592.592,0,0,0-.511.253Z" transform="translate(-164.317 -66)"/>
    <path id="Path_193" data-name="Path 193" d="M234.824,93.592v-.114c.253-.024.312-.071.312-.236V91.208c0-.1-.046-.149-.144-.149h-.182v-.092l.595-.358h.144v.234a.815.815,0,0,1,.608-.234.85.85,0,0,1,.7.312,1.358,1.358,0,0,1,0,1.589.885.885,0,0,1-.722.307.79.79,0,0,1-.592-.2v.638c0,.16.062.212.307.236V93.6Zm.717-1.228a.589.589,0,0,0,.508.253c.41,0,.616-.3.616-.907s-.206-.9-.616-.9a.589.589,0,0,0-.508.253Z" transform="translate(-171.04 -66)"/>
    <path id="Path_194" data-name="Path 194" d="M246.318,92.5a1.037,1.037,0,0,1-.782.312,1.048,1.048,0,0,1-.779-.312,1.119,1.119,0,0,1-.3-.793,1.086,1.086,0,0,1,.3-.788,1.124,1.124,0,0,1,1.562,0,1.086,1.086,0,0,1,.3.788A1.111,1.111,0,0,1,246.318,92.5Zm-1.42-.793a1.331,1.331,0,0,0,.152.679.606.606,0,0,0,.975,0,1.3,1.3,0,0,0,.155-.679c0-.57-.2-.923-.644-.923S244.9,91.1,244.9,91.712Z" transform="translate(-178.067 -66.001)"/>
    <path id="Path_195" data-name="Path 195" d="M254.459,91.017a.288.288,0,0,0-.171-.106.443.443,0,0,0-.361.236V92.4c0,.163.062.215.307.236v.117H253.21v-.117c.253-.022.312-.073.312-.236V91.21c0-.1-.046-.149-.141-.149h-.171v-.092l.573-.358h.144v.3a.836.836,0,0,1,.611-.3c.239,0,.353.119.353.272a.215.215,0,0,1-.225.234.293.293,0,0,1-.206-.1Z" transform="translate(-184.443 -66.002)"/>
    <path id="Path_196" data-name="Path 196" d="M261.431,91.073a.945.945,0,0,1-.418.087.473.473,0,0,1-.543-.543V89.229h-.31v-.1a.853.853,0,0,0,.57-.771h.141v.679h.543v.19h-.543v1.4a.393.393,0,0,0,.06.244c.087.106.3.1.492.022Z" transform="translate(-189.505 -64.363)"/>
    <path id="Path_197" data-name="Path 197" d="M273.11,87.375,273,87.41a1.313,1.313,0,0,0-1.165-.815.883.883,0,0,0-.793.4,1.923,1.923,0,0,0-.272,1.086c0,.9.353,1.475,1.056,1.475a1.247,1.247,0,0,0,.693-.2.962.962,0,0,0,.413-.543l.209.068a1.3,1.3,0,0,1-1.342.891,1.426,1.426,0,0,1-1.094-.494,1.9,1.9,0,0,1,0-2.406,1.426,1.426,0,0,1,1.1-.473,1.374,1.374,0,0,1,.815.228l.068-.16h.136Z" transform="translate(-196.877 -62.932)"/>
    <path id="Path_198" data-name="Path 198" d="M282.512,91.476V91.7c0,.608.239.913.714.913a.779.779,0,0,0,.7-.527l.168.076a.921.921,0,0,1-.891.644,1.1,1.1,0,0,1-.831-.307,1.23,1.23,0,0,1-.016-1.589.975.975,0,0,1,.758-.312.815.815,0,0,1,.9.88Zm1.086-.182a.473.473,0,0,0-.492-.519.543.543,0,0,0-.568.519Z" transform="translate(-205.464 -65.988)"/>
    <path id="Path_199" data-name="Path 199" d="M291.653,92.738v-.117c.253-.022.307-.073.307-.236V91.217c0-.272-.12-.386-.359-.386a1.016,1.016,0,0,0-.595.2v1.358c0,.163.062.215.307.236v.117H290.29v-.117c.253-.022.312-.073.312-.236V91.2c0-.1-.046-.149-.144-.149h-.168v-.092l.573-.358h.144v.228a1.393,1.393,0,0,1,.712-.228.581.581,0,0,1,.652.619v1.168c0,.163.063.215.307.236v.117Z" transform="translate(-211.453 -65.99)"/>
    <path id="Path_200" data-name="Path 200" d="M300.6,91.073a.945.945,0,0,1-.418.087.475.475,0,0,1-.543-.543V89.229h-.307v-.1a.853.853,0,0,0,.57-.771h.155v.679h.543v.19h-.543v1.4a.394.394,0,0,0,.06.244c.087.106.3.1.492.022Z" transform="translate(-218.038 -64.363)"/>
    <path id="Path_201" data-name="Path 201" d="M305.089,91.476V91.7c0,.608.236.913.714.913a.779.779,0,0,0,.7-.527l.168.076a.921.921,0,0,1-.891.644,1.1,1.1,0,0,1-.831-.307,1.116,1.116,0,0,1-.3-.8,1.135,1.135,0,0,1,.272-.79.983.983,0,0,1,.758-.312.815.815,0,0,1,.9.88Zm1.086-.182a.473.473,0,0,0-.492-.519.543.543,0,0,0-.57.519Z" transform="translate(-221.91 -65.988)"/>
    <path id="Path_202" data-name="Path 202" d="M314.117,91.017c-.068-.068-.122-.106-.168-.106a.443.443,0,0,0-.364.236V92.4c0,.163.065.215.31.236v.117H312.87v-.117c.253-.022.312-.073.312-.236V91.21c0-.1-.046-.149-.144-.149h-.168v-.092l.578-.358h.141v.3a.845.845,0,0,1,.611-.3c.239,0,.353.119.353.272a.212.212,0,0,1-.223.234.3.3,0,0,1-.215-.1Z" transform="translate(-227.9 -66.002)"/>
    <path id="Path_203" data-name="Path 203" d="M8.623,0H0L8.082,14H16.7Z" fill="#c50018"/>
    <path id="Path_204" data-name="Path 204" d="M8.082,51.55,0,65.55H8.623l8.082-14Z" transform="translate(0 -37.55)" fill="#c50018"/>
    <path id="Path_205" data-name="Path 205" d="M47.933,0H39.31l8.085,14h8.62Z" transform="translate(-28.634)" fill="#cf6116"/>
    <path id="Path_206" data-name="Path 206" d="M47.395,51.55l-8.085,14h8.623l8.082-14Z" transform="translate(-28.634 -37.55)" fill="#c50018"/>
    <path id="Path_207" data-name="Path 207" d="M87.25,0H78.63l8.082,14h8.623Z" transform="translate(-57.276)" fill="#dd960f"/>
    <path id="Path_208" data-name="Path 208" d="M86.712,51.55l-8.082,14h8.62l8.085-14Z" transform="translate(-57.276 -37.55)" fill="#c50018"/>
  </g>
</svg>
