<svg id="jbn" xmlns="http://www.w3.org/2000/svg" width="73.128" height="36.75" viewBox="0 0 73.128 36.75">
  <g id="レイヤー_1" data-name="レイヤー 1" transform="translate(0)">
    <path id="Path_209" data-name="Path 209" d="M0,27.462V0H4.578" transform="translate(0)" fill="#002157"/>
    <path id="Path_210" data-name="Path 210" d="M71.015,22.884a4.575,4.575,0,0,1-4.575,4.578V0h4.575Z" transform="translate(-49.275)" fill="#002157"/>
    <path id="Path_211" data-name="Path 211" d="M37.8,22.884a4.578,4.578,0,0,1-4.578,4.578V0H37.8Z" transform="translate(-24.638)" fill="#002157"/>
    <path id="Path_212" data-name="Path 212" d="M4.578,22.884A4.578,4.578,0,0,1,0,27.462V0H4.578Z" transform="translate(0)" fill="#002157"/>
    <path id="Path_213" data-name="Path 213" d="M37.8,9.153a4.578,4.578,0,0,1-4.578,4.578V0H37.8Z" transform="translate(-24.638)" fill="#d68013"/>
    <path id="Path_214" data-name="Path 214" d="M109.091,26.606a9.215,9.215,0,0,1-.457,3.178,4.65,4.65,0,0,1-1.55,2.067,9.463,9.463,0,0,1-3.025,1.436l-.478-1.276a5.834,5.834,0,0,0,1.808-.995,2.653,2.653,0,0,0,.747-1.253,7.88,7.88,0,0,0,.212-2.033V11.417a7.854,7.854,0,0,0-.124-1.726,1.377,1.377,0,0,0-.406-.71A3.16,3.16,0,0,0,104.65,8.5V7.79h6.12V8.5a3.94,3.94,0,0,0-.92.32,1.323,1.323,0,0,0-.45.4,1.808,1.808,0,0,0-.258.718,9.765,9.765,0,0,0-.08,1.48Z" transform="translate(-76.82 -5.777)"/>
    <path id="Path_215" data-name="Path 215" d="M145.79,27.592v-.71a2.979,2.979,0,0,0,1.2-.517,1.405,1.405,0,0,0,.4-.8,9.963,9.963,0,0,0,.093-1.6V11.417a10.733,10.733,0,0,0-.07-1.457,1.855,1.855,0,0,0-.24-.713,1.225,1.225,0,0,0-.444-.406,4.984,4.984,0,0,0-.94-.341V7.79h7.931a11.438,11.438,0,0,1,3.707.493,4.134,4.134,0,0,1,2.082,1.457,4.232,4.232,0,0,1,.679,2.5,4.534,4.534,0,0,1-1.754,3.728,8.822,8.822,0,0,1-2.018,1.132v.132a5.961,5.961,0,0,1,2.989,1.834,4.516,4.516,0,0,1,1.015,2.953,5.493,5.493,0,0,1-.876,3.222,4.909,4.909,0,0,1-2.459,1.808,11.579,11.579,0,0,1-3.831.558Zm6.947-10.923a4.839,4.839,0,0,0,3.374-1.067,3.976,3.976,0,0,0,1.168-3.1,3.746,3.746,0,0,0-.326-1.659,2.713,2.713,0,0,0-.9-1.051,3.772,3.772,0,0,0-1.356-.558,8.148,8.148,0,0,0-1.7-.168c-.367,0-.85,0-1.449.028s-1.051.039-1.349.059v7.515ZM150.2,26.213a23.407,23.407,0,0,0,2.364.1,7.279,7.279,0,0,0,2.95-.481,3.046,3.046,0,0,0,1.524-1.413,5.167,5.167,0,0,0,.473-2.343,4.674,4.674,0,0,0-.517-2.325A3.147,3.147,0,0,0,155.4,18.4a7.852,7.852,0,0,0-2.958-.45H150.2Z" transform="translate(-108.125 -5.777)"/>
    <path id="Path_216" data-name="Path 216" d="M229.3,19.744c.349.581.641,1.088.878,1.524s.481.922.734,1.465h.189q-.072-.886-.132-3.519t-.057-4.751V11.417a13.049,13.049,0,0,0-.059-1.465,1.809,1.809,0,0,0-.209-.71,1.162,1.162,0,0,0-.421-.4,4.764,4.764,0,0,0-.935-.341V7.79H234.5V8.5a4.557,4.557,0,0,0-.92.32,1.243,1.243,0,0,0-.437.377,1.76,1.76,0,0,0-.258.695,9.137,9.137,0,0,0-.088,1.524V27.693h-1.808L222.915,14.13c-.5-.842-.863-1.455-1.075-1.842s-.411-.775-.594-1.147h-.258c.07.744.116,2.093.147,4.041s.041,3.891.041,5.826v2.958a10.818,10.818,0,0,0,.067,1.421,2.044,2.044,0,0,0,.217.713,1.212,1.212,0,0,0,.45.434,4.087,4.087,0,0,0,.964.349v.71H217.59v-.71a2.979,2.979,0,0,0,1.2-.517,1.39,1.39,0,0,0,.4-.8,9.6,9.6,0,0,0,.1-1.6V11.417a10.223,10.223,0,0,0-.072-1.457,1.855,1.855,0,0,0-.24-.713,1.238,1.238,0,0,0-.442-.406,5.025,5.025,0,0,0-.943-.341V7.79h4.539Z" transform="translate(-161.376 -5.777)"/>
    <path id="Path_217" data-name="Path 217" d="M15.8,120.909a2.39,2.39,0,0,1-.119.829,1.214,1.214,0,0,1-.4.537,2.506,2.506,0,0,1-.791.375l-.124-.333a1.535,1.535,0,0,0,.473-.258.718.718,0,0,0,.2-.328,2.067,2.067,0,0,0,.054-.517v-4.278a1.92,1.92,0,0,0-.034-.45.349.349,0,0,0-.106-.186.871.871,0,0,0-.3-.124V116h1.6v.186a1.033,1.033,0,0,0-.24.083.359.359,0,0,0-.119.1.532.532,0,0,0-.065.189,2.71,2.71,0,0,0-.021.385Z" transform="translate(-10.658 -86.032)"/>
    <path id="Path_218" data-name="Path 218" d="M26.51,124.809l-.057-.016a2.326,2.326,0,0,1-.617.478,1.4,1.4,0,0,1-.615.14,1.09,1.09,0,0,1-.517-.111.775.775,0,0,1-.338-.315.917.917,0,0,1-.116-.468.935.935,0,0,1,.545-.853,3.834,3.834,0,0,1,1.641-.349v-.258a2,2,0,0,0-.075-.62.6.6,0,0,0-.238-.333.8.8,0,0,0-.437-.106.7.7,0,0,0-.473.155.927.927,0,0,0-.271.465h-.478v-.491a5.542,5.542,0,0,1,.6-.279,3.433,3.433,0,0,1,.486-.139,2.4,2.4,0,0,1,.491-.052,1.318,1.318,0,0,1,.6.119.749.749,0,0,1,.341.367,1.86,1.86,0,0,1,.114.741V124.6a1.361,1.361,0,0,0,.023.214.431.431,0,0,0,.057.155.326.326,0,0,0,.111.1,1.127,1.127,0,0,0,.24.088v.207H26.51Zm-.065-1.183a2.658,2.658,0,0,0-1.15.2.633.633,0,0,0-.382.594.586.586,0,0,0,.088.341.442.442,0,0,0,.22.171.946.946,0,0,0,.313.049.9.9,0,0,0,.468-.127.922.922,0,0,0,.328-.318.736.736,0,0,0,.116-.382Z" transform="translate(-17.984 -90.226)"/>
    <path id="Path_219" data-name="Path 219" d="M39.909,125.282v.8a3.041,3.041,0,0,0,.018.367.45.45,0,0,0,.062.191.313.313,0,0,0,.124.114.977.977,0,0,0,.258.085v.183H38.829v-.183a1.652,1.652,0,0,0,.222-.077.3.3,0,0,0,.129-.119.517.517,0,0,0,.062-.209,3.273,3.273,0,0,0,0-.351v-3.645a.843.843,0,0,0-.031-.191.346.346,0,0,0-.067-.127.372.372,0,0,0-.116-.083,1.226,1.226,0,0,0-.258-.067v-.178l.891-.034h.23l-.028.6.057.016a3.816,3.816,0,0,1,.369-.346,1.785,1.785,0,0,1,.282-.181,1.124,1.124,0,0,1,.282-.1,1.269,1.269,0,0,1,.287-.031,1.108,1.108,0,0,1,.958.468,2.338,2.338,0,0,1,.336,1.367,2.583,2.583,0,0,1-.191,1.051,1.356,1.356,0,0,1-.55.638,1.661,1.661,0,0,1-.86.214,2.521,2.521,0,0,1-.517-.047A2.339,2.339,0,0,1,39.909,125.282Zm0-1.25a2.584,2.584,0,0,0,.047.561.682.682,0,0,0,.16.32.731.731,0,0,0,.274.183,1.147,1.147,0,0,0,.413.059.757.757,0,0,0,.69-.38,2.209,2.209,0,0,0,.23-1.121q0-1.486-.865-1.483a.933.933,0,0,0-.367.065,1.049,1.049,0,0,0-.3.214.974.974,0,0,0-.212.284.7.7,0,0,0-.065.3Z" transform="translate(-28.754 -90.27)"/>
    <path id="Path_220" data-name="Path 220" d="M57.872,124.809l-.057-.016a2.3,2.3,0,0,1-.62.478,1.4,1.4,0,0,1-.615.139,1.09,1.09,0,0,1-.517-.111.8.8,0,0,1-.338-.315.917.917,0,0,1-.116-.468.938.938,0,0,1,.548-.853,3.823,3.823,0,0,1,1.641-.349v-.258a1.994,1.994,0,0,0-.078-.62.6.6,0,0,0-.238-.333.793.793,0,0,0-.434-.106.7.7,0,0,0-.475.155.948.948,0,0,0-.271.465h-.486v-.491a5.328,5.328,0,0,1,.607-.279,3.4,3.4,0,0,1,.483-.14,2.423,2.423,0,0,1,.493-.052,1.312,1.312,0,0,1,.6.119.749.749,0,0,1,.341.367,1.808,1.808,0,0,1,.114.741V124.6a1.778,1.778,0,0,0,.021.214.488.488,0,0,0,.057.155.336.336,0,0,0,.114.1,1.126,1.126,0,0,0,.24.088v.207H57.852Zm-.065-1.183a2.664,2.664,0,0,0-1.152.2.636.636,0,0,0-.382.594.607.607,0,0,0,.088.341.452.452,0,0,0,.22.171.951.951,0,0,0,.315.049.933.933,0,0,0,.793-.444.718.718,0,0,0,.119-.382Z" transform="translate(-41.243 -90.226)"/>
    <path id="Path_221" data-name="Path 221" d="M74.118,125.446h-1.5v-.186a1.292,1.292,0,0,0,.212-.08.3.3,0,0,0,.108-.1A.463.463,0,0,0,73,124.9a2.022,2.022,0,0,0,.026-.385v-.992q0-.258-.015-.481a1.889,1.889,0,0,0-.052-.354.739.739,0,0,0-.085-.214.537.537,0,0,0-.121-.132.566.566,0,0,0-.16-.088.775.775,0,0,0-.24-.031.682.682,0,0,0-.279.057,1.163,1.163,0,0,0-.292.2.966.966,0,0,0-.23.284.674.674,0,0,0-.072.32V124.5a2.191,2.191,0,0,0,.031.452.318.318,0,0,0,.114.194.8.8,0,0,0,.279.116v.186H70.431v-.186a1.236,1.236,0,0,0,.209-.08.313.313,0,0,0,.106-.1.516.516,0,0,0,.07-.183,2.373,2.373,0,0,0,.023-.39v-2.038a.623.623,0,0,0-.052-.235.3.3,0,0,0-.14-.134,1.16,1.16,0,0,0-.258-.072v-.2l.886-.034h.23l-.041.617.054.016a3.33,3.33,0,0,1,.452-.406,1.644,1.644,0,0,1,.349-.189,1.034,1.034,0,0,1,.372-.065,1.292,1.292,0,0,1,.364.047.821.821,0,0,1,.284.145.775.775,0,0,1,.2.258,1.255,1.255,0,0,1,.121.349,2.878,2.878,0,0,1,.039.517v1.426a3.237,3.237,0,0,0,.016.38.517.517,0,0,0,.052.181.3.3,0,0,0,.111.109,1.131,1.131,0,0,0,.258.093Z" transform="translate(-52.205 -90.31)"/>
    <path id="Path_222" data-name="Path 222" d="M94.213,121.163v-.186a.775.775,0,0,0,.313-.134.367.367,0,0,0,.106-.209,2.741,2.741,0,0,0,.023-.419v-3.284a2.69,2.69,0,0,0-.018-.38.488.488,0,0,0-.062-.186.331.331,0,0,0-.116-.106,1.346,1.346,0,0,0-.258-.088V116h2.067a2.989,2.989,0,0,1,.966.129,1.072,1.072,0,0,1,.545.38,1.1,1.1,0,0,1,.176.648,1.219,1.219,0,0,1-.127.574,1.191,1.191,0,0,1-.331.4,2.284,2.284,0,0,1-.517.295v.034a1.55,1.55,0,0,1,.775.481,1.163,1.163,0,0,1,.258.775,1.434,1.434,0,0,1-.23.84,1.271,1.271,0,0,1-.641.47,2.979,2.979,0,0,1-1,.147Zm1.808-2.842a1.258,1.258,0,0,0,.878-.279,1.033,1.033,0,0,0,.3-.809.984.984,0,0,0-.085-.434.713.713,0,0,0-.235-.274.971.971,0,0,0-.354-.145,2.152,2.152,0,0,0-.442-.044h-.38l-.351.015v1.961Zm-.664,2.488c.183.018.39.028.617.028a1.87,1.87,0,0,0,.775-.127.775.775,0,0,0,.4-.369,1.328,1.328,0,0,0,.121-.61,1.2,1.2,0,0,0-.134-.6.806.806,0,0,0-.413-.357,2.067,2.067,0,0,0-.775-.119h-.584Z" transform="translate(-69.864 -86.027)"/>
    <path id="Path_223" data-name="Path 223" d="M111.89,122h1.077v1.927a4.925,4.925,0,0,0,.034.674.987.987,0,0,0,.1.346.561.561,0,0,0,.191.2.661.661,0,0,0,.346.078.679.679,0,0,0,.276-.057,1.113,1.113,0,0,0,.295-.2.933.933,0,0,0,.233-.282.718.718,0,0,0,.07-.326V122.6a.662.662,0,0,0-.039-.176.429.429,0,0,0-.062-.109.333.333,0,0,0-.1-.075,1.077,1.077,0,0,0-.212-.072V122h1.077v2.583a3.461,3.461,0,0,0,.013.419.517.517,0,0,0,.049.2.258.258,0,0,0,.116.124.946.946,0,0,0,.284.088v.2l-.868.036h-.23l.023-.62-.057-.015a2.607,2.607,0,0,1-.6.5,1.173,1.173,0,0,1-.574.158,1.082,1.082,0,0,1-.568-.137.8.8,0,0,1-.333-.406,2.118,2.118,0,0,1-.109-.775V122.93a2.61,2.61,0,0,0-.026-.437.354.354,0,0,0-.1-.191.775.775,0,0,0-.3-.129Z" transform="translate(-82.983 -90.482)"/>
    <path id="Path_224" data-name="Path 224" d="M131.292,122.585h-.364a1.093,1.093,0,0,0-.2-.357.6.6,0,0,0-.258-.183,1.033,1.033,0,0,0-.354-.054.744.744,0,0,0-.481.142.465.465,0,0,0-.181.388.517.517,0,0,0,.072.287.677.677,0,0,0,.222.212,3.617,3.617,0,0,0,.535.258,3.965,3.965,0,0,1,.586.3,1.106,1.106,0,0,1,.331.326.8.8,0,0,1,.119.444,1.083,1.083,0,0,1-.1.5.852.852,0,0,1-.287.333,1.227,1.227,0,0,1-.439.186,2.526,2.526,0,0,1-.561.057,3.981,3.981,0,0,1-.61-.039,5.313,5.313,0,0,1-.584-.124v-.791h.372a.943.943,0,0,0,.3.5.868.868,0,0,0,.553.158,1.15,1.15,0,0,0,.258-.028.667.667,0,0,0,.233-.093.5.5,0,0,0,.163-.181.587.587,0,0,0,.059-.284.566.566,0,0,0-.075-.313.7.7,0,0,0-.235-.222,4.378,4.378,0,0,0-.558-.271,3.4,3.4,0,0,1-.553-.279,1.088,1.088,0,0,1-.328-.323.775.775,0,0,1-.119-.439.886.886,0,0,1,.168-.537,1.033,1.033,0,0,1,.486-.351,2.1,2.1,0,0,1,.747-.121,2.981,2.981,0,0,1,.483.026c.158.026.349.049.584.1Z" transform="translate(-95.48 -90.25)"/>
    <path id="Path_225" data-name="Path 225" d="M141.581,121.149a1.239,1.239,0,0,0,.209-.08.312.312,0,0,0,.106-.1.462.462,0,0,0,.067-.183,2.066,2.066,0,0,0,.026-.39v-2.028a.573.573,0,0,0-.054-.235A.289.289,0,0,0,141.8,118a1.161,1.161,0,0,0-.258-.072v-.2l.881-.034h.233v2.7a2.463,2.463,0,0,0,.028.452.333.333,0,0,0,.116.194.8.8,0,0,0,.279.116v.183h-1.5Zm1.08-4.909v.734h-.695v-.734Z" transform="translate(-104.973 -86.21)"/>
    <path id="Path_226" data-name="Path 226" d="M153.576,125.446h-1.491v-.186a1.389,1.389,0,0,0,.212-.08.312.312,0,0,0,.106-.1.458.458,0,0,0,.07-.186,2.329,2.329,0,0,0,.023-.385v-.992q0-.258-.016-.481a1.911,1.911,0,0,0-.049-.354.814.814,0,0,0-.088-.214.537.537,0,0,0-.121-.132.566.566,0,0,0-.16-.088.757.757,0,0,0-.238-.031.687.687,0,0,0-.282.057,1.163,1.163,0,0,0-.292.2,1.011,1.011,0,0,0-.23.284.674.674,0,0,0-.072.32V124.5a2.19,2.19,0,0,0,.031.452.333.333,0,0,0,.116.194.775.775,0,0,0,.276.116v.186h-1.491v-.186a1.237,1.237,0,0,0,.209-.08.313.313,0,0,0,.106-.1.46.46,0,0,0,.07-.183,2.376,2.376,0,0,0,.023-.39v-2.038a.576.576,0,0,0-.052-.235.3.3,0,0,0-.14-.134,1.173,1.173,0,0,0-.258-.072v-.2l.884-.034h.233l-.041.617.052.016a3.493,3.493,0,0,1,.452-.406,1.643,1.643,0,0,1,.349-.189,1.034,1.034,0,0,1,.372-.065,1.292,1.292,0,0,1,.364.047.8.8,0,0,1,.284.145.821.821,0,0,1,.2.258,1.255,1.255,0,0,1,.119.349,2.878,2.878,0,0,1,.039.517v1.426a3.243,3.243,0,0,0,.016.38.468.468,0,0,0,.054.181.292.292,0,0,0,.109.109,1.186,1.186,0,0,0,.258.093Z" transform="translate(-111.129 -90.31)"/>
    <path id="Path_227" data-name="Path 227" d="M169.861,124.739a3.333,3.333,0,0,1-.444.4,1.609,1.609,0,0,1-.979.307,1.46,1.46,0,0,1-1.178-.468,2.082,2.082,0,0,1-.4-1.38,2.325,2.325,0,0,1,.2-.995,1.55,1.55,0,0,1,.576-.667,1.607,1.607,0,0,1,.863-.235,1.584,1.584,0,0,1,.651.121,1.07,1.07,0,0,1,.429.331,1.55,1.55,0,0,1,.258.517,3.516,3.516,0,0,1,.1.834h-2.385v.083a2.429,2.429,0,0,0,.1.752.894.894,0,0,0,.925.648,1.292,1.292,0,0,0,.558-.116,1.622,1.622,0,0,0,.493-.377Zm-.636-1.55a2.826,2.826,0,0,0-.1-.669.808.808,0,0,0-.238-.4.61.61,0,0,0-.416-.14.734.734,0,0,0-.623.313,1.656,1.656,0,0,0-.274.891Z" transform="translate(-123.751 -90.257)"/>
    <path id="Path_228" data-name="Path 228" d="M183.915,122.622h-.362a1.1,1.1,0,0,0-.2-.357.6.6,0,0,0-.258-.183,1,1,0,0,0-.351-.054.747.747,0,0,0-.483.142.465.465,0,0,0-.181.388.517.517,0,0,0,.072.287.7.7,0,0,0,.222.212,3.617,3.617,0,0,0,.535.258,3.876,3.876,0,0,1,.6.3,1.126,1.126,0,0,1,.328.326.8.8,0,0,1,.119.444,1.118,1.118,0,0,1-.1.517.881.881,0,0,1-.289.333,1.188,1.188,0,0,1-.439.186,2.519,2.519,0,0,1-.558.057,4.016,4.016,0,0,1-.617-.047,5.445,5.445,0,0,1-.584-.124v-.791h.372a.943.943,0,0,0,.3.5.868.868,0,0,0,.553.158,1.15,1.15,0,0,0,.258-.028.666.666,0,0,0,.233-.093.46.46,0,0,0,.163-.181.587.587,0,0,0,.062-.284.566.566,0,0,0-.078-.313.69.69,0,0,0-.233-.222,4.457,4.457,0,0,0-.561-.271,3.51,3.51,0,0,1-.553-.279,1.088,1.088,0,0,1-.328-.323.775.775,0,0,1-.119-.439.886.886,0,0,1,.168-.537,1.033,1.033,0,0,1,.488-.351,2.1,2.1,0,0,1,.744-.121,4.82,4.82,0,0,1,.483.026c.155.016.349.049.584.1Z" transform="translate(-134.513 -90.288)"/>
    <path id="Path_229" data-name="Path 229" d="M196.79,122.571h-.362a1.1,1.1,0,0,0-.2-.357.6.6,0,0,0-.258-.183,1,1,0,0,0-.351-.054.747.747,0,0,0-.483.142.465.465,0,0,0-.181.388.535.535,0,0,0,.072.287.7.7,0,0,0,.222.212,3.768,3.768,0,0,0,.535.258,3.877,3.877,0,0,1,.6.3,1.127,1.127,0,0,1,.328.326.8.8,0,0,1,.119.444,1.119,1.119,0,0,1-.1.5.881.881,0,0,1-.289.333,1.189,1.189,0,0,1-.439.186,2.519,2.519,0,0,1-.558.057,4.015,4.015,0,0,1-.617-.047,5.445,5.445,0,0,1-.584-.124v-.791h.372a.943.943,0,0,0,.3.5.868.868,0,0,0,.555.155,1.134,1.134,0,0,0,.258-.028.667.667,0,0,0,.233-.093.46.46,0,0,0,.163-.181.586.586,0,0,0,.062-.284.566.566,0,0,0-.078-.313.69.69,0,0,0-.232-.222,4.454,4.454,0,0,0-.561-.271,3.51,3.51,0,0,1-.553-.279,1.087,1.087,0,0,1-.328-.323.775.775,0,0,1-.119-.439.886.886,0,0,1,.168-.537,1.059,1.059,0,0,1,.488-.351,2.1,2.1,0,0,1,.744-.121,4.829,4.829,0,0,1,.483.026c.155.015.349.049.584.1Z" transform="translate(-144.058 -90.236)"/>
    <path id="Path_230" data-name="Path 230" d="M217.1,119.1c.09.152.168.284.23.4s.124.24.191.382h.049c0-.155-.026-.46-.036-.917s-.013-.871-.013-1.24v-.8a3.389,3.389,0,0,0-.016-.382.426.426,0,0,0-.057-.183.305.305,0,0,0-.109-.106,1.346,1.346,0,0,0-.258-.088V116h1.364v.186a1.224,1.224,0,0,0-.24.083.351.351,0,0,0-.114.1.481.481,0,0,0-.067.183,2.336,2.336,0,0,0-.023.4v4.221h-.473l-2.108-3.534c-.129-.22-.225-.38-.279-.481s-.108-.2-.155-.3h-.065q.026.295.039,1.054v2.3a2.566,2.566,0,0,0,.018.372.481.481,0,0,0,.057.186.328.328,0,0,0,.116.114,1.24,1.24,0,0,0,.258.09v.2h-1.38v-.186a.775.775,0,0,0,.313-.134.367.367,0,0,0,.106-.209,2.743,2.743,0,0,0,.023-.419v-3.284a2.7,2.7,0,0,0-.018-.38.488.488,0,0,0-.062-.186.354.354,0,0,0-.111-.111,1.425,1.425,0,0,0-.245-.088V116h1.183Z" transform="translate(-158.736 -86.032)"/>
    <path id="Path_231" data-name="Path 231" d="M237.3,124.739a3.337,3.337,0,0,1-.444.4,1.61,1.61,0,0,1-.979.307,1.452,1.452,0,0,1-1.175-.468,2.067,2.067,0,0,1-.4-1.38,2.325,2.325,0,0,1,.2-.995,1.55,1.55,0,0,1,.576-.667,1.607,1.607,0,0,1,.863-.235,1.584,1.584,0,0,1,.651.121,1.1,1.1,0,0,1,.431.331,1.6,1.6,0,0,1,.258.517,3.516,3.516,0,0,1,.1.834H235v.083a2.429,2.429,0,0,0,.1.752.935.935,0,0,0,.331.475.953.953,0,0,0,.594.173,1.292,1.292,0,0,0,.558-.116,1.664,1.664,0,0,0,.5-.377Zm-.636-1.55a2.825,2.825,0,0,0-.1-.669.809.809,0,0,0-.238-.4.61.61,0,0,0-.416-.14.734.734,0,0,0-.623.313,1.656,1.656,0,0,0-.274.891Z" transform="translate(-173.768 -90.257)"/>
    <path id="Path_232" data-name="Path 232" d="M250.791,122.775l-.992,2.842h-.517l-.907-2.808a2.943,2.943,0,0,0-.147-.385.55.55,0,0,0-.124-.165.579.579,0,0,0-.214-.093V122h1.5v.186a.638.638,0,0,0-.3.119.3.3,0,0,0-.077.222,1.065,1.065,0,0,0,.023.214,2.148,2.148,0,0,0,.067.258l.594,1.93.961-2.93h.535l.824,2.93.667-1.85c.036-.1.065-.189.088-.274a.965.965,0,0,0,.034-.245.333.333,0,0,0-.085-.258.55.55,0,0,0-.289-.129V122h1.32v.186a.776.776,0,0,0-.158.054.494.494,0,0,0-.106.083,1.033,1.033,0,0,0-.111.171,2.821,2.821,0,0,0-.158.359l-1.1,2.764h-.517Z" transform="translate(-183.848 -90.482)"/>
    <path id="Path_233" data-name="Path 233" d="M274.587,122.578h-.364a1.145,1.145,0,0,0-.2-.357.62.62,0,0,0-.258-.183,1,1,0,0,0-.351-.054.752.752,0,0,0-.483.142.47.47,0,0,0-.178.388.535.535,0,0,0,.07.287.713.713,0,0,0,.225.212,3.7,3.7,0,0,0,.532.258,3.875,3.875,0,0,1,.6.3,1.137,1.137,0,0,1,.331.326.822.822,0,0,1,.119.444,1.116,1.116,0,0,1-.1.5.853.853,0,0,1-.287.333,1.219,1.219,0,0,1-.442.186,2.519,2.519,0,0,1-.558.057,4.016,4.016,0,0,1-.617-.046,5.272,5.272,0,0,1-.581-.124v-.791h.369a.974.974,0,0,0,.3.5.868.868,0,0,0,.553.158,1.173,1.173,0,0,0,.258-.028.708.708,0,0,0,.233-.093.5.5,0,0,0,.163-.181.618.618,0,0,0,.059-.284.589.589,0,0,0-.075-.313.726.726,0,0,0-.235-.222,4.282,4.282,0,0,0-.561-.271,3.51,3.51,0,0,1-.553-.279,1.077,1.077,0,0,1-.326-.323.775.775,0,0,1-.121-.439.873.873,0,0,1,.171-.537,1.033,1.033,0,0,1,.486-.351,2.1,2.1,0,0,1,.744-.121,4.827,4.827,0,0,1,.483.026c.155.015.351.049.586.1Z" transform="translate(-201.759 -90.243)"/>
  </g>
</svg>
