<svg xmlns="http://www.w3.org/2000/svg" width="226.184" height="30.108" viewBox="0 0 226.184 30.108">
  <g id="_KYUKATSU" data-name="+KYUKATSU" transform="translate(0 0)">
    <g id="レイヤー_1" data-name="レイヤー 1" transform="translate(0 0)">
      <path id="Path_1" data-name="Path 1" d="M126.758,34.825l-7.171-11.278V34.825H113.53V11.16h6.057v9.966l6.732-9.966H133.6l-8.033,11.161,8.681,12.532Z" transform="translate(-52.731 -5.183)" fill="#231f20"/>
      <path id="Path_2" data-name="Path 2" d="M165.315,25.3v9.527h-6.062V25.3L151,11.16h6.9l4.4,8.033,4.4-8.033h6.9Z" transform="translate(-70.134 -5.183)" fill="#231f20"/>
      <path id="Path_3" data-name="Path 3" d="M203.6,35.291c-4.134,0-7.342-1.516-8.885-4.166a12,12,0,0,1-1.4-6.384V11.16h6.062V24.548a9.682,9.682,0,0,0,.295,2.828c.434,1.483,1.89,2.362,3.9,2.362s3.465-.878,3.931-2.362a9.827,9.827,0,0,0,.295-2.828V11.16h6.062V24.741C213.859,31.735,210.388,35.291,203.6,35.291Z" transform="translate(-89.785 -5.183)" fill="#231f20"/>
      <path id="Path_4" data-name="Path 4" d="M249.514,34.825l-7.182-11.278V34.825H236.27V11.16h6.062v9.966l6.732-9.966h7.257L248.3,22.321l8.708,12.5Z" transform="translate(-109.739 -5.183)" fill="#231f20"/>
      <path id="Path_5" data-name="Path 5" d="M293,34.825,291.688,30.6h-8.215l-1.312,4.225H275.52l8.392-23.665h7.342l8.392,23.665Zm-5.441-17.512-2.512,8.22h5.1Z" transform="translate(-127.969 -5.183)" fill="#231f20"/>
      <path id="Path_6" data-name="Path 6" d="M326.853,16.756V34.825H320.78V16.756H314v-5.6h19.6v5.6Z" transform="translate(-145.842 -5.183)" fill="#231f20"/>
      <path id="Path_7" data-name="Path 7" d="M358.124,34.887a14.154,14.154,0,0,1-7.664-2.33l1.778-5.425a10.331,10.331,0,0,0,5.859,2.19c1.692,0,2.887-.76,2.887-1.869a2.04,2.04,0,0,0-1.167-1.719,13.083,13.083,0,0,0-2.244-.9c-2.624-.964-2.887-1.109-3.749-1.81a6.319,6.319,0,0,1-2.388-5.125c0-4.4,3.465-7.61,8.215-7.61a12.467,12.467,0,0,1,6.266,1.81l-1.339,5.387a9.865,9.865,0,0,0-4.82-1.607c-1.339,0-2.3.728-2.3,1.719s.407,1.28,2.335,1.949c3.492,1.194,4.37,1.607,5.505,2.8a6.646,6.646,0,0,1,1.778,4.691C367.072,31.62,363.372,34.887,358.124,34.887Z" transform="translate(-162.776 -4.779)" fill="#231f20"/>
      <path id="Path_8" data-name="Path 8" d="M394.277,35.291c-4.134,0-7.342-1.516-8.885-4.166A12,12,0,0,1,384,24.741V11.16h6.052V24.548a9.68,9.68,0,0,0,.295,2.828c.434,1.483,1.89,2.362,3.9,2.362s3.465-.878,3.931-2.362a9.827,9.827,0,0,0,.294-2.828V11.16h6.062V24.741C404.538,31.735,401.068,35.291,394.277,35.291Z" transform="translate(-178.354 -5.183)" fill="#231f20"/>
      <path id="Path_9" data-name="Path 9" d="M22.493,35.843H17.507A17.528,17.528,0,0,0,0,18.336V13.35A22.493,22.493,0,0,1,22.493,35.843Z" transform="translate(0 -6.2)" fill="#ab915d"/>
      <path id="Path_10" data-name="Path 10" d="M51.007,35.843H46A22.493,22.493,0,0,1,68.493,13.35v4.986A17.523,17.523,0,0,0,51.007,35.843Z" transform="translate(-21.365 -6.2)" fill="#ab915d"/>
      <path id="Path_11" data-name="Path 11" d="M64.121,41.922H59.13A15.5,15.5,0,0,1,74.591,26.44v4.991a10.5,10.5,0,0,0-10.47,10.491Z" transform="translate(-27.464 -12.28)" fill="#ab915d"/>
      <path id="Path_12" data-name="Path 12" d="M15.477,41.922H10.491A10.5,10.5,0,0,0,0,31.431V26.44A15.5,15.5,0,0,1,15.477,41.922Z" transform="translate(0 -12.28)" fill="#ab915d"/>
      <path id="Path_13" data-name="Path 13" d="M68.739,4.986V0A29.455,29.455,0,0,0,47.8,8.681c-.439.439-.862.894-1.269,1.355a31.988,31.988,0,0,1,2.876,4.332A24.715,24.715,0,0,1,68.739,4.986Z" transform="translate(-21.611 0)" fill="#ab915d"/>
      <path id="Path_14" data-name="Path 14" d="M29.642,29.642H24.635a24.474,24.474,0,0,0-7.2-17.432A24.474,24.474,0,0,0,0,4.986V0A29.454,29.454,0,0,1,20.961,8.681a29.454,29.454,0,0,1,8.681,20.961Z" transform="translate(0 0)" fill="#ab915d"/>
    </g>
  </g>
</svg>
