<svg xmlns="http://www.w3.org/2000/svg" width="231.479" height="32.357" viewBox="0 0 231.479 32.357">
  <g id="Layer_2" data-name="Layer 2" transform="translate(0.004)">
    <g id="レイヤー_1" data-name="レイヤー 1" transform="translate(-0.004)">
      <path id="Path_59" data-name="Path 59" d="M71.629,10.484v6.608h-1.1V11.955a8.935,8.935,0,0,1-1.7,2.549V12.857a7.011,7.011,0,0,0,1.7-4.218V7.884h-1.7V6.846h1.7V5.33h1.1V6.846h1.493V7.884H71.629V9.02l1.544,1.76V12.3Zm6.074,2.31v4.269H76.567V12.795a8.776,8.776,0,0,1-3.1,4.167V15.548a8.373,8.373,0,0,0,2.572-3.94H73.6v-1.1h2.975V7.862H74.842a11.228,11.228,0,0,1-.568,1.828h-1.01a12.262,12.262,0,0,0,.886-4.127H75.1a11.275,11.275,0,0,1-.091,1.226h1.567V5.33h1.135V6.789H80.28V7.862H77.7v2.651h2.884v1.1H78.145a8.339,8.339,0,0,0,2.441,3.94v1.413A9.031,9.031,0,0,1,77.7,12.795Z" transform="translate(-29.756 -2.304)" fill="#231916"/>
      <path id="Path_60" data-name="Path 60" d="M99.3,8.553V8.178H91.82V7.043H99.3V5.34h1.135v1.7h1.487l-.329-1.7h.914l.329,1.7h.7V8.178h-3.105v.375c0,3.406,1.027,5.756,3.105,7.062v1.453C100.607,15.552,99.3,12.606,99.3,8.553ZM91.82,16.926V15.842c.976,0,1.93,0,2.838-.051V11.442H91.82V10.307H98.7v1.135H95.816v4.269a12.8,12.8,0,0,0,3.145-.653v1.107A25.182,25.182,0,0,1,91.82,16.926Z" transform="translate(-39.695 -2.309)" fill="#231916"/>
      <path id="Path_61" data-name="Path 61" d="M74.7,30.244A8.452,8.452,0,0,1,68.82,33.61V32.475a6.833,6.833,0,0,0,5.109-3.145h1.544a6.64,6.64,0,0,0,5.109,3.145V33.61A8.338,8.338,0,0,1,74.7,30.244Zm4.621,10.82-.431-.937c-1.777.732-3.758.795-7.153.795H68.82V39.786h1.2l1.135-2.43H68.82V36.38H80.582v1.027H72.5l-1.135,2.43c3.514,0,5.353-.04,7.09-.641l-.641-1.385h1.266l1.5,3.253Zm-9.361-6.5V33.519h9.514v1.045Z" transform="translate(-29.751 -12.68)" fill="#231916"/>
      <path id="Path_62" data-name="Path 62" d="M94.832,36.613v4.45h-1.1v-4.45a10.314,10.314,0,0,1-1.9,1.448V36.693a7.894,7.894,0,0,0,3.537-4.961H91.84V30.647h1.794V29.33h1.135v1.317h1.76V31.68a7.862,7.862,0,0,1-1.646,3.656l1.9,1.658v1.368Zm2.021,4.309V39.786h2.838V33.962H97.221V32.776h2.469V29.33h1.135v3.446h2.458v1.186h-2.458v5.8h2.782v1.135Z" transform="translate(-39.704 -12.68)" fill="#231916"/>
      <path id="Path_63" data-name="Path 63" d="M124,29.235V2.5h2.929V26.436h9.5V0h2.929V26.436h9.514V2.5h2.941V29.235Z" transform="translate(-53.607)" fill="#231916"/>
      <path id="Path_64" data-name="Path 64" d="M180.35,29.611v-2.7h13.425V16.8H182.161v-2.7h11.614V4.1H181.287V1.33h27.872V4.1H196.67V14.108h11.558v2.7h-11.58v10.11h13.369v2.7Z" transform="translate(-77.97 -0.575)" fill="#231916"/>
      <path id="Path_65" data-name="Path 65" d="M255.011,3.793A28.018,28.018,0,0,1,253.1,9.356h1.55V30.064h-2.872V11.9a30.086,30.086,0,0,1-13.4,11.983V20.55A26.648,26.648,0,0,0,252.036,3.793H238.35V1h29.7V3.793Zm1.873,10.337V10.542l11.194,9.65v3.514Z" transform="translate(-103.045 -0.432)" fill="#231916"/>
      <path id="Path_66" data-name="Path 66" d="M297.51,29.235V27.129c2.339,0,4.644,0,6.846-.131V23.967H298.43v-2.14h5.926V19.59H298.43V9.418h5.926V7.408H297.51V5.268h6.846V3.094c-1.907.068-3.974.1-5.926.1V1.022A81.682,81.682,0,0,0,312.985,0V2.174a34.117,34.117,0,0,1-5.995.755V5.268h6.721v2.14H306.99v2.01h5.995V19.59H306.99v2.237h5.995v2.14H306.99v2.867a42.132,42.132,0,0,0,6.721-1.135v2.038A68.5,68.5,0,0,1,297.51,29.235Zm7.147-17.972h-3.974v2.3h3.974Zm0,4.144h-3.974v2.3h3.974Zm5.955-4.144h-3.917v2.3h3.917Zm0,4.144h-3.917v2.3h3.917Zm11.3,14.226h-2.736V27h2.078a2.35,2.35,0,0,0,2.5-2.435V5.96h-4.445v6.977c0,8.725-1.385,13.624-5.075,16.7V25.744c1.845-2.038,2.537-6.085,2.537-12.738V5.96h-2.52V3.224h2.537V0h2.537V3.224h6.96V25.25a4.258,4.258,0,0,1-4.377,4.382Z" transform="translate(-128.622)" fill="#231916"/>
      <path id="Path_67" data-name="Path 67" d="M359.639,29.235V26.964h11.756V23.308h-9.548V21.072h9.548V17.45h-7.181a9.367,9.367,0,0,1-1.6,3.031h-2.668a15.863,15.863,0,0,0,2.764-7.607h2.537a17.1,17.1,0,0,1-.4,2.3h6.557V11.592H360.053v5.79c0,4.644-1.186,8.861-4.513,12.284V25.284c1.283-1.907,1.7-4.8,1.7-7.9v-8.3h5.728a16.4,16.4,0,0,0-1.351-4.644h-5.251V1.975h12.545V0h2.963V1.975h12.545V4.445h-4.314l-1.442,4.638h6.522v2.5H374.358v3.588h9.94v2.271h-9.94v3.622h9.94V23.3h-9.94v3.661h10.831v2.271Zm4.74-24.79a21.178,21.178,0,0,1,1.448,4.638H375.7l1.351-4.644Z" transform="translate(-153.71)" fill="#231916"/>
      <path id="Path_68" data-name="Path 68" d="M13.622,32.534a1.7,1.7,0,0,1-.471-.062h-.369a1.657,1.657,0,0,1-.414-.057,1.521,1.521,0,0,1-.437.062H11.5a2.6,2.6,0,0,1-.38,0h-.131a2.27,2.27,0,0,1-.346,0h-.426a1.368,1.368,0,0,1-.5-.085,1.647,1.647,0,0,1-.335.034,1.641,1.641,0,0,1-.454.057,1.9,1.9,0,0,1-.414.051,1.4,1.4,0,0,1-.494-.079H7.548a2.1,2.1,0,0,1-.318,0,1.635,1.635,0,0,1-.409-.051,1.357,1.357,0,0,1-.448.068,1.55,1.55,0,0,1-.488-.074H5.516a2.135,2.135,0,0,1-.324,0h0a1.538,1.538,0,0,1-.511.085,1.34,1.34,0,0,1-.534-.1H3.342a1.941,1.941,0,0,1-.3,0,1.294,1.294,0,0,1-.568.119,1.482,1.482,0,0,1-.483-.074H1.616a1.7,1.7,0,0,1-.483-.062,1,1,0,0,1-.937-1,.982.982,0,0,1,.988-.988,1.7,1.7,0,0,1,.471.062h.392a1.555,1.555,0,0,1,.358.04,1.289,1.289,0,0,1,.505-.1,2.327,2.327,0,0,1,.352,0H4.2a1.391,1.391,0,0,1,.454.068,1.391,1.391,0,0,1,.409-.057,2.1,2.1,0,0,1,.318,0h.21a2.271,2.271,0,0,1,.329,0,1.533,1.533,0,0,1,.4.045,1.385,1.385,0,0,1,.46-.074,1.476,1.476,0,0,1,.505.085h.783a1.425,1.425,0,0,1,.465.074,1.5,1.5,0,0,1,.363-.04,1.64,1.64,0,0,1,.454-.057,1.7,1.7,0,0,1,.426-.051,1.482,1.482,0,0,1,.568.1h.4a2.389,2.389,0,0,1,.352,0,1.885,1.885,0,0,1,.38.034h.369a1.34,1.34,0,0,1,.534-.1,1.51,1.51,0,0,1,.517.091h.341a1.584,1.584,0,0,1,.465.068h.051a2.344,2.344,0,0,1,.25,0,1.431,1.431,0,0,1,.517-.091,2.271,2.271,0,0,1,.431-.04,1.907,1.907,0,0,1,.386.034,2.578,2.578,0,0,1,.437.04,3.3,3.3,0,0,1,.454-.04,1.828,1.828,0,0,1,.46.057,1.425,1.425,0,0,1,.369.045,1.419,1.419,0,0,1,.454-.068h.375a1.748,1.748,0,0,1,.414.045h.1a2.209,2.209,0,0,1,.341,0,1.55,1.55,0,0,1,.4.051,1.351,1.351,0,0,1,.454-.074,1.851,1.851,0,0,1,.409.045,1.555,1.555,0,0,1,.443-.057,1.374,1.374,0,0,1,.539.1H21.3a2.741,2.741,0,0,1,.426-.034,1.7,1.7,0,0,1,.324,0,1.237,1.237,0,0,1,.528-.108,1.408,1.408,0,0,1,.494.085h.653v-.3a1.7,1.7,0,0,1-.057-.46,1.607,1.607,0,0,1,.062-.448,1.635,1.635,0,0,1-.051-.409,1.7,1.7,0,0,1,.057-.448v-.409a1.7,1.7,0,0,1-.051-.426,1.34,1.34,0,0,1,.091-.505,2,2,0,0,1-.028-.352,1.788,1.788,0,0,1,.04-.4,1.572,1.572,0,0,1-.068-.414,1.754,1.754,0,0,1-.062-.471v-.857a1.436,1.436,0,0,1,.1-.528,2.27,2.27,0,0,1,.028-.272h0a1.7,1.7,0,0,1-.062-.465c0-.131,0-.193,0-.261v-.931h0a1.362,1.362,0,0,1-.091-.505,1.7,1.7,0,0,1,.057-.437,1.7,1.7,0,0,1-.045-.42,1.487,1.487,0,0,1,.045-.38,1.442,1.442,0,0,1,0-.976,1.817,1.817,0,0,1,0-.8v-.4a1.4,1.4,0,0,0,0-.176v-.369a.773.773,0,0,1,0-.119,1.851,1.851,0,0,1-.307-.034,3.287,3.287,0,0,1-.386-.028,1.135,1.135,0,0,0-.238,0h-.21a1.482,1.482,0,0,1-.5.079,1.3,1.3,0,0,1-.494-.091,1.7,1.7,0,0,1-.8,0,1.589,1.589,0,0,1-.448.068h-.437a1.612,1.612,0,0,1-.465-.062,1.476,1.476,0,0,1-.409-.062,1.743,1.743,0,0,1-.426.051,2.1,2.1,0,0,1-.318,0h-.568a2.038,2.038,0,0,1-.329,0H16.8a2.208,2.208,0,0,1-.341,0h-.38a1.606,1.606,0,0,1-.488.074,1.482,1.482,0,0,1-.539-.1h-.182a1.425,1.425,0,0,1-.568.125,1.817,1.817,0,0,1-.454-.057,1.544,1.544,0,0,1-.437-.057H13a1.845,1.845,0,0,1-.284,0,1.283,1.283,0,0,1-.568.136,2.3,2.3,0,0,1-.358-.028h-.074a1.34,1.34,0,0,1-.511-.1,1.436,1.436,0,0,1-.3.04,1.6,1.6,0,0,1-.488.068H9.989a1.408,1.408,0,0,1-.568-.108H9.138a1.7,1.7,0,0,1-.46.062,1.822,1.822,0,0,1-.448-.057H7.946a1.317,1.317,0,0,1-.568.136,1.345,1.345,0,0,1-.471-.074,1.5,1.5,0,0,1-.4.051H6.078a1.357,1.357,0,0,1-.448-.068,1.459,1.459,0,0,1-.414.057,1.408,1.408,0,0,1-.488-.079,1.567,1.567,0,0,1-.375.04,1.7,1.7,0,0,1-.431.051,1.391,1.391,0,0,1-.517-.233H2.9a1.981,1.981,0,0,1-.3,0,2.271,2.271,0,0,1-.426.04,1.294,1.294,0,0,1-.9-.176,1.181,1.181,0,0,1-.568-.738,1.448,1.448,0,0,1-.227-.324,1.447,1.447,0,0,1-.221-.335l-.04-.051A1.408,1.408,0,0,1,0,15.073a1.34,1.34,0,0,1,.216-.806l.352-.817a1.453,1.453,0,0,1,.255-.42,2.651,2.651,0,0,1,.114-.363c.051-.119.079-.176.1-.238a1.544,1.544,0,0,0,.1-.159A2.572,2.572,0,0,1,1.264,12a1.311,1.311,0,0,1,.108-.568,1.544,1.544,0,0,1,.25-.42,1.9,1.9,0,0,1,.216-.358l.153-.369a.511.511,0,0,0,.034-.1,1.357,1.357,0,0,1,.074-.21,1.289,1.289,0,0,1,.114-.534,1.487,1.487,0,0,1,.3-.46c0-.057.045-.1.062-.131l.045-.153a1.289,1.289,0,0,0,.045-.125.963.963,0,0,1,.1-.284l.114-.25a1.374,1.374,0,0,0,.062-.142c.057-.131.091-.2.125-.261s0-.062.057-.131a.693.693,0,0,0,.04-.114.526.526,0,0,1,.062-.17,1.368,1.368,0,0,1,.108-.568,1.283,1.283,0,0,1,.272-.426,2.14,2.14,0,0,1,.108-.369,1.953,1.953,0,0,1,.2-.341c0-.057,0-.079.034-.1a2.072,2.072,0,0,1,.114-.329c.051-.119.074-.176.1-.233a1.665,1.665,0,0,0,.074-.165A1.805,1.805,0,0,1,4.46,4.3l.108-.267a1.391,1.391,0,0,1,.114-.568,3.014,3.014,0,0,1,.142-.3.335.335,0,0,0,.045-.091,1.828,1.828,0,0,1,.187-.341,1.5,1.5,0,0,1,.114-.471l.068-.176.091-.21a2.481,2.481,0,0,1,.148-.3V1.534a1.272,1.272,0,0,1,.568-.9A1.255,1.255,0,0,1,7.117.461a1.527,1.527,0,0,1,.4.057h.431a2.22,2.22,0,0,1,.329,0h.5A1.533,1.533,0,0,1,9.246.45h.431a1.379,1.379,0,0,1,.539.1,1.7,1.7,0,0,1,.346-.034h1.186a1.374,1.374,0,0,1,.539-.1,1.34,1.34,0,0,1,.568.114h.3A1.771,1.771,0,0,1,13.5.557a1.345,1.345,0,0,1,.494-.1h.426a1.7,1.7,0,0,1,.341.017h.074a1.413,1.413,0,0,1,.522.091h.664a1.357,1.357,0,0,1,.556-.108h.074a2.18,2.18,0,0,1,.358,0,2.157,2.157,0,0,1,.352,0,.908.908,0,0,0,.176,0,2.186,2.186,0,0,1,.335,0,1.606,1.606,0,0,1,.426.051A1.238,1.238,0,0,1,19.248.7a1.209,1.209,0,0,1,.568.829,1.238,1.238,0,0,1,.108.318,1.345,1.345,0,0,1,.3.4,2.27,2.27,0,0,1,.148.4.9.9,0,0,0,.085.17l.119.233c.062.136.091.2.119.272a1.17,1.17,0,0,0,.051.125c.062.131.091.193.119.261s0,.068.062.142a2.617,2.617,0,0,1,.221.375l.068.119.142.261a1.521,1.521,0,0,1,.238.369,1.294,1.294,0,0,1,.136.539,1.7,1.7,0,0,1,.17.278,1.782,1.782,0,0,1,.142.414c.062.125.091.193.119.255a1.471,1.471,0,0,0,.057.136c.028.062.051.091.062.119a2.742,2.742,0,0,1,.148.267l.148.3a1.442,1.442,0,0,1,.318.431l.193.392a2.917,2.917,0,0,1,.119.29l.045.1c.057.114.079.176.108.233s.034.079.074.159a1.7,1.7,0,0,1,.148.42,1.782,1.782,0,0,1,.227.363c0,.051.04.074.051.1a2.1,2.1,0,0,1,.307.676,1.7,1.7,0,0,1,.25.38c.062.125.085.193.114.255s.028.074.062.142a1.453,1.453,0,0,1,.136.426,1.561,1.561,0,0,1,.233.358,2.055,2.055,0,0,1,.1.216l.085.176a1.357,1.357,0,0,1,.142.568.993.993,0,0,1-1.839.732,1.419,1.419,0,0,1-.142-.568l-.034-.114-.045-.1a1.459,1.459,0,0,1-.307-.42,1.51,1.51,0,0,1-.142-.522,1.7,1.7,0,0,1-.074-.17l-.045-.108A1.413,1.413,0,0,1,22.4,11.3a2.27,2.27,0,0,1-.148-.4.812.812,0,0,0-.051-.1,3.037,3.037,0,0,1-.165-.29,2.044,2.044,0,0,1-.227-.369,1.7,1.7,0,0,1-.148-.414c-.051-.114-.079-.17-.1-.227s-.04-.085-.079-.165a2.458,2.458,0,0,1-.119-.284l-.045-.108-.148-.3a1.442,1.442,0,0,1-.318-.431l-.193-.392a1.011,1.011,0,0,0-.062-.119,2.015,2.015,0,0,1-.142-.267c-.062-.125-.091-.193-.119-.255a1.021,1.021,0,0,0-.057-.136,1.7,1.7,0,0,1-.142-.392,1.618,1.618,0,0,1-.255-.386,1.362,1.362,0,0,1-.136-.568,2.054,2.054,0,0,1-.159-.272l-.068-.119c-.034-.068-.074-.131-.136-.261a2.163,2.163,0,0,1-.227-.375c-.062-.131-.091-.193-.114-.255a.988.988,0,0,0-.062-.142A1.7,1.7,0,0,1,18.856,4L18.8,3.873c-.028-.062-.068-.1-.068-.136a1.475,1.475,0,0,0-.119-.233,1.646,1.646,0,0,1-.125-.324,1.323,1.323,0,0,1-.324-.431,1.408,1.408,0,0,1-.114-.3,1.493,1.493,0,0,1-.2-.006h-.074a2.123,2.123,0,0,1-.335,0,1.7,1.7,0,0,1-.352,0,1.277,1.277,0,0,0-.148,0,1.97,1.97,0,0,1-.238,0,1.43,1.43,0,0,1-.568.108h-.874a1.306,1.306,0,0,1-.5-.108,1.482,1.482,0,0,1-.261,0h-.375a1.431,1.431,0,0,1-.568.108,2.271,2.271,0,0,1-.42-.04h-.443a1.379,1.379,0,0,1-.443-.068,1.4,1.4,0,0,1-.414.057H10.551a1.487,1.487,0,0,1-.437.051,1.419,1.419,0,0,1-.568-.108H9.268a1.47,1.47,0,0,1-.465.068H7.5a1.6,1.6,0,0,1-.255,0L7.2,2.59a.534.534,0,0,0-.045.085l-.114.29a1.55,1.55,0,0,1-.363.965,1.669,1.669,0,0,1-.125.25,1.34,1.34,0,0,1-.108.534l-.165.4a1.533,1.533,0,0,1-.227.4c-.04.108-.068.159-.091.21s-.04.085-.074.165v.079a2.072,2.072,0,0,1-.114.329,2.038,2.038,0,0,1-.2.369,2.617,2.617,0,0,1-.136.431,1.379,1.379,0,0,1-.21.358,1.6,1.6,0,0,1-.108.443l-.045.114a.982.982,0,0,1-.1.29,2.641,2.641,0,0,1-.119.261.681.681,0,0,0-.057.125l-.114.25-.062.142A.488.488,0,0,0,4.58,9.2a2.7,2.7,0,0,1-.108.284,2.186,2.186,0,0,1-.1.233l-.085.114a1.328,1.328,0,0,1-.233.386,1.289,1.289,0,0,1-.108.409c0,.051,0,.079-.034.1a2.271,2.271,0,0,1-.108.307l-.165.4a1.55,1.55,0,0,1-.238.409,1.629,1.629,0,0,1-.159.284,1.266,1.266,0,0,1-.108.505,3.015,3.015,0,0,1-.142.3l-.045.091c-.051.119-.074.182-.1.238s-.04.079-.074.159a2.413,2.413,0,0,1-.131.414,1.453,1.453,0,0,1-.267.437L2.059,15h0a1.646,1.646,0,0,1,.142.21,1.283,1.283,0,0,1,.193.221H3.473a1.374,1.374,0,0,1,.5.068,1.55,1.55,0,0,1,.363,0,2,2,0,0,1,.431-.045,1.487,1.487,0,0,1,.426.057,1.521,1.521,0,0,1,.437-.062,1.459,1.459,0,0,1,.539.1h.272a1.567,1.567,0,0,1,.483-.074,1.436,1.436,0,0,1,.38.051,1.289,1.289,0,0,1,.488-.091h.431a1.572,1.572,0,0,1,.426.051,1.584,1.584,0,0,1,.443-.057h.431a1.4,1.4,0,0,1,.568.108h.261a1.59,1.59,0,0,1,.448-.068,1.5,1.5,0,0,1,.471-.068,1.328,1.328,0,0,1,.568.131h.131a1.306,1.306,0,0,1,.568-.136,2.327,2.327,0,0,1,.363.028h.505a1.6,1.6,0,0,1,.46.062,1.584,1.584,0,0,1,.312.028,1.4,1.4,0,0,1,.528-.1h.431a1.493,1.493,0,0,1,.483.079,1.5,1.5,0,0,1,.386-.045h.522a2.361,2.361,0,0,1,.346,0h.448a2.185,2.185,0,0,1,.335,0H18.6a1.7,1.7,0,0,1,.46-.057,1.453,1.453,0,0,1,.471.068,1.408,1.408,0,0,1,.426.062h.284a1.431,1.431,0,0,1,.568-.108,1.567,1.567,0,0,1,.443.062,1.76,1.76,0,0,1,.942.04,3.6,3.6,0,0,1,.517-.045h.272a2.419,2.419,0,0,1,.358,0h.079a1.646,1.646,0,0,1,.329.028,1.345,1.345,0,0,1,.568-.114,1.238,1.238,0,0,1,1.135.335,1.175,1.175,0,0,1,.312,1.232,1.748,1.748,0,0,1,0,.29.216.216,0,0,0,0,.068.693.693,0,0,0,0,.119v.732a1.345,1.345,0,0,0,0,.17v.255a1.7,1.7,0,0,1-.057.448,1.425,1.425,0,0,1,.051.409,1.573,1.573,0,0,1-.057.409,1.4,1.4,0,0,1,.068.443,1.493,1.493,0,0,1-.068.465,1.794,1.794,0,0,1,.04.386,1.47,1.47,0,0,1-.045.4,1.482,1.482,0,0,1,.068.46,2.4,2.4,0,0,1,0,.341.352.352,0,0,0,0,.085v.71a.766.766,0,0,0,0,.125,1.652,1.652,0,0,1,.068.465,1.777,1.777,0,0,1-.034.375,1.448,1.448,0,0,1-.1.568v.187a.846.846,0,0,0,0,.136v.392a1.459,1.459,0,0,1,.062.4,1.448,1.448,0,0,1,.079.494,1.856,1.856,0,0,1-.051.454,1.9,1.9,0,0,1,.034.4,1.408,1.408,0,0,1-.079.488,1.891,1.891,0,0,1,.034.369v.431a1.737,1.737,0,0,1-.045.4,1.459,1.459,0,0,1,.068.46,1.487,1.487,0,0,1-.074.471,1.794,1.794,0,0,1,.04.386v.863a1.181,1.181,0,0,1-.363,1.084,1.135,1.135,0,0,1-1.135.324,1.465,1.465,0,0,1-.38.045h-.863a1.289,1.289,0,0,1-.363-.045,1.362,1.362,0,0,1-.488.091,1.777,1.777,0,0,1-.454-.057,1.7,1.7,0,0,1-.4.04h-.426a1.482,1.482,0,0,1-.477-.079,2.021,2.021,0,0,1-.738,0,1.489,1.489,0,0,1-.976.006h-.028a2.339,2.339,0,0,1-.755,0h-.369a1.47,1.47,0,0,1-.522.119,1.572,1.572,0,0,1-.46-.062,1.839,1.839,0,0,1-.426-.057,1.482,1.482,0,0,1-.4.045,1.607,1.607,0,0,1-.4-.04,2.021,2.021,0,0,1-.414-.034h-.068a1.539,1.539,0,0,1-.312.034,1.43,1.43,0,0,1-.517.091h-.091a2.209,2.209,0,0,1-.324.023ZM7.8,17.394ZM21.116,8.556Zm1.51-1.215ZM4.614,3.935Zm2.4-.92ZM19.81,1.454Z" transform="translate(0.004 -0.177)" fill="#006da1"/>
      <path id="Path_69" data-name="Path 69" d="M16.39,37.581c-.148.148-.216,0-.42,0s-.21.045-.414.045-.2-.045-.414-.045-.2.045-.414.045-.2-.114-.414-.114-.2.125-.414.125-.21-.136-.414-.136-.238.187-.386.04-.04-.176-.04-.386.074-.2.074-.414-.034-.2-.034-.409v-.414c0-.2-.1-.21-.1-.414v-.834c0-.21-.108-.272.04-.42s.21.068.414.068.21-.1.414-.1.21.034.414.034.2.045.414.045h.414c.21,0,.2-.1.414-.1s.21.079.42.079.272-.21.42-.062,0,.216,0,.426-.085.2-.085.409v.414c0,.21.114.21.114.414s-.006.238-.006.46v.42c0,.21-.062.21,0,.414S16.56,37.433,16.39,37.581Z" transform="translate(-5.602 -14.772)" fill="#006da1"/>
      <path id="Path_70" data-name="Path 70" d="M16.13,37.7a.568.568,0,0,1-.2-.045.3.3,0,0,0-.238,0,.857.857,0,0,1-.267.034,1.254,1.254,0,0,1-.267-.028.624.624,0,0,0-.29,0,1.272,1.272,0,0,1-.272.028.613.613,0,0,1-.341-.091c-.074-.04-.057-.045-.136,0a.613.613,0,0,1-.352.1.647.647,0,0,1-.363-.114h-.051a.443.443,0,0,1-.568-.045.448.448,0,0,1-.131-.488.5.5,0,0,0,0-.1.783.783,0,0,1,.051-.3.261.261,0,0,0,0-.119.534.534,0,0,0,0-.159,1.3,1.3,0,0,1,0-.25,1.368,1.368,0,0,1,0-.255.965.965,0,0,0,0-.159.119.119,0,0,0,0-.085.755.755,0,0,1-.074-.329,2.151,2.151,0,0,1,0-.221v-.2a1.351,1.351,0,0,0,0-.187v-.227a.358.358,0,0,0,0-.108.5.5,0,0,1,.136-.511.414.414,0,0,1,.568-.045h.051a.148.148,0,0,0,.085,0,.755.755,0,0,1,.329-.074,2.038,2.038,0,0,1,.25,0,.976.976,0,0,0,.165,0,1.272,1.272,0,0,1,.272.028.482.482,0,0,0,.142,0h.233a.38.38,0,0,0,.272,0,.7.7,0,0,1,.324-.074.834.834,0,0,1,.307.057.227.227,0,0,0,.114,0l.062-.034a.42.42,0,0,1,.568.057.46.46,0,0,1,.119.522.38.38,0,0,0,0,.1.783.783,0,0,1-.062.307.21.21,0,0,0,0,.1v.414a.125.125,0,0,0,0,.074.568.568,0,0,1,.1.341,1.192,1.192,0,0,1-.028.261.823.823,0,0,0,0,.153c0,.1,0,.148,0,.2v.221a1,1,0,0,1,0,.238.193.193,0,0,0,0,.114.971.971,0,0,0,.04.119.465.465,0,0,1-.108.568h0A.448.448,0,0,1,16.13,37.7Zm-2.776-.71a.607.607,0,0,1,.358.114c.079.051.057.04.119,0a.613.613,0,0,1,.352-.1.693.693,0,0,1,.346.091.091.091,0,0,0,.068,0,.5.5,0,0,0,.148,0,1.164,1.164,0,0,1,.267-.028,1.209,1.209,0,0,1,.267.028.857.857,0,0,0,.3,0,.908.908,0,0,1,.267-.028.646.646,0,0,1,.159,0c0-.034,0-.062,0-.1a.738.738,0,0,1,0-.352.392.392,0,0,0,0-.125v-.42a1.238,1.238,0,0,1,.028-.261.766.766,0,0,0,0-.153v-.068a.636.636,0,0,1-.091-.346v-.414A.783.783,0,0,1,16,34.517a.21.21,0,0,0,0-.1.568.568,0,0,1,0-.1.715.715,0,0,1-.159,0,.783.783,0,0,1-.307-.057.216.216,0,0,0-.2,0,.7.7,0,0,1-.324.074h-.238a1.135,1.135,0,0,0-.176,0,1.226,1.226,0,0,1-.272,0,.482.482,0,0,0-.142,0,1.312,1.312,0,0,1-.255,0,.307.307,0,0,0-.244,0,.755.755,0,0,1-.329.074.568.568,0,0,1-.176,0,.517.517,0,0,1,0,.1v.193a1.766,1.766,0,0,1,0,.221c0,.114,0,.17,0,.221a1.834,1.834,0,0,0,0,.2.119.119,0,0,0,0,.085.715.715,0,0,1,.074.329,2.038,2.038,0,0,1,0,.25.994.994,0,0,0,0,.165.965.965,0,0,0,0,.159,1.2,1.2,0,0,1,0,.25.8.8,0,0,1-.051.3.238.238,0,0,0,0,.114v.079a.511.511,0,0,1,.159-.079Z" transform="translate(-5.45 -14.535)" fill="#006da1"/>
      <path id="Path_71" data-name="Path 71" d="M25.919,37.581c-.148.148-.21,0-.42,0s-.2.045-.409.045-.21-.045-.414-.045-.21.045-.414.045-.21-.114-.414-.114-.21.125-.42.125-.2-.136-.414-.136-.238.187-.386.04-.034-.176-.034-.386.068-.2.068-.414-.034-.2-.034-.409.034-.21.034-.414-.1-.21-.1-.414v-.834c0-.21-.114-.272.034-.42s.21.068.42.068.2-.1.414-.1.2.034.409.034.21.045.414.045h.414c.2,0,.21-.1.42-.1s.2.079.414.079.278-.21.426-.062,0,.216,0,.426-.079.2-.079.409v.414c0,.2.114.21.114.414s-.04.21-.04.414v.42c0,.21-.062.21,0,.414S26.066,37.433,25.919,37.581Z" transform="translate(-9.733 -14.772)" fill="#006da1"/>
      <path id="Path_72" data-name="Path 72" d="M25.595,37.7a.568.568,0,0,1-.2-.045.29.29,0,0,0-.233,0,.919.919,0,0,1-.267.034,1.164,1.164,0,0,1-.267-.028.647.647,0,0,0-.3,0,1.163,1.163,0,0,1-.267.028.6.6,0,0,1-.341-.091c-.074-.04-.057-.045-.136,0a.653.653,0,0,1-.358.1.607.607,0,0,1-.358-.114h-.057a.437.437,0,0,1-.568-.045.443.443,0,0,1-.136-.488.267.267,0,0,0,0-.1.783.783,0,0,1,.051-.3.375.375,0,0,0,0-.119.965.965,0,0,0,0-.159,1.2,1.2,0,0,1,0-.25,2.151,2.151,0,0,1,0-.255.534.534,0,0,0,0-.159.159.159,0,0,0,0-.085.67.67,0,0,1-.079-.329v-.221a1.834,1.834,0,0,0,0-.2v-.414a.709.709,0,0,0,0-.108.477.477,0,0,1,.136-.511.409.409,0,0,1,.568-.045h.057a.159.159,0,0,0,.085,0,.715.715,0,0,1,.329-.074,2.038,2.038,0,0,1,.25,0,.834.834,0,0,0,.159,0,1.289,1.289,0,0,1,.278.028.42.42,0,0,0,.136,0,2.2,2.2,0,0,1,.238,0,.363.363,0,0,0,.267,0,.755.755,0,0,1,.329-.074.772.772,0,0,1,.3.057.227.227,0,0,0,.114,0,.1.1,0,0,0,.062-.034.431.431,0,0,1,.568.057.471.471,0,0,1,.119.522.255.255,0,0,0,0,.1.806.806,0,0,1-.057.307.21.21,0,0,0,0,.1v.414a.1.1,0,0,0,0,.074.647.647,0,0,1,.091.341.92.92,0,0,1-.028.261A.936.936,0,0,0,26,36.11a1.777,1.777,0,0,0,0,.2v.221a1.073,1.073,0,0,1,0,.238.193.193,0,0,0,0,.114.488.488,0,0,0,.04.119.471.471,0,0,1-.108.568l-.2-.2.2.2A.454.454,0,0,1,25.595,37.7Zm-2.782-.71a.647.647,0,0,1,.363.114c.079.051.051.04.119,0a.613.613,0,0,1,.352-.1.664.664,0,0,1,.341.091.1.1,0,0,0,.074,0,.437.437,0,0,0,.142,0,1.272,1.272,0,0,1,.272-.028,1.136,1.136,0,0,1,.261.028.857.857,0,0,0,.3,0,.965.965,0,0,1,.267-.028.7.7,0,0,1,.165,0v-.1a.721.721,0,0,1,0-.352.721.721,0,0,0,0-.125v-.2q-.021-.09-.034-.182a1.328,1.328,0,0,1,0-.261.494.494,0,0,0,0-.153c0-.028,0-.028,0-.068a.693.693,0,0,1-.091-.346v-.414a.806.806,0,0,1,.057-.307.21.21,0,0,0,0-.1q0-.06,0-.1a.63.63,0,0,1-.159,0,.834.834,0,0,1-.307-.057.2.2,0,0,0-.2,0,.755.755,0,0,1-.329.074H24.17a1.254,1.254,0,0,0-.182,0,1.272,1.272,0,0,1-.272,0,.46.46,0,0,0-.142,0,1.2,1.2,0,0,1-.25,0,.324.324,0,0,0-.25,0,.7.7,0,0,1-.324.074.568.568,0,0,1-.176,0v.1a1.7,1.7,0,0,0,0,.193v.221a2.153,2.153,0,0,1,0,.221v.2a.159.159,0,0,0,0,.085.7.7,0,0,1,.079.329,1.2,1.2,0,0,1,0,.25.994.994,0,0,0,0,.165.965.965,0,0,0,0,.159,1.2,1.2,0,0,1,0,.25.8.8,0,0,1-.051.3.318.318,0,0,0,0,.114c0,.028,0,.057,0,.079a.568.568,0,0,1,.21-.119Z" transform="translate(-9.533 -14.538)" fill="#006da1"/>
      <path id="Path_73" data-name="Path 73" d="M16.39,46.817c-.148.148-.216,0-.42,0s-.21.045-.414.045-.2-.045-.414-.045-.2.045-.414.045-.2-.114-.414-.114-.2.125-.414.125-.21-.136-.414-.136-.238.187-.386.04-.04-.176-.04-.386.074-.2.074-.409-.034-.21-.034-.414v-.414c0-.2-.1-.21-.1-.414V43.9c0-.21-.108-.272.04-.42s.21.068.414.068.21-.1.414-.1.21.034.414.034.2.051.414.051h.414c.21,0,.2-.091.414-.091s.21.074.42.074.272-.2.42-.062,0,.216,0,.426-.085.2-.085.414v.409c0,.21.114.21.114.414s-.045.21-.045.414v.42c0,.21-.062.21,0,.414S16.56,46.669,16.39,46.817Z" transform="translate(-5.602 -18.768)" fill="#006da1"/>
      <path id="Path_74" data-name="Path 74" d="M16.113,46.955a.715.715,0,0,1-.2-.04.261.261,0,0,0-.261.04,1.164,1.164,0,0,1-.267,0,1.254,1.254,0,0,1-.267,0,.829.829,0,0,0-.29,0,1.272,1.272,0,0,1-.272,0,.613.613,0,0,1-.341-.091c-.074-.034-.057-.045-.136,0a.613.613,0,0,1-.352.1.6.6,0,0,1-.363-.114h-.051a.443.443,0,0,1-.568-.045.448.448,0,0,1-.131-.488.5.5,0,0,0,0-.1.783.783,0,0,1,.051-.3.255.255,0,0,0,0-.114.534.534,0,0,0,0-.159,1.413,1.413,0,0,1,0-.255,1.3,1.3,0,0,1,0-.25,1.135,1.135,0,0,0,0-.165.119.119,0,0,0,0-.085.738.738,0,0,1-.074-.329,2.151,2.151,0,0,1,0-.221c0-.051,0-.1,0-.193a1.385,1.385,0,0,0,0-.193c0-.057,0-.114,0-.227a.358.358,0,0,0,0-.108.5.5,0,0,1,.136-.511.42.42,0,0,1,.568-.045l.051.028a.148.148,0,0,0,.085,0,.755.755,0,0,1,.329-.074,2.27,2.27,0,0,1,.255,0,.534.534,0,0,0,.159,0,.931.931,0,0,1,.272.034.807.807,0,0,0,.142,0h.233a.42.42,0,0,0,.272,0,.721.721,0,0,1,.324-.068.857.857,0,0,1,.307.051.227.227,0,0,0,.114,0H15.9a.42.42,0,0,1,.568.051.46.46,0,0,1,.119.522.38.38,0,0,0,0,.1.755.755,0,0,1-.062.307.216.216,0,0,0,0,.108v.409a.125.125,0,0,0,0,.074.607.607,0,0,1,.1.341,1.192,1.192,0,0,1-.028.261.824.824,0,0,0,0,.153v.42a1,1,0,0,1,0,.238.21.21,0,0,0,0,.119.852.852,0,0,0,.04.114.465.465,0,0,1-.108.568h0A.448.448,0,0,1,16.113,46.955Zm-2.776-.71a.647.647,0,0,1,.363.114c.074.051.051.04.114,0a.658.658,0,0,1,.352-.1.693.693,0,0,1,.352.131.091.091,0,0,0,.068,0,.5.5,0,0,0,.148,0,1.164,1.164,0,0,1,.267,0,1.21,1.21,0,0,1,.267,0,.857.857,0,0,0,.3,0,1.164,1.164,0,0,1,.267,0,.648.648,0,0,1,.159,0v-.1a.738.738,0,0,1,0-.352.392.392,0,0,0,0-.125v-.42a1.237,1.237,0,0,1,.028-.261.766.766,0,0,0,0-.153v-.068a.636.636,0,0,1-.091-.346v-.448a.789.789,0,0,1,.062-.312.21.21,0,0,0,0-.1.568.568,0,0,1,0-.1.715.715,0,0,1-.159,0,.806.806,0,0,1-.307-.057.233.233,0,0,0-.2,0,.7.7,0,0,1-.324.074h-.42a1.136,1.136,0,0,1-.272-.034.483.483,0,0,0-.142,0,1.311,1.311,0,0,1-.255,0,.307.307,0,0,0-.244,0,.755.755,0,0,1-.329.074.568.568,0,0,1-.176-.028.517.517,0,0,1,0,.1c0,.1,0,.142,0,.193a1.958,1.958,0,0,1,0,.227v.221a1.663,1.663,0,0,0,0,.193.119.119,0,0,0,0,.085.715.715,0,0,1,.074.329,2.038,2.038,0,0,1,0,.25.993.993,0,0,0,0,.165.965.965,0,0,0,0,.159,1.22,1.22,0,0,1,0,.255.783.783,0,0,1-.051.3.255.255,0,0,0,0,.114v.079a.511.511,0,0,1,.159-.028Z" transform="translate(-5.433 -18.572)" fill="#006da1"/>
      <path id="Path_75" data-name="Path 75" d="M25.919,46.817c-.148.148-.21,0-.42,0s-.2.045-.409.045-.21-.045-.414-.045-.21.045-.414.045-.21-.114-.414-.114-.21.125-.42.125-.2-.136-.414-.136-.238.187-.386.04-.034-.176-.034-.386.068-.2.068-.409-.034-.21-.034-.414.034-.21.034-.414-.1-.21-.1-.414V43.9c0-.21-.114-.272.034-.42s.21.068.42.068.2-.1.414-.1.2.034.409.034.21.051.414.051h.414c.2,0,.21-.091.42-.091s.2.074.414.074.278-.2.426-.062,0,.216,0,.426-.079.2-.079.414v.409c0,.2.114.21.114.414s-.04.21-.04.414v.42c0,.21-.062.21,0,.414S26.066,46.669,25.919,46.817Z" transform="translate(-9.733 -18.768)" fill="#006da1"/>
      <path id="Path_76" data-name="Path 76" d="M25.595,46.941a.67.67,0,0,1-.2-.04.255.255,0,0,0-.238,0,1.255,1.255,0,0,1-.267,0,1.164,1.164,0,0,1-.267,0,.857.857,0,0,0-.3,0,1.164,1.164,0,0,1-.267,0,.6.6,0,0,1-.341-.091c-.074-.034-.057-.045-.136,0a.653.653,0,0,1-.358.1.6.6,0,0,1-.363-.114h-.051a.437.437,0,0,1-.568-.045.443.443,0,0,1-.136-.488.267.267,0,0,0,0-.1.783.783,0,0,1,.051-.3.363.363,0,0,0,0-.114.965.965,0,0,0,0-.159,1.311,1.311,0,0,1,0-.255,2.038,2.038,0,0,1,0-.25.608.608,0,0,0,0-.165.159.159,0,0,0,0-.085.67.67,0,0,1-.079-.329V44.3a1.7,1.7,0,0,0,0-.193v-.42a.709.709,0,0,0,0-.108.477.477,0,0,1,.136-.511.409.409,0,0,1,.568-.045l.057.028a.159.159,0,0,0,.085,0,.715.715,0,0,1,.329-.074,2.038,2.038,0,0,1,.25,0,.534.534,0,0,0,.159,0,.948.948,0,0,1,.278.034.676.676,0,0,0,.136,0,2.2,2.2,0,0,1,.238,0,.4.4,0,0,0,.267,0,.772.772,0,0,1,.278-.04.8.8,0,0,1,.3.051.227.227,0,0,0,.114,0h.062a.426.426,0,0,1,.568.051.471.471,0,0,1,.119.522.255.255,0,0,0,0,.1.783.783,0,0,1-.057.307.216.216,0,0,0,0,.108v.409a.1.1,0,0,0,0,.074.664.664,0,0,1,.091.341.92.92,0,0,1-.028.261.937.937,0,0,0,0,.153,1.777,1.777,0,0,0,0,.2v.221a1.073,1.073,0,0,1,0,.238.193.193,0,0,0,0,.114.414.414,0,0,0,.04.119.471.471,0,0,1-.108.568h0A.454.454,0,0,1,25.595,46.941Zm-.074-.568.2.187-.2-.2Zm-2.708-.17a.647.647,0,0,1,.346.17c.079.051.051.04.119,0a.67.67,0,0,1,.693,0,.1.1,0,0,0,.074,0,.437.437,0,0,0,.142,0,1.272,1.272,0,0,1,.272,0,1.136,1.136,0,0,1,.261,0,.857.857,0,0,0,.3,0,1.255,1.255,0,0,1,.267,0,.7.7,0,0,1,.165,0v-.1a.721.721,0,0,1,0-.352.721.721,0,0,0,0-.125v-.2a2.208,2.208,0,0,1,0-.221,1.328,1.328,0,0,1,0-.261.494.494,0,0,0,0-.153V44.9a.693.693,0,0,1-.091-.346V44.1a.817.817,0,0,1,.057-.312.21.21,0,0,0,0-.1q0-.06,0-.1a.63.63,0,0,1-.159,0,.772.772,0,0,1-.3-.057.233.233,0,0,0-.2,0,.755.755,0,0,1-.329.074h-.414a1.187,1.187,0,0,1-.272-.034.46.46,0,0,0-.142,0,1.2,1.2,0,0,1-.25,0,.324.324,0,0,0-.182-.034.7.7,0,0,1-.324.074.568.568,0,0,1-.176-.028v.1a1.7,1.7,0,0,0,0,.193v.641a.159.159,0,0,0,0,.085.7.7,0,0,1,.079.329,1.2,1.2,0,0,1,0,.25.994.994,0,0,0,0,.165.965.965,0,0,0,0,.159,1.22,1.22,0,0,1,0,.255.783.783,0,0,1-.051.3.363.363,0,0,0,0,.114s0,.057,0,.079a.567.567,0,0,1,.125.006Z" transform="translate(-9.533 -18.558)" fill="#006da1"/>
      <path id="Path_77" data-name="Path 77" d="M34.4,2.091l.414-.04.426-.011.42.068.426-.1.426.04.426.051.426-.011.426.006.426-.068L38.64,2l.426.079.426-.006.426.034.431-.011.4.023.176.358.25.341.091.426.3.318.182.38.119.409L42.1,4.7l.119.409.227.358.131.4.233.352.131.4.267.329.119.409.153.386.267.341.165.386.125.4.125.409.307.318.114.414.17.38.153.4.165.386.3.324.159.392.17.386.2.369.153.4.244.352.182.431-.46.04-.42-.068-.42.006-.414.034-.42.017-.42-.034-.42-.04-.414-.034-.42.119-.42-.034-.42-.062-.42-.045-.42.017-.42-.011-.42.114-.426-.1-.46.119-.187-.42-.034-.448-.233-.358-.176-.386-.119-.409-.2-.369-.148-.4-.108-.414-.278-.341-.1-.42L37.528,9.5l-.187-.38-.2-.369-.153-.392-.148-.4-.136-.4-.165-.386-.136-.4-.227-.363-.1-.42-.136-.4-.255-.352-.085-.426-.221-.369-.142-.4-.21-.375-.1-.42-.227-.363-.119-.414Z" transform="translate(-14.87 -0.865)" fill="#006da1"/>
      <path id="Path_78" data-name="Path 78" d="M45.266,14.117a.778.778,0,0,1-.165,0l-.335-.057h-.29l-.851.051h-.114l-1.079-.091-.25.068a.92.92,0,0,1-.352.034l-1.209-.136h-.658l-.278.079a.971.971,0,0,1-.494,0l-.182-.045-.221.057a.993.993,0,0,1-1.135-.568L37.4,13.1a1.079,1.079,0,0,1-.085-.335v-.187l-.1-.148-.068-.119-.176-.386a1.137,1.137,0,0,1-.057-.148l-.085-.3-.148-.278a1.137,1.137,0,0,1-.057-.119l-.153-.392-.034-.114-.051-.2-.136-.17a.993.993,0,0,1-.2-.4l-.085-.352-.108-.284L35.513,8.5a.857.857,0,0,1-.062-.125l-.568-1.544a.392.392,0,0,1,0-.074l-.1-.3L34.56,6.2a1.084,1.084,0,0,1-.125-.3l-.159-.568L34.111,5.1a.982.982,0,0,1-.159-.437l-.045-.25L33.77,4.2a1.368,1.368,0,0,1-.085-.187l-.114-.324-.148-.278a.88.88,0,0,1-.1-.25L33.265,2.9l-.148-.238a.942.942,0,0,1-.131-.267l-.1-.346-.142-.312A.988.988,0,0,1,33.56.363l.431-.04h.67l.233.04L35.127.3a1.016,1.016,0,0,1,.318,0l.8.085h.738l.335-.057h.551a.9.9,0,0,1,.216,0l.335.062h1.658a1,1,0,0,1,.834.568l.136.272.2.272a1.01,1.01,0,0,1,.165.375l.034.159.114.125a.88.88,0,0,1,.153.233l.182.375a.755.755,0,0,1,.057.159l.074.25.148.221a.931.931,0,0,1,.131.272l.085.278.153.25a1.2,1.2,0,0,1,.1.21l.091.255.159.238a1.26,1.26,0,0,1,.114.233l.074.233.159.2a.914.914,0,0,1,.17.329l.2.568.176.227a.937.937,0,0,1,.125.2l.17.386a.119.119,0,0,0,.04.108l.176.568.136.136a1.022,1.022,0,0,1,.25.437l.091.335.142.312v.057l.233.568.187.21a.863.863,0,0,1,.182.29l.3.715.182.341a.409.409,0,0,1,.051.114l.108.278.176.25a.84.84,0,0,1,.108.2l.182.431A1,1,0,0,1,45.788,14l-.465.04Zm-4.609-2.129h.114l1.05.125.25-.068a.852.852,0,0,1,.341-.034l1.2.1.505-.028-.045-.091a.193.193,0,0,1-.034-.068l-.272-.636-.176-.2a.908.908,0,0,1-.176-.267L42.927,9.69c0-.051-.04-.1-.051-.153l-.045-.165L42.7,9.207a.948.948,0,0,1-.238-.414l-.227-.721-.1-.221-.2-.238a.982.982,0,0,1-.142-.25l-.153-.392V6.9l-.068-.221-.148-.182a.942.942,0,0,1-.165-.307l-.091-.272-.159-.244a.982.982,0,0,1-.114-.233l-.1-.29-.159-.261a.755.755,0,0,1-.119-.221l-.079-.255-.153-.227a1.192,1.192,0,0,1-.136-.284l-.091-.369-.079-.17-.2-.21a1.022,1.022,0,0,1-.238-.46L39.5,2.475l-.1-.142H38.329a1.1,1.1,0,0,1-.187,0l-.312-.057h-.255l-.363.062a.693.693,0,0,1-.187,0h-.795a.693.693,0,0,1-.153,0l-.664-.074-.284.068.051.233.142.255a.7.7,0,0,1,.091.142l.108.307.176.261a.948.948,0,0,1,.131.324l.04.21L36,4.24a1.022,1.022,0,0,1,.136.272l.136.4a.471.471,0,0,1,0,.085l.062.255.142.227a1,1,0,0,1,.1.21l.125.363.153.346a.426.426,0,0,1,0,.091l.4,1.079.38.732.034.079.153.392a.183.183,0,0,0,.04.136l.04.193.136.159a.988.988,0,0,1,.193.386l.091.358.108.278.17.318a1.1,1.1,0,0,1,.085.2l.091.329.119.25.193.307a.846.846,0,0,1,.136.329l.125.028.17-.045a.857.857,0,0,1,.3-.034h.761Z" transform="translate(-14.122 -0.124)" fill="#006da1"/>
      <path id="Path_79" data-name="Path 79" d="M43.8,28.412c.165-.165.272,0,.511,0h.465c.233,0,.233.068.465.068h.465c.238,0,.238-.062.471-.062s.233-.034.471-.034h.465c.233,0,.238-.034.471-.034s.233.1.471.1h.465c.238,0,.238-.051.471-.051h.942c.238,0,.233-.04.471-.04s.255-.079.426.079.085.182.085.4.04.227.04.454-.079.227-.079.454.034.227.034.454v1.811c0,.227-.051.227-.051.448s.1.227.1.454.04.227.04.454v.908c0,.227-.153.227-.153.454s.051.227.051.454.068.227.068.454-.04.221-.04.448v.454c0,.227-.045.227-.045.454v.454c0,.221.034.221.034.448s.04.227.04.454-.051.227-.051.454.085.227.085.454-.131.227-.131.454.085.227.085.454-.04.227-.04.454.1.227.1.454-.028.227-.028.454-.062.227-.062.454.028.233.028.46-.057.227-.057.46.233.312.074.477-.255,0-.488,0H50c-.238,0-.233-.091-.465-.091s-.284.182-.539.182h-.471c-.233,0-.233-.074-.465-.074h-.471c-.233,0-.233.045-.471.045h-.465c-.238,0-.238-.028-.471-.028s-.233.057-.471.057-.233-.068-.471-.068-.233.068-.471.068h-.471c-.238,0-.255.091-.426-.074s-.074-.182-.074-.4.045-.227.045-.454v-.454c0-.227-.068-.227-.068-.454v-.454c0-.227.119-.221.119-.448v-.908c0-.227-.108-.221-.108-.448s.085-.227.085-.454v-.454c0-.227-.068-.227-.068-.454v-.454c0-.227.1-.227.1-.454s-.108-.227-.108-.454V36.2c0-.221.074-.227.074-.454s-.062-.227-.062-.454v-.9c0-.221.04-.227.04-.454v-.454c0-.227.057-.227.057-.454s-.079-.227-.079-.454.057-.227.057-.454v-.454c0-.227-.057-.227-.057-.454s.034-.227.034-.454V29.388c0-.227.057-.233,0-.454S43.639,28.571,43.8,28.412Z" transform="translate(-18.904 -12.25)" fill="#006da1"/>
      <path id="Path_80" data-name="Path 80" d="M50.006,43.78a1.283,1.283,0,0,1-.4-.062H49.2a1.618,1.618,0,0,1-.454-.062,1.59,1.59,0,0,1-.477.074H47.8a1.6,1.6,0,0,1-.5-.074h-.437a2.7,2.7,0,0,1-.471.045h-.465a2.418,2.418,0,0,1-.358,0h-.114a1.788,1.788,0,0,1-.471.057,1.7,1.7,0,0,1-.471-.062,1.754,1.754,0,0,1-.471.062h-.471a1.306,1.306,0,0,1-1.5-1.482,2.1,2.1,0,0,1,.051-.42v-.443a1.629,1.629,0,0,1-.068-.488v-.454a1.43,1.43,0,0,1,.114-.568v-.681a1.442,1.442,0,0,1-.108-.568,1.561,1.561,0,0,1,.085-.517V37.9a.766.766,0,0,0,0-.125,1.629,1.629,0,0,1-.068-.488v-.1a2.328,2.328,0,0,1,0-.352,1.6,1.6,0,0,1,.062-.443,1.334,1.334,0,0,1-.074-.465,2.061,2.061,0,0,1,0-.312v-.136a1.646,1.646,0,0,1,.062-.465,1.862,1.862,0,0,1-.051-.443v-.727a1.448,1.448,0,0,0,0-.176,1.7,1.7,0,0,1,.04-.409.778.778,0,0,0,0-.148,2.328,2.328,0,0,1,0-.352,1.607,1.607,0,0,1,.051-.426,1.391,1.391,0,0,1-.074-.483,1.7,1.7,0,0,1,.062-.483v-.426a1.851,1.851,0,0,1-.057-.454,2.328,2.328,0,0,1,.028-.363.381.381,0,0,0,0-.091V29.73a.971.971,0,0,0,0-.148v-.465a.971.971,0,0,0,0-.148v-.312a1.521,1.521,0,0,1,0-.25h0a1.192,1.192,0,0,1,.261-1.4h0a1.232,1.232,0,0,1,1.249-.3h0a1.7,1.7,0,0,1,.278,0h.142a1.544,1.544,0,0,1,.488.068h.443a1.7,1.7,0,0,1,.471-.062h.079a2.651,2.651,0,0,1,.392,0,2.39,2.39,0,0,1,.352,0h.21a1.913,1.913,0,0,1,.375-.028,1.521,1.521,0,0,1,.568.1h.386a2.129,2.129,0,0,1,.471-.051h1a2.134,2.134,0,0,1,.409-.034,1.226,1.226,0,0,1,1.135.358,1.181,1.181,0,0,1,.392,1.107v.074a1.976,1.976,0,0,1,.034.392,1.459,1.459,0,0,1-.079.5,1.981,1.981,0,0,1,0,.38,2.219,2.219,0,0,1,0,.329V30.7a1.2,1.2,0,0,0,0,.165c0,.142,0,.216,0,.29v.165a1.748,1.748,0,0,1-.04.4,1.4,1.4,0,0,1,.085.505.569.569,0,0,0,0,.062,2.021,2.021,0,0,1,.034.392c0,.142,0,.216,0,.284v.17a.409.409,0,0,0,0,.1,2.481,2.481,0,0,1,0,.358,1.3,1.3,0,0,1-.131.568,1.845,1.845,0,0,1,0,.29,1.669,1.669,0,0,1,.068.494,2.111,2.111,0,0,1-.034.4c0,.193,0,.261,0,.335v.165a2.01,2.01,0,0,1-.04.4v.585a1.81,1.81,0,0,1,0,.369,2.6,2.6,0,0,1,.04.454,1.845,1.845,0,0,1-.04.414,1.646,1.646,0,0,1,.074.494,1.374,1.374,0,0,1-.1.517,1.527,1.527,0,0,1,.051.392,1.8,1.8,0,0,1-.074.443h0a1.465,1.465,0,0,1,.091.522,2.39,2.39,0,0,1,0,.352v.1a1.805,1.805,0,0,1-.062.494v.085a2.067,2.067,0,0,1,0,.335,1.838,1.838,0,0,1-.034.352,1.135,1.135,0,0,1-.25,1.295A1.2,1.2,0,0,1,50.006,43.78Zm-2.174-2.055h.352a1.442,1.442,0,0,1,.568-.1,1.408,1.408,0,0,1,.409.051h0a2.208,2.208,0,0,1,0-.341,1.7,1.7,0,0,1,.068-.488,1.6,1.6,0,0,1,0-.312v-.062a1.436,1.436,0,0,1-.1-.528,1.885,1.885,0,0,1,.034-.38h0a1.555,1.555,0,0,1-.079-.511,1.47,1.47,0,0,1,.091-.511,1.6,1.6,0,0,1-.045-.4,2.106,2.106,0,0,1,.051-.46,2.43,2.43,0,0,1-.04-.448.3.3,0,0,0,0-.079,2.419,2.419,0,0,1,0-.369v-.454a1.59,1.59,0,0,1,.04-.4c0-.2,0-.272,0-.341a1.29,1.29,0,0,0,0-.165,1.59,1.59,0,0,1,.04-.4h0a1.658,1.658,0,0,1-.068-.488,1.754,1.754,0,0,1-.051-.454,1.294,1.294,0,0,1,.142-.607,1.941,1.941,0,0,1,0-.3v-.517a2.378,2.378,0,0,1-.034-.3,1.6,1.6,0,0,1-.1-.568,2.044,2.044,0,0,1,.051-.454c0-.142,0-.21,0-.284V30.6a1.345,1.345,0,0,0,0-.17v-.783a.625.625,0,0,0,0-.119.3.3,0,0,0,0-.079,2.44,2.44,0,0,1-.028-.375,1.556,1.556,0,0,1,.04-.358h-.931a2.089,2.089,0,0,1-.471.051H47.31a1.629,1.629,0,0,1-.568-.091h0a2.441,2.441,0,0,1-.375,0,2.389,2.389,0,0,1-.352,0h-.193a2.123,2.123,0,0,1-.392.028,1.64,1.64,0,0,1-.471.062H44.5a1.646,1.646,0,0,1-.414-.051v1.311a2.515,2.515,0,0,1,0,.363.323.323,0,0,0,0,.091,1.606,1.606,0,0,1,.057.454v.448a2.044,2.044,0,0,1-.045.431,1.544,1.544,0,0,1,.068.477,1.771,1.771,0,0,1-.057.465c0,.04,0,.068,0,.091a2.328,2.328,0,0,1,0,.352,2.134,2.134,0,0,1-.034.409v.318a1.448,1.448,0,0,0,0,.176v.431a1.765,1.765,0,0,1,.062.477,1.629,1.629,0,0,1-.074.5c0,.125,0,.2,0,.267v.04a1.442,1.442,0,0,1,.1.568,1.493,1.493,0,0,1-.091.539h0a1.988,1.988,0,0,1,0,.318,1.6,1.6,0,0,1,.068.488v.454a1.59,1.59,0,0,1-.051.42,1.425,1.425,0,0,1,.079.483c0,.074,0,.108,0,.142a2.01,2.01,0,0,1,0,.312,1.4,1.4,0,0,0,0,.176V40a1.482,1.482,0,0,1-.119.568c0,.051,0,.085,0,.125v.17a1.584,1.584,0,0,1,.068.483V41.7a1.612,1.612,0,0,1,.4-.045,1.7,1.7,0,0,1,.483.062,1.834,1.834,0,0,1,.46-.051,2.327,2.327,0,0,1,.352,0h.568a2.7,2.7,0,0,1,.471-.045h.471A1.629,1.629,0,0,1,47.832,41.725ZM43.058,27.681ZM47.315,26.75Z" transform="translate(-18.158 -11.52)" fill="#006da1"/>
    </g>
  </g>
</svg>
