<svg xmlns="http://www.w3.org/2000/svg" width="279.849" height="84.373" viewBox="0 0 279.849 84.373">
  <g id="Layer_2" data-name="Layer 2" transform="translate(-0.004)">
    <g id="LOGO" transform="translate(0.004)">
      <path id="Path_481" data-name="Path 481" d="M107.7,80.126c-.149-.41-.382-.531-.615-.531h-.41c-.065,0-.093,0-.093-.1v-.382c0-.074,0-.1.121-.1h3.724c.177,0,.121,0,.121.1v.372c0,.074,0,.112-.13.112h-.279a.354.354,0,0,0-.354.521l2.169,6.806h0c.121-.307,2.076-5.735,2.1-6.294a1.378,1.378,0,0,0-.261-.782.633.633,0,0,0-.5-.27h-.307a.093.093,0,0,1-.1-.1v-.363c0-.074,0-.121.112-.121h3.845c.13,0,.1,0,.1.13v.344c0,.074,0,.112-.1.112h-.512c-.289,0-.4.326-.326.577l2.141,6.825h.065A63.007,63.007,0,0,0,120.332,80c0-.2-.149-.41-.5-.41h-.4c-.084,0-.1,0-.1-.112V79.13c0-.074,0-.121.121-.121h2.942c.112,0,.093,0,.093.074v.4c0,.074,0,.112-.1.112h-.317a.726.726,0,0,0-.642.493c-.149.317-3.156,8.575-3.454,9.311-.056.149-.177.382-.382.382s-.307-.14-.363-.326l-2.672-7.746h-.056c-.14.41-2.747,7.635-2.793,7.793a.438.438,0,0,1-.382.279.3.3,0,0,1-.3-.233Z" transform="translate(-7.352 -5.446)"/>
      <path id="Path_482" data-name="Path 482" d="M124.9,85.4c-.121.344-.838,2.449-.931,2.849a1.3,1.3,0,0,0,0,.307c0,.2.233.354.531.354h.615c.121,0,.149,0,.149.074v.372c0,.084,0,.14-.121.14h-3.482c-.2,0-.093-.084-.093-.186v-.279c0-.093,0-.121.093-.121h.438c.419,0,.68-.2.931-.661.14-.27,1.21-2.924,1.648-4.162.1-.289,1.294-3.473,1.443-3.864,0-.14.121-.41,0-.493a.428.428,0,0,1-.084-.177c0-.065,0-.121.149-.149a4.879,4.879,0,0,0,1.452-.736c.093-.093.149-.149.223-.149s.149.177.177.261c.27.931,1.415,4.218,1.685,5.158.354,1.155,1.294,3.9,1.5,4.292a1.117,1.117,0,0,0,.931.68h.475c.093,0,.121,0,.121.1v.307c0,.093,0,.177-.149.177h-4.246c-.121,0-.149-.084-.149-.177v-.289c0-.093,0-.121.121-.121h.382c.419,0,.531-.149.447-.549s-.708-2.411-.885-2.961Zm3.277-.587c-.149-.428-1.154-3.789-1.238-4.087s-.093-.261-.149-.261a.249.249,0,0,0-.2.186c-.047.13-1.387,3.827-1.49,4.162Z" transform="translate(-8.383 -5.414)"/>
      <path id="Path_483" data-name="Path 483" d="M137.152,79.628H136.7a8.239,8.239,0,0,0-2.151.2,4.655,4.655,0,0,0-1.313,1.685.117.117,0,0,1-.158.1l-.3-.1a.112.112,0,0,1-.056-.149c.149-.559.642-2.5.708-2.709s.112-.27.177-.27a.421.421,0,0,1,.233.149,1.294,1.294,0,0,0,1.006.382c.791,0,1.415.093,2.858.093h.857c1.629,0,2.244-.065,2.924-.093a2.7,2.7,0,0,0,1.061-.382c.121-.084.177-.149.261-.149s.121.065.149.233.326,2.095.447,2.793c0,.093,0,.121-.065.14l-.289.1c-.065,0-.093,0-.14-.121a5.586,5.586,0,0,0-1.192-1.648,6.862,6.862,0,0,0-2.262-.27h-.419v7.858c0,1.117.149,1.415.5,1.415h.884c.056,0,.084.056.084.13v.317c0,.084,0,.14-.14.14H135.83c-.2,0-.121,0-.121-.13v-.335c0-.093,0-.121.1-.121h.838a.447.447,0,0,0,.493-.4V83.306Z" transform="translate(-9.154 -5.405)"/>
      <path id="Path_484" data-name="Path 484" d="M146.292,85.4c-.112.344-.838,2.449-.931,2.849a1.293,1.293,0,0,0,0,.307c0,.2.233.354.531.354h.615c.121,0,.149,0,.149.074v.372c0,.084,0,.14-.112.14h-3.482c-.2,0-.093-.084-.093-.186v-.279c0-.093,0-.121.093-.121h.438c.419,0,.68-.2.931-.661.149-.27,1.21-2.924,1.648-4.162.1-.289,1.3-3.473,1.443-3.864,0-.14.121-.41,0-.493a.428.428,0,0,1-.084-.177c0-.065,0-.121.149-.149a4.767,4.767,0,0,0,1.452-.736c.093-.093.149-.149.223-.149s.149.177.177.261c.27.931,1.415,4.218,1.685,5.158.354,1.155,1.294,3.9,1.5,4.292a1.117,1.117,0,0,0,.931.68h.475c.093,0,.121,0,.121.1v.307c0,.093,0,.177-.149.177h-4.246c-.112,0-.149-.084-.149-.177v-.289c0-.093,0-.121.121-.121h.382c.41,0,.531-.149.447-.549s-.708-2.411-.884-2.961Zm3.277-.587c-.149-.428-1.155-3.789-1.238-4.087s-.093-.261-.149-.261a.249.249,0,0,0-.2.186c-.047.13-1.378,3.827-1.49,4.162Z" transform="translate(-9.859 -5.414)"/>
      <path id="Path_485" data-name="Path 485" d="M158.153,82.825c0,2.5.121,4.571.149,5.028,0,.736.2,1.089.736,1.089h.382c.121,0,.121.056.121.13v.344c0,.084,0,.112-.121.112H156.3c-.149,0-.093,0-.093-.13v-.363a.093.093,0,0,1,.093-.093h.5c.382,0,.587-.326.661-1.22,0-.27.1-2.337.1-4.655V81.205c0-.884-.5-1.564-1.155-1.564h-.419c-.065,0-.093,0-.093-.1v-.447c0-.056,0-.084.093-.084h1.769a6.18,6.18,0,0,0,.652,0h.372a.456.456,0,0,1,.354.13c.149.149,3.035,3.724,3.324,4.19.214.233,2.514,3.091,2.747,3.389h.093V82.388a17.619,17.619,0,0,0-.158-2.262.8.8,0,0,0-.782-.559h-.475c-.084,0-.084-.056-.084-.13V79.1c0-.093,0-.121.112-.121h3.072c.177,0,.149.056.149.1v.335c0,.093,0,.149-.093.149h-.41c-.3,0-.447.242-.484.782-.074,1.006-.223,3.482-.223,4.981v3.91c0,.2,0,.419-.177.419a.745.745,0,0,1-.5-.242c-.121-.149-.931-1.061-1.862-2.151-1.033-1.266-2.188-2.654-2.365-2.886s-2.56-3.156-2.737-3.361h-.093Z" transform="translate(-10.753 -5.445)"/>
      <path id="Path_486" data-name="Path 486" d="M171.822,85.4c-.121.344-.847,2.449-.931,2.849a1.293,1.293,0,0,0,0,.307c0,.2.233.354.531.354h.624c.112,0,.149,0,.149.074v.372c0,.084,0,.14-.121.14h-3.482c-.214,0-.084-.084-.084-.186v-.279c0-.093,0-.121.084-.121h.447a1.043,1.043,0,0,0,.931-.661c.149-.27,1.21-2.924,1.648-4.162.112-.289,1.3-3.473,1.443-3.864,0-.14.121-.41,0-.493a.363.363,0,0,1-.093-.177c0-.065,0-.121.149-.149a4.832,4.832,0,0,0,1.462-.736c.084-.093.149-.149.223-.149s.14.177.168.261c.27.931,1.425,4.218,1.685,5.158.354,1.155,1.294,3.9,1.508,4.292a1.1,1.1,0,0,0,.931.68h.475c.084,0,.112,0,.112.1v.307c0,.093,0,.177-.149.177h-4.236c-.121,0-.158-.084-.158-.177v-.289c0-.093,0-.121.121-.121h.382c.419,0,.531-.149.447-.549s-.708-2.411-.884-2.961Zm3.268-.587c-.149-.428-1.155-3.789-1.238-4.087s-.084-.261-.149-.261-.149.056-.2.186-1.378,3.827-1.48,4.162Z" transform="translate(-11.619 -5.414)"/>
      <path id="Path_487" data-name="Path 487" d="M183.1,83.056c0-.531,0-2.328-.047-2.579,0-.857-.279-.931-.838-.931h-.466c-.093,0-.121,0-.121-.112v-.344c0-.084,0-.13.121-.13s.931.056,2.151,0h2.151a5.893,5.893,0,0,1,2.588.4,2.048,2.048,0,0,1,1.127,2c0,1.182-.624,1.862-2,2.4v.074c1.676.438,2.654,1.322,2.654,2.886a2.737,2.737,0,0,1-1.155,2.244,6.676,6.676,0,0,1-3.212.512h-4.236a.1.1,0,0,1-.1-.112V89a.093.093,0,0,1,.1-.1h.642c.438,0,.54-.177.587-.633s.056-2.3.056-3.51Zm1.8.624h.68a2.56,2.56,0,0,0,1.564-.428,2.132,2.132,0,0,0,.773-1.732,1.862,1.862,0,0,0-.652-1.508,3.082,3.082,0,0,0-1.685-.512,2.16,2.16,0,0,0-.438,0,.3.3,0,0,0-.2.233c0,.279-.047,1.546-.047,2.793Zm0,3.417c0,1.387.326,1.965,1.276,1.965a2.048,2.048,0,0,0,2.207-2.346,2.281,2.281,0,0,0-1.415-2.3,4.432,4.432,0,0,0-1.685-.27H184.9V87.1Z" transform="translate(-12.527 -5.443)"/>
      <path id="Path_488" data-name="Path 488" d="M195.755,85.211v2.514c0,.763.261,1.061.587,1.145a4.4,4.4,0,0,0,1.145.121,9.679,9.679,0,0,0,1.248-.056,2.793,2.793,0,0,0,1.21-.5c.261-.242,1.089-1.21,1.369-1.564.056-.074.1-.093.158-.056l.242.14a.121.121,0,0,1,0,.149l-.708,2.216a.317.317,0,0,1-.326.214h-8.109c-.084,0-.121,0-.121-.112v-.354c0-.093,0-.121.149-.121h.5c.68,0,.736-.093.736-.633V83.358c0-1.21,0-3.035-.056-3.24-.056-.4-.2-.521-.652-.521h-.559c-.056,0-.084,0-.084-.1v-.382c0-.074,0-.1.084-.1.326,0,.857.056,2.067,0h5.773a.112.112,0,0,1,.121.084c.056.2.615,2.2.67,2.346s0,.13,0,.168l-.27.112a.125.125,0,0,1-.13-.074A13.843,13.843,0,0,0,199.182,80a2.5,2.5,0,0,0-1.117-.382l-2.309-.056v4.255a15.947,15.947,0,0,0,1.676-.074.819.819,0,0,0,.68-.531,2.4,2.4,0,0,0,.233-.829.112.112,0,0,1,.121-.112h.382c.056,0,.1,0,.093.121s0,1.21,0,1.592c0,.587.065,1.294.093,1.62,0,.074,0,.084-.121.1l-.326.056c-.056,0-.084,0-.112-.1a7.583,7.583,0,0,0-.242-.736.931.931,0,0,0-.736-.531c-.531-.056-1.238-.093-1.7-.093Z" transform="translate(-13.273 -5.447)"/>
      <path id="Path_489" data-name="Path 489" d="M212.814,84.364c-.158,0-.2.056-.2.186v.633c0,.531,0,2.244.056,3.259a.444.444,0,0,0,.5.5h.512c.121,0,.149,0,.149.1v.344c0,.084,0,.14-.149.14h-4.152c-.121,0-.149-.056-.149-.13v-.335c0-.093,0-.121.149-.121h.763c.354,0,.419-.354.419-.689V80.565c0-.726-.093-.931-.568-.931H209.5c-.121,0-.149-.056-.149-.13V79.2a.14.14,0,0,1,.149-.149h4.3c.121,0,.149.056.149.13v.307c0,.093,0,.149-.149.149h-.531c-.531,0-.587.242-.605.81,0,.2-.074,2.16-.074,2.542v.587c0,.149.047.2.177.2h4.869c.233,0,.289,0,.289-.2v-.447c0-.521-.056-2.588-.074-2.793,0-.466-.065-.736-.391-.736h-.68c-.1,0-.121,0-.121-.13v-.335c0-.074,0-.121.121-.121h4.041c.242,0,.177.056.177.13v.307c0,.093,0,.149-.177.149h-.54c-.438,0-.466.242-.466.754v7.821c0,.531.149.736.587.736h.6c.084,0,.112,0,.112.1v.344c0,.084,0,.14-.14.14h-4.283a.121.121,0,0,1-.112-.13v-.335c0-.074,0-.121.112-.121h.8c.354,0,.363-.27.382-.661,0-.708.056-3.072.056-3.333v-.326c0-.14-.112-.177-.317-.177Z" transform="translate(-14.438 -5.447)"/>
      <path id="Path_490" data-name="Path 490" d="M232.335,80a5.493,5.493,0,0,1,2,4.367,5.121,5.121,0,0,1-1.071,3.249,5.223,5.223,0,0,1-4.423,2.086,6.778,6.778,0,0,1-3.333-.931A5.177,5.177,0,0,1,223.36,84.4a5.875,5.875,0,0,1,1.359-3.659,5.056,5.056,0,0,1,4.152-1.862A5.232,5.232,0,0,1,232.335,80Zm-5.661.3a5.3,5.3,0,0,0-1.322,3.566c0,3.836,2.356,5.2,3.594,5.2,2.979,0,3.445-3.305,3.445-4.544,0-3.212-2.179-5.037-3.594-5.037a2.542,2.542,0,0,0-2.132.819Z" transform="translate(-15.403 -5.438)"/>
      <path id="Path_491" data-name="Path 491" d="M245.561,86.446V86.6c0,.084-.652,2.542-.736,2.933h-8.165c-.168,0-.121,0-.121-.13v-.335c0-.093,0-.121.084-.121h.6c.531,0,.615-.2.615-.4s.065-3.957.065-4.832V82.88c0-.931,0-2.5-.065-2.793s-.084-.531-.466-.531h-.624a.13.13,0,0,1-.121-.13v-.335c0-.093,0-.121.121-.121h4.367c.121,0,.149.056.149.13v.344c0,.056,0,.112-.149.112h-.8c-.447,0-.493.149-.493.549,0,.2-.065,2.421-.065,3.445v1.313c0,.261,0,3.445.065,4.078h.875c.829,0,1.862,0,2.477-.074.829-.121,1.769-1.862,1.983-2.449.056-.056.084-.084.168-.056Z" transform="translate(-16.312 -5.445)"/>
      <path id="Path_492" data-name="Path 492" d="M248.706,82.725c0-.382-.056-2.477-.084-2.7a.5.5,0,0,0-.531-.41h-.8a.1.1,0,0,1-.112-.1v-.419c0-.056.056-.084.13-.084h4.441c1.974,0,3.566.186,4.916,1.341a4.655,4.655,0,0,1,1.657,3.724,5.242,5.242,0,0,1-1.443,3.864c-1.452,1.564-3.724,1.573-4.748,1.573h-4.888c-.056,0-.084,0-.084-.13v-.363c0-.065,0-.093.112-.093h.857c.3,0,.447-.121.484-.363s.1-3.631.1-4.748Zm1.862,1.443v3.6a1.275,1.275,0,0,0,.27.829,1.685,1.685,0,0,0,1.294.391,3.855,3.855,0,0,0,3.063-1.49,5.521,5.521,0,0,0,1.127-3.38,5.233,5.233,0,0,0-1.182-3.212,4.655,4.655,0,0,0-3.305-1.387,1.862,1.862,0,0,0-.931.149c-.214.121-.27.354-.27.652v2.793Z" transform="translate(-17.045 -5.447)"/>
      <path id="Path_493" data-name="Path 493" d="M263.488,84.719v3.724c0,.475.242.531.587.531h.624a.112.112,0,0,1,.121.1v.372c0,.084-.065.112-.149.112h-4.423c-.149,0-.121,0-.121-.1v-.391c0-.065,0-.093.121-.093h.587c.3,0,.624,0,.68-.428,0-.2.056-3.389.056-4.19V80.129c-.047-.354-.2-.5-.605-.5h-.773c-.084,0-.112,0-.112-.1v-.382c0-.074,0-.1.084-.1h4.488c.233,0,.112.056.112.13v.344a.1.1,0,0,1-.112.112h-.568c-.317,0-.559.121-.559.4v3.566Z" transform="translate(-17.935 -5.45)"/>
      <path id="Path_494" data-name="Path 494" d="M269.03,82.825c0,2.5.121,4.571.149,5.028,0,.736.2,1.089.736,1.089h.382c.121,0,.121.056.121.13v.344c0,.084,0,.112-.121.112h-3.119c-.149,0-.093,0-.093-.13v-.363a.093.093,0,0,1,.093-.093h.5c.382,0,.587-.326.661-1.22,0-.27.1-2.337.1-4.655V81.205c0-.884-.5-1.564-1.145-1.564h-.475c-.065,0-.093,0-.093-.1v-.447c0-.056,0-.084.093-.084h1.769a6.338,6.338,0,0,0,.652,0h.41a.456.456,0,0,1,.354.13c.149.149,3.035,3.724,3.333,4.19.2.233,2.5,3.091,2.737,3.389h.056V82.388a17.616,17.616,0,0,0-.158-2.262.8.8,0,0,0-.782-.559h-.475c-.084,0-.084-.056-.084-.13V79.1c0-.093,0-.121.112-.121h3.072c.177,0,.149.056.149.1v.335c0,.093,0,.149-.093.149h-.41c-.3,0-.447.242-.484.782-.074,1.006-.223,3.482-.223,4.981v3.91c0,.2,0,.419-.177.419a.717.717,0,0,1-.5-.242l-1.862-2.151c-1.024-1.266-2.179-2.654-2.356-2.886s-2.56-3.156-2.737-3.361h-.093Z" transform="translate(-18.394 -5.445)"/>
      <path id="Path_495" data-name="Path 495" d="M290.091,88.015c0,.2.056.354.056.475s-.084.168-.233.233a8.6,8.6,0,0,1-4.19.931,5.7,5.7,0,0,1-4.246-1.7,5.586,5.586,0,0,1-1.35-4.013,4.972,4.972,0,0,1,1.676-3.724,6.033,6.033,0,0,1,4.19-1.443,5.447,5.447,0,0,1,3.007.791c.177.14.261.093.354,0l.177-.233c.074-.1.121-.149.2-.149a.2.2,0,0,1,.177.2l.149,2.951c0,.121,0,.2-.056.2l-.354.056c-.093,0-.121,0-.149-.112a5.885,5.885,0,0,0-1.182-2.039,3.324,3.324,0,0,0-2.449-1.033,3.035,3.035,0,0,0-2.5,1.155,5.14,5.14,0,0,0-1.21,3.333A5.838,5.838,0,0,0,283.49,88,3.221,3.221,0,0,0,285.846,89a3.966,3.966,0,0,0,2-.391c.326-.177.354-.587.354-1.35V86.2c0-.531-.149-.68-.531-.68h-.614c-.093,0-.121-.056-.121-.13v-.344c0-.084,0-.112.093-.112h3.957c.13,0,.149,0,.149.1v.372c0,.084,0,.112-.121.112h-.493c-.27,0-.447.121-.447.549Z" transform="translate(-19.317 -5.43)"/>
      <path id="Path_496" data-name="Path 496" d="M294.062,86.2c.056,0,.093,0,.093.112a3.315,3.315,0,0,0,.549,1.685,2.318,2.318,0,0,0,1.946,1.061,1.806,1.806,0,0,0,1.965-1.685c0-1.359-.615-1.806-2.179-2.393a6.89,6.89,0,0,1-2.151-1.238,2.793,2.793,0,0,1-.736-2.1,2.5,2.5,0,0,1,1.024-2.067,3.017,3.017,0,0,1,2.095-.708,4.655,4.655,0,0,1,1.862.354.251.251,0,0,0,.307,0l.2-.186a.242.242,0,0,1,.2-.093c.084,0,.121.093.121.233s.233,2.3.233,2.449a.093.093,0,0,1-.093.1l-.233.074a.112.112,0,0,1-.149-.084,4.19,4.19,0,0,0-.931-1.564,1.955,1.955,0,0,0-1.536-.624A1.574,1.574,0,0,0,295,81.01a1.769,1.769,0,0,0,.419,1.331,4.814,4.814,0,0,0,1.8.931,4.655,4.655,0,0,1,2.123,1.145,2.877,2.877,0,0,1,.736,2.113,3.073,3.073,0,0,1-3.128,3.268,3.808,3.808,0,0,1-2.5-.708c-.177-.112-.261-.177-.354-.177s-.149.121-.242.27-.149.177-.261.177-.177-.084-.177-.233.233-2.57.261-2.793,0-.121.093-.121Z" transform="translate(-20.233 -5.437)"/>
      <path id="Path_497" data-name="Path 497" d="M106.6,17.92h11.722L128.629,51.6,139.8,17.78h9.385L160.359,51.6,170.666,17.92H182.1l-17.02,50.1h-9.525L144.336,35.433,133.107,68.02h-9.525Z" transform="translate(-7.353 -1.226)"/>
      <path id="Path_498" data-name="Path 498" d="M196.35,17.93H207.3V37.612h20.139V17.93h10.949V67.667H227.438V47.705H207.3V67.667H196.35Z" transform="translate(-13.541 -1.236)"/>
      <path id="Path_499" data-name="Path 499" d="M251.29,17.93h19.394a29.542,29.542,0,0,1,10.7,1.862,25.287,25.287,0,0,1,8.379,5.223,23.481,23.481,0,0,1,5.447,7.877,24.728,24.728,0,0,1,1.918,9.767v.14a24.981,24.981,0,0,1-1.918,9.8,23.276,23.276,0,0,1-5.437,7.886,25.52,25.52,0,0,1-8.379,5.26,28.965,28.965,0,0,1-10.7,1.918h-19.4Zm19.4,39.858a16.964,16.964,0,0,0,6.108-1.061,13.3,13.3,0,0,0,4.72-3.054,14.451,14.451,0,0,0,3.054-4.655,16.023,16.023,0,0,0,1.1-6.043v-.14a16.321,16.321,0,0,0-1.136-6.07,14.208,14.208,0,0,0-3.017-4.8,13.64,13.64,0,0,0-4.72-3.091,16.387,16.387,0,0,0-6.108-1.1h-8.454v29.98Z" transform="translate(-17.329 -1.236)"/>
      <path id="Path_500" data-name="Path 500" d="M2.983,40.73S13.019,55.394,26.724,62.843c11.675,6.35,16.9,7.625,19.655,13.109a15.874,15.874,0,0,1,1.806,9.441s-1.657-7.5-13.128-10.307c-13.454-3.3-23.388-6.1-28.351-15.651C1.344,49.212,2.983,40.73,2.983,40.73Z" transform="translate(-0.193 -2.808)" fill="#d12920"/>
      <path id="Path_501" data-name="Path 501" d="M8.48,71.39a42.382,42.382,0,0,0,21.545,8.016c13.128,1.155,16.182,8.538,16.182,8.538s-4.283-3.585-15.735-1.788C9.793,89.387,8.48,71.39,8.48,71.39Z" transform="translate(-0.588 -4.922)" fill="#d12920"/>
      <path id="Path_502" data-name="Path 502" d="M51.609,64.475S50.091,58.433,35.1,48.648C16.415,36.367.456,0,.456,0a58.88,58.88,0,0,0,4.2,30.222c6.182,14.655,19.72,26.07,32.587,31.488,14.9,6.257,13.966,22.625,13.966,22.625l3.92-11.629V51.785Z" transform="translate(-0.004)" fill="#d12920"/>
      <path id="Path_503" data-name="Path 503" d="M90.186,43.24S86.462,52.187,80.159,58.3c-6.89,6.713-10.558,8.975-12.774,14.59s-1.62,9.227-1.62,9.227,1.48-7.448,9.525-13.165c7.234-5.121,11.489-8.379,13.435-14.655A31.153,31.153,0,0,0,90.186,43.24Z" transform="translate(-4.533 -2.981)" fill="#983429"/>
      <path id="Path_504" data-name="Path 504" d="M88.314,61.61a28.332,28.332,0,0,1-9.73,8.985A23.5,23.5,0,0,0,67.84,82.7a20.632,20.632,0,0,1,10.391-6.974C87.653,72.792,88.314,61.61,88.314,61.61Z" transform="translate(-4.681 -4.248)" fill="#983429"/>
      <path id="Path_505" data-name="Path 505" d="M62.476,64.905s5.242-7.057,13.174-16.023c9.972-11.173,15.223-28.6,15.223-28.6A54.932,54.932,0,0,1,89.2,37.095c-2.383,8.64-8.379,16.759-15.66,22.345-11.62,8.994-11.042,24.3-11.042,24.3L59.18,74.1V53.183Z" transform="translate(-4.084 -1.398)" fill="#983429"/>
    </g>
  </g>
</svg>
