<svg id="m_a" data-name="m&amp;a" xmlns="http://www.w3.org/2000/svg" width="179" height="28.319" viewBox="0 0 179 28.319">
  <g id="レイヤー_2" data-name="レイヤー 2">
    <path id="Path_234" data-name="Path 234" d="M199.839,58.838,195.215,48.4H191.17v.619h.441a2.721,2.721,0,0,1,1.211.156.775.775,0,0,1,.334.551,12.973,12.973,0,0,1,.089,1.951v5.56a13.77,13.77,0,0,1-.112,2.152,1.533,1.533,0,0,1-.593.934,2.243,2.243,0,0,1-1.284.427h-.086v.612h4.754v-.612h-.086a2.208,2.208,0,0,1-1.321-.453,1.543,1.543,0,0,1-.553-.922,14.759,14.759,0,0,1-.093-2.075V50.244l4.946,11.119h.563l4.9-11.115v7.7a13.754,13.754,0,0,1-.079,2.026.871.871,0,0,1-.366.588,2.114,2.114,0,0,1-1.076.191h-.544v.619h6.29v-.619h-.656a2.072,2.072,0,0,1-1.12-.208.934.934,0,0,1-.345-.633,16.026,16.026,0,0,1-.072-1.961V51.677a11.929,11.929,0,0,1,.1-2,.728.728,0,0,1,.345-.518,3.076,3.076,0,0,1,1.19-.145h.563V48.4h-4.071Z" transform="translate(-146.551 -37.103)" fill="#231f20"/>
    <path id="Path_235" data-name="Path 235" d="M277.128,77.7a.81.81,0,0,1-.74.467,1.228,1.228,0,0,1-.686-.217,4.275,4.275,0,0,1-.887-1.018,5.5,5.5,0,0,0,.532-1.034,3.466,3.466,0,0,1,.677-1.167,1.886,1.886,0,0,1,.766-.42l.068-.019v-.422h-2.6V74.3h.082c.539.063.8.278.8.661a2.173,2.173,0,0,1-.182.726,3.968,3.968,0,0,1-.422.805q-.411-.588-.845-1.188t-.915-1.256c1.062-.551,1.58-1.116,1.58-1.723a1.167,1.167,0,0,0-.53-.98A1.972,1.972,0,0,0,272.668,71a1.6,1.6,0,0,0-1.207.492,1.554,1.554,0,0,0-.467,1.111,2.985,2.985,0,0,0,.623,1.634,6.893,6.893,0,0,0-1.438,1.2,1.961,1.961,0,0,0-.4,1.249,1.923,1.923,0,0,0,.184.892,2.245,2.245,0,0,0,.513.7,2.3,2.3,0,0,0,.724.45,2.175,2.175,0,0,0,.8.154h.028a2.9,2.9,0,0,0,2.1-1.057,2.467,2.467,0,0,0,1.947,1.057,1.575,1.575,0,0,0,.948-.3,1.421,1.421,0,0,0,.544-.8l.028-.114h-.432Zm-6.052-2.3a2.855,2.855,0,0,1,.812-.777c.271.362.567.773.885,1.228s.682,1,1.069,1.582a1.818,1.818,0,0,1-1.34.7,1.6,1.6,0,0,1-1.2-.6,1.867,1.867,0,0,1-.537-1.256,1.615,1.615,0,0,1,.308-.878Zm1.424-1.706a2.779,2.779,0,0,1-.616-1.386.857.857,0,0,1,.219-.612.735.735,0,0,1,.586-.233.843.843,0,0,1,.338.068.731.731,0,0,1,.259.184.89.89,0,0,1,.168.294,1.2,1.2,0,0,1,.058.385C273.513,72.844,273.172,73.285,272.5,73.693Z" transform="translate(-206.809 -54.426)" fill="#231f20"/>
    <path id="Path_236" data-name="Path 236" d="M318.066,59.861a1.7,1.7,0,0,1-.5-.675l-.583-1.337L312.686,47.64h-.49l-3.734,8.923c-.273.642-.422,1-.453,1.095a7.343,7.343,0,0,1-.983,1.937,1.961,1.961,0,0,1-1.209.569h-.077v.6h3.982V60.15h-.091a1.54,1.54,0,0,1-.95-.278.934.934,0,0,1-.355-.8,8.2,8.2,0,0,1,.731-2.264l.306-.754h4.729l.957,2.311a5.036,5.036,0,0,1,.427,1.2.446.446,0,0,1-.268.467,3.709,3.709,0,0,1-1.214.128H313.9v.619h5.2v-.609h-.082a1.849,1.849,0,0,1-.957-.308Zm-4.213-4.4h-4.239l2.115-5.116Z" transform="translate(-234.38 -36.521)" fill="#231f20"/>
    <path id="Path_237" data-name="Path 237" d="M396.358,59.861a1.7,1.7,0,0,1-.507-.675l-.583-1.337L390.975,47.64h-.488l-3.734,8.923c-.275.642-.422,1-.467,1.095a7.358,7.358,0,0,1-.98,1.937,1.968,1.968,0,0,1-1.209.569h-.077v.6H388V60.15h-.093a1.533,1.533,0,0,1-.948-.278.934.934,0,0,1-.355-.8,8.243,8.243,0,0,1,.728-2.264l.306-.754h4.731l.957,2.311a5.036,5.036,0,0,1,.427,1.2.443.443,0,0,1-.271.467,3.683,3.683,0,0,1-1.211.128h-.089v.619h5.207v-.609h-.084A1.846,1.846,0,0,1,396.358,59.861Zm-4.213-4.4h-4.239l2.115-5.116Z" transform="translate(-294.389 -36.521)" fill="#231f20"/>
    <path id="Path_238" data-name="Path 238" d="M455.6,48.718a9.5,9.5,0,0,0-4.481-.878c-.609,0-1.8.044-3.548.131l-2.189.11v.612h.467a2.78,2.78,0,0,1,1.211.154.761.761,0,0,1,.334.551,13.188,13.188,0,0,1,.086,1.956v6.162a13.751,13.751,0,0,1-.084,2.033.87.87,0,0,1-.366.588,2.144,2.144,0,0,1-1.085.191h-.619v.619h5.758a23.173,23.173,0,0,0,2.479-.1,7.044,7.044,0,0,0,1.867-.5,5.154,5.154,0,0,0,1.746-1.19,5.534,5.534,0,0,0,1.183-1.965,7.584,7.584,0,0,0,.427-2.612A7.389,7.389,0,0,0,458,51.108,5.746,5.746,0,0,0,455.6,48.718Zm-6.1-.2c.467-.028.915-.042,1.361-.042a8.538,8.538,0,0,1,2.413.285,4,4,0,0,1,1.694,1.06,5.189,5.189,0,0,1,1.181,2.026,9.178,9.178,0,0,1,.413,2.864,7.2,7.2,0,0,1-.7,3.382,3.688,3.688,0,0,1-1.751,1.76,7.03,7.03,0,0,1-2.705.448,3.2,3.2,0,0,1-1.445-.208.9.9,0,0,1-.383-.7c-.047-.359-.07-1.167-.07-2.43Z" transform="translate(-341.389 -36.674)" fill="#231f20"/>
    <path id="Path_239" data-name="Path 239" d="M512.716,49.007h.089c.973.023,1.447.359,1.447,1.029a8.232,8.232,0,0,1-.738,2.273l-2.866,6.871-3.59-8.283a4.39,4.39,0,0,1-.436-1.246.478.478,0,0,1,.3-.49,4.08,4.08,0,0,1,1.344-.142h.084V48.4H502.67v.607h.089a2.176,2.176,0,0,1,1.256.31,2.909,2.909,0,0,1,.745,1.167c.173.441.3.761.387.934l4.435,10.214h.7l3.821-9.084.859-2.007a3.182,3.182,0,0,1,.759-1.167,1.524,1.524,0,0,1,.987-.4h.089V48.4h-4.084Z" transform="translate(-385.346 -37.103)" fill="#231f20"/>
    <path id="Path_240" data-name="Path 240" d="M567.8,49.019h.366a2.759,2.759,0,0,1,1.216.156.761.761,0,0,1,.331.551,14.06,14.06,0,0,1,.082,1.951v6.267a14.839,14.839,0,0,1-.082,2.033.857.857,0,0,1-.362.586,2.138,2.138,0,0,1-1.085.191H567.8v.619h6.026v-.619h-.467a2.072,2.072,0,0,1-1.12-.208.908.908,0,0,1-.341-.633,17.532,17.532,0,0,1-.068-1.961V51.677a11.952,11.952,0,0,1,.1-2,.733.733,0,0,1,.355-.518,3.1,3.1,0,0,1,1.193-.145h.364V48.4H567.8Z" transform="translate(-435.275 -37.103)" fill="#231f20"/>
    <path id="Path_241" data-name="Path 241" d="M607.2,53.887a24.369,24.369,0,0,0-2.409-1.188,9.113,9.113,0,0,1-2.36-1.379,1.867,1.867,0,0,1-.64-1.431A1.944,1.944,0,0,1,602.3,48.6a2.009,2.009,0,0,1,1.6-.586,2.932,2.932,0,0,1,2.042.815,4.418,4.418,0,0,1,1.256,2.252l.016.07h.579V47.62h-.6V47.7a1.923,1.923,0,0,1-.413.99,3.894,3.894,0,0,0-1.433-1.039,4.477,4.477,0,0,0-1.559-.271,3.426,3.426,0,0,0-2.462.934,3.128,3.128,0,0,0-.976,2.334,3.532,3.532,0,0,0,.45,1.732,3.646,3.646,0,0,0,1.258,1.33,17.7,17.7,0,0,0,2.334,1.167,7.612,7.612,0,0,1,2.334,1.356,2.1,2.1,0,0,1,.623,1.547,2.334,2.334,0,0,1-.712,1.645,2.681,2.681,0,0,1-2.021.74c-1.937,0-3.186-1.326-3.706-3.94l-.019-.068h-.64v4.292h.64l.014-.075a3.332,3.332,0,0,1,.383-1.109,4.554,4.554,0,0,0,3.5,1.552,4.206,4.206,0,0,0,2.985-1.053,3.6,3.6,0,0,0,1.12-2.733,3.734,3.734,0,0,0-.467-1.867,3.468,3.468,0,0,0-1.235-1.284Z" transform="translate(-460.159 -36.323)" fill="#231f20"/>
    <path id="Path_242" data-name="Path 242" d="M656.048,49.185A7.361,7.361,0,0,0,651,47.39a7.141,7.141,0,0,0-5,1.816,6.21,6.21,0,0,0-2,4.817,6.492,6.492,0,0,0,1.979,4.939,7.853,7.853,0,0,0,10.167,0,6.486,6.486,0,0,0,1.947-4.873A6.291,6.291,0,0,0,656.048,49.185Zm-4.9,10.984a4.365,4.365,0,0,1-3.618-1.51,7.3,7.3,0,0,1-1.2-4.57,7.157,7.157,0,0,1,1.211-4.528A4.153,4.153,0,0,1,651,48.046a4.208,4.208,0,0,1,3.5,1.552,7.322,7.322,0,0,1,1.216,4.509,7.163,7.163,0,0,1-1.232,4.551,4.047,4.047,0,0,1-3.328,1.51Z" transform="translate(-493.69 -36.329)" fill="#231f20"/>
    <path id="Path_243" data-name="Path 243" d="M721.73,60.15a3.366,3.366,0,0,1-1.909-.623,13.012,13.012,0,0,1-2.259-2.532,12.916,12.916,0,0,0-2.385-2.679,4.551,4.551,0,0,0,2.507-1.092,2.96,2.96,0,0,0,.952-2.206,2.745,2.745,0,0,0-.733-1.9,4.089,4.089,0,0,0-1.9-1.144,10.92,10.92,0,0,0-3-.341c-.7,0-1.69.028-2.906.084l-1.916.1v.614h.308a2.75,2.75,0,0,1,1.216.156.749.749,0,0,1,.334.551,13.576,13.576,0,0,1,.084,1.951v6.267a14.3,14.3,0,0,1-.084,2.024.854.854,0,0,1-.359.586,2.149,2.149,0,0,1-1.085.191h-.506v.619h6.3V60.15h-.7a2.057,2.057,0,0,1-1.118-.208.9.9,0,0,1-.341-.633,16.726,16.726,0,0,1-.07-1.961V54.6h.415a1.253,1.253,0,0,1,.712.159,6.535,6.535,0,0,1,.875.952c.432.527.852,1.085,1.251,1.659a15.6,15.6,0,0,0,2.82,3.377l.026.016h3.559v-.614Zm-9.569-11.829c.266-.019.5-.03.7-.03,1.47,0,2.434.261,2.864.777a3.207,3.207,0,0,1,.654,2.1,3.627,3.627,0,0,1-.194,1.267,2.175,2.175,0,0,1-.518.819,2.145,2.145,0,0,1-.864.467,5.368,5.368,0,0,1-1.288.205c-.467.023-.934.04-1.363.054Z" transform="translate(-542.821 -36.509)" fill="#231f20"/>
    <path id="Path_244" data-name="Path 244" d="M22.967,9.1l3.445-3.641,7.417,8V24.4H24.155V20.719h6.4L10.956,0,0,11.815v16.5H16.8V16.8H15.682L18.7,13.617,21.706,16.8H20.6V28.319H37.4v-16.5L26.435,0l-6.04,6.386ZM6.839,20.719h6.4V24.4H3.559V13.46l7.41-8L16.126,10.9Z" fill="#262262"/>
  </g>
</svg>
