<svg id="ma" xmlns="http://www.w3.org/2000/svg" width="214.453" height="28.68" viewBox="0 0 214.453 28.68">
  <g id="レイヤー_2" data-name="レイヤー 2">
    <path id="Path_245" data-name="Path 245" d="M10.289,28.68l4.977-10.417L9.075,9.73H19.308L23.914,0H13.625L0,28.68Z" fill="#c93440"/>
    <path id="Path_246" data-name="Path 246" d="M129.524,0H119.237L105.61,28.68H115.9Z" transform="translate(-85.1)" fill="#c93440"/>
    <path id="Path_247" data-name="Path 247" d="M212.06,95.456h10.376L218,82.87Z" transform="translate(-170.877 -66.776)" fill="#c93440"/>
    <path id="Path_248" data-name="Path 248" d="M298,31.491v-.7h4.8l4.993,12.182,4.886-12.182h4.2v.7l-.216.021a2.822,2.822,0,0,0-1.62.388,3.627,3.627,0,0,0-.254,1.822V44.6a3.658,3.658,0,0,0,.254,1.824c.171.2.709.33,1.62.388l.216.012v.7h-6.366v-.7l.194-.012q1.359-.091,1.616-.388a3.724,3.724,0,0,0,.249-1.824V33.1l-5.226,13.078h-.837l-5.17-13.258V44.586a3.691,3.691,0,0,0,.252,1.824c.169.2.711.33,1.622.388l.216.012v.7H298v-.7l.216-.012a2.834,2.834,0,0,0,1.622-.388,3.672,3.672,0,0,0,.254-1.824V33.711a3.724,3.724,0,0,0-.249-1.822q-.249-.293-1.627-.388Z" transform="translate(-240.127 -24.81)" fill="#231f20"/>
    <path id="Path_249" data-name="Path 249" d="M402.232,41.442l-.971,2.222a5.86,5.86,0,0,0-.555,1.748q0,.474,1.457.476h.181v.7H398v-.7l.237-.012a2.137,2.137,0,0,0,1.165-.243,11.8,11.8,0,0,0,.944-1.971l5.9-14.012h.788L412.9,43.739a8.514,8.514,0,0,0,.971,1.8,1.711,1.711,0,0,0,1.107.334l.26.012v.7h-6.2v-.7h.2q1.581,0,1.583-.452a4.831,4.831,0,0,0-.476-1.775l-.936-2.224Zm.363-.917H409l-3.183-7.615Z" transform="translate(-320.707 -23.892)" fill="#231f20"/>
    <path id="Path_250" data-name="Path 250" d="M542.583,44.887a10.394,10.394,0,0,1-5.288,1.311,7.928,7.928,0,0,1-6.073-2.362A9.06,9.06,0,0,1,529,37.385a9.107,9.107,0,0,1,2.136-6.446,7.78,7.78,0,0,1,5.989-2.3,21.517,21.517,0,0,1,5.162.835v3.2H540.9l-.016-.227c-.01-.225-.019-.447-.031-.666a1.972,1.972,0,0,0-1.025-1.748,5.242,5.242,0,0,0-2.8-.639,4.707,4.707,0,0,0-4.053,2.169,9.946,9.946,0,0,0-1.511,5.8,8.374,8.374,0,0,0,1.773,5.679,6.2,6.2,0,0,0,4.939,2.039,9.255,9.255,0,0,0,4.406-1.278Z" transform="translate(-426.266 -23.078)" fill="#231f20"/>
    <path id="Path_251" data-name="Path 251" d="M619.686,46.2a7.3,7.3,0,0,1-5.739-2.35,9.31,9.31,0,0,1-2.1-6.43,9.307,9.307,0,0,1,2.1-6.428,8.18,8.18,0,0,1,11.476,0,9.313,9.313,0,0,1,2.1,6.428,9.308,9.308,0,0,1-2.1,6.43A7.293,7.293,0,0,1,619.686,46.2Zm0-.757A4.448,4.448,0,0,0,623.6,43.3a10.584,10.584,0,0,0,1.414-5.89,10.584,10.584,0,0,0-1.414-5.9,4.652,4.652,0,0,0-7.826,0,10.6,10.6,0,0,0-1.414,5.9,10.548,10.548,0,0,0,1.414,5.89A4.482,4.482,0,0,0,619.686,45.441Z" transform="translate(-493.027 -23.078)" fill="#231f20"/>
    <path id="Path_252" data-name="Path 252" d="M714.165,47.738l-10.1-14.01V44.586a3.7,3.7,0,0,0,.249,1.824c.167.192.711.322,1.637.388l.2.012v.7H700.92v-.7l.2-.012a2.969,2.969,0,0,0,1.639-.388,3.67,3.67,0,0,0,.249-1.824V33.711a3.728,3.728,0,0,0-.249-1.827c-.165-.192-.707-.317-1.629-.377l-.214-.021v-.7h3.785l9.277,12.983V33.717a3.648,3.648,0,0,0-.254-1.822,2.911,2.911,0,0,0-1.633-.388l-.194-.021v-.7h5.208v.7l-.216.021q-1.379.091-1.627.388a3.739,3.739,0,0,0-.249,1.822V47.744Z" transform="translate(-564.799 -24.81)" fill="#231f20"/>
    <path id="Path_253" data-name="Path 253" d="M803.662,47.738l-10.1-14.01V44.586a3.7,3.7,0,0,0,.249,1.824c.167.192.711.322,1.637.388l.194.012v.7H790.42v-.7l.194-.012a2.956,2.956,0,0,0,1.637-.388,3.709,3.709,0,0,0,.25-1.824V33.711a3.729,3.729,0,0,0-.249-1.827c-.165-.192-.707-.317-1.629-.377l-.214-.021v-.7h3.8l9.277,12.983V33.717a3.649,3.649,0,0,0-.254-1.822,2.911,2.911,0,0,0-1.633-.388l-.194-.021v-.7h5.208v.7l-.214.021c-.919.06-1.462.194-1.627.388a3.6,3.6,0,0,0-.27,1.816V47.738Z" transform="translate(-636.909 -24.81)" fill="#231f20"/>
    <path id="Path_254" data-name="Path 254" d="M891.992,47.511H879.94v-.7l.216-.012a2.834,2.834,0,0,0,1.622-.388,3.68,3.68,0,0,0,.253-1.824V33.713a3.673,3.673,0,0,0-.253-1.822q-.252-.293-1.622-.388l-.216-.021V30.79h11.435v2.927H890.12L890.1,33.5a4.884,4.884,0,0,0-.231-1.684,5.988,5.988,0,0,0-1.814-.124H884.4v6.69l3.063-.012a4.063,4.063,0,0,0,1.249-.109c.153-.07.247-.427.276-1.066l.012-.2h.9v3.672H889l-.012-.194c-.029-.567-.122-.9-.276-1.014a2.774,2.774,0,0,0-1.249-.163H884.4v5.3a2.679,2.679,0,0,0,.311,1.631,2.521,2.521,0,0,0,1.61.322h1.785a6.615,6.615,0,0,0,2.264-.194c.194-.13.3-.7.355-1.69l.012-.194h1.253Z" transform="translate(-709.052 -24.81)" fill="#231f20"/>
    <path id="Path_255" data-name="Path 255" d="M964.577,44.887a10.393,10.393,0,0,1-5.288,1.311,7.935,7.935,0,0,1-6.073-2.362A9.017,9.017,0,0,1,951,37.385a9.107,9.107,0,0,1,2.136-6.446,7.778,7.778,0,0,1,5.987-2.3,21.5,21.5,0,0,1,5.164.835v3.2H962.9l-.016-.227c0-.225-.019-.447-.029-.666a1.971,1.971,0,0,0-1.027-1.748,5.248,5.248,0,0,0-2.8-.639,4.7,4.7,0,0,0-4.051,2.169,9.975,9.975,0,0,0-1.513,5.8,8.368,8.368,0,0,0,1.775,5.679,6.2,6.2,0,0,0,4.937,2.039,9.24,9.24,0,0,0,4.406-1.278Z" transform="translate(-766.312 -23.078)" fill="#231f20"/>
    <path id="Path_256" data-name="Path 256" d="M1036.348,31.693h-2.667a11.482,11.482,0,0,0-1.627.109c-.309.045-.464.324-.464.835,0,.388,0,.717-.023.994v.227h-1.187V30.79h14.35v3.063h-1.187l-.012-.227c-.023-.278-.035-.61-.035-.994,0-.511-.15-.79-.451-.835a11.651,11.651,0,0,0-1.637-.1h-2.668V44.586a3.541,3.541,0,0,0,.272,1.824q.272.32,1.616.388l.486.012v.7H1034v-.7l.485-.012c.9-.045,1.433-.175,1.612-.388a3.6,3.6,0,0,0,.264-1.824Z" transform="translate(-830.276 -24.81)" fill="#231f20"/>
  </g>
</svg>
