<svg id="mapress" xmlns="http://www.w3.org/2000/svg" xmlns:xlink="http://www.w3.org/1999/xlink" width="141.531" height="28.121" viewBox="0 0 141.531 28.121">
  <defs>
    <linearGradient id="linear-gradient" x1="-1.239" y1="4.554" x2="-1.239" y2="3.723" gradientUnits="objectBoundingBox">
      <stop offset="0" stop-color="#52caf5"/>
      <stop offset="0.34" stop-color="#39b8eb"/>
      <stop offset="1" stop-color="#008fd4"/>
    </linearGradient>
    <linearGradient id="linear-gradient-2" x1="0.094" y1="4.554" x2="0.094" y2="3.723" xlink:href="#linear-gradient"/>
    <linearGradient id="linear-gradient-3" x1="1.397" y1="3.347" x2="1.989" y2="2.842" gradientUnits="objectBoundingBox">
      <stop offset="0" stop-color="#231f20"/>
      <stop offset="0.02" stop-color="#282425"/>
      <stop offset="0.14" stop-color="#434243"/>
      <stop offset="0.26" stop-color="#575759"/>
      <stop offset="0.37" stop-color="#636467"/>
      <stop offset="0.48" stop-color="#67686b"/>
    </linearGradient>
    <linearGradient id="linear-gradient-4" x1="-0.305" y1="3.935" x2="0.352" y2="3.504" xlink:href="#linear-gradient-3"/>
    <linearGradient id="linear-gradient-5" x1="-2.647" y1="12.951" x2="-2.081" y2="12.328" xlink:href="#linear-gradient-3"/>
  </defs>
  <g id="レイヤー_7" data-name="レイヤー 7">
    <path id="Path_257" data-name="Path 257" d="M751.934,110.372h-6.121v-.663q.332-.01.854-.065a2.148,2.148,0,0,0,.718-.161,1.243,1.243,0,0,0,.444-.4,1.074,1.074,0,0,0,.142-.575V98.867h-.147l-4.721,11.29h-.492l-4.5-11.524h-.127v7.911a7.6,7.6,0,0,0,.151,1.746,1.6,1.6,0,0,0,.464.86,2.289,2.289,0,0,0,.888.374,5.528,5.528,0,0,0,.878.186v.663H734.77v-.663a7.54,7.54,0,0,0,.923-.14,1.829,1.829,0,0,0,.747-.308,1.364,1.364,0,0,0,.469-.807,8.913,8.913,0,0,0,.127-1.811v-6.78a2.663,2.663,0,0,0-.148-.958,1.5,1.5,0,0,0-.42-.607,1.953,1.953,0,0,0-.742-.374,3.886,3.886,0,0,0-.869-.14V97.12h4.724l3.968,9.947,3.39-8.321a8,8,0,0,0,.317-.958,4.291,4.291,0,0,0,.141-.668h4.52v.664a5.085,5.085,0,0,0-.7.081,4.794,4.794,0,0,0-.62.14.707.707,0,0,0-.449.374,1.374,1.374,0,0,0-.117.57V108.5a1.175,1.175,0,0,0,.117.551.984.984,0,0,0,.449.392,2.331,2.331,0,0,0,.625.173,5.439,5.439,0,0,0,.713.089Z" transform="translate(-675.46 -89.281)" fill="#58595b"/>
    <path id="Path_258" data-name="Path 258" d="M967.974,108.239h-5.759v-.663a6.254,6.254,0,0,0,1.265-.186q.5-.14.5-.346a1.335,1.335,0,0,0-.019-.205.962.962,0,0,0-.058-.215l-1.148-2.97h-4.862q-.274.654-.445,1.139t-.308.9a6.078,6.078,0,0,0-.176.654,2.221,2.221,0,0,0-.049.411q0,.373.615.579a5.156,5.156,0,0,0,1.387.242v.663H953.7v-.663a4.253,4.253,0,0,0,.635-.107,2.129,2.129,0,0,0,.626-.238,2.414,2.414,0,0,0,.6-.528,3.37,3.37,0,0,0,.42-.761q1.045-2.493,2.3-5.6t2.246-5.537h.781l4.618,11.431a2.22,2.22,0,0,0,.332.588,2.253,2.253,0,0,0,.517.438,2.213,2.213,0,0,0,.586.22,3.147,3.147,0,0,0,.605.1Zm-5.574-5.416-2.1-5.143-2.069,5.143Z" transform="translate(-876.718 -87.148)" fill="#58595b"/>
    <path id="Path_259" data-name="Path 259" d="M1147.019,100.389a3.857,3.857,0,0,1-.425,1.835,3.721,3.721,0,0,1-1.177,1.321,5.182,5.182,0,0,1-1.63.766,7.138,7.138,0,0,1-1.884.242h-2.04v4.019a1.369,1.369,0,0,0,.112.575.778.778,0,0,0,.464.379,3.2,3.2,0,0,0,.62.121c.3.037.565.059.814.065v.663h-5.946v-.663q.235-.018.679-.065a2.468,2.468,0,0,0,.62-.121.835.835,0,0,0,.425-.355,1.211,1.211,0,0,0,.132-.6V99.006a1.683,1.683,0,0,0-.1-.588.706.706,0,0,0-.459-.392,4.336,4.336,0,0,0-.737-.173c-.242-.034-.454-.057-.63-.069V97.12h6.814a5.154,5.154,0,0,1,3.139.888A2.822,2.822,0,0,1,1147.019,100.389Zm-2.968,2.26a2.457,2.457,0,0,0,.439-.929,3.982,3.982,0,0,0,.107-.864,4.627,4.627,0,0,0-.132-1.083,2.472,2.472,0,0,0-.454-.962,2.264,2.264,0,0,0-.9-.681,3.484,3.484,0,0,0-1.387-.242h-1.864v5.855h1.483a4.012,4.012,0,0,0,1.714-.313,2.494,2.494,0,0,0,.991-.781Z" transform="translate(-1044.174 -89.281)" fill="#58595b"/>
    <path id="Path_260" data-name="Path 260" d="M1297.3,145.869a1.5,1.5,0,0,1-.242.845.833.833,0,0,1-.751.369,1.178,1.178,0,0,1-.835-.27.807.807,0,0,1-.288-.6,1.846,1.846,0,0,1,.035-.374c.023-.111.043-.224.063-.336a2.231,2.231,0,0,0-1.074.354,3.109,3.109,0,0,0-1.045,1.009v5.361a.969.969,0,0,0,.132.532.789.789,0,0,0,.415.308,2.722,2.722,0,0,0,.63.14q.386.046.668.065v.616h-5.077v-.616l.464-.037a1.905,1.905,0,0,0,.415-.075.7.7,0,0,0,.4-.294,1.018,1.018,0,0,0,.132-.546v-5.68a1.246,1.246,0,0,0-.142-.569,1.146,1.146,0,0,0-.395-.448,1.361,1.361,0,0,0-.44-.161,4.043,4.043,0,0,0-.547-.07v-.617l3.2-.205.137.131V146h.048a4.323,4.323,0,0,1,1.347-1.149,2.944,2.944,0,0,1,1.357-.392,1.359,1.359,0,0,1,1,.383A1.377,1.377,0,0,1,1297.3,145.869Z" transform="translate(-1185.706 -132.799)" fill="#58595b"/>
    <path id="Path_261" data-name="Path 261" d="M1407.182,151.3a4.792,4.792,0,0,1-1.621,1.756,4.219,4.219,0,0,1-2.334.654,4.928,4.928,0,0,1-2.036-.392,3.979,3.979,0,0,1-1.44-1.065,4.454,4.454,0,0,1-.844-1.568,6.364,6.364,0,0,1-.278-1.9,5.362,5.362,0,0,1,.3-1.76,4.9,4.9,0,0,1,.874-1.555,4.2,4.2,0,0,1,1.381-1.07,4.14,4.14,0,0,1,1.85-.4,4.635,4.635,0,0,1,1.807.317,3.215,3.215,0,0,1,1.221.869,3.412,3.412,0,0,1,.668,1.233,5.17,5.17,0,0,1,.219,1.541v.617h-6.377a6.973,6.973,0,0,0,.181,1.647,3.852,3.852,0,0,0,.572,1.3,2.68,2.68,0,0,0,1,.856,3.193,3.193,0,0,0,1.465.313,2.789,2.789,0,0,0,1.5-.39,3.907,3.907,0,0,0,1.216-1.4Zm-2.158-3.507a7.349,7.349,0,0,0-.093-1.117,3.32,3.32,0,0,0-.3-1,1.925,1.925,0,0,0-.615-.7,1.732,1.732,0,0,0-1.006-.27,2.125,2.125,0,0,0-1.7.814,3.692,3.692,0,0,0-.738,2.267Z" transform="translate(-1285.732 -132.37)" fill="#58595b"/>
    <path id="Path_262" data-name="Path 262" d="M1535.9,148.865a2.441,2.441,0,0,1,.687.775,2.218,2.218,0,0,1,.242,1.074,2.483,2.483,0,0,1-1.117,2.092,4.8,4.8,0,0,1-2.9.812,5.5,5.5,0,0,1-2.858-.822l-.218.607h-.818l-.11-3.2h.752a3.269,3.269,0,0,0,.371.852,4.128,4.128,0,0,0,.687.881,3.8,3.8,0,0,0,1.02.693,3.087,3.087,0,0,0,1.336.281,2.727,2.727,0,0,0,1.615-.408,1.356,1.356,0,0,0,.565-1.17,1.237,1.237,0,0,0-.18-.677,1.593,1.593,0,0,0-.529-.5,4.484,4.484,0,0,0-.883-.387q-.523-.174-1.167-.341a11.809,11.809,0,0,1-1.14-.359,4.785,4.785,0,0,1-1.074-.537,2.79,2.79,0,0,1-.785-.8,2.034,2.034,0,0,1-.305-1.121,2.37,2.37,0,0,1,.982-1.914,4.1,4.1,0,0,1,2.627-.786,6.247,6.247,0,0,1,1.292.14,4.976,4.976,0,0,1,1.074.337l.251-.484h.785l.161,2.961h-.752a2.865,2.865,0,0,0-.987-1.614,2.813,2.813,0,0,0-1.849-.624,2.291,2.291,0,0,0-1.407.386,1.114,1.114,0,0,0-.506.924,1.335,1.335,0,0,0,.17.7,1.386,1.386,0,0,0,.507.476,4.5,4.5,0,0,0,.823.35q.5.161,1.227.369a11.619,11.619,0,0,1,1.358.458A4.618,4.618,0,0,1,1535.9,148.865Z" transform="translate(-1405.405 -132.284)" fill="#58595b"/>
    <path id="Path_263" data-name="Path 263" d="M1661.09,148.883a2.436,2.436,0,0,1,.687.775,2.215,2.215,0,0,1,.242,1.074,2.483,2.483,0,0,1-1.118,2.092,4.807,4.807,0,0,1-2.9.812,4.976,4.976,0,0,1-1.729-.29,5.064,5.064,0,0,1-1.13-.532l-.218.607h-.818l-.109-3.2h.753a3.261,3.261,0,0,0,.371.852,4.127,4.127,0,0,0,.687.881,3.8,3.8,0,0,0,1.02.693,3.089,3.089,0,0,0,1.337.281,2.727,2.727,0,0,0,1.615-.408,1.356,1.356,0,0,0,.565-1.17,1.243,1.243,0,0,0-.18-.677,1.6,1.6,0,0,0-.529-.5,4.518,4.518,0,0,0-.884-.387q-.523-.174-1.166-.341a11.8,11.8,0,0,1-1.141-.359,4.784,4.784,0,0,1-1.073-.537,2.775,2.775,0,0,1-.785-.8,2.032,2.032,0,0,1-.305-1.121,2.369,2.369,0,0,1,.982-1.914,4.1,4.1,0,0,1,2.628-.785,6.252,6.252,0,0,1,1.292.14,4.985,4.985,0,0,1,1.074.337l.251-.484h.785l.161,2.961h-.752a2.867,2.867,0,0,0-.987-1.614,2.813,2.813,0,0,0-1.848-.624,2.289,2.289,0,0,0-1.407.386,1.141,1.141,0,0,0-.513.931,1.337,1.337,0,0,0,.169.7,1.39,1.39,0,0,0,.508.476,4.5,4.5,0,0,0,.823.35q.495.161,1.227.369a11.677,11.677,0,0,1,1.358.458A4.613,4.613,0,0,1,1661.09,148.883Z" transform="translate(-1520.49 -132.303)" fill="#58595b"/>
    <path id="Path_264" data-name="Path 264" d="M363.934,0h13.1c2.052.114,6.964,5.951,8.55,7.911l4.8,5.6L384.259,21.2,371.393,6.066c-1.6-1.546-4.843-5.86-7.458-6.059C363.927.006,363.926,0,363.934,0Z" transform="translate(-334.553)" fill="url(#linear-gradient)"/>
    <path id="Path_265" data-name="Path 265" d="M145.606,0h13.1c2.052.114,6.964,5.951,8.55,7.911l4.8,5.6L165.929,21.2,153.064,6.066c-1.6-1.546-4.844-5.86-7.456-6.059C145.6.006,145.6,0,145.606,0Z" transform="translate(-133.847)" fill="url(#linear-gradient-2)"/>
    <path id="Path_266" data-name="Path 266" d="M17.812,8.875c-1.749-1.9-4.79-5.394-7.157-5.367a.856.856,0,0,0-.242.065,1.989,1.989,0,0,0-.664.629L0,16.442v14.9Z" transform="translate(0 -3.225)" fill="url(#linear-gradient-3)"/>
    <path id="Path_267" data-name="Path 267" d="M221.566,113.57l-3.226,4.05v14.9l9.332-11.771Z" transform="translate(-200.716 -104.403)" fill="url(#linear-gradient-4)"/>
    <path id="Path_268" data-name="Path 268" d="M348.717,10.565l.081.094,1.418-1.793c-1.752-1.9-4.79-5.394-7.161-5.368a.849.849,0,0,0-.242.065,1.321,1.321,0,0,0-.393.3A50.782,50.782,0,0,1,348.717,10.565Z" transform="translate(-314.78 -3.216)" fill="url(#linear-gradient-5)"/>
  </g>
</svg>
