<svg xmlns="http://www.w3.org/2000/svg" width="112.15" height="28" viewBox="0 0 112.15 28">
  <g id="q" transform="translate(-12.408 0.007)">
    <g id="design" transform="translate(12.408 -0.007)">
      <g id="logoD1">
        <path id="Path_81" data-name="Path 81" d="M27.509,20.52a2.665,2.665,0,0,1-2.073.987,2.707,2.707,0,0,1-1.706-.592L20.91,18.56a13.8,13.8,0,0,0,3.229-4.23l3,2.355a2.707,2.707,0,0,1,.367,3.835Z" transform="translate(2.479 5.886)" fill="#f39800"/>
        <path id="Path_82" data-name="Path 82" d="M24.7,9.591a8.559,8.559,0,0,1,.79,6.923l4.385,3.6A13.988,13.988,0,0,0,7.611,3.895a2.683,2.683,0,1,0,3.709,3.878A9.053,9.053,0,0,1,12.885,6.6,8.6,8.6,0,0,1,24.7,9.591Z" transform="translate(-3.314 0.007)" fill="#f8b62d"/>
        <path id="Path_83" data-name="Path 83" d="M22.706,20.232A8.616,8.616,0,0,1,12.427,6.512a.282.282,0,0,1-.1.085A2.679,2.679,0,0,1,8.507,2.86a13.988,13.988,0,0,0,6.359,23.534,14.4,14.4,0,0,0,3.455.423,13.819,13.819,0,0,0,7.135-1.974,14.932,14.932,0,0,0,2.2-1.607l-4.23-3.483A6.19,6.19,0,0,1,22.706,20.232Z" transform="translate(-4.323 1.183)" fill="#f39800"/>
        <path id="Path_84" data-name="Path 84" d="M24.359,25.6,21.967,22.85H16.42L18.579,25.6Z" transform="translate(66.282 -17.148)" fill="#f39800"/>
        <path id="Path_85" data-name="Path 85" d="M24.359,27.982,21.967,25.23H16.42l2.159,2.752Z" transform="translate(66.282 -14.489)" fill="#f39800"/>
        <path id="Path_86" data-name="Path 86" d="M16.187,24.423,14.218,22.2H8.65l1.757,2.223Z" transform="translate(57.603 -17.874)" fill="#f39800"/>
        <path id="Path_87" data-name="Path 87" d="M15.88,34.419h6.859l3.345-6.139H19.267Z" transform="translate(65.679 -11.082)" fill="#f39800"/>
        <path id="Path_88" data-name="Path 88" d="M20.578,32.475l2.964-3.684H17.974l-1.291,1.524V28.135h8.511V24.621H16.64V22.8h-6.5v1.821H1.757v3.514h8.384v3.811L7.473,28.791H1.927l3.6,4.509h4.615v1.1H5.335L0,40.541H6.859l3.281-3.811v3.811h6.542V35.735L21.3,40.541h6.859L20.7,32.517Z" transform="translate(47.94 -17.204)" fill="#f39800"/>
        <path id="Path_89" data-name="Path 89" d="M41.288,32.585V28.944H34.112v-2.71l5.8-.8V22L21.854,24.117v3.62l5.716-.72V28.88H20.52v3.7h7.05v1.821H22.3l-.635,3.112c-.381,2.6,0,3.938,2.5,3.938h15.6l.55-7.05h-6.2V32.585ZM34.937,36.65l-.212,2.562H27.887c-.889,0-1.27-.487-1.122-1.44L27,36.65h7.96Z" transform="translate(70.862 -18.097)" fill="#f39800"/>
      </g>
    </g>
  </g>
</svg>
