<svg xmlns="http://www.w3.org/2000/svg" width="93.76" height="34.136" viewBox="0 0 93.76 34.136">
  <g id="shi" transform="translate(0.01)">
    <g id="ƒŒƒCƒ__1" data-name="ƒŒƒCƒ„[_1" transform="translate(56.999)">
      <path id="Path_387" data-name="Path 387" d="M224.416,71.887l-4.028-8.637H213.12l7.653,16.41h.021Z" transform="translate(-213.12 -46.332)" fill="#4e4e4e"/>
      <path id="Path_388" data-name="Path 388" d="M259.787,78.034l6.9-14.784h-7.27L255.4,71.887l2.942,6.291C258.8,78.119,259.305,78.074,259.787,78.034Z" transform="translate(-244.091 -46.332)" fill="#e80000"/>
      <path id="Path_389" data-name="Path 389" d="M248.344,101.831,245.4,95.54,241.78,103.3a31.717,31.717,0,0,1,6.564-1.466Z" transform="translate(-234.114 -69.985)" fill="#e80000"/>
      <path id="Path_390" data-name="Path 390" d="M321.358,36.08h-7.267l-3.381,7.267h7.27Z" transform="translate(-284.606 -26.429)" fill="#4e4e4e"/>
      <path id="Path_391" data-name="Path 391" d="M299.33,63.25h-7.267L285.25,77.895a38.407,38.407,0,0,1,6.955.65Z" transform="translate(-265.957 -46.332)" fill="#e80000"/>
      <path id="Path_392" data-name="Path 392" d="M241.751,124.57h-.021v.021Z" transform="translate(-234.077 -91.25)" fill="#fff"/>
      <path id="Path_393" data-name="Path 393" d="M288.183,5.762c-5.3.267-5.5.468-5.762,5.762-.267-5.293-.468-5.5-5.762-5.762,5.293-.267,5.5-.468,5.762-5.762C282.678,5.293,282.887,5.5,288.183,5.762Z" transform="translate(-259.664)" fill="#4e4e4e"/>
      <path id="Path_394" data-name="Path 394" d="M268.79,34.386c-3.673.179-3.817.324-4,3.993-.179-3.67-.324-3.814-3.993-3.993,3.67-.179,3.814-.324,3.993-4C264.973,34.063,265.117,34.207,268.79,34.386Z" transform="translate(-248.046 -22.261)" fill="#4e4e4e"/>
    </g>
    <g id="ƒŒƒCƒ__2" data-name="ƒŒƒCƒ„[_2" transform="translate(-0.01 6.885)">
      <path id="Path_395" data-name="Path 395" d="M27.027,35.4c-.227-.152-9.648-4.547-12.534-7.369,0,0,.152-1.6-.685-2.052a1.292,1.292,0,0,0-1.6.072,6.915,6.915,0,0,0-.829.875,52.149,52.149,0,0,1-9.241,8.022c-.722.516-1.8.709-2.089,1.677a1.391,1.391,0,0,0,.677,1.6c.717.35,1.468-.169,2.1-.471s1.337-.639,2.025-.96a6.893,6.893,0,0,0,.835-.391l.072,15.337a1.871,1.871,0,0,0,2.431,1.139c1.9-.532,5.617-1.977,5.85-2.357s.912-1.519-.38-1.822l-4.71.835-.075-5.4,9.346-.227s2.052.152,2.052-1.139.535-6.989.535-6.989c.31.185.626.361.936.535a5.194,5.194,0,0,0,1.645.8,8.7,8.7,0,0,0,1.8-.086,5.2,5.2,0,0,0,1.717-.484A.654.654,0,0,0,27.027,35.4Zm-9.8,6-8.292.607.078-1.672,8.2-.535Zm0-3.344-8.292.607L9.012,37l8.2-.535Zm-2.544-3.723c0-1.158.163-2.611-1.319-2.964-2.022-.481-2,2.068-2.062,3.306l-3.648.152s5.13-4.635,5.13-4.9c0,0,.374-.2.613.029s2.544,2.207,3.8,3.293l1.024,1.008Z" transform="translate(0.01 -25.742)" fill="#c80000"/>
      <path id="Path_396" data-name="Path 396" d="M48.562,93.17s2.621-1.937,3.039-2.381,1.519-1.672,2.7-.95c0,0,1.337,1.07-.227,2.621A10.622,10.622,0,0,1,50.688,94.7a57.494,57.494,0,0,0,6.8,2.7s.837-.078.19.535-2.942,1.843-4.216,1.442C52.245,99,45.1,95.463,43.2,92.577c0,0-.342-2.052,1.559-1.557,0,0,2.316,1.672,2.659,1.824A1.9,1.9,0,0,0,48.562,93.17Z" transform="translate(-31.628 -72.532)" fill="#c80000"/>
      <path id="Path_397" data-name="Path 397" d="M98.506,65.473a1.532,1.532,0,0,0-2.546.037s0,12.12.152,12.3.722,1.519,2.736.835,7.142-3.876,8.583-6.382c0,0,.722-.875.115-1.482s-1.367-.112-2.126.607-5.548,4.6-6.535,4.331c0,0-.342.535-.38-1.747-.04-2.335,0-5.812,0-7.407Z" transform="translate(-70.29 -54.33)" fill="#383838"/>
      <path id="Path_398" data-name="Path 398" d="M138.95,95.449a1.747,1.747,0,0,0-.147-1.182c-.479-.706-1.533-.211-1.84.364-.38.711-.765,1.415-1.177,2.108-.369.623-.851,1.03-.893,1.789a1.032,1.032,0,0,0,.982,1.2,1.667,1.667,0,0,0,1.768-1.07,19.341,19.341,0,0,0,1.07-2.437A6.492,6.492,0,0,0,138.95,95.449Z" transform="translate(-98.806 -75.682)" fill="#383838"/>
      <path id="Path_399" data-name="Path 399" d="M177.2,93.084a1.289,1.289,0,0,0-.043.69,2.86,2.86,0,0,0,.621,1.07,6.581,6.581,0,0,1,.682.982c.062.123.131.246.182.374a14.365,14.365,0,0,1,.559,1.337,1.419,1.419,0,0,0,1.7.861c1.367-.209.912-2.078.481-2.557s-2.506-3.242-3.293-3.167C178.081,92.654,177.4,92.6,177.2,93.084Z" transform="translate(-129.744 -74.762)" fill="#383838"/>
      <path id="Path_400" data-name="Path 400" d="M151.082,66.708c-.559.123-4.523.3-4.523.3l-.19-3.456a1.39,1.39,0,0,0-2.239,0c-.078.76-.04,3.493-.04,3.493l-5.2.57c-1.787.95-.267,2.014-.267,2.014l5.441-.316c.043,2.14.1,4.28.123,6.42a3.512,3.512,0,0,1,.032.687c-.217,1.016-1.444-.144-1.91-.144-.19,0-1.482-.15-.987.912a5.531,5.531,0,0,0,3.113,2.279,2.392,2.392,0,0,0,1.557-.075c.19-.152.61-.267.535-2.774-.062-2.017-.024-5.978,0-7.447l5.021-.34C153.056,67.963,151.954,66.519,151.082,66.708Z" transform="translate(-101.098 -53.022)" fill="#383838"/>
      <path id="Path_401" data-name="Path 401" d="M182.16,60.077a2.207,2.207,0,1,0,2.207-2.207A2.207,2.207,0,0,0,182.16,60.077Zm1.3,0a.9.9,0,1,1,.265.644.909.909,0,0,1-.265-.644Z" transform="translate(-133.433 -49.276)" fill="#383838"/>
    </g>
  </g>
</svg>
