<svg xmlns="http://www.w3.org/2000/svg" xmlns:xlink="http://www.w3.org/1999/xlink" width="83.258" height="83.262" viewBox="0 0 83.258 83.262">
  <defs>
    <filter id="Path_1957" x="0" y="0" width="83.258" height="83.262" filterUnits="userSpaceOnUse">
      <feOffset dy="3" input="SourceAlpha"/>
      <feGaussianBlur stdDeviation="3" result="blur"/>
      <feFlood flood-opacity="0.161"/>
      <feComposite operator="in" in2="blur"/>
      <feComposite in="SourceGraphic"/>
    </filter>
  </defs>
  <g id="twitter" transform="translate(9 6)">
    <g transform="matrix(1, 0, 0, 1, -9, -6)" filter="url(#Path_1957)">
      <path id="Path_1957-2" data-name="Path 1957" d="M485.548,457.209a13.406,13.406,0,0,1-13.406,13.4H433.7a13.406,13.406,0,0,1-13.406-13.4V418.76A13.41,13.41,0,0,1,433.7,405.35h38.446a13.41,13.41,0,0,1,13.406,13.41Z" transform="translate(-411.29 -399.35)" fill="#1da1f2"/>
    </g>
    <path id="Path_1958" data-name="Path 1958" d="M463.069,481.662c17.153,0,26.531-14.211,26.531-26.531,0-.4,0-.8-.026-1.206a18.916,18.916,0,0,0,4.648-4.822,18.747,18.747,0,0,1-5.353,1.465,9.386,9.386,0,0,0,4.1-5.156,18.773,18.773,0,0,1-5.935,2.267,9.322,9.322,0,0,0-16.125,6.373,9.642,9.642,0,0,0,.237,2.129,26.482,26.482,0,0,1-19.219-9.745,9.326,9.326,0,0,0,2.886,12.449,9.233,9.233,0,0,1-4.221-1.168v.119a9.325,9.325,0,0,0,7.478,9.14,9.232,9.232,0,0,1-2.455.33,9.372,9.372,0,0,1-1.751-.171,9.333,9.333,0,0,0,8.721,6.477,18.711,18.711,0,0,1-11.581,3.991,18.41,18.41,0,0,1-2.226-.133,26.36,26.36,0,0,0,14.293,4.192" transform="translate(-438.212 -430.121)" fill="#fff"/>
  </g>
</svg>
