<svg id="up" xmlns="http://www.w3.org/2000/svg" width="70" height="28" viewBox="0 0 70 28">
  <g id="Logo_reH">
    <path id="Path_438" data-name="Path 438" d="M2.119,177.255C1.925,171.282,0,171.021,0,171.021v-.481H3.969s2.513.672,2.427,6.514l-4.113.249Z" transform="translate(0 -154.623)" fill="#c83a3f"/>
    <path id="Path_439" data-name="Path 439" d="M29.333,129.146c-1.181,1.249-2.353,3.864-2.353,9.338l-4.117.249-.163-.046C22.7,128.28,26.855,128,27.142,128a3.791,3.791,0,0,1,2.191,1.142" transform="translate(-20.581 -116.053)" fill="#a71527"/>
    <path id="Path_440" data-name="Path 440" d="M80.942,140.868c0-11.095-5.305-12.868-6.106-12.868H70.29a3.791,3.791,0,0,1,2.191,1.142c1.555,1.463,3.327,4.76,3.156,12.094l.3.077Z" transform="translate(-63.73 -116.053)" fill="#c83a3f"/>
    <path id="Path_441" data-name="Path 441" d="M147.252,1.568s-13.863,1.939-14.367,23.247l-5,.449-.3-.077C127.787,2.52,141.414,0,141.414,0l5.838.751Z" transform="translate(-115.673)" fill="#a71527"/>
    <path id="Path_442" data-name="Path 442" d="M277.7,103.036l-.045.076a6.33,6.33,0,0,1,.7.57l-.3.318a4.739,4.739,0,0,0-.628-.574,5.728,5.728,0,0,1-.7.816h.494v-.48h.395v.475h.5v1.493h-1.041v.678c.187-.032.381-.067.547-.108a2.056,2.056,0,0,0-.152-.291l.345-.157c.121.2.259.448.373.677l-.367.193-.063-.139c-.4.13-.847.264-1.246.373l-.179-.413.358-.063v-2.211l-.181.173a1.134,1.134,0,0,0-.166-.417,4.135,4.135,0,0,0,.991-1.184Zm-.619,1.524v.28h.641v-.28Zm0,.579v.287h.641v-.287Zm3.072-1.4.054-.031.3.267c-.144.28-.305.6-.462.875a3.379,3.379,0,0,0-.323-.187c.085-.187.171-.373.242-.569h-.483l-.008.43a2.678,2.678,0,0,0,.309,1.273,2.34,2.34,0,0,0,.758.861,1.027,1.027,0,0,0-.345.341,2.664,2.664,0,0,1-.883-1.426,2.837,2.837,0,0,1-.951,1.457,1.325,1.325,0,0,0-.291-.344,2.838,2.838,0,0,0,.991-2.592h-.148a4.664,4.664,0,0,1-.373.691,1.291,1.291,0,0,0-.342-.287,4.043,4.043,0,0,0,.653-1.65l.448.126a5.2,5.2,0,0,1-.237.762Z" transform="translate(-250.548 -93.242)"/>
    <path id="Path_443" data-name="Path 443" d="M329.685,102.769l-.045.072a4.185,4.185,0,0,0,1.861,1.009,1.485,1.485,0,0,0-.269.373c-.2-.072-.413-.157-.588-.238v1.484H329.56a1.89,1.89,0,0,0,.417.427c.309-.157.632-.355.91-.534l.238.35c-.216.117-.471.237-.763.4a3.4,3.4,0,0,0,1.1.3,1.483,1.483,0,0,0-.233.368,3.938,3.938,0,0,1-.933-.3,2.056,2.056,0,0,1-1.153-1.014h-.574v.731c.256-.031.543-.071.861-.112v.359l-1.543.224c-.081,0-.139.013-.318.04l-.081-.4c.22-.014.462-.036.7-.059v-2.3c-.161.093-.342.2-.5.273a1.786,1.786,0,0,0-.27-.31,5.557,5.557,0,0,0,1.867-1.307Zm-.5,1.162v-.444h.427v.444h.933a5.376,5.376,0,0,1-1.161-.852,6.453,6.453,0,0,1-1.157.852Zm-.619.318v.291h1.668v-.291Zm0,.579v.344h1.668v-.344Z" transform="translate(-296.861 -93.033)"/>
    <path id="Path_444" data-name="Path 444" d="M379.136,103.11v.413h1.632v.373h-3.255a14.09,14.09,0,0,1-.054,2.04,3.15,3.15,0,0,1-.435,1.3,1.181,1.181,0,0,0-.354-.345,1.9,1.9,0,0,0,.345-.861,14.079,14.079,0,0,0,.077-2.5h1.6v-.413Zm.175.879v.592h1.332v.345h-1.329v.565h1.161v1.615h-.417v-.233h-1.743v.273h-.43v-1.655H378.9v-1.5Zm-1,1.852v.678h1.74v-.678Z" transform="translate(-341.514 -93.486)"/>
    <path id="Path_445" data-name="Path 445" d="M430.367,103.35v.341h1.669v.35h-1.669v.269h1.346v1.435h-.536v.273h.987v.355h-.987v.641c0,.264-.117.3-.735.4a.771.771,0,0,0-.125-.43h.373c.049,0,.067-.018.067-.067v-.547h-1.471a2.56,2.56,0,0,1,.449.48l-.28.255a3.859,3.859,0,0,0-.484-.528l.233-.206h-.994v-.355h2.542v-.273h-2.08v-1.435h1.3v-.269h-1.68v-.35h1.68v-.341Zm-1.323,1.255v.243h.924v-.243Zm0,.525v.314h.924v-.314Zm1.323-.525v.243h.942v-.243Zm0,.525v.314h.942v-.314Z" transform="translate(-388.244 -93.704)"/>
    <path id="Path_446" data-name="Path 446" d="M481.47,105v1.68h-1.134V108.9h-.426V105Zm-1.134.373v.314h.7v-.314Zm0,.641v.318h.7v-.318Zm3.116-1.009v3.529c0,.233-.171.28-.747.385a1.587,1.587,0,0,0-.144-.457h.395c.045,0,.063-.018.063-.058V106.68H481.9v-1.673Zm-1.175.373v.309h.74v-.309Zm0,.637v.318h.74v-.318Z" transform="translate(-435.118 -95.2)"/>
    <path id="Path_447" data-name="Path 447" d="M530.346,104v.771h1.722v.345h-1.722v.206a6.16,6.16,0,0,0,.395.681c.246-.179.507-.363.771-.582l.305.318c-.417.291-.462.328-.847.574a3.406,3.406,0,0,0,1.216.953,2.491,2.491,0,0,0-.287.4,3.9,3.9,0,0,1-1.556-1.587v1.364c-.008.246-.022.3-.093.358a1.715,1.715,0,0,1-.691.187,1.961,1.961,0,0,0-.135-.44h.435c.064,0,.086-.04.086-.112v-.79c-.314.2-.628.368-.919.516-.157.085-.341.175-.628.331l-.206-.413a11.786,11.786,0,0,0,1.756-.86v-1.108h-1.729v-.345h1.729V104Zm-1.268,2.258a3.419,3.419,0,0,0-.574-.56l.291-.26a4.126,4.126,0,0,1,.592.547Zm2-2.224a2.544,2.544,0,0,1,.467.4l-.273.251a2.713,2.713,0,0,0-.443-.409Z" transform="translate(-478.892 -94.293)"/>
    <path id="Path_448" data-name="Path 448" d="M579.772,104.36c0,.28-.009.6-.032.906a4.069,4.069,0,0,0,.763,1.743,3.65,3.65,0,0,0,1.143.871.985.985,0,0,0-.28.4,3.627,3.627,0,0,1-1.758-2.1,3.679,3.679,0,0,1-1.757,2.116,1.207,1.207,0,0,0-.28-.354c1.773-.978,1.773-2.224,1.773-3.583Z" transform="translate(-523.663 -94.62)"/>
    <path id="Path_449" data-name="Path 449" d="M627.148,105.61v.97h.942v.394h-.942c0,1.234-.28,1.516-.44,1.68a2.931,2.931,0,0,1-1.425.7,1.079,1.079,0,0,0-.243-.44,2.772,2.772,0,0,0,.718-.165c.834-.31.933-.817.933-1.781h-1.086v1.014h-.446v-1.008h-.91v-.4h.91v-.852h.449v.852H626.7v-.97Z" transform="translate(-565.987 -95.753)"/>
    <path id="Path_450" data-name="Path 450" d="M674.838,108.624h-.467v-2.117a7.666,7.666,0,0,1-1.618.983,1.181,1.181,0,0,0-.243-.422,7.335,7.335,0,0,0,2.973-2.278l.4.337c-.606.609-.677.677-1.041,1.009Z" transform="translate(-609.742 -95.01)"/>
    <path id="Path_451" data-name="Path 451" d="M724.821,104.7v1.241a10.29,10.29,0,0,1,1.914.83l-.26.435a7.647,7.647,0,0,0-1.654-.8v2.175h-.481V104.7Z" transform="translate(-656.735 -94.928)"/>
    <path id="Path_452" data-name="Path 452" d="M279.631,168.52v1.1h1.815v1.241h-1.815v.667h1.709v5.061h-1.709v.694h1.909v1.2h-1.909V180.5h-1.416v-2.016h-1.9v-1.2h1.9v-.694h-1.7v-5.061h1.7v-.667h-1.9v-1.241h1.9v-1.1Zm-1.9,4.22v.747h.534v-.747Zm0,1.8v.814h.534v-.814Zm1.749-1.8v.747h.588v-.747Zm0,1.8v.814h.588v-.814Zm8.639-1.68v1.386h-3.111c-.214.721-1.213,3.818-1.389,4.446,1.228-.133,1.469-.161,2.537-.32-.373-.975-.427-1.1-.947-2.217l1.335-.56a30.283,30.283,0,0,1,1.883,4.233l-1.468.548-.307-.735c-.921.133-1.416.227-1.829.293-.441.08-2.23.334-3.459.508l-.373-1.493,1.095-.093c.494-1.6,1.12-3.927,1.3-4.607h-1.736v-1.393Zm-.481-3.752v1.4h-5.675v-1.4Z" transform="translate(-250.53 -152.791)"/>
    <path id="Path_453" data-name="Path 453" d="M424.2,173.112l.521-.294.987,1.175c-.627.334-1.281.668-2.043,1.095a9.622,9.622,0,0,0,2.951.788,4.372,4.372,0,0,0-.8,1.416,12.738,12.738,0,0,1-3.712-1.389,6.245,6.245,0,0,1-2.551-2.63h-1.429V175.2c.735-.067,1.522-.161,2.333-.294v1.364c-.988.161-4.821.668-5.542.747l-.293-1.493c.627-.013,1.307-.093,1.976-.16v-6.386a10.766,10.766,0,0,1-1.268.694,7.138,7.138,0,0,0-1-1.188,17.56,17.56,0,0,0,5.515-3.819l1.629.521-.161.2a13.443,13.443,0,0,0,5.395,2.924,4.988,4.988,0,0,0-.854,1.482,16.786,16.786,0,0,1-1.656-.721Zm-4.676-4.594V167.29h1.656v1.228h2.053a15.11,15.11,0,0,1-2.938-2.2,22.827,22.827,0,0,1-2.937,2.2Zm-1.4,1.161v.653h4.514v-.653Zm0,1.723v.761h4.514V171.4Zm3.112,1.867a5.49,5.49,0,0,0,.987,1.015c.441-.24,1.055-.614,1.723-1.015Z" transform="translate(-375.659 -149.292)"/>
    <path id="Path_454" data-name="Path 454" d="M572.112,212.934c-2.539,0-3.552-.913-3.552-3.24v-4.61c0-.523.379-.834,1.046-.834s1.048.323,1.048.846v4.655c0,1.146.3,1.792,1.459,1.792,1.135,0,1.447-.612,1.447-1.792V205.1c0-.534.4-.846,1.08-.846s1.036.312,1.036.846v4.621C575.675,211.973,574.706,212.934,572.112,212.934Z" transform="translate(-515.494 -185.187)"/>
    <path id="Path_455" data-name="Path 455" d="M678.778,210.494H677.6v2.171c0,.535-.379.813-1.057.813s-1.081-.28-1.081-.813l-.01-6.357c0-1,.344-1.348,1.347-1.348h2.026c2.583,0,3.585,1.047,3.585,2.695C682.408,209.692,681.05,210.494,678.778,210.494Zm-.077-4.064h-.847c-.222,0-.256.056-.256.256v2.093c0,.223.034.256.256.256h.791c.958,0,1.57-.344,1.57-1.336C680.215,206.753,679.5,206.43,678.7,206.43Z" transform="translate(-612.408 -185.83)"/>
  </g>
</svg>
