<svg id="wine" xmlns="http://www.w3.org/2000/svg" width="142.459" height="28" viewBox="0 0 142.459 28">
  <g id="レイヤー_1" data-name="レイヤー 1">
    <path id="Path_304" data-name="Path 304" d="M74.771,29.062l-.1-.062c-.1-3.764-.41-6.42-.41-6.42a41.976,41.976,0,0,1-.786,5.7c-.257,1.231-.558,2.436-.893,3.588a53.4,53.4,0,0,1-6.4,14.076h6.734A46.828,46.828,0,0,0,74.7,33.308c4.46,3.4,6.847,7.508,5.41,9.677-.79,1.2-2.6,1.591-4.889,1.254,3.532.745,6.453.24,7.691-1.642C85.034,39.371,81.4,33.306,74.771,29.062Z" transform="translate(-52.605 -17.945)" fill="#181d62"/>
    <path id="Path_305" data-name="Path 305" d="M19.7,9.7A45.767,45.767,0,0,0,21.67,0a33.18,33.18,0,0,1-3.506,8.976C12.9,6.705,8.038,6.7,6.342,9.281c-1.381,2.1-.324,5.4,2.4,8.62-1.736-2.276-2.381-4.444-1.461-5.831,1.231-1.86,4.881-1.775,9.015-.06A63.2,63.2,0,0,1,0,28H9.942a52.147,52.147,0,0,0,8.606-14.915C18.992,11.9,19.375,10.771,19.7,9.7Z" fill="#181d62"/>
    <path id="Path_306" data-name="Path 306" d="M120.667,42.414a1.847,1.847,0,1,0-1.847-1.847A1.847,1.847,0,0,0,120.667,42.414Z" transform="translate(-94.432 -30.773)" fill="#181d62"/>
    <path id="Path_307" data-name="Path 307" d="M72.847,14.534A1.847,1.847,0,1,0,71,12.687,1.847,1.847,0,0,0,72.847,14.534Z" transform="translate(-56.427 -8.615)" fill="#181d62"/>
    <path id="Path_308" data-name="Path 308" d="M277.455,57.964a7.576,7.576,0,0,0-1.847-1l-.218.9a7.108,7.108,0,0,1,1.767,1.043Z" transform="translate(-218.867 -45.269)" fill="#231916"/>
    <path id="Path_309" data-name="Path 309" d="M274.33,71.886v1.4a8.918,8.918,0,0,0,2.752-3.922l-.768-.441A7.5,7.5,0,0,1,274.33,71.886Z" transform="translate(-218.024 -54.774)" fill="#231916"/>
    <path id="Path_310" data-name="Path 310" d="M295.982,46.539V45.81H288.7v.729h2.272v1.119h-1.944v6.952h.852v-.238h4.846v.238h.841V47.657h-2.052V46.539Zm-4.249,0h1.026v1.119h-1.026Zm-.761,1.814v.177a3.108,3.108,0,0,1-1.092,2.139V48.353Zm3.754,5.3H289.88v-.743h4.846Zm0-1.418H289.88v-.807l.158.187a4.092,4.092,0,0,0,1.7-3.079v-.179h1.026v2.239c0,.267.055.677.766.677h1.2Zm0-3.875v2.258h-.872c-.252,0-.339,0-.339-.244V48.353Z" transform="translate(-229.445 -36.408)" fill="#231916"/>
    <path id="Path_311" data-name="Path 311" d="M277.48,45.13a7.206,7.206,0,0,1,1.833,1.09l.339-.9a9.6,9.6,0,0,0-1.9-1.043Z" transform="translate(-220.528 -35.192)" fill="#231916"/>
    <path id="Path_312" data-name="Path 312" d="M335.873,52.288a8.9,8.9,0,0,0,1.365-3.859v-.778h-3.961V46.325h4.353V45.57h-5.25V49.4a11.505,11.505,0,0,1-.131,1.562,5.354,5.354,0,0,1-.821,2.553,8.327,8.327,0,0,0-.77-1.277h.681V45.57h-3.471v6.669h.55a5.514,5.514,0,0,1-1.039,1.484l.421.735a4.1,4.1,0,0,0,1.478-1.884l-.474-.335h1.287l-.3.115a9.069,9.069,0,0,1,.895,1.574l.688-.324a3.357,3.357,0,0,1-.285.353l.788.5a5.9,5.9,0,0,0,.991-2.11,13.826,13.826,0,0,0,.411-2.917V48.47a12.249,12.249,0,0,0,1.517,3.8,4.247,4.247,0,0,1-1.837,1.287l.187.835a6.579,6.579,0,0,0,2.174-1.463,4.983,4.983,0,0,0,2.463,1.531V53.5A5.425,5.425,0,0,1,335.873,52.288ZM328.71,46.3h1.8v1.158h-1.8Zm0,1.847h1.8v1.219h-1.8Zm0,1.923h1.8V51.5h-1.8Zm5.406-1.679h2.227a7.429,7.429,0,0,1-1.006,3.192A10.8,10.8,0,0,1,334.116,48.388Z" transform="translate(-260.186 -36.217)" fill="#231916"/>
    <path id="Path_313" data-name="Path 313" d="M386.169,45.174V44.23h.926v.944h4.413v.755H383.2v3.015c0,2.857-.8,4.035-1.632,4.784l-.068-1.336a5.654,5.654,0,0,0,.792-3.475V45.174Zm5.1,2.8h-3.711v1.357h3.573v4h-.885v-.25h-5.626v.25h-.872v-4h2.913V46.272h.9v.944h3.711Zm-1.026,2.091h-5.622v2.272h5.626Z" transform="translate(-303.198 -35.152)" fill="#231916"/>
    <path id="Path_314" data-name="Path 314" d="M650.471,45.735h1.767V45h-3.274c.174-.361.273-.616.41-.95l-.94-.148a3.288,3.288,0,0,1-1.39,2.2l.363.809a3.242,3.242,0,0,0,1.147-1.172h1.059v1.6h-2.822v.747h2.816V51.6l-1.135.138v-2.7h-.86v2.8c-.546.06-.558.07-.874.09l.109.786c1.324-.119,4.532-.581,5.614-.821l-.045-.737c-.616.127-1.1.218-1.942.324V50.025h1.767V49.29h-1.767V48.081h2.02v-.747h-2.02Z" transform="translate(-513.998 -34.89)" fill="#231916"/>
    <path id="Path_315" data-name="Path 315" d="M676.68,46v8.731h.887v-1.87l1.81.127c.558,0,.874-.158.874-.768V46Zm2.668,5.938c0,.166-.043.226-.25.226l-1.531-.142V46.747h1.778Z" transform="translate(-537.792 -36.559)" fill="#231916"/>
    <path id="Path_316" data-name="Path 316" d="M444.453,45.62H439.88v.616h3.477v3.249h-1v.651h2.172v.677h-2.18v1.759c0,.628-.482.764-.909.764h-1.613v-.821h1.363c.142,0,.263-.018.263-.255V50.808H434.41v-.673h7.042v-.651h-5.874V46.235h3.438V45.62h-4.528v-.673h4.528V44.23h.864v.716h4.573Zm-6.227,7.674a8.939,8.939,0,0,0-1.572-1.5l.571-.616a7.357,7.357,0,0,1,1.437,1.275Zm.792-6.461h-2.6v.735h2.6Zm0,1.3h-2.6v.745h2.6Zm3.469-1.3H439.88v.735h2.6Zm0,1.3H439.88v.745h2.6Z" transform="translate(-345.248 -35.152)" fill="#231916"/>
    <path id="Path_317" data-name="Path 317" d="M493.394,45.88V49.9h-3.21v4.735h-.874V45.88Zm-3.21.708v.862h2.369v-.862Zm0,1.437v1.164h2.369V48.021Zm8.514,5.735c0,.846-.665.883-.981.883h-1.642l.035-.821h1.351c.339,0,.371-.068.371-.353V49.9h-3.27V45.88H498.7Zm-3.307-7.171v.862h2.434v-.862Zm0,1.437v1.164h2.434V48.021Z" transform="translate(-388.88 -36.463)" fill="#231916"/>
    <path id="Path_318" data-name="Path 318" d="M224.793,54.772h-.883V46.1h9.255v8.672Zm0-.737h7.479V46.851h-7.479Zm6.868-6.461v.677h-2.8v1.437h2.578v.647h-2.578v2.108h2.949v.7h-6.568v-.7h2.767v-2.1h-2.348V49.7h2.348V48.259H225.47v-.677Zm-1.385,4.458a13.847,13.847,0,0,0-.821-1.316l.722-.326a10.214,10.214,0,0,1,.862,1.3Z" transform="translate(-177.953 -36.638)" fill="#231916"/>
    <path id="Path_319" data-name="Path 319" d="M548.318,49.983a4.885,4.885,0,0,0,.511-.482l.7.521a14.921,14.921,0,0,1-2.443,1.669,9.768,9.768,0,0,0,2.9.772v.776c-2.352-.322-4.7-1.209-5.891-3.134h-1.847V52.19c1.847-.166,2.106-.205,2.668-.3l.515.653c-1.7.308-4.653.55-5.252.591l.041-.8c.645-.031.776-.043,1.139-.074V46.831c-.634.244-1.387.46-1.736.558v-.913a10,10,0,0,0,4.825-2.416h1.006a8.535,8.535,0,0,0,4.76,2.436v.858c-.371-.117-1.258-.337-1.868-.575Zm-.589-3.448a9.708,9.708,0,0,1-2.828-1.827,11.664,11.664,0,0,1-2.892,1.827h2.41V45.509h.895v1.026Zm-.283.657h-5.213v.821h5.219Zm0,1.406h-5.213v.833h5.219Zm-2.436,1.5a4.736,4.736,0,0,0,1.312,1.2,12.781,12.781,0,0,0,1.847-1.2Z" transform="translate(-428.864 -35.017)" fill="#231916"/>
    <path id="Path_320" data-name="Path 320" d="M599.534,50.224v4.327h-.839v-.234h-2.523v.3h-.841v-4.4Zm-3.362.716v2.668h2.523V50.941Zm.411-5.111H603.6v3.715h-7.009Zm.874,2.99h5.277V46.546H597.46Zm7.368,1.4v4.4h-.839v-.3h-2.668v.3H600.5v-4.4Zm-3.514.716v2.668h2.668V50.941Z" transform="translate(-473.139 -36.423)" fill="#231916"/>
    <path id="Path_321" data-name="Path 321" d="M176.288,48.206h.507V47.74c.585.294,1.211.571,1.5.69V47.4a10.3,10.3,0,0,1-4.721-3.173h-.993a10.573,10.573,0,0,1-4.745,3.181v.983c.3-.127.9-.369,1.5-.655v.466h3.27V49.7H169.7v.739h2.91v1.847h-4.534v.788h10V52.29h-4.54V50.443h2.912V49.7h-2.912v-1.5Zm-6.387-.757a11.539,11.539,0,0,0,3.167-2.523,13.123,13.123,0,0,0,3.19,2.523Z" transform="translate(-133.391 -35.152)" fill="#231916"/>
    <path id="Path_322" data-name="Path 322" d="M276.92,106.9v-2.463l.46-.146v.41c.236-.41.932-.41.932-.41v.458c-.542-.086-.932.014-.932.663V106.9Z" transform="translate(-220.083 -82.885)" fill="#231916"/>
    <path id="Path_323" data-name="Path 323" d="M328.15,106.9v-2.463l.46-.146v.41c.234-.41.93-.41.93-.41v.458c-.54-.086-.93.014-.93.663V106.9Z" transform="translate(-260.798 -82.885)" fill="#231916"/>
    <path id="Path_324" data-name="Path 324" d="M370.29,108.289h-.46v-3.937l.46-.088v.468a1.1,1.1,0,0,1,.983-.5,1.206,1.206,0,0,1,1.156,1.336,1.237,1.237,0,0,1-1.135,1.42,1,1,0,0,1-.991-.41Zm0-2.637c0,.677.287,1.049.846,1.049.458,0,.786-.456.786-1.121,0-.616-.343-1.092-.792-1.092s-.839.425-.839,1.154Z" transform="translate(-293.923 -82.839)" fill="#231916"/>
    <path id="Path_325" data-name="Path 325" d="M231.156,106.539a1,1,0,0,1-.991.41,1.237,1.237,0,0,1-1.135-1.42,1.206,1.206,0,0,1,1.156-1.336,1.094,1.094,0,0,1,.981.5v-.468l.46.088v3.945h-.46Zm-.821-2.094c-.447,0-.792.47-.792,1.092,0,.665.33,1.121.788,1.121.558,0,.844-.371.844-1.049-.008-.729-.367-1.164-.848-1.164Z" transform="translate(-182.022 -82.806)" fill="#231916"/>
    <path id="Path_326" data-name="Path 326" d="M303.349,101l.46-.1v.842h.616a.888.888,0,0,0,0,.205h-.616v1.42c0,.5.205.7.686.7v.205c-.55.01-1.145,0-1.145-.87v-1.453H303a1.188,1.188,0,0,0,0-.205h.355Z" transform="translate(-240.81 -80.19)" fill="#231916"/>
    <path id="Path_327" data-name="Path 327" d="M441.715,101l.46-.1v.842h.616a.891.891,0,0,0,0,.205h-.616v1.42c0,.5.205.7.683.7v.205c-.548.01-1.143,0-1.143-.87v-1.453h-.355a1.182,1.182,0,0,0,0-.205h.355Z" transform="translate(-350.771 -80.19)" fill="#231916"/>
    <path id="Path_328" data-name="Path 328" d="M537.57,104.37l-1.156,2.621H536.1l-.708-1.915-.78,1.915H534.3l-1.016-2.615h.5c.119.388.283.878.283.878l.447,1.158.8-1.962h.3l.737,1.962.846-2.036Z" transform="translate(-423.825 -82.948)" fill="#231916"/>
    <path id="Path_329" data-name="Path 329" d="M223.742,99.2a.259.259,0,0,1-.086.205.3.3,0,0,1-.411,0,.259.259,0,0,1-.086-.205.263.263,0,0,1,.086-.205.287.287,0,0,1,.205-.082.3.3,0,0,1,.205.08A.257.257,0,0,1,223.742,99.2Zm-.064.821v2.6h-.46v-2.615Z" transform="translate(-177.356 -78.609)" fill="#231916"/>
    <path id="Path_330" data-name="Path 330" d="M414.592,99.2a.258.258,0,0,1-.086.205.3.3,0,0,1-.411,0,.259.259,0,0,1-.086-.205.263.263,0,0,1,.086-.205.287.287,0,0,1,.205-.082.3.3,0,0,1,.205.08A.252.252,0,0,1,414.592,99.2Zm-.064.821v2.6h-.46v-2.615Z" transform="translate(-329.034 -78.609)" fill="#231916"/>
    <path id="Path_331" data-name="Path 331" d="M556.4,101.525v-4.1h.46V99.3a1.232,1.232,0,0,1,.9-.425c.671,0,.95.486.95,1.063v1.578h-.46v-1.455c0-.6-.189-.909-.558-.909-.5,0-.833.55-.833,1.133v1.231Z" transform="translate(-442.2 -77.425)" fill="#231916"/>
    <path id="Path_332" data-name="Path 332" d="M292.976,106.283a1.386,1.386,0,0,0,.821.41.527.527,0,0,0,.564-.495c0-.228-.232-.39-.679-.527-.507-.15-.679-.425-.679-.759,0-.394.337-.735.938-.735a1.352,1.352,0,0,1,.651.142l-.01.388a.866.866,0,0,0-.669-.359.5.5,0,0,0-.523.452c0,.22.236.369.677.536.53.205.679.445.679.753,0,.5-.464.776-1.057.776a2.052,2.052,0,0,1-.718-.174Z" transform="translate(-232.838 -82.794)" fill="#231916"/>
    <path id="Path_333" data-name="Path 333" d="M358.316,106.283a1.386,1.386,0,0,0,.821.41.528.528,0,0,0,.564-.495c0-.228-.232-.39-.679-.527-.507-.15-.679-.425-.679-.759,0-.394.337-.735.938-.735a1.352,1.352,0,0,1,.651.142l-.01.388a.866.866,0,0,0-.669-.359.5.5,0,0,0-.523.452c0,.22.236.369.677.536.53.205.679.445.679.753,0,.5-.464.776-1.057.776a2.052,2.052,0,0,1-.718-.174Z" transform="translate(-284.767 -82.794)" fill="#231916"/>
    <path id="Path_334" data-name="Path 334" d="M608.656,106.283a1.386,1.386,0,0,0,.821.41.525.525,0,0,0,.562-.495c0-.228-.228-.39-.679-.527-.5-.15-.677-.425-.677-.759,0-.394.337-.735.938-.735a1.338,1.338,0,0,1,.649.142l-.01.388a.86.86,0,0,0-.669-.359.5.5,0,0,0-.521.452c0,.22.236.369.677.536.53.205.679.445.679.753,0,.5-.464.776-1.059.776a2.034,2.034,0,0,1-.716-.174Z" transform="translate(-483.726 -82.794)" fill="#231916"/>
    <path id="Path_335" data-name="Path 335" d="M209.267,98.77v3.46l1.81-.07v.326H208.76V98.77Z" transform="translate(-165.912 -78.498)" fill="#231916"/>
    <path id="Path_336" data-name="Path 336" d="M401.055,104.54v.382a1.616,1.616,0,0,0-.9-.493.9.9,0,0,0-.741.345,1.232,1.232,0,0,0-.246.776c0,.757.433,1.2.94,1.2a1.232,1.232,0,0,0,.9-.439v.351a1.9,1.9,0,0,1-.879.273,1.506,1.506,0,0,1-1.1-.388,1.3,1.3,0,0,1-.374-.967,1.217,1.217,0,0,1,.411-.977,1.593,1.593,0,0,1,1.073-.355A1.617,1.617,0,0,1,401.055,104.54Z" transform="translate(-316.829 -82.847)" fill="#231916"/>
    <path id="Path_337" data-name="Path 337" d="M247.845,104.4v2.49l-.462.127v-.5a.978.978,0,0,1-.924.53.885.885,0,0,1-.708-.257,1.231,1.231,0,0,1-.218-.807v-1.578h.46v1.455a1.391,1.391,0,0,0,.115.647.552.552,0,0,0,.523.263c.283,0,.751-.246.751-1.217v-1.141Z" transform="translate(-195.135 -82.972)" fill="#231916"/>
    <path id="Path_338" data-name="Path 338" d="M260.1,105.61a1.349,1.349,0,0,1,1.465-1.322,1.3,1.3,0,0,1,1.338,1.336,1.4,1.4,0,0,1-1.437,1.359,1.328,1.328,0,0,1-1.367-1.373Zm1.459-1.151c-.562,0-.95.566-.95,1.231,0,.556.293,1.121.9,1.121.56,0,.887-.579.887-1.215C262.392,105.025,262.088,104.458,261.556,104.458Z" transform="translate(-206.712 -82.883)" fill="#231916"/>
    <path id="Path_339" data-name="Path 339" d="M311.4,105.61a1.349,1.349,0,0,1,1.466-1.322,1.3,1.3,0,0,1,1.336,1.336,1.4,1.4,0,0,1-1.437,1.359,1.326,1.326,0,0,1-1.365-1.373Zm1.459-1.151c-.562,0-.952.566-.952,1.231,0,.556.294,1.121.9,1.121.562,0,.889-.579.889-1.215C313.691,105.025,313.388,104.458,312.856,104.458Z" transform="translate(-247.482 -82.883)" fill="#231916"/>
    <path id="Path_340" data-name="Path 340" d="M479.347,105.71a1.349,1.349,0,0,1,1.466-1.322,1.3,1.3,0,0,1,1.336,1.336,1.4,1.4,0,0,1-1.437,1.359,1.33,1.33,0,0,1-1.365-1.373Zm1.459-1.154c-.562,0-.95.569-.95,1.231,0,.556.293,1.121.9,1.121.56,0,.889-.579.889-1.215C481.644,105.129,481.338,104.556,480.807,104.556Z" transform="translate(-380.961 -82.962)" fill="#231916"/>
    <path id="Path_341" data-name="Path 341" d="M495.047,105.71a1.347,1.347,0,0,1,1.463-1.322,1.3,1.3,0,0,1,1.338,1.336,1.4,1.4,0,0,1-1.437,1.359,1.328,1.328,0,0,1-1.365-1.373Zm1.459-1.153c-.564,0-.952.569-.952,1.231,0,.556.294,1.121.9,1.121.56,0,.889-.579.889-1.215C497.342,105.129,497.038,104.556,496.506,104.556Z" transform="translate(-393.439 -82.962)" fill="#231916"/>
    <path id="Path_342" data-name="Path 342" d="M571.117,105.71a1.347,1.347,0,0,1,1.463-1.322,1.3,1.3,0,0,1,1.338,1.336,1.4,1.4,0,0,1-1.437,1.359,1.328,1.328,0,0,1-1.365-1.373Zm1.459-1.153c-.564,0-.952.569-.952,1.231,0,.556.294,1.121.9,1.121.56,0,.889-.579.889-1.215C573.412,105.129,573.108,104.556,572.576,104.556Z" transform="translate(-453.895 -82.962)" fill="#231916"/>
    <path id="Path_343" data-name="Path 343" d="M436.07,101.255v-4.1h.46v4.1Z" transform="translate(-346.567 -77.21)" fill="#231916"/>
    <path id="Path_344" data-name="Path 344" d="M450.755,106.65l-1.355-2.27h.552c.1.3.987,1.888.987,1.888s.659-1.519.8-1.888h.374c-.181.384-1.857,4.015-1.857,4.015h-.39Z" transform="translate(-357.161 -82.956)" fill="#231916"/>
    <path id="Path_345" data-name="Path 345" d="M338.563,106.4v.328a1.737,1.737,0,0,1-.893.193,1.355,1.355,0,0,1-.983-.359,1.3,1.3,0,0,1-.374-.983,1.349,1.349,0,0,1,.333-.954,1.264,1.264,0,0,1,.983-.39,1.084,1.084,0,0,1,.821.324,1.694,1.694,0,0,1,.345,1.129l-1.975-.014a.954.954,0,0,0,.234.681.874.874,0,0,0,.757.291,1.1,1.1,0,0,0,.751-.246Zm-1.749-.932h1.527a1.749,1.749,0,0,0-.144-.768.616.616,0,0,0-.575-.3.718.718,0,0,0-.616.3,1.4,1.4,0,0,0-.193.761Z" transform="translate(-267.284 -82.838)" fill="#231916"/>
    <path id="Path_346" data-name="Path 346" d="M386.773,106.4v.328a1.736,1.736,0,0,1-.893.193,1.355,1.355,0,0,1-.983-.359,1.3,1.3,0,0,1-.374-.983,1.349,1.349,0,0,1,.333-.954,1.262,1.262,0,0,1,.983-.39,1.084,1.084,0,0,1,.821.324,1.694,1.694,0,0,1,.345,1.129l-1.977-.014a.946.946,0,0,0,.236.681.874.874,0,0,0,.751.294A1.1,1.1,0,0,0,386.773,106.4Zm-1.743-.932h1.529a1.749,1.749,0,0,0-.144-.768.616.616,0,0,0-.575-.3.725.725,0,0,0-.616.3,1.42,1.42,0,0,0-.2.761Z" transform="translate(-305.599 -82.838)" fill="#231916"/>
    <path id="Path_347" data-name="Path 347" d="M422.952,105.208v1.2c-.012.205.166.335.228.32v.205a.9.9,0,0,1-.657-.281,2.626,2.626,0,0,1-.708.259c-.523.074-.965-.121-.965-.564,0-.384.259-.708,1.061-.821a1.521,1.521,0,0,0,.472-.109.277.277,0,0,0,.138-.265c0-.205-.025-.41-.174-.484a1.537,1.537,0,0,0-1.355.289v-.312a2.192,2.192,0,0,1,1.026-.38A.828.828,0,0,1,422.952,105.208Zm-.46,1.19v-.77s-.569.117-.661.144c-.41.117-.517.308-.517.534,0,.17.088.4.46.4a1.3,1.3,0,0,0,.718-.306Z" transform="translate(-334.471 -82.869)" fill="#231916"/>
    <path id="Path_348" data-name="Path 348" d="M596.733,106.4v.328a1.731,1.731,0,0,1-.893.193,1.359,1.359,0,0,1-.983-.359,1.3,1.3,0,0,1-.374-.983,1.34,1.34,0,0,1,.335-.954,1.26,1.26,0,0,1,.981-.39,1.088,1.088,0,0,1,.821.324,1.706,1.706,0,0,1,.345,1.129l-1.979-.014a.954.954,0,0,0,.236.681.878.878,0,0,0,.759.291A1.1,1.1,0,0,0,596.733,106.4Zm-1.751-.932h1.529a1.75,1.75,0,0,0-.144-.768.616.616,0,0,0-.575-.3.723.723,0,0,0-.616.3A1.4,1.4,0,0,0,594.982,105.466Z" transform="translate(-472.465 -82.838)" fill="#231916"/>
    <path id="Path_349" data-name="Path 349" d="M643.355,106.4v.328a1.747,1.747,0,0,1-.895.193,1.361,1.361,0,0,1-.983-.359,1.3,1.3,0,0,1-.373-.983,1.348,1.348,0,0,1,.335-.954,1.264,1.264,0,0,1,.983-.39,1.086,1.086,0,0,1,.821.324,1.705,1.705,0,0,1,.345,1.129l-1.976-.014a.946.946,0,0,0,.236.681.872.872,0,0,0,.753.294A1.1,1.1,0,0,0,643.355,106.4Zm-1.749-.932h1.527a1.777,1.777,0,0,0-.144-.768.626.626,0,0,0-.575-.3.724.724,0,0,0-.616.3A1.42,1.42,0,0,0,641.606,105.466Z" transform="translate(-509.516 -82.838)" fill="#231916"/>
    <path id="Path_350" data-name="Path 350" d="M621.976,105.208v1.2c-.012.205.166.335.228.32v.205a.9.9,0,0,1-.673-.281,2.594,2.594,0,0,1-.708.259c-.523.074-.963-.121-.963-.564,0-.384.257-.708,1.061-.821a1.521,1.521,0,0,0,.472-.109.277.277,0,0,0,.138-.265c0-.205-.027-.411-.177-.484a1.532,1.532,0,0,0-1.353.289v-.312a2.194,2.194,0,0,1,1.026-.38A.835.835,0,0,1,621.976,105.208Zm-.46,1.19v-.77s-.568.117-.661.144c-.41.117-.519.308-.519.534,0,.17.09.4.462.4A1.307,1.307,0,0,0,621.516,106.4Z" transform="translate(-492.635 -82.869)" fill="#231916"/>
    <path id="Path_351" data-name="Path 351" d="M471.546,101.533V99.119h-.4v-.205h.38a1.48,1.48,0,0,1,.355-1.172,1.437,1.437,0,0,1,.881-.312v.433s-.768-.152-.768.507v.544h.575v.205H472v2.41Z" transform="translate(-374.447 -77.433)" fill="#231916"/>
    <path id="Path_352" data-name="Path 352" d="M513.05,97.33v4.056l-.46.045v-.306a1.136,1.136,0,0,1-.915.347,1.254,1.254,0,0,1-1.231-1.32,1.3,1.3,0,0,1,1.231-1.365,1.1,1.1,0,0,1,.9.394V97.334Zm-.532,2.793c0-.671-.355-1.112-.768-1.112-.56,0-.792.536-.792,1.121s.312,1.145.786,1.145C512.167,101.277,512.518,100.793,512.518,100.123Z" transform="translate(-405.674 -77.353)" fill="#231916"/>
    <path id="Path_353" data-name="Path 353" d="M588.5,101.245v-4.1h.46v4.1Z" transform="translate(-467.711 -77.202)" fill="#231916"/>
    <path id="Path_354" data-name="Path 354" d="M635,101.245v-4.1h.46v4.1Z" transform="translate(-504.667 -77.202)" fill="#231916"/>
  </g>
</svg>
