<svg xmlns="http://www.w3.org/2000/svg" width="62.22" height="64.5" viewBox="0 0 62.22 64.5">
  <g id="Group_117" data-name="Group 117" transform="translate(-339.75 -4124.75)">
    <path id="Path_2591" data-name="Path 2591" d="M61.76,21.95a3.731,3.731,0,0,0-4.11-.8,3.772,3.772,0,0,0-2.26,3.13l-1.36,12.6a3.464,3.464,0,0,0-1.16.7L40.65,48.81a3.3,3.3,0,0,0-1.07,2.43V63.03a.971.971,0,0,0,.97.97H51.47a.971.971,0,0,0,.97-.97V57.89a1.364,1.364,0,0,1,.36-.92l9.17-9.95a3.25,3.25,0,0,0,.88-2.23l.01-20.2A3.758,3.758,0,0,0,61.76,21.95Zm-.85,22.84a1.383,1.383,0,0,1-.36.92l-9.17,9.94a3.293,3.293,0,0,0-.88,2.24v4.17H41.52V51.24a1.347,1.347,0,0,1,.44-1L54.18,39.01a1.427,1.427,0,0,1,.83-.37.075.075,0,0,1,.05-.01,1.528,1.528,0,0,1,1.49.73,1.483,1.483,0,0,1,.22.8,1.531,1.531,0,0,1-.54,1.18l-7.72,6.68a.971.971,0,1,0,1.27,1.47l7.72-6.68A3.493,3.493,0,0,0,56,36.76l1.32-12.27a1.882,1.882,0,0,1,1.07-1.55,1.8,1.8,0,0,1,2,.38,1.847,1.847,0,0,1,.53,1.27Z" transform="translate(338.86 4125)" fill="#1a202e" stroke="#fbf9f9" stroke-width="0.5"/>
    <path id="Path_2593" data-name="Path 2593" d="M23.35,48.81,11.13,37.58a3.464,3.464,0,0,0-1.16-.7L8.61,24.28a3.742,3.742,0,0,0-7.47.31l.01,20.2a3.345,3.345,0,0,0,.88,2.23l9.17,9.95a1.364,1.364,0,0,1,.36.92v5.14a.971.971,0,0,0,.97.97H23.45a.971.971,0,0,0,.97-.97V51.24A3.3,3.3,0,0,0,23.35,48.81Zm-.87,13.25H13.5V57.89a3.293,3.293,0,0,0-.88-2.24L3.45,45.71a1.383,1.383,0,0,1-.36-.92l-.01-20.2a1.847,1.847,0,0,1,.53-1.27,1.815,1.815,0,0,1,2-.38,1.882,1.882,0,0,1,1.07,1.55L8,36.76a3.495,3.495,0,0,0-1.5,6.05l7.72,6.68a.971.971,0,1,0,1.27-1.47L7.76,41.34a1.555,1.555,0,0,1-.53-1.18,1.483,1.483,0,0,1,.22-.8,1.536,1.536,0,0,1,1.49-.73h.02a.037.037,0,0,1,.03.01,1.4,1.4,0,0,1,.83.37L22.04,50.24a1.347,1.347,0,0,1,.44,1Z" transform="translate(338.86 4125)" fill="#1a202e" stroke="#fbf9f9" stroke-width="0.5"/>
    <path id="Path_2595" data-name="Path 2595" d="M41.41,10.89c-.01-.01-.01-.02-.02-.03l-.03-.03a12.282,12.282,0,0,0-18.72,0l-.03.03c-.01.01-.01.02-.02.03a12.782,12.782,0,0,0,0,16.55c.01.01.01.02.02.03l.03.03a12.272,12.272,0,0,0,18.72-.01c.01-.01.02-.01.03-.02s.01-.02.02-.03a12.782,12.782,0,0,0,0-16.55ZM27.24,9.61a12.614,12.614,0,0,0-1.28,2.63c-.4-.26-.79-.55-1.19-.85A10.773,10.773,0,0,1,27.24,9.61Zm-3.73,3.25a19.009,19.009,0,0,0,1.87,1.29,21.192,21.192,0,0,0-.54,4.04H21.53A10.86,10.86,0,0,1,23.51,12.86Zm0,12.61a10.859,10.859,0,0,1-1.98-5.34h3.31a21.192,21.192,0,0,0,.54,4.04A19.152,19.152,0,0,0,23.51,25.47Zm1.26,1.47c.4-.31.79-.59,1.19-.85a12.614,12.614,0,0,0,1.28,2.63A10.773,10.773,0,0,1,24.77,26.94Zm6.26,2.75c-1.38-.55-2.58-2.23-3.36-4.55a10.75,10.75,0,0,1,3.36-.97Zm0-7.48a12.346,12.346,0,0,0-3.87,1.02,19.907,19.907,0,0,1-.38-3.1h4.25Zm0-4.02H26.78a20.211,20.211,0,0,1,.38-3.1,12.369,12.369,0,0,0,3.87,1.03v2.07Zm0-4.03a10.515,10.515,0,0,1-3.36-.98c.78-2.31,1.98-4,3.36-4.55Zm9.46-1.3a10.86,10.86,0,0,1,1.98,5.33H39.16a21.192,21.192,0,0,0-.54-4.04A17.891,17.891,0,0,0,40.49,12.86Zm-1.26-1.47c-.4.3-.79.59-1.19.85a12.614,12.614,0,0,0-1.28-2.63A10.773,10.773,0,0,1,39.23,11.39ZM32.97,8.63c1.38.55,2.58,2.24,3.36,4.55a10.442,10.442,0,0,1-3.36.98Zm0,7.49a12.369,12.369,0,0,0,3.87-1.03,20.211,20.211,0,0,1,.38,3.1H32.97Zm0,4.01h4.25a20.19,20.19,0,0,1-.38,3.11,12.1,12.1,0,0,0-3.87-1.03Zm0,9.56V24.17a10.674,10.674,0,0,1,3.36.97C35.55,27.46,34.35,29.14,32.97,29.69Zm3.79-.97a12.614,12.614,0,0,0,1.28-2.63c.4.26.79.54,1.19.85A10.773,10.773,0,0,1,36.76,28.72Zm3.73-3.25a18.017,18.017,0,0,0-1.87-1.3,21.192,21.192,0,0,0,.54-4.04h3.31A10.859,10.859,0,0,1,40.49,25.47Z" transform="translate(338.86 4125)" fill="#1a202e" stroke="#fbf9f9" stroke-width="0.5"/>
    <path id="Path_2596" data-name="Path 2596" d="M50.43,16.01l-3.7-.89a14.629,14.629,0,0,0-1.46-3.52l1.99-3.24a.971.971,0,0,0-.15-1.19L43.99,4.05a.954.954,0,0,0-1.19-.14L39.56,5.89a15.483,15.483,0,0,0-3.52-1.46L35.15.74A.954.954,0,0,0,34.21,0H29.79a.971.971,0,0,0-.94.74l-.89,3.69a15.483,15.483,0,0,0-3.52,1.46L21.2,3.91a.954.954,0,0,0-1.19.14L16.89,7.17a.971.971,0,0,0-.15,1.19l1.99,3.24a14.629,14.629,0,0,0-1.46,3.52l-3.7.89a.985.985,0,0,0-.74.95v4.41a.964.964,0,0,0,.74.94l3.7.89a14.533,14.533,0,0,0,1.46,3.53l-1.99,3.24a.971.971,0,0,0,.15,1.19l3.12,3.12a.967.967,0,0,0,1.19.14l3.24-1.98a15.482,15.482,0,0,0,3.52,1.46l.89,3.69a.971.971,0,0,0,.94.74h4.42a.954.954,0,0,0,.94-.74l.89-3.69a15.483,15.483,0,0,0,3.52-1.46l3.24,1.98a.967.967,0,0,0,1.19-.14l3.12-3.12a.971.971,0,0,0,.15-1.19l-1.99-3.24a14.533,14.533,0,0,0,1.46-3.53l3.7-.89a.964.964,0,0,0,.74-.94V16.96A.985.985,0,0,0,50.43,16.01Zm-1.2,4.6-3.52.85a.947.947,0,0,0-.72.72,13.235,13.235,0,0,1-1.67,4.04.962.962,0,0,0-.01,1.02l1.89,3.09-2.04,2.04-3.09-1.89a.984.984,0,0,0-1.02,0,13.349,13.349,0,0,1-4.03,1.68.977.977,0,0,0-.73.71l-.85,3.52H30.56l-.85-3.52a.977.977,0,0,0-.73-.71,13.349,13.349,0,0,1-4.03-1.68.984.984,0,0,0-1.02,0l-3.09,1.89L18.8,30.33l1.89-3.09a.984.984,0,0,0-.01-1.02,13.235,13.235,0,0,1-1.67-4.04.947.947,0,0,0-.72-.72l-3.52-.85V17.72l3.52-.85a.962.962,0,0,0,.72-.72,13.235,13.235,0,0,1,1.67-4.04.984.984,0,0,0,.01-1.02L18.8,8l2.04-2.04,3.09,1.89a.962.962,0,0,0,1.02-.01,13.327,13.327,0,0,1,4.03-1.67.974.974,0,0,0,.73-.72l.85-3.52h2.88l.85,3.52a.974.974,0,0,0,.73.72,13.327,13.327,0,0,1,4.03,1.67.963.963,0,0,0,1.02.01l3.09-1.89L45.2,8l-1.89,3.09a.962.962,0,0,0,.01,1.02,13.033,13.033,0,0,1,1.67,4.04.962.962,0,0,0,.72.72l3.52.85Z" transform="translate(338.86 4125)" fill="#1a202e" stroke="#fbf9f9" stroke-width="0.5"/>
  </g>
</svg>
