<svg xmlns="http://www.w3.org/2000/svg" width="64.156" height="61.948" viewBox="0 0 64.156 61.948">
  <g id="Group_119" data-name="Group 119" transform="translate(-471.055 -4298.25)">
    <path id="path5481-60-9" d="M4.759,49.145A2.794,2.794,0,0,0,2,51.942V68.913a2.794,2.794,0,0,0,2.758,2.8H9.416a2.775,2.775,0,0,0,2.642-2.039H45.7s.069,0,.043,0h.082a4.643,4.643,0,0,0,1.821-.35A2.438,2.438,0,0,0,48.452,69l15.084-9.579a4.851,4.851,0,0,0,1.513-6.583h0l-.424-.7a4.624,4.624,0,0,0-4.673-2.21v-.02a4.648,4.648,0,0,0-1.735.665L45.588,58.012a4.927,4.927,0,0,0-1.681-3.63,6.435,6.435,0,0,0-4.089-1.233H34.363a15.209,15.209,0,0,1-3.825-.891,18.77,18.77,0,0,0-4.3-1.089H20.719A14.267,14.267,0,0,0,15.634,52.3a12.489,12.489,0,0,1-3.089.98h-.37V51.942a2.794,2.794,0,0,0-2.758-2.8Zm0,1.992H9.416a.764.764,0,0,1,.766.805V68.913a.764.764,0,0,1-.766.805H4.759a.764.764,0,0,1-.766-.805V51.942a.764.764,0,0,1,.766-.805Zm56.263.739a2.613,2.613,0,0,1,1.895,1.284l.428.7a2.867,2.867,0,0,1-.875,3.863L47.381,67.3c-.011,0-.146.042-.494.171l-.035.02-.031.02a3.2,3.2,0,0,1-1.074.171H12.175V55.273h.37a10.819,10.819,0,0,0,3.809-1.117,12.206,12.206,0,0,1,4.373-1h5.392a19.729,19.729,0,0,1,3.809,1,15.159,15.159,0,0,0,4.435.988h5.455a4.554,4.554,0,0,1,2.844.8A2.848,2.848,0,0,1,43.673,58.4a2.915,2.915,0,0,1-.506,1.587,3.879,3.879,0,0,1-.642.755,4.1,4.1,0,0,1-2.708.747H28.733v1.992c3.69,0,7.6.019,11.225-.047a7.362,7.362,0,0,0,5.233-2.879l14.069-8.291h.012a2.6,2.6,0,0,1,1.751-.393Z" transform="translate(469.254 4288.287)" stroke="#fff" stroke-width="0.4"/>
    <path id="Icon_awesome-user-plus" data-name="Icon awesome-user-plus" d="M43.875,14.625h-4.5v-4.5A1.128,1.128,0,0,0,38.25,9H36a1.128,1.128,0,0,0-1.125,1.125v4.5h-4.5A1.128,1.128,0,0,0,29.25,15.75V18a1.128,1.128,0,0,0,1.125,1.125h4.5v4.5A1.128,1.128,0,0,0,36,24.75h2.25a1.128,1.128,0,0,0,1.125-1.125v-4.5h4.5A1.128,1.128,0,0,0,45,18V15.75A1.128,1.128,0,0,0,43.875,14.625ZM15.75,18a9,9,0,1,0-9-9A9,9,0,0,0,15.75,18Zm6.3,2.25H20.876a12.24,12.24,0,0,1-10.252,0H9.45A9.452,9.452,0,0,0,0,29.7v2.925A3.376,3.376,0,0,0,3.375,36h24.75A3.376,3.376,0,0,0,31.5,32.625V29.7A9.452,9.452,0,0,0,22.05,20.25Z" transform="translate(487 4299)" fill="none" stroke="#000" stroke-width="1.5"/>
  </g>
</svg>
