<svg xmlns="http://www.w3.org/2000/svg" width="61.241" height="61.241" viewBox="0 0 61.241 61.241">
  <g id="diffusion" transform="translate(0.5 0.5)">
    <path id="Path_2606" data-name="Path 2606" d="M3.627.37a4,4,0,1,1-4,4A4,4,0,0,1,3.627.37Z" transform="translate(26.456 25.785)" stroke="#fff" stroke-width="1"/>
    <path id="Path_2586" data-name="Path 2586" d="M19.767,30.12A10.354,10.354,0,1,0,30.12,19.767,10.354,10.354,0,0,0,19.767,30.12ZM30.12,24.473a5.648,5.648,0,1,1-5.648,5.648A5.648,5.648,0,0,1,30.12,24.473Zm0-6.589a.941.941,0,0,0,.941-.941V12.109a.941.941,0,0,0,1.313-1.233L30.963,8.053a.941.941,0,0,0-1.685,0l-1.412,2.824a.941.941,0,0,0,1.313,1.233v4.833A.941.941,0,0,0,30.12,17.884ZM30.12,0a2.824,2.824,0,1,0,2.824,2.824A2.824,2.824,0,0,0,30.12,0Zm0,3.765a.941.941,0,1,1,.941-.941A.941.941,0,0,1,30.12,3.765Zm0,38.592a.941.941,0,0,0-.941.941v4.833a.941.941,0,0,0-1.313,1.238l1.412,2.824a.941.941,0,0,0,1.685,0l1.412-2.824a.941.941,0,0,0-1.313-1.238V43.3A.941.941,0,0,0,30.12,42.357Zm0,17.884A2.824,2.824,0,1,0,27.3,57.417,2.824,2.824,0,0,0,30.12,60.241Zm0-3.765a.941.941,0,1,1-.941.941A.941.941,0,0,1,30.12,56.476Zm22.068-27.2-2.824-1.412a.941.941,0,0,0-1.233,1.313H43.3a.941.941,0,0,0,0,1.883h4.833a.941.941,0,0,0,1.238,1.313l2.824-1.412a.941.941,0,0,0,0-1.685ZM57.417,27.3a2.824,2.824,0,1,0,2.824,2.824A2.824,2.824,0,0,0,57.417,27.3Zm0,3.765a.941.941,0,1,1,.941-.941A.941.941,0,0,1,57.417,31.062ZM7.53,30.12a.941.941,0,0,0,.522.842l2.824,1.412a.941.941,0,0,0,1.233-1.313h4.833a.941.941,0,0,0,0-1.883H12.109a.941.941,0,0,0-1.233-1.313L8.053,29.278A.941.941,0,0,0,7.53,30.12ZM0,30.12A2.824,2.824,0,1,0,2.824,27.3,2.824,2.824,0,0,0,0,30.12Zm2.824-.941a.941.941,0,1,1-.941.941.941.941,0,0,1,.941-.941ZM47.011,39.486h.052l3.149-.24a.941.941,0,0,0,.635-1.558l-2.08-2.353a.941.941,0,0,0-1.638.748l-4.476-1.826A.941.941,0,0,0,41.943,36l4.476,1.826a.941.941,0,0,0,.574,1.685Zm7.309,3.572a2.824,2.824,0,1,0-1.548-3.68,2.824,2.824,0,0,0,1.548,3.68Zm.2-2.97a.941.941,0,1,1,0,.722A.941.941,0,0,1,54.518,40.088ZM13.178,20.755l-3.149.24a.941.941,0,0,0-.635,1.558l2.08,2.353a.941.941,0,0,0,1.638-.748l4.476,1.826a.941.941,0,0,0,.711-1.741l-4.476-1.826a.941.941,0,0,0-.645-1.661ZM5.921,17.183a2.824,2.824,0,1,0,1.548,3.68,2.824,2.824,0,0,0-1.548-3.68Zm-.2,2.97a.941.941,0,1,1,0-.722A.941.941,0,0,1,5.723,20.152ZM35.768,48.659l2.424,2.024a.941.941,0,0,0,1.544-.673l.165-3.153a.939.939,0,0,0-1.694-.607L36.239,41.82a.942.942,0,1,0-1.727.753L36.446,47a.941.941,0,0,0-.706,1.657Zm7.864,5.346a2.824,2.824,0,1,0-1.459,3.718A2.824,2.824,0,0,0,43.632,54.005Zm-1.713,1.473a.941.941,0,1,1,0-.72.941.941,0,0,1,0,.72Zm-17.446-43.9L22.049,9.559a.941.941,0,0,0-1.544.673l-.165,3.153a.941.941,0,0,0,.889.988h.052a.941.941,0,0,0,.758-.381L24,18.421a.942.942,0,1,0,1.727-.753L23.8,13.239a.941.941,0,0,0,.678-1.657Zm-5.28-9.3a2.824,2.824,0,1,0,2.588,1.694,2.824,2.824,0,0,0-2.588-1.694Zm.875,3.167a.941.941,0,1,1,0-.72.941.941,0,0,1,0,.72Zm5.177,35.9a.941.941,0,0,0-1.238.471l-1.93,4.433a.941.941,0,0,0-1.694.607l.169,3.153a.941.941,0,0,0,1.544.673l2.419-2.028A.941.941,0,0,0,23.8,47l1.925-4.433A.941.941,0,0,0,25.245,41.345Zm-7.13,16.4a2.824,2.824,0,1,0-1.464-3.713,2.824,2.824,0,0,0,1.464,3.713Zm.264-2.965a.453.453,0,1,1-.024,0ZM35,18.9a.941.941,0,0,0,1.238-.471l1.925-4.433a.941.941,0,0,0,.758.381h.052a.941.941,0,0,0,.889-.988l-.169-3.153a.941.941,0,0,0-1.544-.673l-2.419,2.028a.941.941,0,0,0,.711,1.657l-1.925,4.433A.941.941,0,0,0,35,18.9Zm7.13-16.4A2.824,2.824,0,1,0,43.59,6.208a2.824,2.824,0,0,0-1.464-3.713Zm-.24,2.965a1.111,1.111,0,1,0,0,.014ZM14.194,38.672a.941.941,0,0,0-.367-.814l4.466-1.845a.942.942,0,1,0-.72-1.741l-4.466,1.845a.941.941,0,0,0-1.643-.744L9.413,37.759a.941.941,0,0,0,.64,1.558l3.125.216h.071A.941.941,0,0,0,14.194,38.672ZM4.885,37.7A2.824,2.824,0,1,0,7.5,39.448,2.824,2.824,0,0,0,4.885,37.7Zm.871,3.186a.941.941,0,1,1,0-.72A.941.941,0,0,1,5.756,40.889ZM46.047,21.569a.941.941,0,0,0,.367.814l-4.466,1.845a.942.942,0,1,0,.72,1.741l4.471-1.845a.941.941,0,0,0,1.643.744l2.071-2.381a.941.941,0,0,0-.64-1.558l-3.149-.221a.941.941,0,0,0-1.017.861Zm10.387.753a2.824,2.824,0,1,0-1.078.216A2.824,2.824,0,0,0,56.434,22.322Zm-1.948-2.254a.718.718,0,1,0,0-.014Zm-9.055,26.3a.941.941,0,0,0,.894-1.238l-1-3a.941.941,0,0,0-1.8.056L40.1,38.775a.942.942,0,0,0-1.332,1.332l3.417,3.417a.941.941,0,0,0-.056,1.8l2.993,1A.941.941,0,0,0,45.43,46.371Zm3.986,5.869a2.824,2.824,0,1,0-2-.828A2.824,2.824,0,0,0,49.416,52.24Zm-.664-3.492a.474.474,0,1,0,0,.009Zm-34.606-34.6a.941.941,0,0,0-.226.941l1,2.993a.941.941,0,0,0,1.8-.056l3.417,3.417A.942.942,0,0,0,21.47,20.11l-3.417-3.417a.941.941,0,0,0,.056-1.8l-2.993-1a.941.941,0,0,0-.97.254ZM10.825,8a2.824,2.824,0,1,0,2,.828,2.824,2.824,0,0,0-2-.828Zm.659,3.483a.941.941,0,1,1,.282-.659A.941.941,0,0,1,11.483,11.483Zm3.327,34.888a.941.941,0,0,0,.3-.047l2.993-1a.941.941,0,0,0-.056-1.8l3.417-3.417a.942.942,0,1,0-1.332-1.332l-3.417,3.417a.941.941,0,0,0-1.8-.056l-1,2.993a.941.941,0,0,0,.894,1.238Zm-3.986.221a2.824,2.824,0,1,0,2,.828,2.824,2.824,0,0,0-2-.828Zm.664,3.492a.941.941,0,1,1,.278-.668.941.941,0,0,1-.278.668ZM45.134,13.921l-3,1a.941.941,0,0,0,.056,1.8l-3.417,3.417a.942.942,0,0,0,1.332,1.332l3.417-3.417a.941.941,0,0,0,1.8.056l1-2.993a.941.941,0,0,0-1.191-1.191ZM49.416,8a2.824,2.824,0,1,0,2,.828A2.824,2.824,0,0,0,49.416,8Zm.664,3.487a.545.545,0,1,1,.009,0Z" transform="translate(0)" stroke="#fff" stroke-width="1"/>
  </g>
</svg>
