<svg xmlns="http://www.w3.org/2000/svg" width="65.43" height="67.012" viewBox="0 0 65.43 67.012">
  <g id="dislike" transform="translate(1.5 1.5)">
    <path id="Path_2572" data-name="Path 2572" d="M27.38,22.96H44.41a3.256,3.256,0,0,1,3.25,3.25V58.9a3.256,3.256,0,0,1-3.25,3.25H27.39a3.256,3.256,0,0,1-3.25-3.25V26.21A3.248,3.248,0,0,1,27.38,22.96ZM43.01,27.6H28.77V57.51H43.01ZM3.1,59.36H9.21a2.32,2.32,0,1,1,0,4.64H3.1a2.32,2.32,0,1,1,0-4.64Z" transform="translate(14.77 -22.96)" stroke="#fff" stroke-width="3"/>
    <path id="Path_2573" data-name="Path 2573" d="M47.15,22.96H60.89a2.32,2.32,0,1,1,0,4.64H47.15a2.066,2.066,0,0,0-2.04,2.04,2.042,2.042,0,0,0,2.04,2.04h11.2a2.32,2.32,0,1,1,0,4.64H47.15a6.661,6.661,0,0,1-4.7-11.39A6.532,6.532,0,0,1,47.15,22.96Z" transform="translate(-40.48 4.72)" stroke="#fff" stroke-width="3"/>
    <path id="Path_2574" data-name="Path 2574" d="M47.16,31.67H59.11a2.32,2.32,0,1,1,0,4.64H47.16a2.066,2.066,0,0,0-2.04,2.04,2.042,2.042,0,0,0,2.04,2.04,2.32,2.32,0,1,1,0,4.64,6.661,6.661,0,0,1-4.7-11.39A6.532,6.532,0,0,1,47.16,31.67Z" transform="translate(-38.71 -12.7)" stroke="#fff" stroke-width="3"/>
    <path id="Path_2575" data-name="Path 2575" d="M50.52,40.39h6.82a2.32,2.32,0,1,1,0,4.64H50.52a3.412,3.412,0,0,0-2.16.73,1.793,1.793,0,0,0-.7,1.3c0,1.09,1.33,2.04,2.86,2.04a2.32,2.32,0,1,1,0,4.64c-4.13,0-7.49-2.99-7.49-6.67a6.372,6.372,0,0,1,2.35-4.85A7.916,7.916,0,0,1,50.52,40.39Z" transform="translate(-39.48 -30.13)" stroke="#fff" stroke-width="3"/>
    <path id="Path_2576" data-name="Path 2576" d="M17.57,0H45.55a2.322,2.322,0,0,1,2.32,2.32v30.13a2.319,2.319,0,0,1-.46,1.39c-10.81,14.42-11.07,22.82-10.89,25.05a3.239,3.239,0,0,1-2.73,3.43c-3.91.6-6.18-.94-7.4-2.35-5.3-6.09-.82-21.71-.29-23.47a2.322,2.322,0,0,1,4.45,1.33c-1.83,6.14-3.25,16.12-.65,19.1a2.6,2.6,0,0,0,1.97.88c.06-4.19,1.68-12.98,11.38-26.12V4.637H17.58c-1.47,0-2.71.93-2.71,2.04s1.24,2.04,2.71,2.04h6.03a2.32,2.32,0,1,1,0,4.64H17.58c-4.05,0-7.34-2.99-7.34-6.67S13.52,0,17.57,0Zm37.41,6.12a2.32,2.32,0,0,1,.01,4.64h-.01a2.32,2.32,0,1,1,0-4.64Z" transform="translate(-4.33 1.553)" stroke="#fff" stroke-width="3"/>
    <g id="Group_109" data-name="Group 109" transform="translate(48.34 14.62)">
      <path id="Path_2577" data-name="Path 2577" d="M12.55,24.81a2.322,2.322,0,0,1,2.32,2.32V47.06a2.32,2.32,0,0,1-4.64,0V27.13A2.328,2.328,0,0,1,12.55,24.81Z" transform="translate(-10.23 -24.81)" stroke="#fff" stroke-width="3"/>
    </g>
  </g>
</svg>
