<svg xmlns="http://www.w3.org/2000/svg" width="64.268" height="72.209" viewBox="0 0 64.268 72.209">
  <g id="Group_124" data-name="Group 124" transform="translate(-475.993 -3780.039)">
    <path id="rect4755" d="M11.9,10.2l2.778,5.478h-2.76v2.208H15.8l.3.591v1.617H11.919V22.3H16.1v4.417h2.208V22.3h4.279V20.093H18.307V18.661l.393-.776h3.886V15.676H19.821L22.6,10.2h-2.51l-2.773,5.478h-.121L14.416,10.2H11.9Z" transform="translate(491 3798)" stroke="#f5f5f5" stroke-width="0.5"/>
    <g id="hand-money" transform="translate(474.254 2763.925)">
      <path id="path5481-60-9" d="M58.33,0a2.77,2.77,0,0,0-2.646,2.043H21.921V2.06a4.61,4.61,0,0,0-1.825.35,2.408,2.408,0,0,0-.8.327L4.211,12.316A4.851,4.851,0,0,0,2.7,18.9h0l.424.7A4.559,4.559,0,0,0,9.533,21.14h0L22.158,13.7a4.927,4.927,0,0,0,1.681,3.63,6.434,6.434,0,0,0,4.089,1.233h5.455a15.209,15.209,0,0,1,3.825.891,18.77,18.77,0,0,0,4.3,1.089h5.521a14.271,14.271,0,0,0,5.085-1.128,12.5,12.5,0,0,1,3.093-.98h.37V19.77a2.794,2.794,0,0,0,2.758,2.8h4.653a2.8,2.8,0,0,0,2.762-2.8V2.8A2.794,2.794,0,0,0,62.983,0Zm0,1.992h4.653a.764.764,0,0,1,.77.8V19.77a.767.767,0,0,1-.77.805H58.33a.764.764,0,0,1-.766-.805V2.8a.761.761,0,0,1,.766-.8ZM22,4.037H55.571V16.444H55.2a10.83,10.83,0,0,0-3.813,1.113,12.221,12.221,0,0,1-4.369,1H41.612a19.883,19.883,0,0,1-3.793-.992,15.16,15.16,0,0,0-4.435-.988H27.928a4.554,4.554,0,0,1-2.844-.8,2.848,2.848,0,0,1-1.012-2.463,2.915,2.915,0,0,1,.5-1.584,3.869,3.869,0,0,1,.646-.759,4.1,4.1,0,0,1,2.708-.751H39.009V8.227c-3.72,0-7.611-.023-11.26.054a7.666,7.666,0,0,0-5.194,2.871L8.487,19.444H8.475a2.61,2.61,0,0,1-.988.381,2.583,2.583,0,0,1-2.657-1.272L4.4,17.86A2.867,2.867,0,0,1,5.277,14L20.365,4.414a4.592,4.592,0,0,0,.494-.167l.035-.019.031-.019A3.167,3.167,0,0,1,22,4.037ZM33.834,20.914a14.94,14.94,0,1,0,14.979,14.94,1,1,0,0,0-.078-.389h0a14.94,14.94,0,0,0-14.9-14.547Zm0,1.992A12.948,12.948,0,1,1,20.925,35.854,12.965,12.965,0,0,1,33.834,22.906ZM4.759,49.145A2.794,2.794,0,0,0,2,51.942V68.913a2.794,2.794,0,0,0,2.758,2.8H9.416a2.775,2.775,0,0,0,2.642-2.039H45.7s.069,0,.043,0h.082a4.643,4.643,0,0,0,1.821-.35A2.438,2.438,0,0,0,48.452,69l15.084-9.579a4.851,4.851,0,0,0,1.513-6.583h0l-.424-.7a4.624,4.624,0,0,0-4.673-2.21v-.02a4.648,4.648,0,0,0-1.735.665L45.588,58.012a4.927,4.927,0,0,0-1.681-3.63,6.435,6.435,0,0,0-4.089-1.233H34.363a15.209,15.209,0,0,1-3.825-.891,18.77,18.77,0,0,0-4.3-1.089H20.719A14.267,14.267,0,0,0,15.634,52.3a12.489,12.489,0,0,1-3.089.98h-.37V51.942a2.794,2.794,0,0,0-2.758-2.8Zm0,1.992H9.416a.764.764,0,0,1,.766.805V68.913a.764.764,0,0,1-.766.805H4.759a.764.764,0,0,1-.766-.805V51.942a.764.764,0,0,1,.766-.805Zm56.263.739a2.613,2.613,0,0,1,1.895,1.284l.428.7a2.867,2.867,0,0,1-.875,3.863L47.381,67.3c-.011,0-.146.042-.494.171l-.035.02-.031.02a3.2,3.2,0,0,1-1.074.171H12.175V55.273h.37a10.819,10.819,0,0,0,3.809-1.117,12.206,12.206,0,0,1,4.373-1h5.392a19.729,19.729,0,0,1,3.809,1,15.159,15.159,0,0,0,4.435.988h5.455a4.554,4.554,0,0,1,2.844.8A2.848,2.848,0,0,1,43.673,58.4a2.915,2.915,0,0,1-.506,1.587,3.879,3.879,0,0,1-.642.755,4.1,4.1,0,0,1-2.708.747H28.733v1.992c3.69,0,7.6.019,11.225-.047a7.362,7.362,0,0,0,5.233-2.879l14.069-8.291h.012a2.6,2.6,0,0,1,1.751-.393Z" transform="translate(0 1016.362)" stroke="#f5f5f5" stroke-width="0.5"/>
    </g>
  </g>
</svg>
