<svg xmlns="http://www.w3.org/2000/svg" width="69.2" height="63.849" viewBox="0 0 69.2 63.849">
  <path id="high-five" d="M33.18,9.992a1.07,1.07,0,0,0,1.07-1.07V4.641a1.07,1.07,0,0,0-2.141,0V8.922A1.07,1.07,0,0,0,33.18,9.992Zm3.8-.113A1.07,1.07,0,0,0,38.418,9.4l2.141-4.281a1.071,1.071,0,1,0-1.916-.957L36.5,8.442a1.07,1.07,0,0,0,.479,1.436ZM27.939,9.4a1.071,1.071,0,1,0,1.916-.957L27.715,4.161a1.071,1.071,0,1,0-1.916.957ZM58.867,20.7V18.555a1.012,1.012,0,0,0-.021-.109A8.5,8.5,0,0,0,55.421,2.584a1.053,1.053,0,0,0-.313-.062h-.021a.961.961,0,0,0-.094.019c-.135,0-.261-.041-.4-.041a8.535,8.535,0,0,0-4.26,15.946,1.01,1.01,0,0,0-.03.109V20.7H47.319a3.192,3.192,0,0,1-1.781-.539L33.764,12.313c-.021-.015-.051-.011-.075-.024s-.032-.039-.056-.049l-.5-.086a1,1,0,0,0-.268.06,1.029,1.029,0,0,0-.2.045c-.03.017-.045.051-.073.071s-.064.017-.09.039l-9.53,7.625a3.211,3.211,0,0,1-1.993.7H18.2V18.555a1.01,1.01,0,0,0-.021-.109A8.535,8.535,0,0,0,13.914,2.5c-.146,0-.28.036-.428.043a1.017,1.017,0,0,0-.111-.021,1.036,1.036,0,0,0-.328.066A8.5,8.5,0,0,0,9.654,18.446a1.011,1.011,0,0,0-.021.109V20.7A9.633,9.633,0,0,0,0,30.328V43.172a5.352,5.352,0,0,0,5.352,5.352h1.07V62.438a3.211,3.211,0,0,0,3.211,3.211H18.4a3.211,3.211,0,0,0,3.211-3.008l-.2-19.4,2.068-14.486,7.963-6.368a7.456,7.456,0,0,0,1.852-2.246,7.443,7.443,0,0,0,2.156,2.278l9.588,6.39,2.061,14.432-.186,19.512A3.2,3.2,0,0,0,50.1,65.648h8.766a3.211,3.211,0,0,0,3.211-3.211V48.523h1.07A5.352,5.352,0,0,0,68.5,43.172V30.328A9.633,9.633,0,0,0,58.867,20.7ZM13.914,4.641a6.422,6.422,0,0,1,6.3,5.219L16.789,8.479a5.384,5.384,0,0,0-3.464-.184L7.608,9.919a6.422,6.422,0,0,1,6.306-5.279ZM7.6,12.107a1.017,1.017,0,0,0,.186-.015l6.131-1.74a3.211,3.211,0,0,1,2.081.111l3.947,1.593a1.07,1.07,0,0,0,.3.058,6.4,6.4,0,0,1-12.63,0Zm8.458,7.214v3.515a2.141,2.141,0,0,1-4.281,0V19.321a8.464,8.464,0,0,0,2.141.3,8.464,8.464,0,0,0,2.141-.3ZM6.422,43.172v3.211H5.352a3.211,3.211,0,0,1-3.211-3.211V42.1H6.422ZM18.4,63.508H14.984V49.594a1.07,1.07,0,0,0-2.141,0V63.508H9.633a1.07,1.07,0,0,1-1.07-1.07v-18.2h10.7l.188,18.3A1.07,1.07,0,0,1,18.4,63.508Zm3.41-36.157a1.07,1.07,0,0,0-.392.685L19.407,42.1H8.563V34.609a1.07,1.07,0,0,0-2.141,0v5.352H2.141V30.328a7.492,7.492,0,0,1,7.492-7.492,4.281,4.281,0,0,0,8.562,0h2.783a5.373,5.373,0,0,0,3.344-1.173l3.506-2.808V22.3a1.023,1.023,0,0,0,.041.2Zm10.3-11.161v.351A5.322,5.322,0,0,1,30.1,20.719l-.133.1v-3.68l2.141-1.713ZM54.586,4.641a6.422,6.422,0,0,1,6.306,5.277l-5.72-1.625a5.388,5.388,0,0,0-3.464.184L48.284,9.857a6.422,6.422,0,0,1,6.3-5.217Zm-6.315,7.471a1.07,1.07,0,0,0,.3-.058l3.943-1.59a3.237,3.237,0,0,1,2.081-.111l6.124,1.74a1,1,0,0,0,.186.015,6.4,6.4,0,0,1-12.63,0Zm8.455,7.21v3.515a2.141,2.141,0,0,1-4.281,0V19.321A7.691,7.691,0,0,0,56.727,19.321ZM36.391,20.432a5.319,5.319,0,0,1-2.141-4.243V15.2l2.141,1.424Zm23.547,24.88V62.438a1.07,1.07,0,0,1-1.07,1.07H55.656V49.594a1.07,1.07,0,0,0-2.141,0V63.508H50.1a1.07,1.07,0,0,1-1.07-.856l.2-18.409h10.7Zm6.422-2.141a3.211,3.211,0,0,1-3.211,3.211h-1.07V42.1h4.281Zm0-3.211H62.078V34.609a1.07,1.07,0,0,0-2.141,0V42.1H49.093l-2-14.066a1.07,1.07,0,0,0-.467-.739l-8.1-5.39V18.054l5.82,3.879a5.322,5.322,0,0,0,2.969.9H50.3a4.281,4.281,0,1,0,8.563,0,7.492,7.492,0,0,1,7.492,7.5Z" transform="translate(0.35 -2.15)" stroke="#f5f5f5" stroke-width="0.7"/>
</svg>
