<svg xmlns="http://www.w3.org/2000/svg" width="65.43" height="67.012" viewBox="0 0 65.43 67.012">
  <g id="like" transform="translate(0.72 1.512)">
    <path id="Path_2572" data-name="Path 2572" d="M21.06,64H4.03A3.256,3.256,0,0,1,.78,60.75V28.06a3.256,3.256,0,0,1,3.25-3.25H21.05a3.256,3.256,0,0,1,3.25,3.25V60.75A3.248,3.248,0,0,1,21.06,64ZM5.43,59.36H19.67V29.45H5.43ZM45.34,27.6H39.23a2.32,2.32,0,0,1,0-4.64h6.11a2.32,2.32,0,0,1,0,4.64Z" stroke="#f5f5f5" stroke-width="3"/>
    <path id="Path_2573" data-name="Path 2573" d="M56.54,36.32H42.8a2.32,2.32,0,0,1,0-4.64H56.54a2.066,2.066,0,0,0,2.04-2.04,2.042,2.042,0,0,0-2.04-2.04H45.34a2.32,2.32,0,0,1,0-4.64h11.2a6.661,6.661,0,0,1,4.7,11.39A6.532,6.532,0,0,1,56.54,36.32Z" stroke="#f5f5f5" stroke-width="3"/>
    <path id="Path_2574" data-name="Path 2574" d="M54.76,45.03H42.81a2.32,2.32,0,0,1,0-4.64H54.76a2.066,2.066,0,0,0,2.04-2.04,2.042,2.042,0,0,0-2.04-2.04,2.32,2.32,0,1,1,0-4.64,6.661,6.661,0,0,1,4.7,11.39A6.532,6.532,0,0,1,54.76,45.03Z" stroke="#f5f5f5" stroke-width="3"/>
    <path id="Path_2575" data-name="Path 2575" d="M52.17,53.74H45.35a2.32,2.32,0,1,1,0-4.64h6.82a3.412,3.412,0,0,0,2.16-.73,1.793,1.793,0,0,0,.7-1.3c0-1.09-1.33-2.04-2.86-2.04a2.32,2.32,0,0,1,0-4.64c4.13,0,7.49,2.99,7.49,6.67a6.372,6.372,0,0,1-2.35,4.85A7.916,7.916,0,0,1,52.17,53.74Z" stroke="#f5f5f5" stroke-width="3"/>
    <path id="Path_2576" data-name="Path 2576" d="M49.97,62.45H21.99a2.322,2.322,0,0,1-2.32-2.32V30a2.319,2.319,0,0,1,.46-1.39C30.94,14.19,31.2,5.79,31.02,3.56A3.239,3.239,0,0,1,33.75.13c3.91-.6,6.18.94,7.4,2.35,5.3,6.09.82,21.71.29,23.47a2.322,2.322,0,0,1-4.45-1.33c1.83-6.14,3.25-16.12.65-19.1a2.6,2.6,0,0,0-1.97-.88c-.06,4.19-1.68,12.98-11.38,26.12V57.81H49.96c1.47,0,2.71-.93,2.71-2.04s-1.24-2.04-2.71-2.04H43.93a2.32,2.32,0,1,1,0-4.64h6.03c4.05,0,7.34,2.99,7.34,6.67S54.02,62.45,49.97,62.45ZM12.56,56.33a2.32,2.32,0,0,1-.01-4.64h.01a2.32,2.32,0,1,1,0,4.64Z" stroke="#f5f5f5" stroke-width="3"/>
    <g id="Group_109" data-name="Group 109">
      <path id="Path_2577" data-name="Path 2577" d="M12.55,49.38a2.322,2.322,0,0,1-2.32-2.32V27.13a2.32,2.32,0,0,1,4.64,0V47.06A2.328,2.328,0,0,1,12.55,49.38Z" stroke="#f5f5f5" stroke-width="3"/>
    </g>
  </g>
</svg>
