<svg xmlns="http://www.w3.org/2000/svg" width="54" height="56.208" viewBox="0 0 54 56.208">
  <g id="layer1" transform="translate(-3.5 -1022.862)">
    <path id="rect4755" d="M34.917,3a4.4,4.4,0,0,0-2.885,7.729,4.349,4.349,0,0,0,0,6.625,4.349,4.349,0,0,0,0,6.625,4.349,4.349,0,0,0,0,6.625,4.349,4.349,0,0,0,0,6.625,4.349,4.349,0,0,0,0,6.625,4.349,4.349,0,0,0,0,6.625,4.4,4.4,0,0,0,2.885,7.729H52.583a4.4,4.4,0,0,0,2.885-7.729,4.349,4.349,0,0,0,0-6.625,4.349,4.349,0,0,0,0-6.625,4.349,4.349,0,0,0,0-6.625,4.349,4.349,0,0,0,0-6.625,4.349,4.349,0,0,0,0-6.625,4.349,4.349,0,0,0,0-6.625A4.4,4.4,0,0,0,52.583,3ZM30.5,53.792a4.4,4.4,0,0,0-1.531-3.312,4.349,4.349,0,0,0,0-6.625,4.349,4.349,0,0,0,0-6.625A4.4,4.4,0,0,0,26.083,29.5H24.552a13.25,13.25,0,1,0-14.6,0H8.417a4.4,4.4,0,0,0-2.885,7.729,4.349,4.349,0,0,0,0,6.625,4.349,4.349,0,0,0,0,6.625,4.4,4.4,0,0,0,2.885,7.729H26.083A4.432,4.432,0,0,0,30.5,53.792ZM34.917,5.208H52.583a2.208,2.208,0,0,1,0,4.417H34.917a2.208,2.208,0,1,1,0-4.417ZM17.25,7.417A11.042,11.042,0,1,1,6.208,18.458,11.025,11.025,0,0,1,17.25,7.417ZM11.9,10.2l2.778,5.478h-2.76v2.208H15.8l.3.591v1.617H11.919V22.3H16.1v4.417h2.208V22.3h4.279V20.093H18.307V18.661l.393-.776h3.886V15.676H19.821L22.6,10.2h-2.51l-2.773,5.478h-.121L14.416,10.2H11.9Zm23.015,1.635H52.583a2.208,2.208,0,0,1,0,4.417H34.917a2.208,2.208,0,1,1,0-4.417Zm0,6.625H52.583a2.208,2.208,0,0,1,0,4.417H34.917a2.208,2.208,0,1,1,0-4.417Zm0,6.625H52.583a2.208,2.208,0,0,1,0,4.417H34.917a2.208,2.208,0,1,1,0-4.417Zm-26.5,6.625H26.083a2.208,2.208,0,1,1,0,4.417H8.417a2.208,2.208,0,0,1,0-4.417Zm26.5,0H52.583a2.208,2.208,0,0,1,0,4.417H34.917a2.208,2.208,0,1,1,0-4.417Zm-26.5,6.625H26.083a2.208,2.208,0,1,1,0,4.417H8.417a2.208,2.208,0,0,1,0-4.417Zm26.5,0H52.583a2.208,2.208,0,0,1,0,4.417H34.917a2.208,2.208,0,1,1,0-4.417Zm-26.5,6.625H26.083a2.208,2.208,0,1,1,0,4.417H8.417a2.208,2.208,0,0,1,0-4.417Zm26.5,0H52.583a2.208,2.208,0,0,1,0,4.417H34.917a2.208,2.208,0,1,1,0-4.417Zm-26.5,6.625H26.083a2.208,2.208,0,1,1,0,4.417H8.417a2.208,2.208,0,1,1,0-4.417Zm26.5,0H52.583a2.208,2.208,0,0,1,0,4.417H34.917a2.208,2.208,0,1,1,0-4.417Z" transform="translate(0 1020.362)" stroke="#fff" stroke-width="1"/>
  </g>
</svg>
