<svg xmlns="http://www.w3.org/2000/svg" width="61.961" height="61.961" viewBox="0 0 61.961 61.961">
  <path id="Path_2585" data-name="Path 2585" d="M7.2,45.382h3.752a1.757,1.757,0,0,0,1.755-1.755V39.876a1.757,1.757,0,0,0-1.755-1.755H7.2a1.757,1.757,0,0,0-1.755,1.755v3.752A1.757,1.757,0,0,0,7.2,45.382Zm.061-5.446h3.631v3.631H7.261Zm26.876-.841a10.4,10.4,0,1,0-7.36-3.044,10.4,10.4,0,0,0,7.36,3.044Zm-.1-10.958H25.568a8.583,8.583,0,0,1,1.066-3.631h7.4a.908.908,0,0,0,0-1.815H27.989c.024-.025.047-.051.072-.076A8.593,8.593,0,1,1,40.213,34.767h0a8.588,8.588,0,0,1-14.572-4.815h8.394a.908.908,0,1,0,0-1.815ZM13.872,5.679a.908.908,0,1,0,.908.908.908.908,0,0,0-.908-.908ZM16.595,30.86a.908.908,0,0,0,.908.908h2.97a14.018,14.018,0,0,0,21.269,8.692l1.3,1.3a1.316,1.316,0,0,0,.063,1.79l8.12,8.12a4.165,4.165,0,1,0,5.891-5.891l-8.12-8.12a1.316,1.316,0,0,0-1.79-.063l-1.3-1.3A14.011,14.011,0,0,0,24.23,18.785q-.137.137-.268.276H17.5a.908.908,0,0,0,0,1.815h5.006a14.02,14.02,0,0,0-2.318,9.076H17.5a.908.908,0,0,0-.908.908Zm31.243,8.655h0l.221-.221,7.766,7.766a2.352,2.352,0,0,1,0,3.323h0a2.35,2.35,0,0,1-3.323,0l-7.766-7.766Zm-1.924-.643-1.6,1.6-1.1-1.1q.427-.363.83-.766t.766-.83Zm-20.4-18.8a12.157,12.157,0,1,1-3.588,8.623,12.2,12.2,0,0,1,3.588-8.623ZM57.423,0H4.538A4.543,4.543,0,0,0,0,4.538V57.423a4.543,4.543,0,0,0,4.538,4.538H57.423a4.543,4.543,0,0,0,4.538-4.538V4.538A4.543,4.543,0,0,0,57.423,0Zm2.723,57.423a2.726,2.726,0,0,1-2.723,2.723H4.538a2.726,2.726,0,0,1-2.723-2.723V12.707H60.146Zm0-46.531H1.815V4.538A2.726,2.726,0,0,1,4.538,1.816H57.423a2.726,2.726,0,0,1,2.723,2.723Zm-49.9-5.213a.908.908,0,1,0,.908.908.908.908,0,0,0-.908-.908ZM7.2,34.49h3.752a1.757,1.757,0,0,0,1.755-1.755V28.984a1.757,1.757,0,0,0-1.755-1.755H7.2a1.757,1.757,0,0,0-1.755,1.755v3.752A1.757,1.757,0,0,0,7.2,34.49Zm.061-5.446h3.631v3.631H7.261ZM7.2,56.274h3.752a1.757,1.757,0,0,0,1.755-1.755V50.767a1.757,1.757,0,0,0-1.755-1.755H7.2a1.757,1.757,0,0,0-1.755,1.755v3.752A1.757,1.757,0,0,0,7.2,56.274Zm.061-5.446h3.631v3.631H7.261ZM7.2,23.6h3.752a1.757,1.757,0,0,0,1.755-1.755V18.092a1.757,1.757,0,0,0-1.755-1.755H7.2a1.757,1.757,0,0,0-1.755,1.755v3.752A1.757,1.757,0,0,0,7.2,23.6Zm.061-5.446h3.631v3.631H7.261ZM17.5,53.551H48.347a.908.908,0,1,0,0-1.815H17.5a.908.908,0,0,0,0,1.815ZM6.611,5.679a.908.908,0,1,0,.908.908.908.908,0,0,0-.908-.908ZM17.5,42.659h5.641a.908.908,0,1,0,0-1.815H17.5a.908.908,0,0,0,0,1.815Z" transform="translate(0 0)" fill="#272a33"/>
</svg>
