<svg xmlns="http://www.w3.org/2000/svg" width="47.686" height="41.726" viewBox="0 0 47.686 41.726">
  <g id="Group_87" data-name="Group 87" transform="translate(-1088 -3774.248)">
    <g id="Group_86" data-name="Group 86">
      <path id="Icon_awesome-heart" data-name="Icon awesome-heart" d="M43.057,5.1C37.953.751,30.362,1.534,25.678,6.367L23.843,8.258,22.008,6.367C17.333,1.534,9.733.751,4.629,5.1a13.373,13.373,0,0,0-.922,19.363L21.729,43.072a2.92,2.92,0,0,0,4.219,0L43.97,24.464A13.365,13.365,0,0,0,43.057,5.1Z" transform="translate(1088.001 3772)" fill="#fbf9f9"/>
      <path id="Path_1969" data-name="Path 1969" d="M0,0S3.68,2.882,7.509,2.882,15.318,0,15.318,0" transform="translate(1104.5 3793.5)" fill="none" stroke="#ffbaba" stroke-linecap="round" stroke-width="3"/>
    </g>
  </g>
</svg>
