<svg xmlns="http://www.w3.org/2000/svg" width="47.713" height="47.713" viewBox="0 0 47.713 47.713">
  <path id="Icon_awesome-facebook-square" data-name="Icon awesome-facebook-square" d="M42.6,2.25H5.112A5.112,5.112,0,0,0,0,7.362V44.851a5.112,5.112,0,0,0,5.112,5.112H19.729V33.741H13.02V26.106h6.71V20.287c0-6.619,3.941-10.275,9.976-10.275a40.648,40.648,0,0,1,5.913.515v6.5h-3.33c-3.281,0-4.3,2.036-4.3,4.125v4.958h7.325l-1.172,7.635H27.983V49.963H42.6a5.112,5.112,0,0,0,5.112-5.112V7.362A5.112,5.112,0,0,0,42.6,2.25Z" transform="translate(0 -2.25)" fill="#fff"/>
</svg>
