<svg xmlns="http://www.w3.org/2000/svg" width="47.687" height="47.677" viewBox="0 0 47.687 47.677">
  <path id="Icon_awesome-instagram" data-name="Icon awesome-instagram" d="M23.844,13.852A12.224,12.224,0,1,0,36.067,26.076,12.2,12.2,0,0,0,23.844,13.852Zm0,20.171a7.947,7.947,0,1,1,7.947-7.947,7.961,7.961,0,0,1-7.947,7.947ZM39.419,13.352A2.851,2.851,0,1,1,36.567,10.5,2.845,2.845,0,0,1,39.419,13.352Zm8.1,2.894c-.181-3.819-1.053-7.2-3.851-9.99s-6.17-3.66-9.99-3.851c-3.936-.223-15.734-.223-19.671,0-3.809.181-7.192,1.053-9.99,3.841s-3.66,6.17-3.851,9.99c-.223,3.936-.223,15.734,0,19.671.181,3.819,1.053,7.2,3.851,9.99s6.17,3.66,9.99,3.851c3.936.223,15.734.223,19.671,0,3.819-.181,7.2-1.053,9.99-3.851s3.66-6.17,3.851-9.99c.223-3.936.223-15.724,0-19.66ZM42.429,40.13A8.046,8.046,0,0,1,37.9,44.662c-3.138,1.245-10.585.957-14.054.957S12.918,45.9,9.79,44.662A8.046,8.046,0,0,1,5.258,40.13C4.013,36.991,4.3,29.544,4.3,26.076s-.277-10.926.957-14.054A8.046,8.046,0,0,1,9.79,7.49c3.138-1.245,10.585-.957,14.054-.957S34.769,6.256,37.9,7.49a8.046,8.046,0,0,1,4.532,4.532c1.245,3.138.957,10.585.957,14.054S43.674,37,42.429,40.13Z" transform="translate(0.005 -2.237)" fill="#fff"/>
</svg>
