<svg xmlns="http://www.w3.org/2000/svg" width="300.573" height="90.621" viewBox="0 0 300.573 90.621">
  <g id="Group_1" data-name="Group 1" transform="translate(-2837 2583)">
    <path id="Path_3" data-name="Path 3" d="M107.78,80.21c-.16-.44-.41-.57-.66-.57h-.44c-.07,0-.1,0-.1-.11v-.41c0-.08,0-.11.13-.11h4c.19,0,.13,0,.13.11v.4c0,.08,0,.12-.14.12h-.3a.38.38,0,0,0-.38.56l2.33,7.31h0c.13-.33,2.23-6.16,2.26-6.76a1.48,1.48,0,0,0-.28-.84.68.68,0,0,0-.54-.29h-.33a.1.1,0,0,1-.11-.11v-.39c0-.08,0-.13.12-.13h4.13c.14,0,.11,0,.11.14v.37c0,.08,0,.12-.11.12h-.55c-.31,0-.43.35-.35.62l2.3,7.33h.07c.47-1.39,2.28-6.61,2.28-7.49,0-.21-.16-.44-.54-.44h-.43c-.09,0-.11,0-.11-.12v-.38c0-.08,0-.13.13-.13h3.16c.12,0,.1,0,.1.08v.43c0,.08,0,.12-.11.12h-.34a.78.78,0,0,0-.69.53c-.16.34-3.39,9.21-3.71,10-.06.16-.19.41-.41.41s-.33-.15-.39-.35l-2.87-8.32h-.06c-.15.44-2.95,8.2-3,8.37a.47.47,0,0,1-.41.3.32.32,0,0,1-.32-.25Z" transform="translate(2836.996 -2583)" fill="#fff"/>
    <path id="Path_4" data-name="Path 4" d="M125.15,85.91c-.13.37-.9,2.63-1,3.06a1.39,1.39,0,0,0,0,.33c0,.21.25.38.57.38h.66c.13,0,.16,0,.16.08v.4c0,.09,0,.15-.13.15h-3.74c-.22,0-.1-.09-.1-.2v-.3c0-.1,0-.13.1-.13h.47c.45,0,.73-.22,1-.71.15-.29,1.3-3.14,1.77-4.47.11-.31,1.39-3.73,1.55-4.15,0-.15.13-.44,0-.53a.46.46,0,0,1-.09-.19c0-.07,0-.13.16-.16a5.24,5.24,0,0,0,1.56-.79c.1-.1.16-.16.24-.16s.16.19.19.28c.29,1,1.52,4.53,1.81,5.54.38,1.24,1.39,4.19,1.61,4.61a1.2,1.2,0,0,0,1,.73h.51c.1,0,.13,0,.13.11v.33c0,.1,0,.19-.16.19h-4.56c-.13,0-.16-.09-.16-.19v-.31c0-.1,0-.13.13-.13h.41c.45,0,.57-.16.48-.59s-.76-2.59-.95-3.18Zm3.52-.63c-.16-.46-1.24-4.07-1.33-4.39s-.1-.28-.16-.28a.267.267,0,0,0-.21.2c-.05.14-1.49,4.11-1.6,4.47Z" transform="translate(2836.996 -2583)" fill="#fff"/>
    <path id="Path_5" data-name="Path 5" d="M137.48,79.72H137a8.849,8.849,0,0,0-2.31.22,5,5,0,0,0-1.41,1.81.126.126,0,0,1-.17.11l-.32-.11a.12.12,0,0,1-.06-.16c.16-.6.69-2.69.76-2.91s.12-.29.19-.29a.452.452,0,0,1,.25.16,1.39,1.39,0,0,0,1.08.41c.85,0,1.52.1,3.07.1H139c1.75,0,2.41-.07,3.14-.1a2.9,2.9,0,0,0,1.14-.41c.13-.09.19-.16.28-.16s.13.07.16.25.35,2.25.48,3c0,.1,0,.13-.07.15l-.31.11c-.07,0-.1,0-.15-.13A6,6,0,0,0,142.39,80a7.37,7.37,0,0,0-2.43-.29h-.45v8.44c0,1.2.16,1.52.54,1.52H141c.06,0,.09.06.09.14v.34c0,.09,0,.15-.15.15h-4.88c-.22,0-.13,0-.13-.14V89.8c0-.1,0-.13.11-.13h.9a.48.48,0,0,0,.53-.43V83.67Z" transform="translate(2836.996 -2583)" fill="#fff"/>
    <path id="Path_6" data-name="Path 6" d="M146.54,85.91c-.12.37-.9,2.63-1,3.06a1.39,1.39,0,0,0,0,.33c0,.21.25.38.57.38h.66c.13,0,.16,0,.16.08v.4c0,.09,0,.15-.12.15h-3.74c-.22,0-.1-.09-.1-.2v-.3c0-.1,0-.13.1-.13h.47c.45,0,.73-.22,1-.71.16-.29,1.3-3.14,1.77-4.47.11-.31,1.4-3.73,1.55-4.15,0-.15.13-.44,0-.53a.46.46,0,0,1-.09-.19c0-.07,0-.13.16-.16a5.12,5.12,0,0,0,1.56-.79c.1-.1.16-.16.24-.16s.16.19.19.28c.29,1,1.52,4.53,1.81,5.54.38,1.24,1.39,4.19,1.61,4.61a1.2,1.2,0,0,0,1,.73h.51c.1,0,.13,0,.13.11v.33c0,.1,0,.19-.16.19h-4.56c-.12,0-.16-.09-.16-.19v-.31c0-.1,0-.13.13-.13h.41c.44,0,.57-.16.48-.59s-.76-2.59-.95-3.18Zm3.52-.63c-.16-.46-1.24-4.07-1.33-4.39s-.1-.28-.16-.28a.268.268,0,0,0-.21.2c-.05.14-1.48,4.11-1.6,4.47Z" transform="translate(2836.996 -2583)" fill="#fff"/>
    <path id="Path_7" data-name="Path 7" d="M158.32,83.11c0,2.69.13,4.91.16,5.4,0,.79.22,1.17.79,1.17h.41c.13,0,.13.06.13.14v.37c0,.09,0,.12-.13.12h-3.35c-.16,0-.1,0-.1-.14v-.39a.1.1,0,0,1,.1-.1h.54c.41,0,.63-.35.71-1.31,0-.29.11-2.51.11-5v-2c0-.95-.54-1.68-1.24-1.68H156c-.07,0-.1,0-.1-.11V79.1c0-.06,0-.09.1-.09h1.9a6.639,6.639,0,0,0,.7,0h.4a.49.49,0,0,1,.38.14c.16.16,3.26,4,3.57,4.5.23.25,2.7,3.32,2.95,3.64h.1V82.64a18.922,18.922,0,0,0-.17-2.43.86.86,0,0,0-.84-.6h-.51c-.09,0-.09-.06-.09-.14v-.36c0-.1,0-.13.12-.13h3.3c.19,0,.16.06.16.11v.36c0,.1,0,.16-.1.16h-.44c-.32,0-.48.26-.52.84-.08,1.08-.24,3.74-.24,5.35V90c0,.22,0,.45-.19.45a.8.8,0,0,1-.54-.26c-.13-.16-1-1.14-2-2.31-1.11-1.36-2.35-2.85-2.54-3.1s-2.75-3.39-2.94-3.61h-.1Z" transform="translate(2836.996 -2583)" fill="#fff"/>
    <path id="Path_8" data-name="Path 8" d="M172.07,85.91c-.13.37-.91,2.63-1,3.06a1.39,1.39,0,0,0,0,.33c0,.21.25.38.57.38h.67c.12,0,.16,0,.16.08v.4c0,.09,0,.15-.13.15H168.6c-.23,0-.09-.09-.09-.2v-.3c0-.1,0-.13.09-.13h.48a1.12,1.12,0,0,0,1-.71c.16-.29,1.3-3.14,1.77-4.47.12-.31,1.4-3.73,1.55-4.15,0-.15.13-.44,0-.53a.39.39,0,0,1-.1-.19c0-.07,0-.13.16-.16a5.19,5.19,0,0,0,1.57-.79c.09-.1.16-.16.24-.16s.15.19.18.28c.29,1,1.53,4.53,1.81,5.54.38,1.24,1.39,4.19,1.62,4.61a1.18,1.18,0,0,0,1,.73h.51c.09,0,.12,0,.12.11v.33c0,.1,0,.19-.16.19H175.8c-.13,0-.17-.09-.17-.19v-.31c0-.1,0-.13.13-.13h.41c.45,0,.57-.16.48-.59s-.76-2.59-.95-3.18Zm3.51-.63c-.16-.46-1.24-4.07-1.33-4.39s-.09-.28-.16-.28-.16.06-.21.2-1.48,4.11-1.59,4.47Z" transform="translate(2836.996 -2583)" fill="#fff"/>
    <path id="Path_9" data-name="Path 9" d="M183.21,83.36c0-.57,0-2.5-.05-2.77,0-.92-.3-1-.9-1h-.5c-.1,0-.13,0-.13-.12V79.1c0-.09,0-.14.13-.14s1,.06,2.31,0h2.31a6.33,6.33,0,0,1,2.78.43,2.2,2.2,0,0,1,1.21,2.15c0,1.27-.67,2-2.15,2.58v.08c1.8.47,2.85,1.42,2.85,3.1a2.94,2.94,0,0,1-1.24,2.41,7.17,7.17,0,0,1-3.45.55h-4.55a.11.11,0,0,1-.11-.12v-.4a.1.1,0,0,1,.11-.11h.69c.47,0,.58-.19.63-.68s.06-2.47.06-3.77Zm1.93.67h.73a2.75,2.75,0,0,0,1.68-.46,2.29,2.29,0,0,0,.83-1.86,2,2,0,0,0-.7-1.62,3.31,3.31,0,0,0-1.81-.55,2.321,2.321,0,0,0-.47,0,.32.32,0,0,0-.21.25c0,.3-.05,1.66-.05,3Zm0,3.67c0,1.49.35,2.11,1.37,2.11a2.2,2.2,0,0,0,2.37-2.52,2.45,2.45,0,0,0-1.52-2.47,4.76,4.76,0,0,0-1.81-.29h-.41V87.7Z" transform="translate(2836.996 -2583)" fill="#fff"/>
    <path id="Path_10" data-name="Path 10" d="M196,85.67v2.7c0,.82.28,1.14.63,1.23a4.73,4.73,0,0,0,1.23.13,10.394,10.394,0,0,0,1.34-.06,3,3,0,0,0,1.3-.54c.28-.26,1.17-1.3,1.47-1.68.06-.08.11-.1.17-.06l.26.15a.13.13,0,0,1,0,.16l-.76,2.38a.34.34,0,0,1-.35.23h-8.71c-.09,0-.13,0-.13-.12v-.38c0-.1,0-.13.16-.13h.54c.73,0,.79-.1.79-.68V83.68c0-1.3,0-3.26-.06-3.48-.06-.43-.22-.56-.7-.56h-.6c-.06,0-.09,0-.09-.11v-.41c0-.08,0-.11.09-.11.35,0,.92.06,2.22,0H201a.12.12,0,0,1,.13.09c.06.21.66,2.36.72,2.52s0,.14,0,.18l-.29.12a.134.134,0,0,1-.14-.08,14.869,14.869,0,0,0-1.74-1.77,2.68,2.68,0,0,0-1.2-.41L196,79.6v4.57a17.125,17.125,0,0,0,1.8-.08.88.88,0,0,0,.73-.57,2.58,2.58,0,0,0,.25-.89.12.12,0,0,1,.13-.12h.41c.06,0,.11,0,.1.13s0,1.3,0,1.71c0,.63.07,1.39.1,1.74,0,.08,0,.09-.13.11l-.35.06c-.06,0-.09,0-.12-.11a8.147,8.147,0,0,0-.26-.79,1,1,0,0,0-.79-.57c-.57-.06-1.33-.1-1.83-.1Z" transform="translate(2836.996 -2583)" fill="#fff"/>
    <path id="Path_11" data-name="Path 11" d="M213.07,84.76c-.17,0-.22.06-.22.2v.68c0,.57,0,2.41.06,3.5a.477.477,0,0,0,.54.54H214c.13,0,.16,0,.16.11v.37c0,.09,0,.15-.16.15h-4.46c-.13,0-.16-.06-.16-.14v-.36c0-.1,0-.13.16-.13h.82c.38,0,.45-.38.45-.74V80.68c0-.78-.1-1-.61-1h-.69c-.13,0-.16-.06-.16-.14v-.33a.15.15,0,0,1,.16-.16h4.62c.13,0,.16.06.16.14v.33c0,.1,0,.16-.16.16h-.57c-.57,0-.63.26-.65.87,0,.22-.08,2.32-.08,2.73v.63c0,.16.05.22.19.22h5.23c.25,0,.31,0,.31-.22v-.48c0-.56-.06-2.78-.08-3,0-.5-.07-.79-.42-.79h-.73c-.11,0-.13,0-.13-.14v-.36c0-.08,0-.13.13-.13h4.34c.26,0,.19.06.19.14v.33c0,.1,0,.16-.19.16h-.58c-.47,0-.5.26-.5.81v8.4c0,.57.16.79.63.79h.64c.09,0,.12,0,.12.11v.37c0,.09,0,.15-.15.15h-4.6a.13.13,0,0,1-.12-.14v-.36c0-.08,0-.13.12-.13h.86c.38,0,.39-.29.41-.71,0-.76.06-3.3.06-3.58V85c0-.15-.12-.19-.34-.19Z" transform="translate(2836.996 -2583)" fill="#fff"/>
    <path id="Path_12" data-name="Path 12" d="M233,80.08a5.9,5.9,0,0,1,2.15,4.69A5.5,5.5,0,0,1,234,88.26a5.61,5.61,0,0,1-4.75,2.24,7.28,7.28,0,0,1-3.58-1,5.56,5.56,0,0,1-2.31-4.69,6.31,6.31,0,0,1,1.46-3.93,5.43,5.43,0,0,1,4.46-2,5.62,5.62,0,0,1,3.72,1.2Zm-6.08.32a5.69,5.69,0,0,0-1.42,3.83c0,4.12,2.53,5.58,3.86,5.58,3.2,0,3.7-3.55,3.7-4.88,0-3.45-2.34-5.41-3.86-5.41a2.73,2.73,0,0,0-2.29.88Z" transform="translate(2836.996 -2583)" fill="#fff"/>
    <path id="Path_13" data-name="Path 13" d="M246.23,87v.16c0,.09-.7,2.73-.79,3.15h-8.77c-.18,0-.13,0-.13-.14v-.36c0-.1,0-.13.09-.13h.64c.57,0,.66-.22.66-.43S238,85,238,84.06v-.89c0-1,0-2.69-.07-3s-.09-.57-.5-.57h-.67a.14.14,0,0,1-.13-.14V79.1c0-.1,0-.13.13-.13h4.69c.13,0,.16.06.16.14v.37c0,.06,0,.12-.16.12h-.86c-.48,0-.53.16-.53.59,0,.22-.07,2.6-.07,3.7V85.3c0,.28,0,3.7.07,4.38H241c.89,0,2,0,2.66-.08.89-.13,1.9-2,2.13-2.63.06-.06.09-.09.18-.06Z" transform="translate(2836.996 -2583)" fill="#fff"/>
    <path id="Path_14" data-name="Path 14" d="M248.82,83c0-.41-.06-2.66-.09-2.9a.537.537,0,0,0-.57-.44h-.86a.11.11,0,0,1-.12-.11V79.1c0-.06.06-.09.14-.09h4.77c2.12,0,3.83.2,5.28,1.44a5,5,0,0,1,1.78,4,5.63,5.63,0,0,1-1.55,4.15c-1.56,1.68-4,1.69-5.1,1.69h-5.25c-.06,0-.09,0-.09-.14v-.39c0-.07,0-.1.12-.1h.92c.32,0,.48-.13.52-.39s.11-3.9.11-5.1Zm2,1.55v3.87a1.37,1.37,0,0,0,.29.89,1.81,1.81,0,0,0,1.39.42,4.14,4.14,0,0,0,3.29-1.6A5.93,5.93,0,0,0,257,84.5a5.62,5.62,0,0,0-1.27-3.45,5,5,0,0,0-3.55-1.49,2,2,0,0,0-1,.16c-.23.13-.29.38-.29.7v3Z" transform="translate(2836.996 -2583)" fill="#fff"/>
    <path id="Path_15" data-name="Path 15" d="M263.74,85.14v4c0,.51.26.57.63.57h.67a.12.12,0,0,1,.13.11v.4c0,.09-.07.12-.16.12h-4.75c-.16,0-.13,0-.13-.11v-.42c0-.07,0-.1.13-.1h.63c.32,0,.67,0,.73-.46,0-.22.06-3.64.06-4.5V80.21c-.05-.38-.21-.54-.65-.54h-.83c-.09,0-.12,0-.12-.11v-.41c0-.08,0-.11.09-.11h4.82c.25,0,.12.06.12.14v.37a.11.11,0,0,1-.12.12h-.61c-.34,0-.6.13-.6.43v3.83Z" transform="translate(2836.996 -2583)" fill="#fff"/>
    <path id="Path_16" data-name="Path 16" d="M269.2,83.11c0,2.69.13,4.91.16,5.4,0,.79.22,1.17.79,1.17h.41c.13,0,.13.06.13.14v.37c0,.09,0,.12-.13.12h-3.35c-.16,0-.1,0-.1-.14v-.39a.1.1,0,0,1,.1-.1h.54c.41,0,.63-.35.71-1.31,0-.29.11-2.51.11-5v-2c0-.95-.54-1.68-1.23-1.68h-.51c-.07,0-.1,0-.1-.11V79.1c0-.06,0-.09.1-.09h1.9a6.81,6.81,0,0,0,.7,0h.44a.49.49,0,0,1,.38.14c.16.16,3.26,4,3.58,4.5.22.25,2.69,3.32,2.94,3.64h.06V82.64a18.919,18.919,0,0,0-.17-2.43.86.86,0,0,0-.84-.6h-.51c-.09,0-.09-.06-.09-.14v-.36c0-.1,0-.13.12-.13h3.3c.19,0,.16.06.16.11v.36c0,.1,0,.16-.1.16h-.44c-.32,0-.48.26-.52.84-.08,1.08-.24,3.74-.24,5.35V90c0,.22,0,.45-.19.45a.77.77,0,0,1-.54-.26l-2-2.31c-1.1-1.36-2.34-2.85-2.53-3.1s-2.75-3.39-2.94-3.61h-.1Z" transform="translate(2836.996 -2583)" fill="#fff"/>
    <path id="Path_17" data-name="Path 17" d="M290.83,88.7c0,.22.06.38.06.51s-.09.18-.25.25a9.24,9.24,0,0,1-4.5,1,6.12,6.12,0,0,1-4.56-1.83,6,6,0,0,1-1.45-4.31,5.34,5.34,0,0,1,1.8-4,6.48,6.48,0,0,1,4.5-1.55,5.85,5.85,0,0,1,3.23.85c.19.15.28.1.38,0l.19-.25c.08-.11.13-.16.22-.16a.219.219,0,0,1,.19.22l.16,3.17c0,.13,0,.21-.06.22l-.38.06c-.1,0-.13,0-.16-.12a6.321,6.321,0,0,0-1.27-2.19,3.57,3.57,0,0,0-2.63-1.11,3.26,3.26,0,0,0-2.69,1.24,5.52,5.52,0,0,0-1.3,3.58,6.27,6.27,0,0,0,1.43,4.4,3.46,3.46,0,0,0,2.53,1.08,4.26,4.26,0,0,0,2.15-.42c.35-.19.38-.63.38-1.45V86.75c0-.57-.16-.73-.57-.73h-.66c-.1,0-.13-.06-.13-.14v-.37c0-.09,0-.12.1-.12h4.25c.14,0,.16,0,.16.11v.4c0,.09,0,.12-.13.12h-.53c-.29,0-.48.13-.48.59Z" transform="translate(2836.996 -2583)" fill="#fff"/>
    <path id="Path_18" data-name="Path 18" d="M294.11,86.74c.06,0,.1,0,.1.12a3.56,3.56,0,0,0,.59,1.81,2.49,2.49,0,0,0,2.09,1.14A1.94,1.94,0,0,0,299,88c0-1.46-.66-1.94-2.34-2.57a7.4,7.4,0,0,1-2.31-1.33,3,3,0,0,1-.79-2.26,2.68,2.68,0,0,1,1.1-2.22,3.24,3.24,0,0,1,2.25-.76,5,5,0,0,1,2,.38.27.27,0,0,0,.33,0l.21-.2a.26.26,0,0,1,.22-.1c.09,0,.13.1.13.25s.25,2.47.25,2.63a.1.1,0,0,1-.1.11l-.25.08a.12.12,0,0,1-.16-.09,4.5,4.5,0,0,0-1-1.68,2.1,2.1,0,0,0-1.65-.67,1.69,1.69,0,0,0-1.77,1.6,1.9,1.9,0,0,0,.45,1.43,5.17,5.17,0,0,0,1.93,1,5,5,0,0,1,2.28,1.23,3.09,3.09,0,0,1,.79,2.27,3.3,3.3,0,0,1-3.36,3.51,4.09,4.09,0,0,1-2.69-.76c-.19-.12-.28-.19-.38-.19s-.16.13-.26.29-.16.19-.28.19-.19-.09-.19-.25.25-2.76.28-3,0-.13.1-.13Z" transform="translate(2836.996 -2583)" fill="#fff"/>
    <path id="Path_19" data-name="Path 19" d="M106.6,17.93h12.59L130.26,54.1l12-36.32h10.08l12,36.32,11.07-36.17h12.28L169.41,71.74H159.18l-12.05-35-12.06,35H124.84Z" transform="translate(2836.996 -2583)" fill="#fff"/>
    <path id="Path_20" data-name="Path 20" d="M196.35,17.93h11.76V39.07h21.63V17.93H241.5V71.35H229.74V49.91H208.11V71.35H196.35Z" transform="translate(2836.996 -2583)" fill="#fff"/>
    <path id="Path_21" data-name="Path 21" d="M251.29,17.93h20.83a31.73,31.73,0,0,1,11.49,2,27.16,27.16,0,0,1,9,5.61A25.22,25.22,0,0,1,298.46,34a26.56,26.56,0,0,1,2.06,10.49v.15a26.831,26.831,0,0,1-2.06,10.53,25,25,0,0,1-5.84,8.47,27.41,27.41,0,0,1-9,5.65,31.11,31.11,0,0,1-11.49,2.06H251.29Zm20.84,42.81a18.22,18.22,0,0,0,6.56-1.14,14.28,14.28,0,0,0,5.07-3.28,15.52,15.52,0,0,0,3.28-5,17.21,17.21,0,0,0,1.18-6.49v-.15A17.53,17.53,0,0,0,287,38.16,15.261,15.261,0,0,0,283.76,33a14.65,14.65,0,0,0-5.07-3.32,17.6,17.6,0,0,0-6.56-1.18h-9.08V60.7Z" transform="translate(2836.996 -2583)" fill="#fff"/>
    <path id="Path_22" data-name="Path 22" d="M3,40.73S13.78,56.48,28.5,64.48c12.54,6.82,18.15,8.19,21.11,14.08A17.05,17.05,0,0,1,51.55,88.7s-1.78-8.06-14.1-11.07C23,74.09,12.33,71.08,7,60.82,1.24,49.84,3,40.73,3,40.73Z" transform="translate(2836.996 -2583)" fill="#d12920"/>
    <path id="Path_23" data-name="Path 23" d="M8.48,71.39A45.52,45.52,0,0,0,31.62,80C45.72,81.24,49,89.17,49,89.17s-4.6-3.85-16.9-1.92C9.89,90.72,8.48,71.39,8.48,71.39Z" transform="translate(2836.996 -2583)" fill="#d12920"/>
    <path id="Path_24" data-name="Path 24" d="M55.43,69.25s-1.63-6.49-17.73-17C17.63,39.06.49,0,.49,0A63.24,63.24,0,0,0,5,32.46c6.64,15.74,21.18,28,35,33.82C56,73,55,90.58,55,90.58l4.21-12.49V55.62Z" transform="translate(2836.996 -2583)" fill="#d12920"/>
    <path id="Path_25" data-name="Path 25" d="M92,43.24s-4,9.61-10.77,16.18c-7.4,7.21-11.34,9.64-13.72,15.67S65.77,85,65.77,85,67.36,77,76,70.86c7.77-5.5,12.34-9,14.43-15.74A33.46,33.46,0,0,0,92,43.24Z" transform="translate(2836.996 -2583)" fill="#983429"/>
    <path id="Path_26" data-name="Path 26" d="M89.83,61.61a30.43,30.43,0,0,1-10.45,9.65,25.24,25.24,0,0,0-11.54,13A22.16,22.16,0,0,1,79,76.77C89.12,73.62,89.83,61.61,89.83,61.61Z" transform="translate(2836.996 -2583)" fill="#983429"/>
    <path id="Path_27" data-name="Path 27" d="M62.72,68.21S68.35,60.63,76.87,51C87.58,39,93.22,20.28,93.22,20.28a59,59,0,0,1-1.8,18.06c-2.56,9.28-9,18-16.82,24C62.12,72,62.74,88.44,62.74,88.44L59.18,78.09V55.62Z" transform="translate(2836.996 -2583)" fill="#983429"/>
  </g>
</svg>
