<svg xmlns="http://www.w3.org/2000/svg" width="131.173" height="182.32" viewBox="0 0 131.173 182.32">
  <g id="Group_18" data-name="Group 18" transform="translate(-432 -1181)">
    <g id="Layer_2" data-name="Layer 2" transform="translate(431.982 1181)">
      <path id="Path_56" data-name="Path 56" d="M3.74,175.51c-.11-.3-.27-.38-.44-.38H3a.07.07,0,0,1-.07-.07v-.27c0-.06,0-.08.09-.08H5.65c.1,0,.09,0,.09.08v.26s0,.08-.1.08H5.46a.26.26,0,0,0-.26.37l1.54,4.83h0c.09-.22,1.48-4.07,1.5-4.46a1,1,0,0,0-.19-.56.45.45,0,0,0-.35-.19H7.5a.07.07,0,0,1-.08-.07v-.26c0-.06,0-.09.09-.09h2.73c.1,0,.07,0,.07.1v.24s0,.08-.07.08H9.87c-.21,0-.28.23-.23.41l1.51,4.84h0a43.15,43.15,0,0,0,1.51-5c0-.14-.11-.29-.36-.29h-.28c-.06,0-.07,0-.07-.08v-.25c0-.06,0-.09.08-.09h2.11c.1,0,.07,0,.07.06V175a.078.078,0,0,1-.08.08h-.22a.54.54,0,0,0-.46.35c-.1.23-2.24,6.09-2.45,6.61a.308.308,0,0,1-.27.28c-.15,0-.22-.11-.26-.24l-1.9-5.5h0c-.09.29-1.94,5.42-2,5.54a.33.33,0,0,1-.28.2.22.22,0,0,1-.21-.17Z" fill="#fff"/>
      <path id="Path_57" data-name="Path 57" d="M15.22,179.28c-.08.24-.6,1.73-.65,2a.9.9,0,0,0,0,.22c0,.13.17.25.38.25h.54v.26c0,.06,0,.11-.08.11H12.94c-.15,0-.06-.07-.06-.14v-.2c0-.06,0-.08.06-.08h.31c.3,0,.48-.15.67-.47a30.85,30.85,0,0,0,1.17-3c.08-.21.93-2.47,1-2.75,0-.1.08-.29,0-.35a.3.3,0,0,1-.06-.13.109.109,0,0,1,.1-.1,3.45,3.45,0,0,0,1-.53c.06-.06.1-.1.16-.1s.1.12.12.19c.19.65,1,3,1.2,3.66s.92,2.77,1.06,3a.8.8,0,0,0,.67.48h.34c.06,0,.08,0,.08.07v.22c0,.06,0,.13-.1.13H17.64c-.23,0-.1-.07-.1-.13v-.21c0-.06,0-.08.08-.08H18c.3,0,.38-.11.32-.39s-.51-1.71-.63-2.1Zm2.32-.42c-.1-.31-.81-2.69-.87-2.9s-.07-.19-.11-.19-.1,0-.14.14-1,2.71-1.05,3Z" fill="#fff"/>
      <path id="Path_58" data-name="Path 58" d="M23.37,175.18h-.29a5.691,5.691,0,0,0-1.53.15,3.41,3.41,0,0,0-.93,1.19.083.083,0,0,1-.11.08l-.21-.08a.07.07,0,0,1,0-.1c.1-.4.46-1.78.5-1.93s.08-.18.12-.18a.175.175,0,0,1,.17.1.93.93,0,0,0,.71.27c.57,0,1,.06,2,.06h.57a16.97,16.97,0,0,0,2.07-.06,2,2,0,0,0,.76-.27c.08-.06.12-.1.18-.1s.09,0,.11.16.23,1.49.31,2v.1l-.21.07s-.06,0-.09-.08a4.2,4.2,0,0,0-.83-1.18,5.23,5.23,0,0,0-1.61-.19h-.29v5.58c0,.8.1,1,.35,1h.61s.06,0,.06.09v.22c0,.06,0,.11-.1.11H22.46c-.15,0-.08,0-.08-.1v-.24c0-.06,0-.08.07-.08H23a.31.31,0,0,0,.34-.28V177.8Z" fill="#fff"/>
      <path id="Path_59" data-name="Path 59" d="M29.36,179.28c-.08.24-.6,1.73-.65,2a.9.9,0,0,0,0,.22c0,.13.17.25.38.25h.54v.26c0,.06,0,.11-.08.11H27.08c-.15,0-.06-.07-.06-.14v-.2c0-.06,0-.08.06-.08h.31c.3,0,.48-.15.67-.47s.86-2.07,1.18-3c.07-.21.92-2.47,1-2.75,0-.1.08-.29,0-.35a.3.3,0,0,1-.06-.13.109.109,0,0,1,.1-.1,3.45,3.45,0,0,0,1-.53c.06-.06.1-.1.16-.1s.1.12.12.19c.19.65,1,3,1.2,3.66s.92,2.77,1.06,3a.8.8,0,0,0,.67.48h.34c.06,0,.08,0,.08.07v.22c0,.06,0,.13-.1.13H31.79c-.23,0-.1-.07-.1-.13v-.21c0-.06,0-.08.08-.08h.27c.3,0,.38-.11.32-.39s-.5-1.71-.63-2.1Zm2.33-.42c-.11-.31-.82-2.69-.88-2.9s-.07-.19-.11-.19-.1,0-.13.14-1,2.71-1.06,3Z" fill="#fff"/>
      <path id="Path_60" data-name="Path 60" d="M37.15,177.42c0,1.78.08,3.25.11,3.57,0,.53.14.78.52.78h.27c.08,0,.08,0,.08.09v.24c0,.07,0,.09-.08.09H35.83s-.06,0-.06-.1v-.26a.06.06,0,0,1,.06-.06h.36c.27,0,.41-.23.47-.87,0-.19.07-1.66.07-3.33v-1.33c0-.62-.36-1.11-.82-1.11h-.33a.07.07,0,0,1-.06-.07v-.28c0-.05,0-.07.06-.07h2.01a.29.29,0,0,1,.25.1c.1.1,2.16,2.68,2.36,3s1.79,2.2,1.95,2.41h0V177.1a11.074,11.074,0,0,0-.11-1.6.57.57,0,0,0-.56-.4h-.33c-.06,0-.06,0-.06-.09v-.24c0-.07,0-.09.08-.09h2.17c.12,0,.1,0,.1.08V175c0,.06,0,.1-.06.1h-.29c-.21,0-.32.17-.35.56-.05.71-.16,2.47-.16,3.54V182c0,.14,0,.29-.12.29a.51.51,0,0,1-.36-.17c-.08-.1-.65-.75-1.3-1.52s-1.55-1.89-1.67-2.06-1.82-2.24-1.95-2.38h-.06Z" fill="#fff"/>
      <path id="Path_61" data-name="Path 61" d="M46.23,179.28c-.08.24-.59,1.73-.64,2a.61.61,0,0,0,0,.22c0,.13.17.25.38.25h.55v.26c0,.06,0,.11-.09.11H43.96c-.15,0-.06-.07-.06-.14v-.2c0-.06,0-.08.06-.08h.32a.73.73,0,0,0,.66-.47c.11-.19.86-2.07,1.18-3,.07-.21.92-2.47,1-2.75,0-.1.09-.29,0-.35a.3.3,0,0,1-.06-.13s0-.08.11-.1a3.38,3.38,0,0,0,1-.53c.07-.06.11-.1.16-.1s.1.12.12.19c.19.65,1,3,1.2,3.66s.92,2.77,1.06,3a.81.81,0,0,0,.68.48h.33c.06,0,.08,0,.08.07v.22c0,.06,0,.13-.1.13H48.69c-.22,0-.11-.07-.11-.13v-.21c0-.06,0-.08.08-.08H49c.29,0,.37-.11.31-.39s-.5-1.71-.63-2.1Zm2.33-.42c-.11-.31-.82-2.69-.88-2.9s-.06-.19-.11-.19-.1,0-.13.14-1,2.71-1.06,3Z" fill="#fff"/>
      <path id="Path_62" data-name="Path 62" d="M53.6,177.59v-1.83c0-.61-.2-.63-.6-.63h-.33c-.06,0-.08,0-.08-.08v-.24c0-.07,0-.1.08-.1h3.05a4.24,4.24,0,0,1,1.85.29,1.44,1.44,0,0,1,.79,1.42c0,.84-.44,1.34-1.42,1.71v.05c1.19.31,1.88.94,1.88,2a2,2,0,0,1-.81,1.59,4.75,4.75,0,0,1-2.29.37h-3s-.07,0-.07-.09v-.26a.06.06,0,0,1,.07-.07h.45c.32,0,.39-.13.42-.45s0-1.63,0-2.49Zm1.28.44h.48a1.83,1.83,0,0,0,1.11-.3A1.52,1.52,0,0,0,57,176.5a1.28,1.28,0,0,0-.46-1.06,2.09,2.09,0,0,0-1.19-.37,1.511,1.511,0,0,0-.31,0,.19.19,0,0,0-.14.17c0,.2,0,1.1,0,2Zm0,2.43c0,1,.23,1.39.9,1.39a1.45,1.45,0,0,0,1.57-1.66,1.65,1.65,0,0,0-1-1.64,3.25,3.25,0,0,0-1.2-.18h-.27Z" fill="#fff"/>
      <path id="Path_63" data-name="Path 63" d="M62.07,179.12v1.78c0,.54.19.75.42.82a3.5,3.5,0,0,0,.82.08h.88a1.86,1.86,0,0,0,.86-.36c.18-.17.77-.86,1-1.11,0,0,.07-.06.11,0l.17.11v.1l-.5,1.57a.22.22,0,0,1-.23.16H59.86c-.06,0-.08,0-.08-.09v-.25c0-.06,0-.08.1-.08h.36c.48,0,.52-.07.52-.45v-5.9c0-.29-.15-.37-.46-.37h-.4a.062.062,0,0,1-.06-.07v-.27c0-.06,0-.08.06-.08h5.51a.081.081,0,0,1,.08.07c.01.07.44,1.55.48,1.66s0,.1,0,.12l-.19.08h-.09a9.51,9.51,0,0,0-1.15-1.18,1.85,1.85,0,0,0-.8-.27H62.15v3a9.43,9.43,0,0,0,1.19-.06.57.57,0,0,0,.48-.37,1.56,1.56,0,0,0,.17-.59c0-.06,0-.08.09-.08h.27a.063.063,0,0,1,.06.08c-.01.08,0,.86,0,1.13a6.426,6.426,0,0,0,.06,1.16c0,.05,0,.06-.08.07h-.23a.088.088,0,0,1-.08-.07c-.02-.07-.12-.4-.17-.53a.64.64,0,0,0-.53-.38c-.37,0-.87-.06-1.21-.06Z" fill="#fff"/>
      <path id="Path_64" data-name="Path 64" d="M73.34,178.51c-.11,0-.14,0-.14.14v2.76c0,.25.12.36.35.36H74c.08,0,.11,0,.11.07v.24a.1.1,0,0,1-.11.11H71.05a.1.1,0,0,1-.11-.1v-.24c0-.06,0-.08.11-.08h.54c.26,0,.3-.25.3-.49V175.8c0-.52-.07-.67-.4-.67H71c-.09,0-.1,0-.1-.09v-.22s0-.11.1-.11h3.05c.18,0,.11,0,.11.1V175c0,.06,0,.1-.11.1h-.37c-.38,0-.42.17-.43.58v2.22c0,.1,0,.14.12.14h3.46c.16,0,.21,0,.21-.14v-.32a19.927,19.927,0,0,0-.06-2c0-.34-.05-.53-.28-.53h-.48c-.07,0-.08,0-.08-.09v-.24c0-.06,0-.09.08-.09h2.87c.17,0,.12,0,.12.1V175c0,.06,0,.1-.12.1h-.38c-.31,0-.33.17-.33.54v5.58c0,.37.1.52.41.52h.42c.07,0,.09,0,.09.07v.24c0,.06,0,.11-.11.11H76.16a.09.09,0,0,1-.09-.1v-.24a.082.082,0,0,1,.09-.08h.56c.25,0,.26-.19.27-.47v-2.66c0-.09-.09-.13-.23-.13Z" fill="#fff"/>
      <path id="Path_65" data-name="Path 65" d="M86.51,175.42a3.89,3.89,0,0,1,1.42,3.1A3.76,3.76,0,0,1,84,182.31a4.85,4.85,0,0,1-2.37-.69,3.67,3.67,0,0,1-1.52-3.1,4.12,4.12,0,0,1,1-2.59,3.58,3.58,0,0,1,3-1.34A3.71,3.71,0,0,1,86.51,175.42Zm-4,.22a3.7,3.7,0,0,0-.94,2.53c0,2.72,1.67,3.68,2.55,3.68,2.12,0,2.45-2.34,2.45-3.22,0-2.28-1.55-3.58-2.55-3.58a1.78,1.78,0,0,0-1.53.59Z" fill="#fff"/>
      <path id="Path_66" data-name="Path 66" d="M95.26,180v.1c0,.1-.46,1.81-.52,2.09h-5.8c-.12,0-.08,0-.08-.1v-.24c0-.06,0-.08.06-.08h.42c.37,0,.44-.15.44-.28v-6.02c0-.22-.07-.38-.34-.38H89a.09.09,0,0,1-.08-.09v-.24c0-.07,0-.09.08-.09h3.1a.1.1,0,0,1,.11.1v.24s0,.08-.11.08h-.57c-.31,0-.35.11-.35.39v6.25h.59c.58,0,1.34,0,1.75-.05.59-.09,1.26-1.34,1.41-1.74a.083.083,0,0,1,.12,0Z" fill="#fff"/>
      <path id="Path_67" data-name="Path 67" d="M97,177.34a16.621,16.621,0,0,0-.07-1.92c-.07-.16-.16-.29-.37-.29H96a.07.07,0,0,1-.08-.07v-.28c0-.05,0-.07.09-.07h3.15a5,5,0,0,1,3.5,1,3.28,3.28,0,0,1,1.17,2.65,3.73,3.73,0,0,1-1,2.75,4.51,4.51,0,0,1-3.37,1.12H95.97c-.15,0-.06,0-.06-.1v-.26s0-.06.08-.06h.61a.29.29,0,0,0,.34-.26c0-.21.08-2.58.08-3.37Zm1.32,1v2.55a.92.92,0,0,0,.19.59c.12.19.52.28.92.28a2.74,2.74,0,0,0,2.17-1.06,3.93,3.93,0,0,0,.76-2.38,3.7,3.7,0,0,0-.84-2.29,3.37,3.37,0,0,0-2.35-1,1.39,1.39,0,0,0-.66.1.49.49,0,0,0-.19.46c0,.44,0,1.81,0,2Z" fill="#fff"/>
      <path id="Path_68" data-name="Path 68" d="M106.84,178.76v2.63c0,.34.17.38.42.38h.44a.07.07,0,0,1,.08.07v.26c0,.07,0,.09-.1.09h-3.14c-.1,0-.09,0-.09-.08v-.28s0-.06.09-.06H105c.21,0,.44,0,.49-.31s0-2.4,0-3v-3a.411.411,0,0,0-.43-.36h-.55c-.06,0-.08,0-.08-.07v-.27c0-.06,0-.08.06-.08h3.18c.14,0,.09,0,.09.1v.24c0,.06,0,.08-.09.08h-.39c-.23,0-.4.08-.4.28v2.54Z" fill="#fff"/>
      <path id="Path_69" data-name="Path 69" d="M110.45,177.42c0,1.78.08,3.25.1,3.57,0,.53.15.78.53.78h.27c.08,0,.08,0,.08.09v.24c0,.07,0,.09-.08.09h-2.22s-.07,0-.07-.1v-.26a.08.08,0,0,1,.07-.06h.36c.27,0,.41-.23.47-.87,0-.19.07-1.66.07-3.33v-1.33c0-.62-.36-1.11-.82-1.11h-.33a.069.069,0,0,1-.07-.07v-.28a.06.06,0,0,1,.07-.07h2.01a.29.29,0,0,1,.25.1c.1.1,2.15,2.68,2.36,3s1.78,2.2,2,2.41h0V177.1a11.074,11.074,0,0,0-.11-1.6.58.58,0,0,0-.56-.4h-.33c-.06,0-.06,0-.06-.09v-.24c0-.07,0-.09.08-.09h2.17c.12,0,.1,0,.1.08V175c0,.06,0,.1-.06.1h-.3c-.21,0-.31.17-.34.56,0,.71-.16,2.47-.16,3.54V182c0,.14,0,.29-.12.29a.49.49,0,0,1-.36-.17l-1.3-1.52c-.73-.9-1.55-1.89-1.67-2.06s-1.82-2.24-1.95-2.38h-.06Z" fill="#fff"/>
      <path id="Path_70" data-name="Path 70" d="M124.75,181.12v.33c0,.08-.06.13-.17.17a6,6,0,0,1-3,.69,3.793,3.793,0,0,1-4-4.06,3.52,3.52,0,0,1,1.19-2.63,4.25,4.25,0,0,1,3-1,3.85,3.85,0,0,1,2.13.56c.13.1.19.06.25,0l.13-.17c.05-.07.08-.1.14-.1a.144.144,0,0,1,.13.15l.11,2.09v.15h-.25c-.06,0-.08,0-.1-.08a4.21,4.21,0,0,0-.84-1.45,2.36,2.36,0,0,0-1.74-.73,2.18,2.18,0,0,0-1.78.81,3.7,3.7,0,0,0-.86,2.37,4.14,4.14,0,0,0,1,2.91,2.25,2.25,0,0,0,1.67.71,2.88,2.88,0,0,0,1.43-.27c.22-.13.25-.42.25-1v-.77c0-.37-.11-.48-.38-.48h-.44c-.06,0-.08,0-.08-.09V179c0-.06,0-.08.06-.08h2.83c.11,0,.1,0,.1.08v.26c0,.06,0,.08-.08.08h-.36c-.19,0-.31.08-.31.39Z" fill="#fff"/>
      <path id="Path_71" data-name="Path 71" d="M126.91,179.82s.06,0,.06.09a2.56,2.56,0,0,0,.4,1.19,1.63,1.63,0,0,0,1.39.75,1.27,1.27,0,0,0,1.35-1.22c0-1-.44-1.28-1.54-1.7a4.79,4.79,0,0,1-1.53-.88,2,2,0,0,1-.53-1.49,1.77,1.77,0,0,1,.74-1.47,2.11,2.11,0,0,1,1.48-.5,3.34,3.34,0,0,1,1.32.25.18.18,0,0,0,.22,0l.14-.14a.18.18,0,0,1,.14-.06c.07,0,.09.06.09.17s.16,1.63.16,1.73a.07.07,0,0,1-.06.08h-.17a.08.08,0,0,1-.1-.06,2.87,2.87,0,0,0-.65-1.11,1.35,1.35,0,0,0-1.09-.44,1.12,1.12,0,0,0-1.17,1.05,1.27,1.27,0,0,0,.3.95,3.38,3.38,0,0,0,1.27.64,3.31,3.31,0,0,1,1.51.82,2,2,0,0,1,.52,1.5,2.18,2.18,0,0,1-2.22,2.32,2.76,2.76,0,0,1-1.78-.5c-.12-.08-.19-.13-.25-.13s-.1.09-.17.19-.1.13-.19.13-.12-.06-.12-.17.17-1.82.19-2,0-.08.06-.08Z" fill="#fff"/>
      <path id="Path_72" data-name="Path 72" d="M3,134.34h8.32l7.32,23.91,7.92-24h6.66l7.92,24,7.32-23.91h8.12L44.48,169.9H37.72l-8-23.1-8,23.1H15Z" fill="#fff"/>
      <path id="Path_73" data-name="Path 73" d="M62.29,134.34h7.77v14h14.3v-14h7.78v35.31H84.36V155.48H70.06v14.17H62.29Z" fill="#fff"/>
      <path id="Path_74" data-name="Path 74" d="M98.61,134.34h13.77a20.86,20.86,0,0,1,7.59,1.33,18.11,18.11,0,0,1,6,3.71,16.58,16.58,0,0,1,3.86,5.58,17.46,17.46,0,0,1,1.36,6.94v.1a17.72,17.72,0,0,1-1.36,7,16.56,16.56,0,0,1-3.86,5.6,18.32,18.32,0,0,1-6,3.73,20.46,20.46,0,0,1-7.59,1.36H98.61Zm13.77,28.3a11.88,11.88,0,0,0,4.34-.76,9.24,9.24,0,0,0,3.35-2.17,10.21,10.21,0,0,0,2.17-3.33,11.27,11.27,0,0,0,.78-4.29V152a11.51,11.51,0,0,0-.78-4.28,10,10,0,0,0-2.17-3.38,9.58,9.58,0,0,0-3.35-2.2,11.68,11.68,0,0,0-4.34-.78h-6v21.29Z" fill="#fff"/>
      <path id="Path_75" data-name="Path 75" d="M4,54.44S18.43,75.5,38.1,86.19c16.78,9.11,24.27,11,28.23,18.83,3.78,7.52,2.57,13.54,2.57,13.54s-2.38-10.77-18.84-14.8C30.73,99,16.48,95,9.32,81.3,1.66,66.62,4,54.44,4,54.44Z" fill="#d12920"/>
      <path id="Path_76" data-name="Path 76" d="M11.33,95.43a60.93,60.93,0,0,0,30.93,11.48c18.85,1.68,23.22,12.29,23.22,12.29s-6.14-5.15-22.59-2.58C13.22,121.27,11.33,95.43,11.33,95.43Z" fill="#d12920"/>
      <path id="Path_77" data-name="Path 77" d="M74.09,92.57s-2.17-8.68-23.7-22.79C23.57,52.21.66,0,.66,0A84.46,84.46,0,0,0,6.73,43.39c8.88,21,28.32,37.46,46.73,45.21,21.4,9,20,32.48,20,32.48l5.63-16.7v-30Z" fill="#d12920"/>
      <path id="Path_78" data-name="Path 78" d="M123,57.8s-5.45,12.85-14.45,21.62c-9.88,9.64-15.15,12.89-18.33,21-3.24,8.25-2.33,13.27-2.33,13.27S90,102.92,101.64,94.72c10.39-7.35,16.5-12,19.3-21A44.75,44.75,0,0,0,123,57.8Z" fill="#983429"/>
      <path id="Path_79" data-name="Path 79" d="M120.07,82.35a40.75,40.75,0,0,1-14,12.9,33.84,33.84,0,0,0-15.44,17.46s4.69-6.87,15-10.09C119.12,98.41,120.07,82.35,120.07,82.35Z" fill="#983429"/>
      <path id="Path_80" data-name="Path 80" d="M83.84,91.18s7.52-10.14,18.9-23c14.33-16.14,21.86-41.11,21.86-41.11a79,79,0,0,1-2.4,24.14c-3.42,12.41-12,24.07-22.49,32.14C83,96.25,83.87,118.21,83.87,118.21l-4.76-13.83v-30Z" fill="#983429"/>
    </g>
  </g>
</svg>
