<svg xmlns="http://www.w3.org/2000/svg" width="47.713" height="47.713" viewBox="0 0 47.713 47.713">
  <path id="Icon_awesome-twitter-square" data-name="Icon awesome-twitter-square" d="M42.6,2.25H5.112A5.113,5.113,0,0,0,0,7.362V44.851a5.113,5.113,0,0,0,5.112,5.112H42.6a5.113,5.113,0,0,0,5.112-5.112V7.362A5.113,5.113,0,0,0,42.6,2.25ZM37.393,19.162c.021.3.021.607.021.905,0,9.234-7.029,19.873-19.873,19.873A19.782,19.782,0,0,1,6.816,36.81a14.715,14.715,0,0,0,1.683.085,14,14,0,0,0,8.669-2.982,6.994,6.994,0,0,1-6.529-4.846,7.528,7.528,0,0,0,3.152-.128A6.985,6.985,0,0,1,8.2,22.081V22a6.98,6.98,0,0,0,3.152.884,6.97,6.97,0,0,1-3.11-5.815,6.9,6.9,0,0,1,.948-3.525,19.833,19.833,0,0,0,14.4,7.306,7,7,0,0,1,11.918-6.379,13.687,13.687,0,0,0,4.43-1.683,6.967,6.967,0,0,1-3.067,3.845A13.9,13.9,0,0,0,40.9,15.541,14.7,14.7,0,0,1,37.393,19.162Z" transform="translate(0 -2.25)" fill="#fff"/>
</svg>
