<svg xmlns="http://www.w3.org/2000/svg" viewBox="0 0 300.54 90.58"><defs><style>.cls-1{fill:#d12920;}.cls-2{fill:#983429;}</style></defs><g id="Layer_2" data-name="Layer 2"><g id="LOGO"><path d="M107.78,80.21c-.16-.44-.41-.57-.66-.57h-.44c-.07,0-.1,0-.1-.11v-.41c0-.08,0-.11.13-.11s.6,0,2,0c1.14,0,1.81,0,2,0s.13,0,.13.11v.4c0,.08,0,.12-.14.12h-.3a.38.38,0,0,0-.38.56l2.33,7.31,0,0c.13-.33,2.23-6.16,2.26-6.76a1.48,1.48,0,0,0-.28-.84.68.68,0,0,0-.54-.29h-.33a.1.1,0,0,1-.11-.11v-.39c0-.08,0-.13.12-.13s.7,0,2.06,0,1.93,0,2.07,0,.11,0,.11.14v.37c0,.08,0,.12-.11.12h-.55c-.31,0-.43.35-.35.62L119,87.57h.07c.47-1.39,2.28-6.61,2.28-7.49,0-.21-.16-.44-.54-.44h-.43c-.09,0-.11,0-.11-.12v-.38c0-.08,0-.13.13-.13s.69,0,1.67,0,1.37,0,1.49,0,.1,0,.1.08v.43c0,.08,0,.12-.11.12h-.34a.78.78,0,0,0-.69.53c-.16.34-3.39,9.21-3.71,10-.06.16-.19.41-.41.41s-.33-.15-.39-.35l-2.87-8.32h-.06c-.15.44-2.95,8.2-3,8.37a.47.47,0,0,1-.41.3.32.32,0,0,1-.32-.25Z"/><path d="M125.15,85.91c-.13.37-.9,2.63-1,3.06a1.39,1.39,0,0,0,0,.33c0,.21.25.38.57.38h.66c.13,0,.16,0,.16.08v.4c0,.09,0,.15-.13.15s-.88,0-2,0-1.52,0-1.74,0-.1-.09-.1-.2v-.3c0-.1,0-.13.1-.13h.47c.45,0,.73-.22,1-.71.15-.29,1.3-3.14,1.77-4.47.11-.31,1.39-3.73,1.55-4.15,0-.15.13-.44,0-.53a.46.46,0,0,1-.09-.19c0-.07,0-.13.16-.16a5.24,5.24,0,0,0,1.56-.79c.1-.1.16-.16.24-.16s.16.19.19.28c.29,1,1.52,4.53,1.81,5.54.38,1.24,1.39,4.19,1.61,4.61a1.2,1.2,0,0,0,1,.73h.51c.1,0,.13,0,.13.11v.33c0,.1,0,.19-.16.19s-.6,0-2.34,0c-1.33,0-1.87,0-2.22,0-.13,0-.16-.09-.16-.19v-.31c0-.1,0-.13.13-.13h.41c.45,0,.57-.16.48-.59s-.76-2.59-.95-3.18Zm3.52-.63c-.16-.46-1.24-4.07-1.33-4.39s-.1-.28-.16-.28-.16.06-.21.2-1.49,4.11-1.6,4.47Z"/><path d="M137.48,79.72H137a8.85,8.85,0,0,0-2.31.22,5,5,0,0,0-1.41,1.81c0,.08-.09.14-.17.11l-.32-.11a.12.12,0,0,1-.06-.16c.16-.6.69-2.69.76-2.91s.12-.29.19-.29.16.07.25.16a1.39,1.39,0,0,0,1.08.41c.85,0,1.52.1,3.07.1H139c1.75,0,2.41-.07,3.14-.1a2.9,2.9,0,0,0,1.14-.41c.13-.09.19-.16.28-.16s.13.07.16.25.35,2.25.48,3c0,.1,0,.13-.07.15l-.31.11c-.07,0-.1,0-.15-.13A6,6,0,0,0,142.39,80a7.37,7.37,0,0,0-2.43-.29h-.45v8.44c0,1.2.16,1.52.54,1.52H141c.06,0,.09.06.09.14v.34c0,.09,0,.15-.15.15s-.67,0-2.38,0-2.28,0-2.5,0-.13,0-.13-.14v-.36c0-.1,0-.13.11-.13h.9a.48.48,0,0,0,.53-.43c0-.41,0-5.25,0-5.57Z"/><path d="M146.54,85.91c-.12.37-.9,2.63-1,3.06a1.39,1.39,0,0,0,0,.33c0,.21.25.38.57.38h.66c.13,0,.16,0,.16.08v.4c0,.09,0,.15-.12.15s-.89,0-2,0-1.52,0-1.74,0-.1-.09-.1-.2v-.3c0-.1,0-.13.1-.13h.47c.45,0,.73-.22,1-.71.16-.29,1.3-3.14,1.77-4.47.11-.31,1.4-3.73,1.55-4.15,0-.15.13-.44,0-.53a.46.46,0,0,1-.09-.19c0-.07,0-.13.16-.16a5.12,5.12,0,0,0,1.56-.79c.1-.1.16-.16.24-.16s.16.19.19.28c.29,1,1.52,4.53,1.81,5.54.38,1.24,1.39,4.19,1.61,4.61a1.2,1.2,0,0,0,1,.73h.51c.1,0,.13,0,.13.11v.33c0,.1,0,.19-.16.19-.28,0-.6,0-2.34,0-1.33,0-1.87,0-2.22,0-.12,0-.16-.09-.16-.19v-.31c0-.1,0-.13.13-.13h.41c.44,0,.57-.16.48-.59s-.76-2.59-.95-3.18Zm3.52-.63c-.16-.46-1.24-4.07-1.33-4.39s-.1-.28-.16-.28-.16.06-.21.2-1.48,4.11-1.6,4.47Z"/><path d="M158.32,83.11c0,2.69.13,4.91.16,5.4,0,.79.22,1.17.79,1.17h.41c.13,0,.13.06.13.14v.37c0,.09,0,.12-.13.12s-1.1,0-1.71,0c-.41,0-1.48,0-1.64,0s-.1,0-.1-.14v-.39a.1.1,0,0,1,.1-.1h.54c.41,0,.63-.35.71-1.31,0-.29.11-2.51.11-5v-2c0-.95-.54-1.68-1.24-1.68H156c-.07,0-.1,0-.1-.11V79.1c0-.06,0-.09.1-.09l.49,0c.28,0,.71,0,1.41,0a6.64,6.64,0,0,0,.7,0H159a.49.49,0,0,1,.38.14c.16.16,3.26,4,3.57,4.5.23.25,2.7,3.32,2.95,3.64H166V85.64c0-1.39,0-2.18,0-3,0-.61-.09-2.16-.17-2.43a.86.86,0,0,0-.84-.6h-.51c-.09,0-.09-.06-.09-.14v-.36c0-.1,0-.13.12-.13s.7,0,1.78,0,1.33,0,1.52,0,.16.06.16.11v.36c0,.1,0,.16-.1.16h-.44c-.32,0-.48.26-.52.84-.08,1.08-.24,3.74-.24,5.35V90c0,.22,0,.45-.19.45a.8.8,0,0,1-.54-.26c-.13-.16-1-1.14-2-2.31-1.11-1.36-2.35-2.85-2.54-3.1s-2.75-3.39-2.94-3.61h-.1Z"/><path d="M172.07,85.91c-.13.37-.91,2.63-1,3.06a1.39,1.39,0,0,0,0,.33c0,.21.25.38.57.38h.67c.12,0,.16,0,.16.08v.4c0,.09,0,.15-.13.15s-.89,0-2,0-1.51,0-1.74,0-.09-.09-.09-.2v-.3c0-.1,0-.13.09-.13h.48a1.12,1.12,0,0,0,1-.71c.16-.29,1.3-3.14,1.77-4.47.12-.31,1.4-3.73,1.55-4.15,0-.15.13-.44,0-.53a.39.39,0,0,1-.1-.19c0-.07,0-.13.16-.16a5.19,5.19,0,0,0,1.57-.79c.09-.1.16-.16.24-.16s.15.19.18.28c.29,1,1.53,4.53,1.81,5.54.38,1.24,1.39,4.19,1.62,4.61a1.18,1.18,0,0,0,1,.73h.51c.09,0,.12,0,.12.11v.33c0,.1,0,.19-.16.19s-.6,0-2.34,0c-1.33,0-1.87,0-2.21,0-.13,0-.17-.09-.17-.19v-.31c0-.1,0-.13.13-.13h.41c.45,0,.57-.16.48-.59s-.76-2.59-.95-3.18Zm3.51-.63c-.16-.46-1.24-4.07-1.33-4.39s-.09-.28-.16-.28-.16.06-.21.2-1.48,4.11-1.59,4.47Z"/><path d="M183.21,83.36c0-.57,0-2.5-.05-2.77,0-.92-.3-1-.9-1h-.5c-.1,0-.13,0-.13-.12v-.37c0-.09,0-.14.13-.14s1,.06,2.31,0c.5,0,1.45,0,2.31,0a6.33,6.33,0,0,1,2.78.43,2.2,2.2,0,0,1,1.21,2.15c0,1.27-.67,2-2.15,2.58v.08c1.8.47,2.85,1.42,2.85,3.1a2.94,2.94,0,0,1-1.24,2.41,7.17,7.17,0,0,1-3.45.55c-.64,0-1.68,0-2.31,0-1.24,0-1.9,0-2.24,0a.11.11,0,0,1-.11-.12v-.4a.1.1,0,0,1,.11-.11h.69c.47,0,.58-.19.63-.68s.06-2.47.06-3.77Zm1.93.67h.73a2.75,2.75,0,0,0,1.68-.46,2.29,2.29,0,0,0,.83-1.86,2,2,0,0,0-.7-1.62,3.31,3.31,0,0,0-1.81-.55,2.32,2.32,0,0,0-.47,0,.32.32,0,0,0-.21.25c0,.3-.05,1.66-.05,3Zm0,3.67c0,1.49.35,2.11,1.37,2.11a2.2,2.2,0,0,0,2.37-2.52,2.45,2.45,0,0,0-1.52-2.47,4.76,4.76,0,0,0-1.81-.29h-.41V87.7Z"/><path d="M196,85.67c0,.86,0,2.41,0,2.7,0,.82.28,1.14.63,1.23a4.73,4.73,0,0,0,1.23.13c.29,0,1,0,1.34-.06a3,3,0,0,0,1.3-.54c.28-.26,1.17-1.3,1.47-1.68.06-.08.11-.1.17-.06l.26.15a.13.13,0,0,1,0,.16l-.76,2.38a.34.34,0,0,1-.35.23l-1.41,0h-6.62l-.68,0c-.09,0-.13,0-.13-.12v-.38c0-.1,0-.13.16-.13h.54c.73,0,.79-.1.79-.68V83.68c0-1.3,0-3.26-.06-3.48-.06-.43-.22-.56-.7-.56h-.6c-.06,0-.09,0-.09-.11v-.41c0-.08,0-.11.09-.11.35,0,.92.06,2.22,0h.44l5,0H201a.12.12,0,0,1,.13.09c.06.21.66,2.36.72,2.52s0,.14,0,.18l-.29.12c-.05,0-.09,0-.14-.08a14.87,14.87,0,0,0-1.74-1.77,2.68,2.68,0,0,0-1.2-.41L196,79.6l0,4.57a17.13,17.13,0,0,0,1.8-.08.88.88,0,0,0,.73-.57,2.58,2.58,0,0,0,.25-.89.12.12,0,0,1,.13-.12l.41,0c.06,0,.11,0,.1.13s0,1.3,0,1.71c0,.63.07,1.39.1,1.74,0,.08,0,.09-.13.11l-.35.06c-.06,0-.09,0-.12-.11a8.15,8.15,0,0,0-.26-.79,1,1,0,0,0-.79-.57c-.57-.06-1.33-.1-1.83-.1Z"/><path d="M213.07,84.76c-.17,0-.22.06-.22.2v.68c0,.57,0,2.41.06,3.5,0,.38.2.54.54.54H214c.13,0,.16,0,.16.11v.37c0,.09,0,.15-.16.15-.28,0-.82,0-2.12,0-1.55,0-2,0-2.34,0-.13,0-.16-.06-.16-.14v-.36c0-.1,0-.13.16-.13h.82c.38,0,.45-.38.45-.74,0-.76,0-2.57,0-3.58v-2c0-.47,0-2.44,0-2.68,0-.78-.1-1-.61-1h-.69c-.13,0-.16-.06-.16-.14v-.33a.15.15,0,0,1,.16-.16c.28,0,.79,0,2.34,0s2,0,2.28,0c.13,0,.16.06.16.14v.33c0,.1,0,.16-.16.16h-.57c-.57,0-.63.26-.65.87,0,.22-.08,2.32-.08,2.73v.63c0,.16.05.22.19.22h5.23c.25,0,.31,0,.31-.22v-.48c0-.56-.06-2.78-.08-3,0-.5-.07-.79-.42-.79h-.73c-.11,0-.13,0-.13-.14v-.36c0-.08,0-.13.13-.13.28,0,1,0,2.25,0s1.83,0,2.09,0,.19.06.19.14v.33c0,.1,0,.16-.19.16h-.58c-.47,0-.5.26-.5.81,0,.22,0,2.38,0,2.88V85c0,.7,0,2.95,0,3.85,0,.57.16.79.63.79h.64c.09,0,.12,0,.12.11v.37c0,.09,0,.15-.15.15s-.8,0-2.16,0-2,0-2.44,0a.13.13,0,0,1-.12-.14v-.36c0-.08,0-.13.12-.13h.86c.38,0,.39-.29.41-.71,0-.76.06-3.3.06-3.58V85c0-.15-.12-.19-.34-.19Z"/><path d="M233,80.08a5.9,5.9,0,0,1,2.15,4.69A5.5,5.5,0,0,1,234,88.26a5.61,5.61,0,0,1-4.75,2.24,7.28,7.28,0,0,1-3.58-1,5.56,5.56,0,0,1-2.31-4.69,6.31,6.31,0,0,1,1.46-3.93,5.43,5.43,0,0,1,4.46-2A5.62,5.62,0,0,1,233,80.08Zm-6.08.32a5.69,5.69,0,0,0-1.42,3.83c0,4.12,2.53,5.58,3.86,5.58,3.2,0,3.7-3.55,3.7-4.88,0-3.45-2.34-5.41-3.86-5.41A2.73,2.73,0,0,0,226.91,80.4Z"/><path d="M246.23,87s0,.07,0,.16-.7,2.73-.79,3.15l-6.59,0c-1.42,0-2,0-2.18,0s-.13,0-.13-.14v-.36c0-.1,0-.13.09-.13h.64c.57,0,.66-.22.66-.43S238,85,238,84.06v-.89c0-1,0-2.69-.07-3s-.09-.57-.5-.57h-.67a.14.14,0,0,1-.13-.14v-.36c0-.1,0-.13.13-.13s.73,0,2.19,0c1.71,0,2.37,0,2.5,0s.16.06.16.14v.37c0,.06,0,.12-.16.12h-.86c-.48,0-.53.16-.53.59,0,.22-.07,2.6-.07,3.7V85.3c0,.28,0,3.7.07,4.38H241c.89,0,2,0,2.66-.08.89-.13,1.9-2,2.13-2.63.06-.06.09-.09.18-.06Z"/><path d="M248.82,83c0-.41-.06-2.66-.09-2.9s-.25-.44-.57-.44h-.86a.11.11,0,0,1-.12-.11V79.1c0-.06.06-.09.14-.09.46,0,1.28,0,2.39,0,.79,0,1.58,0,2.38,0,2.12,0,3.83.2,5.28,1.44a5,5,0,0,1,1.78,4,5.63,5.63,0,0,1-1.55,4.15c-1.56,1.68-4,1.69-5.1,1.69-.6,0-2.22,0-3,0-1.39,0-2,0-2.25,0-.06,0-.09,0-.09-.14v-.39c0-.07,0-.1.12-.1h.92c.32,0,.48-.13.52-.39s.11-3.9.11-5.1Zm2,1.55c0,.19,0,2.89,0,3.87a1.37,1.37,0,0,0,.29.89,1.81,1.81,0,0,0,1.39.42,4.14,4.14,0,0,0,3.29-1.6A5.93,5.93,0,0,0,257,84.5a5.62,5.62,0,0,0-1.27-3.45,5,5,0,0,0-3.55-1.49,2,2,0,0,0-1,.16c-.23.13-.29.38-.29.7,0,.66,0,2.72,0,3Z"/><path d="M263.74,85.14c0,.16,0,3.8,0,4,0,.51.26.57.63.57h.67a.12.12,0,0,1,.13.11v.4c0,.09-.07.12-.16.12s-.82,0-2.31,0-2.28,0-2.44,0-.13,0-.13-.11v-.42c0-.07,0-.1.13-.1h.63c.32,0,.67,0,.73-.46,0-.22.06-3.64.06-4.5v-1.1c0-.38,0-3.24,0-3.44-.05-.38-.21-.54-.65-.54h-.83c-.09,0-.12,0-.12-.11v-.41c0-.08,0-.11.09-.11s1,0,2.57,0,2,0,2.25,0,.12.06.12.14v.37a.11.11,0,0,1-.12.12h-.61c-.34,0-.6.13-.6.43s0,3.64,0,3.83Z"/><path d="M269.2,83.11c0,2.69.13,4.91.16,5.4,0,.79.22,1.17.79,1.17h.41c.13,0,.13.06.13.14v.37c0,.09,0,.12-.13.12s-1.1,0-1.71,0c-.41,0-1.48,0-1.64,0s-.1,0-.1-.14v-.39a.1.1,0,0,1,.1-.1h.54c.41,0,.63-.35.71-1.31,0-.29.11-2.51.11-5v-2c0-.95-.54-1.68-1.23-1.68h-.51c-.07,0-.1,0-.1-.11V79.1c0-.06,0-.09.1-.09l.49,0c.28,0,.71,0,1.41,0a6.81,6.81,0,0,0,.7,0h.44a.49.49,0,0,1,.38.14c.16.16,3.26,4,3.58,4.5.22.25,2.69,3.32,2.94,3.64h.06V85.64c0-1.39,0-2.18,0-3,0-.61-.09-2.16-.17-2.43a.86.86,0,0,0-.84-.6h-.51c-.09,0-.09-.06-.09-.14v-.36c0-.1,0-.13.12-.13s.7,0,1.78,0,1.33,0,1.52,0,.16.06.16.11v.36c0,.1,0,.16-.1.16h-.44c-.32,0-.48.26-.52.84-.08,1.08-.24,3.74-.24,5.35V90c0,.22,0,.45-.19.45a.77.77,0,0,1-.54-.26l-2-2.31c-1.1-1.36-2.34-2.85-2.53-3.1s-2.75-3.39-2.94-3.61h-.1Z"/><path d="M290.83,88.7c0,.22.06.38.06.51s-.09.18-.25.25a9.24,9.24,0,0,1-4.5,1,6.12,6.12,0,0,1-4.56-1.83,6,6,0,0,1-1.45-4.31,5.34,5.34,0,0,1,1.8-4,6.48,6.48,0,0,1,4.5-1.55,5.85,5.85,0,0,1,3.23.85c.19.15.28.1.38,0l.19-.25c.08-.11.13-.16.22-.16s.19.1.19.22l.16,3.17c0,.13,0,.21-.06.22l-.38.06c-.1,0-.13,0-.16-.12a6.32,6.32,0,0,0-1.27-2.19,3.57,3.57,0,0,0-2.63-1.11,3.26,3.26,0,0,0-2.69,1.24,5.52,5.52,0,0,0-1.3,3.58,6.27,6.27,0,0,0,1.43,4.4,3.46,3.46,0,0,0,2.53,1.08,4.26,4.26,0,0,0,2.15-.42c.35-.19.38-.63.38-1.45V86.75c0-.57-.16-.73-.57-.73h-.66c-.1,0-.13-.06-.13-.14v-.37c0-.09,0-.12.1-.12s.95,0,2.25,0,1.86,0,2,0,.16,0,.16.11v.4c0,.09,0,.12-.13.12h-.53c-.29,0-.48.13-.48.59Z"/><path d="M294.11,86.74c.06,0,.1,0,.1.12a3.56,3.56,0,0,0,.59,1.81,2.49,2.49,0,0,0,2.09,1.14A1.94,1.94,0,0,0,299,88c0-1.46-.66-1.94-2.34-2.57a7.4,7.4,0,0,1-2.31-1.33,3,3,0,0,1-.79-2.26,2.68,2.68,0,0,1,1.1-2.22,3.24,3.24,0,0,1,2.25-.76,5,5,0,0,1,2,.38.27.27,0,0,0,.33,0l.21-.2a.26.26,0,0,1,.22-.1c.09,0,.13.1.13.25s.25,2.47.25,2.63a.1.1,0,0,1-.1.11l-.25.08a.12.12,0,0,1-.16-.09,4.5,4.5,0,0,0-1-1.68,2.1,2.1,0,0,0-1.65-.67,1.69,1.69,0,0,0-1.77,1.6,1.9,1.9,0,0,0,.45,1.43,5.17,5.17,0,0,0,1.93,1,5,5,0,0,1,2.28,1.23,3.09,3.09,0,0,1,.79,2.27,3.3,3.3,0,0,1-3.36,3.51,4.09,4.09,0,0,1-2.69-.76c-.19-.12-.28-.19-.38-.19s-.16.13-.26.29-.16.19-.28.19-.19-.09-.19-.25.25-2.76.28-3,0-.13.1-.13Z"/><path d="M106.6,17.93h12.59L130.26,54.1l12-36.32h10.08l12,36.32,11.07-36.17h12.28L169.41,71.74H159.18l-12.05-35-12.06,35H124.84Z"/><path d="M196.35,17.93h11.76V39.07h21.63V17.93H241.5V71.35H229.74V49.91H208.11V71.35H196.35Z"/><path d="M251.29,17.93h20.83a31.73,31.73,0,0,1,11.49,2,27.16,27.16,0,0,1,9,5.61A25.22,25.22,0,0,1,298.46,34a26.56,26.56,0,0,1,2.06,10.49v.15a26.83,26.83,0,0,1-2.06,10.53,25,25,0,0,1-5.84,8.47,27.41,27.41,0,0,1-9,5.65,31.11,31.11,0,0,1-11.49,2.06H251.29Zm20.84,42.81a18.22,18.22,0,0,0,6.56-1.14,14.28,14.28,0,0,0,5.07-3.28,15.52,15.52,0,0,0,3.28-5,17.21,17.21,0,0,0,1.18-6.49v-.15A17.53,17.53,0,0,0,287,38.16,15.26,15.26,0,0,0,283.76,33a14.65,14.65,0,0,0-5.07-3.32,17.6,17.6,0,0,0-6.56-1.18h-9.08v32.2Z"/><path class="cls-1" d="M3,40.73s10.78,15.75,25.5,23.75c12.54,6.82,18.15,8.19,21.11,14.08A17.05,17.05,0,0,1,51.55,88.7s-1.78-8.06-14.1-11.07C23,74.09,12.33,71.08,7,60.82,1.24,49.84,3,40.73,3,40.73Z"/><path class="cls-1" d="M8.48,71.39A45.52,45.52,0,0,0,31.62,80C45.72,81.24,49,89.17,49,89.17s-4.6-3.85-16.9-1.92C9.89,90.72,8.48,71.39,8.48,71.39Z"/><path class="cls-1" d="M55.43,69.25s-1.63-6.49-17.73-17C17.63,39.06.49,0,.49,0A63.24,63.24,0,0,0,5,32.46c6.64,15.74,21.18,28,35,33.82C56,73,55,90.58,55,90.58l4.21-12.49V55.62Z"/><path class="cls-2" d="M92,43.24S88,52.85,81.23,59.42c-7.4,7.21-11.34,9.64-13.72,15.67S65.77,85,65.77,85,67.36,77,76,70.86c7.77-5.5,12.34-9,14.43-15.74A33.46,33.46,0,0,0,92,43.24Z"/><path class="cls-2" d="M89.83,61.61a30.43,30.43,0,0,1-10.45,9.65,25.24,25.24,0,0,0-11.54,13A22.16,22.16,0,0,1,79,76.77C89.12,73.62,89.83,61.61,89.83,61.61Z"/><path class="cls-2" d="M62.72,68.21S68.35,60.63,76.87,51C87.58,39,93.22,20.28,93.22,20.28a59,59,0,0,1-1.8,18.06c-2.56,9.28-9,18-16.82,24C62.12,72,62.74,88.44,62.74,88.44L59.18,78.09V55.62Z"/></g></g></svg>