<svg xmlns="http://www.w3.org/2000/svg" width="158.476" height="158.476" viewBox="0 0 158.476 158.476">
  <path id="Icon_awesome-youtube-square" data-name="Icon awesome-youtube-square" d="M66.079,62.421,99.755,81.559,66.079,100.7Zm92.4-43.192V143.747a16.984,16.984,0,0,1-16.98,16.98H16.98A16.984,16.984,0,0,1,0,143.747V19.23A16.984,16.984,0,0,1,16.98,2.25H141.5A16.984,16.984,0,0,1,158.476,19.23ZM143.619,81.594s0-21.083-2.688-31.2a16.146,16.146,0,0,0-11.39-11.461c-10.011-2.724-50.3-2.724-50.3-2.724s-40.291,0-50.3,2.724a16.146,16.146,0,0,0-11.39,11.461c-2.688,10.082-2.688,31.2-2.688,31.2s0,21.083,2.688,31.2a15.914,15.914,0,0,0,11.39,11.284c10.011,2.688,50.3,2.688,50.3,2.688s40.291,0,50.3-2.724a15.914,15.914,0,0,0,11.39-11.284c2.688-10.082,2.688-31.165,2.688-31.165Z" transform="translate(0 -2.25)" fill="#fff"/>
</svg>
